<svg xmlns="http://www.w3.org/2000/svg" width="296.111" height="263.658" viewBox="0 0 296.111 263.658">
  <defs>
    <style>
      .cls-1 {
        fill: none;
      }
    </style>
  </defs>
  <g id="enterprise" transform="translate(-187 374.658)">
    <path id="Path_1" data-name="Path 1" d="M276.2-371.4c-.2,6.8-.4,7.2-2.7,7.8-2.4.6-2.5,1-2.5,8,0,5.3-.4,7.7-1.5,8.6a4.121,4.121,0,0,0-1.5,2.3c0,3.6-3.6,8.6-7.6,10.6L256-332v7.8c0,7.4-.1,7.9-2.5,9L251-314v16.9c0,16-.1,17.1-2,18.1-1.8,1-2,2.1-2,11,0,11.8,1.5,11.1-16.2,7.5-6.8-1.4-12.6-2.5-13-2.5-.5,0-.8-2.5-.8-5.5s-.1-5.5-.3-5.5-5.7,2-12.2,4.4c-12.5,4.5-13.3,5.2-13.4,11.3-.1,2.1-.8,3.7-2.1,4.5-2,1.3-2,2.4-2,72V-111H413v-13.5c0-10.1-.3-13.5-1.2-13.5s-.8-.4.2-1c1.3-.9,1.3-1.1,0-2-1.2-.8-1.3-1.1-.1-1.9,1-.6,1-1,.1-1.6s-.9-1,.1-1.6c1.2-.8,1.1-1.1-.1-1.9-1-.6-1.1-1-.2-1a1.2,1.2,0,0,0,1.2-1c0-.6-.9-1-2-1s-2-.5-2-1.1.9-.8,2-.4c1.1.3,2,.2,2-.3s-4.4-2-9.7-3.2c-5.4-1.3-9.3-2.5-8.7-2.7s5,.5,9.8,1.6c4.7,1,8.6,1.5,8.6,1.1,0-1-.9-1.3-11.5-3.6-4.4-1-7.3-2-6.4-2.1.9-.2,4.7.3,8.3,1.2,7.6,1.7,10.5,1.9,9.1.6a56.724,56.724,0,0,0-10-2.7c-4.9-1-8.2-2-7.2-2.2.9-.2,4.9.4,8.7,1.2,7.9,1.8,9,1.9,9,.8,0-.5-4.1-1.6-9-2.7-5-1-9.3-2.2-9.6-2.7s.5-.6,1.8-.4c18.3,4.1,16.8,3.9,16.8,2.7,0-.4-2.6-1.4-5.7-2-8-1.6-13.6-3.2-13-3.7.4-.4,4.5.3,16.5,3.1,1.2.3,2.2.1,2.2-.4s-4.4-1.9-9.7-3.2c-5.4-1.2-9.3-2.4-8.7-2.6s5,.5,9.8,1.6c4.7,1,8.6,1.5,8.6,1,0-.9-3.7-2-13.5-4-3.3-.6-5.4-1.4-4.7-1.6.7-.3,4.6.3,8.8,1.2,4.1.9,8,1.4,8.7,1.2,1.7-.6.4-1-13.8-4.2-6.6-1.5-12.6-2.9-13.2-3.1-1-.2-1.3-4.1-1.3-15v-14.7l-11.7.7c-6.5.4-14.2.9-17,1.3l-5.3.6v4.4c0,3.7-.3,4.4-1.6,3.9a10.947,10.947,0,0,0-2.5-.6c-.5,0-.9-1.2-.9-2.6,0-2.1.4-2.5,2-2.1,1.1.3,2,.1,2-.4s-.9-.9-2-.9c-3.1,0-2.8-5,.3-5.1h2.2l-2.2-.9a3.454,3.454,0,0,1-2.3-3.4c0-2,.4-2.3,2.3-2l2.2.5-2.2-1.2c-3.1-1.6-3.3-6.4-.3-5.6,1.1.3,2,.1,2-.4s-.9-.9-2-.9c-3,0-2.8-4.7.3-5.3l2.2-.4-2.2-.2c-1.7-.1-2.3-.7-2.3-2.6s.5-2.5,2.3-2.6h2.2l-2.2-1.1a3.769,3.769,0,0,1-2.3-3.5c0-2,.4-2.3,2.1-1.8,1.5.5,1.9.4,1.5-.4a2.951,2.951,0,0,0-2.2-1.1c-.8,0-1.4-1-1.4-2.6,0-2.1.4-2.5,2-2.1,1.1.3,2,.1,2-.4s-.9-.9-2-.9c-1.5,0-2-.7-2-2.6,0-2.1.3-2.4,2.1-1.9,1.5.5,1.9.4,1.5-.4a2.951,2.951,0,0,0-2.2-1.1c-.8,0-1.4-.4-1.4-.9,0-.4-1.1-.6-2.5-.3-1.4.2-2.5,0-2.5-.6s-.8-.8-1.9-.5a2.283,2.283,0,0,1-2.5-.6,2.22,2.22,0,0,0-2.3-.4,2.548,2.548,0,0,1-2.9-1.2c-.9-1.2-1.4-1.4-1.4-.6,0,.9-.6,1.1-1.7.6a32.516,32.516,0,0,0-4.3-1.2,5.663,5.663,0,0,1-3.2-1.6c-.6-.9-.8-.9-.8,0,0,.6-.9.9-2,.6s-2-1-2-1.5-1.5-.6-3.5-.2c-3.3.6-5.1-.8-2.2-1.9,1-.4,1-.7,0-1.8-.9-.9-1.3-5.4-1.3-15.1V-299l-2.5-.6c-2-.5-2.5-1.3-2.6-3.8-.1-1.7-.4-8.2-.8-14.5l-.6-11.4-6-2.1-6-2.2.2-4.1c.1-3.4-.2-4.2-2.2-5.1-2.3-1.1-2.4-1.7-2.7-10.3-.2-6.1-.7-9.4-1.5-9.6-.8-.3-1.3,1.3-1.6,4.9l-.3,5.3-.2-5.8c-.2-4.3-.6-5.7-1.7-5.7s-1.6,1.3-1.7,4.7c-.1,2.7-.5-.6-.8-7.2C276.5-375.7,276.4-376.8,276.2-371.4Zm1.5,23.6c-.3.7-.5.2-.5-1.2s.2-1.9.5-1.3A5.279,5.279,0,0,1,277.7-347.8Zm4,1.5c-.3,1-.5.2-.5-1.7s.2-2.7.5-1.8A10.28,10.28,0,0,1,281.7-346.3Zm-4,7c-.3,1-.5.4-.5-1.2,0-1.7.2-2.4.5-1.8A7.557,7.557,0,0,1,277.7-339.3Zm4,2c-.3,1-.5.2-.5-1.7s.2-2.7.5-1.8A10.28,10.28,0,0,1,281.7-337.3Zm5.3-.1c0,1.3-.4,2.4-1,2.4-.5,0-1-1.4-1-3.1s.4-2.8,1-2.4C286.6-340.2,287-338.8,287-337.4Zm3,7.1c10.6,3.6,11,3.9,11,6.6,0,2.4-.3,2.8-1.7,2.2-1-.3-6.4-2.2-12-4.2-9.2-3.2-10.3-3.8-10.3-5.9,0-1.3.5-2.4,1-2.4C278.6-334,284-332.3,290-330.3Zm-9,13.7c0,7.9-.1,8.4-2,7.9-1.8-.5-2-1.4-2-8.4,0-7.2.2-7.9,2-7.9S281-324.3,281-316.6Zm5,1.7c0,6.4-.3,7.9-1.5,7.9s-1.5-1.6-1.5-8.5c0-7.1.2-8.3,1.5-7.9C285.7-322.9,286-321,286-314.9Zm4.8,1.7c.2,6.8,0,8.2-1.3,8.2-1.2,0-1.5-1.5-1.5-8.6,0-6.4.3-8.5,1.3-8.2C290.1-321.5,290.6-318.6,290.8-313.2Zm5.2,1.8c0,6.4-.3,8.5-1.2,8.2s-1.4-3.2-1.6-8.6c-.2-6.8,0-8.2,1.3-8.2C295.7-320,296-318.5,296-311.4Zm5,1.4c0,6.4-.3,8-1.5,8s-1.5-1.6-1.5-8,.3-8,1.5-8S301-316.4,301-310Zm-21.6,3.6a3.091,3.091,0,0,1,1.6,2.9c0,1.8-.4,2.2-2,1.8a2.685,2.685,0,0,1-2-2.9C277-307.2,277.1-307.3,279.4-306.4Zm6.4,4.2c.2,1.5-.2,2.2-1.2,2.2-1.1,0-1.6-.9-1.6-2.6C283-305.7,285.3-305.4,285.8-302.2Zm5.2,1.7c0,1.6-.6,2.5-1.5,2.5s-1.5-.9-1.5-2.5.6-2.5,1.5-2.5S291-302.1,291-300.5Zm5,2.2c0,3.3-2.4,2.5-2.8-1-.3-2.1,0-2.6,1.2-2.1C295.3-301.1,296-299.7,296-298.3Zm-16.6-1.1c.9.3,1.6,1.7,1.6,3.1,0,1.9-.4,2.4-1.6,1.9a15.629,15.629,0,0,0-2-.6c-.2,0-.4-1.1-.4-2.5C277-300.2,277.1-300.3,279.4-299.4Zm21.4,2.7c.3,2.1,0,2.6-1.2,2.1-1.9-.7-2.2-5.8-.3-5.2C299.9-299.5,300.6-298.1,300.8-296.7Zm-15,1.5c.2,1.5-.2,2.2-1.2,2.2-1.1,0-1.6-.9-1.6-2.6C283-298.7,285.3-298.4,285.8-295.2Zm20.2-.3c0,1.6-.6,2.5-1.5,2.5s-1.5-.9-1.5-2.5.6-2.5,1.5-2.5S306-297.1,306-295.5Zm-15,2c0,1.6-.6,2.5-1.5,2.5s-1.5-.9-1.5-2.5.6-2.5,1.5-2.5S291-295.1,291-293.5Zm5,2.2c0,3.3-2.4,2.5-2.8-1-.3-2.1,0-2.6,1.2-2.1C295.3-294.1,296-292.7,296-291.3Zm-16.6-1.1a2.836,2.836,0,0,1,1.6,2.6c0,1.4-.5,1.8-1.6,1.4a15.629,15.629,0,0,0-2-.6c-.2,0-.4-.9-.4-2C277-293.2,277.1-293.3,279.4-292.4Zm21.4,2.7c.3,2.1,0,2.6-1.2,2.1-1.9-.7-2.2-5.8-.3-5.2C299.9-292.5,300.6-291.1,300.8-289.7Zm-15,1c.2,1-.3,1.7-1.2,1.7-1,0-1.6-.9-1.6-2.1C283-291.5,285.3-291.2,285.8-288.7Zm20.2.2c0,1.6-.6,2.5-1.5,2.5s-1.5-.9-1.5-2.5.6-2.5,1.5-2.5S306-290.1,306-288.5ZM291-287c0,1.1-.7,2-1.5,2s-1.5-.9-1.5-2,.7-2,1.5-2S291-288.1,291-287Zm5,2.1c0,2.4-2.3,2.1-2.8-.4-.2-1,.3-1.7,1.2-1.7C295.4-287,296-286.1,296-284.9Zm-15,2c0,2.4-.3,3-1.6,2.5a15.629,15.629,0,0,0-2-.6c-.2,0-.4-1.1-.4-2.5,0-1.8.5-2.5,2-2.5C280.6-286,281-285.3,281-282.9Zm19.8-.3c.3,1.6-.1,2-1.2,1.6-1.9-.7-2.2-4.8-.3-4.2A3.849,3.849,0,0,1,300.8-283.2Zm-15,1.5c.2,1.9-.1,2.7-1.2,2.7s-1.6-1-1.6-3.1C283-285.9,285.4-285.6,285.8-281.7Zm20,0c.2,1-.3,1.7-1.2,1.7-1,0-1.6-.9-1.6-2.1C303-284.5,305.3-284.2,305.8-281.7Zm-15,2c.2,1.9-.1,2.7-1.2,2.7s-1.6-1-1.6-3.1C288-283.9,290.4-283.6,290.8-279.7Zm5.2,1.8c0,3.8-2.4,3.5-2.8-.4-.2-1.9.1-2.7,1.2-2.7S296-280,296-277.9Zm5,2c0,2.1-.4,2.7-1.5,2.3-.8-.4-1.5-1.9-1.5-3.5,0-2.1.4-2.7,1.5-2.3C300.3-279,301-277.5,301-275.9Zm-20.2.3c.3,2.3,0,2.8-1.3,2.2a15.441,15.441,0,0,0-2.1-.6c-.2,0-.4-1.2-.4-2.6C277-280.3,280.4-279.4,280.8-275.6Zm25,.9c.2,1.9-.1,2.7-1.2,2.7s-1.6-1-1.6-3.1C303-278.9,305.4-278.6,305.8-274.7Zm-20,.5c.2,1.5-.2,2.2-1.2,2.2-1.1,0-1.6-.9-1.6-2.6C283-277.7,285.3-277.4,285.8-274.2Zm5.2,1.7c0,1.6-.6,2.5-1.5,2.5s-1.5-.9-1.5-2.5.6-2.5,1.5-2.5S291-274.1,291-272.5Zm5,2.1c0,3.1-2.3,2.8-2.8-.4-.2-1.5.2-2.2,1.2-2.2C295.5-273,296-272.1,296-270.4Zm-16.6-1c1,.4,1.6,1.8,1.6,3.6,0,2.3-.4,2.9-1.6,2.4a15.629,15.629,0,0,0-2-.6c-.2,0-.4-1.4-.4-3C277-272.2,277.1-272.3,279.4-271.4Zm21.4,2.7c.3,2.1,0,2.6-1.2,2.1-1.9-.7-2.2-5.8-.3-5.2C299.9-271.5,300.6-270.1,300.8-268.7Zm-15,2.6c.3,2.4,0,3.2-1,2.9-.7-.3-1.4-1.9-1.6-3.7-.3-2.4,0-3.2,1-2.9C284.9-269.5,285.6-267.9,285.8-266.1Zm20.2-1.4c0,1.6-.6,2.5-1.5,2.5s-1.5-.9-1.5-2.5.6-2.5,1.5-2.5S306-269.1,306-267.5ZM291-265q0,3-1.5,3t-1.5-3q0-3,1.5-3T291-265Zm4.8.8c-.5,2.7-2.8,2.6-2.8-.2,0-1.9.4-2.4,1.5-1.9A1.859,1.859,0,0,1,295.8-264.2Zm4.2-.4c0,.3-.4.8-1,1.1-.5.3-1,.1-1-.4a1.1,1.1,0,0,1,1-1.1C299.6-265,300-264.8,300-264.6Zm-19,4.8c0,2.3-.4,2.9-1.7,2.6-1.9-.3-2.8-3-1.9-5.3C278.3-265,281-263,281-259.8Zm36.4-3.6a3.091,3.091,0,0,1,1.6,2.9c0,1.8-.4,2.2-2,1.8a2.685,2.685,0,0,1-2-2.9C315-264.2,315.1-264.3,317.4-263.4Zm6.6,4c0,2.6-.1,2.7-2.4,1.8-1.6-.6-2.2-3.5-1-4.7S324-261.7,324-259.4Zm-38,1.5c0,2.1-.4,2.7-1.5,2.3-.8-.4-1.5-1.9-1.5-3.5,0-2.1.4-2.7,1.5-2.3C285.3-261,286-259.5,286-257.9Zm43-.5c0,3.3-3.3,3-3.8-.4-.3-1.7.2-2.2,1.7-2.2C328.5-261,329-260.4,329-258.4Zm-98.9.9c15.9,3.2,17.2,3.5,16.7,4.1-.5.4-28.9-5.4-29.7-6.1C216.4-260.2,216.9-260.2,230.1-257.5Zm60.7.8c.2,1.9-.1,2.7-1.2,2.7s-1.6-1-1.6-3.1C288-260.9,290.4-260.6,290.8-256.7Zm43.2-.7c0,3.3-3.3,3-3.8-.4-.3-1.7.2-2.2,1.7-2.2C333.5-260,334-259.4,334-257.4Zm5,1c0,3.3-3.3,3-3.8-.4-.3-1.7.2-2.2,1.7-2.2C338.5-259,339-258.4,339-256.4Zm-20.1-.6c.5,0,.6,1.1.3,2.5-.6,3.6-3.6,2.9-4-.9-.3-2.3,0-2.8,1.3-2.2A11.707,11.707,0,0,0,318.9-257Zm24.9,1.8c.3,1.7-.2,2.2-1.7,2.2-1.6,0-2.1-.6-2.1-2.6C340-258.9,343.3-258.6,343.8-255.2Zm-109.9,2.7c6.8,1.4,12.6,2.5,12.9,2.5s.3.3-.1.6c-.8.8-26.9-4.6-28.2-5.8-.7-.7-.3-.8,1-.4C220.6-255.3,227.1-253.9,233.9-252.5Zm90.1-.9c0,3.3-3.3,3-3.8-.4-.3-1.7.2-2.2,1.7-2.2C323.5-256,324-255.4,324-253.4Zm-43,1.3c0,2.4-.3,2.8-2,2.4a2.685,2.685,0,0,1-2-2.9c0-1.7.6-2.4,2-2.4C280.5-255,281-254.3,281-252.1Zm48-.3c0,3.3-3.3,3-3.8-.4-.3-1.7.2-2.2,1.7-2.2C328.5-255,329-254.4,329-252.4Zm-43.2,1.7c.2,1.9-.1,2.7-1.2,2.7s-1.6-1-1.6-3.1C283-254.9,285.4-254.6,285.8-250.7Zm48.2-.8c0,1.8-.5,2.5-2,2.5s-2-.7-2-2.5.5-2.5,2-2.5S334-253.3,334-251.5Zm5,1c0,1.8-.5,2.5-2,2.5s-2-.7-2-2.5.5-2.5,2-2.5S339-252.3,339-250.5Zm-98.6,3.6c3.8.7,6.4,1.5,5.8,1.7s-6.9-.8-14.1-2.2c-7.1-1.4-13.2-2.6-13.5-2.6s-.6-.4-.6-.9,3.5-.1,7.8.9C230-249,236.6-247.6,240.4-246.9ZM291-249c0,2.2-.4,2.8-1.5,2.4a3.534,3.534,0,0,1-1.5-3c0-1.5.6-2.4,1.5-2.4Q291-252,291-249Zm53-.1c0,2.4-.3,2.8-2,2.4a2.685,2.685,0,0,1-2-2.9c0-1.7.6-2.4,2-2.4C343.5-252,344-251.3,344-249.1Zm-21.4-.9c.8,0,1.4,1,1.4,2.5,0,3.2-2.7,3.3-4,.2-.7-1.7-.9-1.8-.9-.5A1.934,1.934,0,0,1,317-246c-1.5,0-2-.7-2-2.6,0-2.4.3-2.6,3.1-2A40.411,40.411,0,0,0,322.6-250Zm6.4,3.9c0,2.4-.3,2.8-2,2.4a2.685,2.685,0,0,1-2-2.9c0-1.7.6-2.4,2-2.4C328.5-249,329-248.3,329-246.1Zm-49.6-1.3c1.1.4,1.6,1.9,1.6,4.6,0,3.3-.3,3.9-1.6,3.4a15.633,15.633,0,0,0-2-.6c-.2,0-.4-1.8-.4-4C277-248.3,277-248.3,279.4-247.4Zm54.6,2.3c0,2.4-.3,2.8-2,2.4a2.685,2.685,0,0,1-2-2.9c0-1.7.6-2.4,2-2.4C333.5-248,334-247.3,334-245.1Zm-99.7,1.2c6.4,1.3,11.7,2.6,11.7,3,0,.6-26.4-4.6-28.5-5.6C216-247.2,221-246.5,234.3-243.9Zm104.5.1c.3,2.2,0,2.6-1.7,2.1a2.777,2.777,0,0,1-2.1-3C335-248.2,338.4-247.4,338.8-243.8ZM286-242c0,2.9-.4,4-1.5,4s-1.5-1.1-1.5-4,.4-4,1.5-4S286-244.9,286-242Zm57.8-.6c.3,2.3,0,2.8-1.3,2.2a15.444,15.444,0,0,0-2.1-.6c-.2,0-.4-1.2-.4-2.6C340-247.3,343.4-246.4,343.8-242.6ZM291-240.4c0,2.4-.5,3.4-1.5,3.4-1.1,0-1.5-1.1-1.5-4,0-3.1.3-3.8,1.5-3.4C290.4-244,291-242.5,291-240.4Zm27.4-3.7c.3.5,1.5.7,2.6.4a1.963,1.963,0,0,1,2.6,1.2c.5,1.1.9,1.3,1.4.5,1.1-1.8,4,0,4,2.6,0,2.8-1.2,3.1-3.4.8-.9-.8-1.6-1.1-1.6-.5,0,.7-.8.7-2.7,0a30.025,30.025,0,0,0-3-1c-2.1.6-3.3-.3-3.3-2.4C315-245,317.3-246,318.4-244.1Zm-88.3,3.6c15.8,3.2,17.2,3.5,16.7,4s-29-5.3-29.7-6S216.8-243.2,230.1-240.5Zm102.3-.9c.9.3,1.6,1.7,1.6,3.1,0,1.9-.4,2.4-1.6,1.9a15.633,15.633,0,0,0-2-.6c-.2,0-.4-1.1-.4-2.5C330-242.2,330.1-242.3,332.4-241.4Zm6.6,4c0,1.5-.6,2.4-1.5,2.4-1.8,0-3-2.4-2.1-4.5C336.2-241.7,339-240.1,339-237.4Zm-105.1,1.9c11,2.2,15.5,3.5,12.4,3.5-3,0-27-5.3-27.8-6.2-.7-.7-.4-.8,1-.4C220.6-238.3,227.1-236.9,233.9-235.5Zm83.5-2.9c.9.3,1.6,1.7,1.6,3.1,0,1.9-.4,2.4-1.6,1.9a15.633,15.633,0,0,0-2-.6c-.2,0-.4-1.1-.4-2.5C315-239.2,315.1-239.3,317.4-238.4Zm26.6,2c0,3.3-3.3,3-3.8-.4-.3-1.7.2-2.2,1.7-2.2C343.5-239,344-238.4,344-236.4Zm-63,1.5a1.852,1.852,0,0,1-3.5.9,3.075,3.075,0,0,1-.1-2.5C278.1-238.5,281-237.2,281-234.9Zm43,.5c0,1.5-.6,2.4-1.5,2.4-1.8,0-3-2.4-2.1-4.5C321.2-238.7,324-237.1,324-234.4Zm-38,1c0,3.1-2.3,2.8-2.8-.4-.2-1.5.2-2.2,1.2-2.2C285.5-236,286-235.1,286-233.4Zm43,0c0,3.3-3.3,3-3.8-.4-.3-1.7.2-2.2,1.7-2.2C328.5-236,329-235.4,329-233.4Zm-38.2,1.3c.3,1.6-.1,2.2-1,1.9a3.513,3.513,0,0,1-1.6-2.7c-.3-1.6.1-2.2,1-1.9A3.513,3.513,0,0,1,290.8-232.1Zm43.2-.3c0,3.3-3.3,3-3.8-.4-.3-1.7.2-2.2,1.7-2.2C333.5-235,334-234.4,334-232.4Zm-100,1.1c7.4,1.5,12.9,2.8,12.3,3-1.1.4-27.5-4.6-28.2-5.3C217.2-234.4,221-233.9,234-231.3Zm105-.2c0,1.8-.5,2.5-2,2.5s-2-.7-2-2.5.5-2.5,2-2.5S339-233.3,339-231.5Zm-15,3.2c0,3-2.8,3-4,0-.7-1.7-.9-1.8-.9-.5A1.934,1.934,0,0,1,317-227c-1.5,0-2-.7-2-2.8v-2.8l4.5,1C323.2-230.7,324-230.1,324-228.3Zm20-2.1c0,3.3-3.3,3-3.8-.4-.3-1.7.2-2.2,1.7-2.2C343.5-233,344-232.4,344-230.4Zm-63.2,2.2c.3,1.9-.1,2.3-1.5,2a3.2,3.2,0,0,1-2.1-2.6c-.3-1.9.1-2.3,1.5-2A3.2,3.2,0,0,1,280.8-228.2ZM234-227.1c7.4,1.6,12.6,2.9,11.4,3-2.2.1-27.6-4.8-28.3-5.5C216.1-230.5,221.3-229.7,234-227.1Zm52,.2a1.79,1.79,0,0,1-1.5,1.9c-.9,0-1.5-.9-1.5-2.5,0-1.8.4-2.3,1.5-1.9A3.033,3.033,0,0,1,286-226.9Zm43-.5c0,3.3-3.3,3-3.8-.4-.3-1.7.2-2.2,1.7-2.2C328.5-230,329-229.4,329-227.4Zm5,.9c0,1.8-.5,2.5-2,2.5s-2-.7-2-2.5.5-2.5,2-2.5S334-228.3,334-226.5Zm-43,1c0,1.8-.4,2.3-1.5,1.9a3.033,3.033,0,0,1-1.5-2.5,1.79,1.79,0,0,1,1.5-1.9C290.4-228,291-227.1,291-225.5Zm48,.4c0,2.4-.3,2.8-2,2.4a2.685,2.685,0,0,1-2-2.9c0-1.7.6-2.4,2-2.4C338.5-228,339-227.3,339-225.1Zm4.8,1.3c.3,2.2,0,2.6-1.7,2.1a2.777,2.777,0,0,1-2.1-3C340-228.2,343.4-227.4,343.8-223.8Zm-112.3.4c14.2,2.8,16,3.3,15.4,3.8-.5.5-29-5.2-29.7-5.9C216.3-226.4,218.2-226.1,231.5-223.4Zm91.1-1.6c.9,0,1.4,1.1,1.4,2.9,0,2.4-.3,2.8-2,2.4a2.908,2.908,0,0,1-2.1-2.7l-.2-2.1-.4,2.1c-.6,3.2-4.3,2-4.3-1.3,0-2.3.3-2.5,3.1-1.9A40.411,40.411,0,0,0,322.6-225ZM281-222a1.8,1.8,0,0,1-2,2,1.8,1.8,0,0,1-2-2,1.8,1.8,0,0,1,2-2A1.8,1.8,0,0,1,281-222Zm47.8,1.2c.3,2.2,0,2.6-1.7,2.1a2.777,2.777,0,0,1-2.1-3C325-225.2,328.4-224.4,328.8-220.8Zm-42.8.4c0,3.1-2.3,2.8-2.8-.4-.2-1.5.2-2.2,1.2-2.2C285.5-223,286-222.1,286-220.4Zm46.4-2c.9.3,1.6,1.7,1.6,3.1,0,1.9-.4,2.4-1.6,1.9a15.633,15.633,0,0,0-2-.6c-.2,0-.4-1.1-.4-2.5C330-223.2,330.1-223.3,332.4-222.4ZM232.1-219c7.8,1.6,14.5,3.3,14.8,3.6.3.4-.5.4-1.9.1s-7.7-1.6-14-2.8a117.29,117.29,0,0,1-13-3C215.7-222.4,216.8-222.2,232.1-219Zm58.7-.2c.2,1.5-.2,2.2-1.2,2.2-1.1,0-1.6-.9-1.6-2.6C288-222.7,290.3-222.4,290.8-219.2Zm46.6-2.2c.9.3,1.6,1.7,1.6,3.1,0,1.9-.4,2.4-1.6,1.9a15.633,15.633,0,0,0-2-.6c-.2,0-.4-1.1-.4-2.5C335-222.2,335.1-222.3,337.4-221.4Zm6.6,4.1c0,3.5-3.4,2.7-3.8-.9-.3-2.2,0-2.6,1.7-2.1A2.777,2.777,0,0,1,344-217.3Zm-25.6-1.2c.8.9,1.7,1.1,2.1.6,1-1.8,3.5.1,3.5,2.6,0,1.8-.4,2.3-1.7,1.9-1-.3-3-.8-4.5-1.2-2.1-.5-2.8-1.2-2.8-3C315-220.4,316.2-220.7,318.4-218.5ZM246.3-212c.6,0,.8.3.5.6-.8.7-28.8-4.8-28.8-5.7,0-.4,6.1.6,13.7,2.2C239.2-213.3,245.8-212,246.3-212Zm34.5-3.2c.2,1.4-.2,2.2-1.2,2.2-1.9,0-2.9-1.7-2.2-3.6C278.2-218.8,280.4-217.8,280.8-215.2Zm5.2,1.3a1.79,1.79,0,0,1-1.5,1.9c-.9,0-1.5-.9-1.5-2.5,0-1.8.4-2.3,1.5-1.9A3.033,3.033,0,0,1,286-213.9Zm43-.5c0,3.3-3.3,3-3.8-.4-.3-1.7.2-2.2,1.7-2.2C328.5-217,329-216.4,329-214.4Zm5,1.1c0,3.5-3.4,2.7-3.8-.9-.3-2.2,0-2.6,1.7-2.1A2.777,2.777,0,0,1,334-213.3Zm-43,.9c0,3.1-2.3,2.8-2.8-.4-.2-1.5.2-2.2,1.2-2.2C290.5-215,291-214.1,291-212.4Zm48,0c0,3.3-3.3,3-3.8-.4-.3-1.7.2-2.2,1.7-2.2C338.5-215,339-214.4,339-212.4Zm-19.7,2c.4,2.1.1,2.5-1.7,2.2-1.4-.2-2.2-1.1-2.4-3-.3-2.2,0-2.6,1.6-2.1A4.111,4.111,0,0,1,319.3-210.4Zm24.7-1.1c0,1.8-.5,2.5-2,2.5s-2-.7-2-2.5.5-2.5,2-2.5S344-213.3,344-211.5ZM234.5-210c7.2,1.5,12,2.9,10.8,2.9-1.9.1-24.4-4.4-26.8-5.4C215.3-213.7,223.3-212.5,234.5-210Zm89.5.5c0,2.8-2.4,3.4-3.4.9-1-2.6-.7-3.4,1.4-3.4C323.5-212,324-211.3,324-209.5Zm-43,1c0,1.8-.5,2.5-2,2.5s-2-.7-2-2.5.5-2.5,2-2.5S281-210.3,281-208.5Zm48,.1c0,3.3-3.3,3-3.8-.4-.3-1.7.2-2.2,1.7-2.2C328.5-211,329-210.4,329-208.4Zm-43.2,1.2c.2,1.5-.2,2.2-1.2,2.2-1.1,0-1.6-.9-1.6-2.6C283-210.7,285.3-210.4,285.8-207.2Zm48.2-.3c0,1.8-.5,2.5-2,2.5s-2-.7-2-2.5.5-2.5,2-2.5S334-209.3,334-207.5Zm-103,1c5.8,1.3,9.8,2.4,8.9,2.4-1.9.1-22.2-3.9-22.8-4.5C216.2-209.5,221-208.7,231-206.5Zm60,1.1c0,1.7-.4,2.2-1.5,1.8a3.534,3.534,0,0,1-1.5-3c0-1.7.4-2.2,1.5-1.8A3.534,3.534,0,0,1,291-205.4Zm48-1.1c0,1.8-.5,2.5-2,2.5s-2-.7-2-2.5.5-2.5,2-2.5S339-208.3,339-206.5Zm5,1.4c0,2.4-.3,2.8-2,2.4a2.685,2.685,0,0,1-2-2.9c0-1.7.6-2.4,2-2.4C343.5-208,344-207.3,344-205.1Zm-24.9-.2c0,1.1.3,1.3.6.5.9-2.2,4.3-1.4,4.4,1,.1,1.7.2,1.9.6.5a2.528,2.528,0,0,1,2.4-1.7c1.4,0,1.9.7,1.9,2.9,0,2.9-.1,3-3.2,2-1.8-.6-4-1.3-4.8-1.6a10.506,10.506,0,0,0-3.7-.4c-1.9.2-2.3-.3-2.3-2.3,0-1.9.5-2.6,2-2.6A1.927,1.927,0,0,1,319.1-205.3ZM232-202.4c7.4,1.5,14,3.1,14.5,3.6.6.6.1.7-1.5.4-1.4-.4-8.1-1.7-14.9-3.1-6.9-1.4-12.7-2.7-12.9-3C216.3-205.3,218-205.1,232-202.4Zm13.3-.9a5.279,5.279,0,0,1-2.5,0c-.7-.3-.2-.5,1.2-.5S245.9-203.6,245.3-203.3Zm35.5,2.1c.3,1.7-.2,2.2-1.7,2.2-1.6,0-2.1-.6-2.1-2.6C277-204.9,280.3-204.6,280.8-201.2Zm53,.4c.3,2.2,0,2.6-1.7,2.1a2.777,2.777,0,0,1-2.1-3C330-205.2,333.4-204.4,333.8-200.8Zm-48,.6c.2,1.5-.2,2.2-1.2,2.2-1.1,0-1.6-.9-1.6-2.6C283-203.7,285.3-203.4,285.8-200.2Zm53,.4c.3,2.2,0,2.6-1.7,2.1a2.777,2.777,0,0,1-2.1-3C335-204.2,338.4-203.4,338.8-199.8Zm-48,.6c.2,1.5-.2,2.2-1.2,2.2-1.1,0-1.6-.9-1.6-2.6C288-202.7,290.3-202.4,290.8-199.2Zm51.6-2.2c.9.3,1.6,1.7,1.6,3.1,0,3.5-3.4,2.7-3.8-1C339.8-202.2,340-202.3,342.4-201.4Zm-108.5,3.8c6.8,1.4,12.7,2.9,13,3.2.3.4-.5.4-1.9.1s-7.7-1.6-14-2.8-11.9-2.6-12.5-3.2c-.7-.6-.3-.7,1-.4C220.6-200.4,227.1-199,233.9-197.6Zm85.1-1.2c.7,1.9.9,2,.9.5.1-3,3.6-1.6,3.9,1.6.3,2.6.2,2.7-2.5,1.6a22.971,22.971,0,0,0-3-1c-2.1.6-3.3-.3-3.3-2.4C315-201.7,317.7-201.8,319-198.8Zm30.1-1.2c.5,0,.9,3.6.9,8,0,7.9,0,8-2.5,8-3.4,0-3.6-4-.2-4.1h2.2l-2.2-.9a3.661,3.661,0,0,1-2.3-3c0-1.4.7-2,2.3-2.1h2.2l-2.2-1.1c-2.7-1.3-3.4-6.4-.7-5.4A10.947,10.947,0,0,0,349.1-200Zm-20.3,4.3c.2,1.9-.1,2.7-1.3,2.7-1.9,0-3-2.4-2.1-4.6C326.3-199.9,328.5-198.7,328.8-195.7Zm3.6-1.7c.9.3,1.6,1.7,1.6,3.1,0,3.5-3.4,2.7-3.8-1C329.8-198.2,330-198.3,332.4-197.4Zm-99.9,4.2c-.6.6-14.5-2-14.5-2.8,0-.3,3.4.1,7.5.9S232.7-193.4,232.5-193.2Zm48.3-1c.3,1.9-.1,2.3-1.5,2a3.2,3.2,0,0,1-2.1-2.6c-.3-1.9.1-2.3,1.5-2A3.2,3.2,0,0,1,280.8-194.2Zm58.2.8c0,1.5-.6,2.4-1.5,2.4-1.8,0-3-2.4-2.1-4.5C336.2-197.7,339-196.1,339-193.4Zm-53.2.2c.2,1.5-.2,2.2-1.2,2.2-1.1,0-1.6-.9-1.6-2.6C283-196.7,285.3-196.4,285.8-193.2Zm5.2.7c0,1.6-.6,2.5-1.5,2.5s-1.5-.9-1.5-2.5.6-2.5,1.5-2.5S291-194.1,291-192.5Zm27.2-1.2c.6.8,2.2,1.1,3.5.9,1.9-.4,2.3,0,2.3,2.2,0,2.9-.1,3-5.2,1.5-3.1-.8-3.8-1.5-3.8-3.4C315-195.3,316.3-195.7,318.2-193.7Zm25.8,1.3c0,3.3-3.3,3-3.8-.4-.3-1.7.2-2.2,1.7-2.2C343.5-195,344-194.4,344-192.4Zm-106.7.1a5.279,5.279,0,0,1-2.5,0c-.7-.3-.2-.5,1.2-.5S237.9-192.6,237.3-192.3Zm-3.9,2.8c11.9,2.3,16.2,3.5,12.4,3.5-2,0-27.2-5.1-27.7-5.6C217.2-192.4,220.9-191.9,233.4-189.5Zm8.9-1.8a5.279,5.279,0,0,1-2.5,0c-.7-.3-.2-.5,1.2-.5S242.9-191.6,242.3-191.3Zm86.7,1.9c0,3.3-3.3,3-3.8-.4-.3-1.7.2-2.2,1.7-2.2C328.5-192,329-191.4,329-189.4Zm5,1c0,3.3-3.3,3-3.8-.4-.3-1.7.2-2.2,1.7-2.2C333.5-191,334-190.4,334-188.4Zm-53,1c0,3.3-3.3,3-3.8-.4-.3-1.7.2-2.2,1.7-2.2C280.5-190,281-189.4,281-187.4Zm58-.1c0,1.8-.5,2.5-2,2.5s-2-.7-2-2.5.5-2.5,2-2.5S339-189.3,339-187.5Zm-53,1c0,1.6-.6,2.5-1.5,2.5s-1.5-.9-1.5-2.5.6-2.5,1.5-2.5S286-188.1,286-186.5Zm58,0c0,1.8-.5,2.5-2,2.5s-2-.7-2-2.5.5-2.5,2-2.5S344-188.3,344-186.5Zm-110,1.4c7.4,1.6,12.6,2.9,11.4,3-2.2.1-27.6-4.8-28.3-5.5C216.1-188.5,221.3-187.7,234-185.1Zm57-.4c0,1.6-.6,2.5-1.5,2.5s-1.5-.9-1.5-2.5.6-2.5,1.5-2.5S291-187.1,291-185.5Zm28.1-.8c0,1.1.3,1.3.6.5.9-2.2,4.3-1.4,4.4,1,.1,1.7.2,1.9.6.5a2.528,2.528,0,0,1,2.4-1.7c1.4,0,1.9.7,1.9,2.5,0,2.4-.2,2.6-3.7,1.9a20.1,20.1,0,0,1-4.8-1.3,6.267,6.267,0,0,0-3.2-.2c-1.9.2-2.3-.2-2.3-2.3,0-1.9.5-2.6,2-2.6A1.927,1.927,0,0,1,319.1-186.3Zm14.9,4.2c0,2.4-.3,2.8-2,2.4a2.685,2.685,0,0,1-2-2.9c0-1.7.6-2.4,2-2.4C333.5-185,334-184.3,334-182.1Zm-98.5,1.7c6.1,1.2,10.1,2.3,9,2.3-2.6.1-26.7-4.7-27.4-5.5C216.4-184.3,219.9-183.7,235.5-180.4ZM338-181.5c0,1.6-.6,2.5-1.5,2.5s-1.5-.9-1.5-2.5.6-2.5,1.5-2.5S338-183.1,338-181.5Zm-19,1.2c0,1.5.2,1.5.9.4,1.3-2.1,4.1-.5,4.1,2.3,0,2-.4,2.4-1.7,1.9a6.1,6.1,0,0,1-2.5-1.7c-.5-.8-.8-.7-.8.1,0,.6-.9.9-2,.6a2.685,2.685,0,0,1-2-2.9c0-1.7.6-2.4,2-2.4A1.775,1.775,0,0,1,319-180.3ZM227.5-178c7.5,1.4,9.8,2.1,9.2,2.6-.7.7-17.1-2.8-18.2-3.8-.7-.7-.3-.8,1-.5C220.6-179.4,224.2-178.6,227.5-178Zm101.3,1.2c.3,2.2,0,2.6-1.7,2.1a2.777,2.777,0,0,1-2.1-3C325-181.2,328.4-180.4,328.8-176.8Zm3.6-1.6c.9.3,1.6,1.7,1.6,3.1,0,1.9-.4,2.4-1.6,1.9a15.633,15.633,0,0,0-2-.6c-.2,0-.4-1.1-.4-2.5C330-179.2,330.1-179.3,332.4-178.4Zm5.4,3.8c-.4,2.9-2.2,2.3-2.6-.9-.3-1.9,0-2.4,1.3-1.9A2.552,2.552,0,0,1,337.8-174.6Zm-17.3.1a22.952,22.952,0,0,0,2.8.4c.4.1.7,1.3.7,2.7,0,2.1-.3,2.5-1.7,1.9a23.553,23.553,0,0,0-3.8-1,23.351,23.351,0,0,1-2.7-.4c-.5,0-.8-1.3-.8-2.7,0-2.1.3-2.5,1.8-1.9A14.384,14.384,0,0,0,320.5-174.5Zm-88.5,2c5.4,1.4,5.4,1.4,1,.9a69.568,69.568,0,0,1-10-1.9c-5.4-1.4-5.4-1.4-1-.9A69.57,69.57,0,0,1,232-172.5Zm97,2.1c0,3.3-3.3,3-3.8-.4-.3-1.7.2-2.2,1.7-2.2C328.5-173,329-172.4,329-170.4Zm5,1c0,3.3-3.3,3-3.8-.4-.3-1.7.2-2.2,1.7-2.2C333.5-172,334-171.4,334-169.4Zm-105.8.1c4.8.9,8.8,2,8.8,2.3,0,.6-17.1-2.4-19.5-3.4C215.2-171.4,219.9-170.9,228.2-169.3Zm109.8.9c0,3.1-2.3,2.8-2.8-.4-.2-1.5.2-2.2,1.2-2.2C337.5-171,338-170.1,338-168.4Zm-18.9,1.3q0,1.5.6.3a2.682,2.682,0,0,1,2.4-1.2c1.4,0,1.9.7,1.9,2.5,0,2.4-1.8,3.3-3.4,1.8a5.022,5.022,0,0,0-2.9-.8c-1.6,0-2.3-.7-2.5-2.7-.3-2.2,0-2.6,1.7-2.1A2.893,2.893,0,0,1,319.1-167.1Zm-92.5,1.7c4.4.9,8.6,2,9.4,2.6,1.2.7,1.1.8-.5.4-1.1-.3-5.6-1.2-10-2.1s-8.1-1.8-8.4-2.1C216.3-167.3,218.5-167.1,226.6-165.4Zm102.4,1c0,3.3-3.3,3-3.8-.4-.3-1.7.2-2.2,1.7-2.2C328.5-167,329-166.4,329-164.4Zm5,.9c0,1.8-.5,2.5-2,2.5s-2-.7-2-2.5.5-2.5,2-2.5S334-165.3,334-163.5Zm4,1c0,1.6-.6,2.5-1.5,2.5s-1.5-.9-1.5-2.5.6-2.5,1.5-2.5S338-164.1,338-162.5ZM227.5-161c7.5,1.4,9.8,2.1,9.2,2.6-.6.6-15.9-2.6-17.7-3.8-1.2-.7-1.1-.8.5-.4C220.6-162.4,224.2-161.6,227.5-161Zm91.5-.3c0,1.4.2,1.5.9.4.7-1,1.8-1.1,4.7-.4,3.2.7,4,1.4,4.2,3.5.3,2.2,0,2.6-1.7,2.1a2.881,2.881,0,0,1-2.2-2.7c-.2-2.1-.2-2.1-.6.1s-3,2.2-4.5-.1c-.5-.8-.8-.7-.8.1,0,.6-.9.9-2,.6a2.685,2.685,0,0,1-2-2.9c0-1.7.6-2.4,2-2.4A1.775,1.775,0,0,1,319-161.3Zm14.8,4.5c.3,2.2,0,2.6-1.7,2.1a2.777,2.777,0,0,1-2.1-3C330-161.2,333.4-160.4,333.8-156.8Zm-102.5.8c3.2.6,5.6,1.4,5.4,1.6-.7.7-18.7-2.9-18.7-3.7,0-.4,1.7-.3,3.8.1C223.8-157.5,228.1-156.6,231.3-156Zm106.7-.5c0,1.6-.6,2.5-1.5,2.5s-1.5-.9-1.5-2.5.6-2.5,1.5-2.5S338-158.1,338-156.5Zm-19.5.5a2.017,2.017,0,0,0,1.8.9c2.9-.3,3.7.3,3.7,2.6,0,2.8-1.2,3.2-3.3,1-.9-.9-1.7-1.1-1.9-.4-.6,1.9-3.8-.3-3.8-2.7S317.3-157.9,318.5-156Zm84,2.1c1.3.6.4.7-2.5.3a14.471,14.471,0,0,1-5.5-1.6C393.4-156.3,399.1-155.4,402.5-153.9ZM329-151.4c0,2.6-.1,2.7-2.4,1.8-1.6-.6-2.2-3.5-1-4.7S329-153.7,329-151.4Zm-99.5-.6c5,1.2,6.3,1.8,3.5,1.4-5.8-.6-16.1-3.2-13.5-3.3A69.626,69.626,0,0,1,229.5-152ZM334-150.4c0,2-.4,2.5-1.6,2a15.633,15.633,0,0,0-2-.6c-.2,0-.4-.9-.4-2a1.8,1.8,0,0,1,2-2C333.5-153,334-152.3,334-150.4Zm66.5-.4c.6.6-.1.7-2,.2a10.969,10.969,0,0,1-4-1.6c-.6-.6.1-.7,2-.2A9.6,9.6,0,0,1,400.5-150.8ZM338-149.4c0,3.1-2.3,2.8-2.8-.4-.2-1.5.2-2.2,1.2-2.2C337.5-152,338-151.1,338-149.4Zm-20.6-1a3.306,3.306,0,0,1,1.7,2.8c0,2.1,0,2.1.9-.1,1.1-2.8,3.9-2,4.1,1.1.1,1.6.2,1.7.6.3.7-2.8,4.3-2.2,4.3.8,0,2.9.4,2.8-7.5,1.2-5.4-1.1-6-1.5-6.3-4C314.8-151.2,315-151.3,317.4-150.4Zm-89.8,2c4.4.9,8.3,2,8.7,2.4.8.7-16.3-2.4-18.8-3.4C215.1-150.4,220.4-149.9,227.6-148.4Zm172.9.4c.7,1.1-.9,1.1-4.5,0-2.4-.8-2.4-.8.7-.9C398.4-149,400.2-148.6,400.5-148ZM334-144.5c0,1.8-.5,2.5-2,2.5s-2-.7-2-2.5.5-2.5,2-2.5S334-146.3,334-144.5Zm-106.2.4c4.6,1.1,8.7,2.2,9,2.6.4.4-.4.4-1.8.1s-5.8-1.3-9.9-2.1a82.022,82.022,0,0,1-8-2C216.3-146.4,219.4-146,227.8-144.1Zm110.2.6c0,1.6-.6,2.5-1.5,2.5s-1.5-.9-1.5-2.5.6-2.5,1.5-2.5S338-145.1,338-143.5Zm62-1.5c1.2.8,1.2,1-.5.9a11.574,11.574,0,0,1-4-.9c-1.8-.8-1.8-.9.5-.9A9.094,9.094,0,0,1,400-145Zm-81,3.1c0,1.5-.4,1.9-1.6,1.5a15.633,15.633,0,0,0-2-.6c-.2,0-.4-.7-.4-1.5s.9-1.5,2-1.5C318.4-144,319-143.3,319-141.9Zm8.6-.1c.8,0,1.4.9,1.4,2,0,2.4-2.8,2.7-3.7.4-.4-1-.8-1.2-1.3-.4-.9,1.5-4,.2-4-1.7,0-1.2.7-1.4,3.1-.9A40.411,40.411,0,0,0,327.6-142Zm-103.3,1.5c3.3.7,6.2,1.7,6.5,2.1.4.3-.2.4-1.3.1s-3.8-.9-6-1.3c-3.8-.6-8.2-2.3-6-2.3A56.724,56.724,0,0,1,224.3-140.5ZM334-138.1c0,2.4-.3,2.8-2,2.4a2.685,2.685,0,0,1-2-2.9c0-1.7.6-2.4,2-2.4C333.5-141,334-140.3,334-138.1Zm4,.6c0,1.6-.6,2.5-1.5,2.5s-1.5-.9-1.5-2.5.6-2.5,1.5-2.5S338-139.1,338-137.5Zm-110.2,2c1.1,1.1-.6,1.1-5.3-.2l-5-1.3,4.9.5C225.1-136.2,227.6-135.8,227.8-135.5Zm104.6,1.1c.9.3,1.6,1.7,1.6,3.1,0,1.9-.4,2.4-1.6,1.9a15.633,15.633,0,0,0-2-.6c-.2,0-.4-1.1-.4-2.5C330-135.2,330.1-135.3,332.4-134.4Zm5.6,4.1c0,3.3-2.4,2.5-2.8-1-.3-2.1,0-2.6,1.2-2.1C337.3-133.1,338-131.7,338-130.3ZM224.5-132c2.7.7,2.7.8.5.8a21.711,21.711,0,0,1-5-.8c-2-.6-2.1-.8-.5-.8A26.923,26.923,0,0,1,224.5-132ZM334-125.4c0,3.3-3.3,3-3.8-.4-.3-1.7.2-2.2,1.7-2.2C333.5-128,334-127.4,334-125.4Zm4,.9c0,1.6-.6,2.5-1.5,2.5s-1.5-.9-1.5-2.5.6-2.5,1.5-2.5S338-126.1,338-124.5Z"/>
    <path id="Path_2" data-name="Path 2" d="M388-206.3c0,.9,24.2,6.3,24.9,5.7,1-.9-1.5-1.8-11.6-4C389.4-207.2,388-207.4,388-206.3Z"/>
    <path id="Path_3" data-name="Path 3" d="M388-203.2c0,.9,24.2,6.4,24.9,5.6.9-.8-.7-1.4-12.3-3.8C387.1-204.4,388-204.3,388-203.2Z"/>
    <path id="Path_4" data-name="Path 4" d="M388-200.1c0,.6.3,1.1.6,1.1s5.5,1.1,11.6,2.5c12.3,2.8,12.8,2.8,12.8,1.7,0-.5-4.8-1.9-10.7-3.1-6-1.2-11.6-2.5-12.5-2.7C388.8-200.9,388-200.7,388-200.1Z"/>
    <path id="Path_5" data-name="Path 5" d="M388-197.2c0,1.3.7,1.5,13.2,4.1,10.9,2.3,12.7,2.5,11.3,1.2-.6-.5-5.7-1.9-11.5-3.1-5.8-1.3-11.1-2.5-11.7-2.7C388.6-198,388-197.7,388-197.2Z"/>
    <path id="Path_6" data-name="Path 6" d="M388.3-193.6c.4,1.2,24.7,6.6,24.7,5.5,0-.9-.2-1-14.8-4.3C392.3-193.7,388.1-194.2,388.3-193.6Z"/>
    <path id="Path_7" data-name="Path 7" d="M388-190.3c0,.5,5.1,1.9,11.3,3.2,6.1,1.3,11.8,2.6,12.5,2.9.6.2,1.2,0,1.2-.6s-3.9-1.9-8.7-3C391.2-190.8,388-191.3,388-190.3Z"/>
    <path id="Path_8" data-name="Path 8" d="M388-187.3c0,.5,4.6,2,10.3,3.2,5.6,1.2,11.2,2.4,12.5,2.7,1.2.4,2.2.2,2.2-.3,0-.6-4.6-2-10.2-3.2-5.7-1.3-11.3-2.5-12.5-2.8C389-188,388-187.8,388-187.3Z"/>
    <path id="Path_9" data-name="Path 9" d="M388-184.1c0,.6.2,1.1.3,1.1.2,0,5.5,1.1,11.7,2.5,12.6,2.8,13,2.8,13,1.7,0-.5-4.8-1.9-10.7-3.1-6-1.2-11.6-2.5-12.5-2.7C388.8-184.9,388-184.7,388-184.1Z"/>
    <circle id="Ellipse_2" data-name="Ellipse 2" class="cls-1" cx="1.5" cy="1.5" r="1.5" transform="translate(480.111 -249.039)"/>
  </g>
</svg>
