<?xml version="1.0" encoding="utf-8"?>
<!-- Generator: Adobe Illustrator 23.0.1, SVG Export Plug-In . SVG Version: 6.00 Build 0)  -->
<svg version="1.1" id="Layer_1" xmlns="http://www.w3.org/2000/svg" xmlns:xlink="http://www.w3.org/1999/xlink" x="0px" y="0px"
	 viewBox="0 0 120.8 99.6" style="enable-background:new 0 0 120.8 99.6;" xml:space="preserve">
<style type="text/css">
	.st0{opacity:0.35;}
	.st1{opacity:0.17;}
	.st2{opacity:0.57;fill:#505075;enable-background:new    ;}
	.st3{opacity:0.45;fill:#505075;enable-background:new    ;}
	.st4{opacity:0.37;fill:#25254F;stroke:#FFFFFF;stroke-miterlimit:10;enable-background:new    ;}
	.st5{fill:#505075;stroke:#FFFFFF;stroke-miterlimit:10;}
	.st6{fill:#FFFFFF;}
	.st7{fill:#505075;}
	.st8{opacity:8.000000e-02;}
	.st9{fill:#EDB018;}
	.st10{opacity:0.28;}
	.st11{fill:#282829;}
	.st12{fill:#535366;}
	.st13{fill:#8A8AA0;}
	.st14{fill:#A7A7C6;}
	.st15{opacity:0.45;}
</style>
<title>Asset 18</title>
<g>
	<g id="Layer_4">
		<g class="st0">
			<path d="M23.8,77.6c3-7.5,5.3-16.3,5-24.4c0-0.3-0.5-0.4-0.6-0.1c-1.7,8.1-2.9,16.3-4.9,24.4c0,0.2,0.1,0.3,0.2,0.3
				C23.6,77.8,23.7,77.7,23.8,77.6L23.8,77.6z"/>
		</g>
		<g class="st0">
			<path d="M29.5,52.7c3.9-4.5,10.2-7,15.4-10c5.6-3.3,11.6-6.3,16.8-10.2c0.1-0.1,0.1-0.2,0.1-0.4C61.6,32,61.5,32,61.4,32
				c-6.9,3-13.4,7.4-19.9,11.2c-3.7,2.2-10.8,4.7-12.3,9.3c0,0.1,0,0.1,0.1,0.2C29.4,52.8,29.4,52.7,29.5,52.7z"/>
		</g>
		<g class="st0">
			<path d="M35.6,75.9c5.9-4.6,11.3-9.8,16.1-15.6c4.2-5,8.7-10.5,11.2-16.5c0.2-0.4-0.4-0.7-0.7-0.4c-4.5,5.4-7.9,11.6-12.3,17
				C45.4,65.8,40.7,71,35.6,75.9L35.6,75.9L35.6,75.9z"/>
		</g>
		<g class="st0">
			<path d="M70.9,28C70.9,28,71,27.9,70.9,28c0.1-0.1,0-0.2,0-0.2C70.9,27.8,70.8,27.8,70.9,28C70.8,27.9,70.9,28,70.9,28z"/>
		</g>
		<g class="st0">
			<path d="M68.4,31.9c0.2-0.5,0.2-1.1,0-1.6c-0.1-0.3-0.3-0.5-0.4-0.8c-0.6-1.4-0.8-2.9-0.5-4.4c0.6-2.9,1.5-5.6,1.3-8.5
				c0-0.4-0.6-0.5-0.7-0.1c-0.4,1.6-0.5,3.3-0.8,5c-0.3,1.7-1,3.3-1.2,5c-0.2,2.2,1.7,3.3,2,5.4C68,32.1,68.4,32.1,68.4,31.9z"/>
		</g>
		<g class="st0">
			<path d="M69.6,14.2c0.1,1.8,0.5,3.7,1.3,5.3c1,2.3,1.3,3.9,0.3,6.3c-0.4,0.8-0.7,1.7-0.9,2.6c0,0.2,0.1,0.4,0.3,0.5
				c0.2,0,0.3,0,0.4-0.2c1.1-1.8,2.2-4.1,2-6.2c-0.3-2.8-2.5-5.5-3.3-8.3C69.8,14.1,69.7,14.1,69.6,14.2
				C69.7,14.1,69.6,14.1,69.6,14.2L69.6,14.2z"/>
		</g>
		<g class="st0">
			<path d="M67,36l0.4,5.4c0,0.1,0.1,0.2,0.2,0.2c0.1,0,0.2-0.1,0.2-0.2c0-2.1,0-4.2,0-6.3c0,0-0.1-0.1-0.1,0c0,0,0,0,0,0
				c-0.1,2.1-0.2,4.2-0.2,6.3h0.4L67.2,36C67.2,35.9,67,35.9,67,36L67,36z"/>
		</g>
		<g class="st0">
			<path d="M67.6,30.7v-0.2c0-0.3-0.5-0.4-0.5-0.1c-1,6.8-0.8,13.9-1,20.8c-0.2,7.3-0.9,15.1-0.1,22.3c0,0.3,0.5,0.4,0.5,0.1
				c1.2-6.8,0.8-14,1-20.8c0.1-3.7,0.2-7.5,0.2-11.2c0-1.6,0-3.2,0-4.8c0-1.6,0.6-4.8-0.5-6C67.4,30.8,67.5,30.8,67.6,30.7
				C67.6,30.7,67.6,30.7,67.6,30.7L67.6,30.7z"/>
		</g>
		<g class="st0">
			<path d="M71.1,31.9c-0.9,7.8-1.2,15.7-1.6,23.6c-0.4,8.1-1.1,16.3-1.1,24.5c0,0.3,0.4,0.3,0.5,0c0.9-8.1,1.1-16.3,1.5-24.4
				c0.4-7.8,1-15.7,1-23.6c0-0.1-0.1-0.1-0.1-0.1C71.2,31.8,71.1,31.8,71.1,31.9C71.1,31.9,71.1,31.9,71.1,31.9L71.1,31.9z"/>
		</g>
		<g class="st0">
			<path d="M30.2,56.4c-0.5,2-0.6,7.3,2.9,6.5c3.5-0.8,0.5-5.3-1.1-6.3c-0.5-0.3-1.2-0.1-1.6,0.4c-0.1,0.2-0.2,0.4-0.2,0.6
				c0,2.6,2.6,3.8,4.8,2.6c2.8-1.5,4.1-5.2,5.1-8l-1.5-0.4c-0.6,4-2.9,7.1-6.1,9.4l0.7,1c2-1.6,3.6-3.7,4.6-6.1
				c0.3-0.7-0.7-1.3-1.1-0.6c-1,1.9-2.9,2.3-4.8,1.6v1.4c2.8-0.4,6.2-2.1,7.4-4.8c0.2-0.5-0.4-1.1-0.8-0.6c-2,2.1-3.7,3.7-6.8,4
				c-0.4,0-0.7,0.3-0.7,0.8c0,0.3,0.2,0.6,0.5,0.7c2.4,1,5.2,0,6.3-2.4l-1.1-0.5c-0.9,2.3-2.4,4.2-4.4,5.7c-0.6,0.4,0.2,1.3,0.8,1
				c3.7-2.2,6-6,7-10.1c0-0.4-0.3-0.8-0.8-0.8c-0.3,0-0.6,0.1-0.7,0.4c-0.5,1.3-1.1,2.7-1.8,3.9c-0.3,0.6-0.7,1.2-1.2,1.8
				c-0.5,0.6-3.3,2.3-3.2,0.1l-1.7,1c0.5,0.3,0.9,0.8,1.2,1.3c0.5,1,0.2,0.8-0.1-0.1c-0.3-1-0.3-2.1-0.2-3.1
				C31.8,55.7,30.4,55.6,30.2,56.4L30.2,56.4z"/>
		</g>
		<g class="st1">
			<path d="M41.8,48.4c4.6-2.6,9-5.4,13.8-7.7c0.6-0.3,3.3-1.9,3.6-1.6c0.8,0.6-0.2,2.9-0.4,3.5c-1,2.8-2.7,5.3-4.9,7.4l0.7,0.6
				c2.6-3.4,4.3-7.4,4.9-11.7h-0.9l-0.1,1.7l0.8,0.4l0.4-0.7l-0.8-0.3l-0.5,1.7l0.9,0.1l-0.2-1.7c0-0.3-0.2-0.5-0.4-0.5
				c-0.1,0-0.2,0-0.3,0.1c-5.4,2.7-10.9,5.4-16.3,8.1l0.5,0.8c5.4-2.8,10.7-5.5,16.1-8.2c0.2-0.1,0.3-0.4,0.2-0.6
				c-0.1-0.1-0.1-0.2-0.3-0.2c-1.1-0.2-0.5,0.1,0.6-0.4l-0.4-0.8c-5.1,3-10.3,5.8-15.5,8.4c-0.5,0.3-0.1,1.1,0.5,0.8
				C49,44.8,54.2,42,59.2,39c0.2-0.1,0.3-0.4,0.2-0.6c-0.1-0.2-0.4-0.3-0.6-0.2l-2,1c-0.3,0.2-0.3,0.7,0.1,0.8c0.9,0.1,1,0.1,0.2,0
				l-2.5,1.3l-3.7,1.9c-2.9,1.5-5.8,2.9-8.7,4.4c-0.5,0.3-0.1,1,0.5,0.8c2.9-1.4,5.8-2.9,8.8-4.4l3.8-1.9c1.1-0.5,3.1-2.3,3.2-0.5
				c0,0.3,0.2,0.4,0.5,0.4c0.2,0,0.3-0.1,0.4-0.3l0.5-1.7c0.1-0.5-0.6-0.8-0.8-0.4l-0.4,0.7c-0.1,0.2,0,0.5,0.2,0.6
				c0.2,0.1,0.5,0,0.6-0.2c0.6-0.7,0.6-1.6,0.2-2.4c-0.1-0.3-0.8-0.5-0.9,0c-0.6,4.1-2.3,8.1-4.8,11.4c-0.3,0.4,0.4,0.9,0.7,0.6
				c3.3-3.3,5.4-7.6,5.9-12.3c0-0.3-0.4-0.4-0.6-0.3c-6.4,2.8-13,5.9-18.5,10.2C41.4,48.2,41.6,48.5,41.8,48.4z"/>
		</g>
		<g class="st1">
			<path d="M30.4,66.1C28.9,71.2,26.8,76.7,26,82c0,0.1,0.2,0.3,0.3,0.1c2.4-4.6,3.6-10.8,4.6-15.9c0-0.1,0-0.2-0.1-0.3
				C30.6,65.9,30.5,66,30.4,66.1z"/>
		</g>
		<g class="st1">
			<path d="M37.7,61.8c0.4,1.7,1,3.5,1.7,5.1l0.7-0.3c-0.7-1.6-1.4-3.3-2.1-5l-0.5,0.2c0.6,1.2,0.9,2.4,1.4,3.7
				c0.1,0.2,0.4,0.2,0.4-0.1c-0.2-1.4-0.6-2.7-1.3-3.9c-0.2-0.3-0.7-0.1-0.5,0.2c0.7,1.7,1.4,3.4,2,5.1c0.2,0.4,0.9,0.2,0.7-0.2
				c-0.5-1.7-1.2-3.4-2-5.1C38,61.4,37.7,61.6,37.7,61.8z"/>
		</g>
		<g class="st1">
			<path d="M45.4,57.1c-1.2-0.2-2.4-0.5-3.6-0.8l-0.1,0.5c2.2,0.5,4.5,0.8,6.7,1.1l0.1-0.8c-1.3,0.1-2.6,0.2-3.8,0.4
				c-0.2,0-0.1,0.3,0,0.4c1.3,0.1,2.5,0.1,3.8,0.1c0.4,0,0.6-0.7,0.1-0.8c-2.3-0.3-4.6-0.7-6.9-0.9c-0.4,0-0.3,0.5,0,0.5
				c1.2,0.1,2.4,0.4,3.6,0.6C45.5,57.3,45.6,57.1,45.4,57.1L45.4,57.1z"/>
		</g>
		<g class="st1">
			<path d="M39.7,72c-2.3,2.5-4.1,5-7.2,6.8c-3.3,1.9-6.7,2.4-10.4,2.9c-0.3,0-0.4,0.5-0.1,0.6c6.6,1,15.6-3.6,18-10.1
				c0-0.1,0-0.2-0.2-0.2C39.8,72,39.8,72,39.7,72L39.7,72z"/>
		</g>
		<rect x="66.2" y="27" class="st2" width="4.5" height="57.9"/>
		<polygon class="st3" points="68.4,35.7 73.1,23.8 68.9,9.9 64.4,22.2 		"/>
		<path class="st4" d="M108,77.6c-3.1,3.8-27.6,8.7-51.7,10.7c-21.4,1.8-35.1,0.6-32.7-2.5c2.5-3.1,20.5-7.3,42.5-9.8
			C91,73.3,111.1,73.8,108,77.6z"/>
		<path class="st5" d="M23.1,85.2c2.2-22.3,3.6-29.8,4.1-32.1c0.2-0.7,0.6-1.2,1.1-1.6l31-20.7c1.3-0.8,3-0.5,3.8,0.8
			c0.2,0.3,0.4,0.7,0.4,1.1l1,6.1"/>
		<path class="st6" d="M12.6,46.4l0.9,0.4c0.6,0.3,1.3,0.1,1.6-0.4c0.3-0.6,0.1-1.3-0.4-1.6l-0.9-0.4c-0.6-0.3-1.3-0.1-1.6,0.4
			C11.9,45.3,12.1,46.1,12.6,46.4z"/>
		<path class="st7" d="M23.5,83.8l0.1,0.9c0,0.7,0.6,1.2,1.2,1.2c0.1,0,0.2,0,0.3,0c9.7-3,16.3-11.3,22.7-18.8
			c7.1-8.2,13.6-17,16.3-27.6c0.3-1.3-1.5-2.2-2.2-0.9c-3.9,7.3-8.6,14.2-14,20.4c-5.5,6.2-11.8,11.2-18.3,16.3
			c-1.3,1.1-7.6,7.6-3.3,8.8c2,0.6,4.6-2.8,5.8-3.9c3.5-3.1,6.8-6.3,9.9-9.8c1-1.1-0.6-2.8-1.7-1.7c-3.7,3.9-7.9,7.3-12.5,10
			l1.5,1.9c2.7-2.2,5.2-4.6,7.5-7.2c0.8-1-0.3-2.8-1.5-1.9c-3.1,2.4-6,5-8.6,7.9c-0.5,0.5-0.4,1.2,0.1,1.7c0.5,0.4,1.2,0.4,1.6,0
			c9.7-7.8,18.3-17,25.5-27.2c0.8-1.1-1-2.5-1.9-1.5l-9.2,11.6c-0.9,1.2,0.7,2.9,1.7,1.7l13.4-15.1c0.5-0.5,0.4-1.2-0.1-1.7
			c-0.5-0.4-1.2-0.4-1.6,0c-6.6,6.2-12.9,12.8-18.6,19.8c-1,1.2,0.7,2.9,1.7,1.7l11-13c1-1.2-0.6-2.8-1.7-1.7L35.2,69.1l1.9,1.5
			C42,64,47.8,58.1,54.4,53.1L53,51.2l-5.4,5.1l1.7,1.7l7.9-8.6l-1.9-1.5l-2.2,3.4l2.1,1.2l3.5-5.5l-2.1-1.2l-3.6,6.3
			c-0.6,1.1,1,2.5,1.9,1.5l3.9-4.6l-1.9-1.5c-7.9,12.8-17.9,24.3-29.4,34c-1.2,1,0.5,2.7,1.7,1.7C40.9,73.4,51,61.7,59,48.7
			c0.7-1.1-1-2.5-1.9-1.5l-3.9,4.6l1.9,1.5l3.6-6.3c0.3-0.6,0.1-1.3-0.5-1.6c-0.6-0.3-1.2-0.1-1.6,0.4l-3.5,5.5
			c-0.8,1.3,1.2,2.5,2.1,1.2l2.2-3.4c0.3-0.6,0.1-1.3-0.5-1.6c-0.5-0.3-1-0.2-1.4,0.2l-7.9,8.6c-0.5,0.5-0.4,1.2,0.1,1.7
			c0.5,0.4,1.2,0.4,1.6,0l5.4-5.1c1-0.9-0.3-2.7-1.5-1.9c-7,5.2-13.1,11.4-18.3,18.4c-0.8,1.1,0.9,2.4,1.9,1.4l13.4-13.3l-1.7-1.7
			l-11,13l1.7,1.7c5.7-7,12-13.6,18.6-19.8L56.2,49L42.7,64.1l1.7,1.7l9.2-11.6l-1.9-1.5c-7.1,10-15.5,19-25.1,26.7l1.7,1.7
			c2.5-2.8,5.2-5.3,8.1-7.5L35,71.7c-2.3,2.6-4.8,5-7.5,7.2c-1.1,0.9,0.3,2.6,1.5,1.9c4.8-2.8,9.2-6.3,13-10.4l-1.7-1.7
			c-2.3,2.6-4.7,5-7.2,7.4c-1.4,1.3-3.1,2.5-4.4,3.9c-0.7,0.8-2.3,2.9-0.4-0.1c1.6-2.4,4.5-4,6.7-5.7c2.4-1.9,4.8-3.9,7.1-6
			C51,60.1,58.4,50.4,64,39.8l-2.2-0.9C59.2,49.1,53,57.5,46.2,65.4C40,72.4,33.7,80.6,24.5,83.5l1.5,1.2l-0.1-0.9
			C25.7,82.3,23.3,82.3,23.5,83.8L23.5,83.8z"/>
		<g class="st8">
			<path class="st6" d="M28.7,53c-1.5,0.9-0.7,4.1-0.2,5.4c0.1,0.3,0.5,0.5,0.8,0.4c0.2-0.1,0.4-0.2,0.4-0.4
				c0.3-0.7,0.5-1.5,0.7-2.2h-1.2l0.2,1.6c0.1,0.6,0.8,0.5,1.1,0.1c0.5-0.7,1.2-0.9,1.2-1.8l-0.4,0.6c0.5,0,1-0.2,1.4-0.5
				c0.4-0.4,0.8-0.9,1.1-1.4c0.7-1.1,1.2-2.3,1.4-3.5c0-0.2-0.1-0.3-0.2-0.4c-0.1,0-0.3,0-0.3,0.1c-0.6,0.8-1.1,1.7-1.6,2.5
				c-0.5,0.9-0.9,1.8-2.1,2.1c-0.3,0.1-0.4,0.3-0.4,0.6c0,0.1-1,1-1,1.1l1,0.4L30.6,56c0-0.3-0.3-0.6-0.6-0.6
				c-0.3,0-0.5,0.2-0.6,0.5c-0.3,0.7-0.5,1.5-0.8,2.2l1.2-0.1c-0.4-1-0.7-2.1-0.7-3.2c0-0.6,0.1-1.1-0.2-1.7
				C28.8,53,28.8,53,28.7,53L28.7,53z"/>
		</g>
		<g class="st8">
			<path class="st6" d="M29.4,59c1.5-0.2,3-1.8,3.9-2.9c1.1-1.4,2-3,2.4-4.8l-0.4-0.1c-0.3,1.7-1.2,3.2-2.4,4.3
				c-1.1,1.2-2.4,2.6-4,2.9c-0.5,0.1-0.3,1,0.2,0.8c3.4-1.4,5.9-4.3,6.7-7.9c0-0.1,0-0.3-0.2-0.3s-0.3,0-0.3,0.2
				C34.8,53,34,54.6,32.9,56C31.9,57.2,30.4,57.9,29.4,59C29.5,59,29.5,59.1,29.4,59L29.4,59z"/>
		</g>
		<g class="st8">
			<path class="st6" d="M35.3,51.2c-0.3,0.5-0.5,1-0.6,1.6c-1,2.7-3.1,4.8-5.8,5.7c-0.5,0.2-0.3,1,0.2,0.8c1.7-0.6,3.3-1.7,4.5-3.1
				C34.4,55,35.8,52.8,35.3,51.2C35.3,51.2,35.3,51.2,35.3,51.2C35.3,51.2,35.3,51.2,35.3,51.2L35.3,51.2z"/>
		</g>
		<g class="st8">
			<path class="st6" d="M35.2,51.3c-0.6,1.6-0.8,3-2,4.3c-0.5,0.5-1,1-1.6,1.4c0,0-2.4,1.5-2.3,0.9l-0.9-0.1v0.3l0.8-0.2
				c-0.1-0.2-0.3-0.4-0.4-0.6c-0.2-0.4-1-0.1-0.8,0.3l0.1,0.7l0.8-0.1c-0.2-1.5-0.2-3,0-4.5c0.1-0.2-0.1-0.4-0.3-0.5
				c-0.2-0.1-0.4,0.1-0.5,0.3c-0.5,1.6-0.7,3.6,1.1,4.5l0.3-0.8c-0.2-0.1-0.5-0.1-0.7,0.1c-0.2,0.1-0.3,0.3-0.2,0.6
				c0,0.1,0.1,0.2,0.2,0.2c0.4,0.2,0.8,0.2,1.2,0l-0.3-0.8c-0.2,0.1-0.5,0.3-0.7,0.5c-0.2,0.2-0.2,0.4,0,0.6
				c0.1,0.1,0.3,0.1,0.4,0.1c0.4-0.1,0.7-0.3,1-0.5l-0.5-0.7l-0.4,0.4c-0.3,0.3,0.1,0.9,0.5,0.7c1-0.7,1.9-1.3,2.9-2
				c0.4-0.3,0-0.9-0.4-0.7c-1,0.6-2,1.3-2.9,1.9l0.5,0.7l0.4-0.4c0.4-0.3-0.1-0.9-0.5-0.7l-0.8,0.4l0.4,0.7l0.5-0.3
				c0.4-0.2,0.1-1-0.3-0.8h-0.7v0.8l0.2,0c0.5,0.1,0.8-0.6,0.3-0.8c-1.4-0.7-1.1-2.3-0.8-3.5l-0.8-0.2c-0.3,1.6-0.3,3.3,0,4.9
				c0.1,0.5,0.8,0.3,0.8-0.1c0-0.3,0-0.6-0.1-0.9l-0.8,0.3c0.1,0.2,0.3,0.4,0.4,0.6c0.1,0.2,0.4,0.3,0.6,0.1
				c0.1-0.1,0.1-0.1,0.2-0.2l0.1-0.3c0-0.3-0.1-0.5-0.4-0.5c-0.2,0-0.4,0.1-0.5,0.3c-0.2,0.5,0,1.2,0.5,1.4c0.1,0,0.2,0.1,0.3,0.1
				c1,0.2,2.2-0.8,2.9-1.4c1.7-1.3,4.3-4.1,3.3-6.5c0-0.1-0.1-0.1-0.2-0.1C35.1,51.1,35.1,51.2,35.2,51.3L35.2,51.3z"/>
		</g>
		<g class="st8">
			<path class="st6" d="M27.7,55c0.1-0.4,0.2-0.7,0.3-1.1c0-0.1,0-0.1-0.1-0.1s-0.1,0-0.1,0.1l0,0c-0.4,1.4-0.7,5.7,1.8,5.3
				c0.2,0,0.2-0.4,0-0.4c-1.9-0.4-1.8-3.4-1.5-4.8L27.8,54C27.9,54.3,27.9,54.7,27.7,55L27.7,55L27.7,55z"/>
		</g>
		<g class="st8">
			<path class="st6" d="M27.6,54.2c-0.3,1.5-0.4,3,0.5,4.3c0.5,0.7,1.4,0.8,2.1,0.4c0.1-0.1,0.3-0.2,0.4-0.4c0.1-0.1,0-0.2-0.1-0.2
				c-0.6,0.2-1.1,0.7-1.8,0.2c-0.4-0.4-0.6-0.9-0.7-1.4C27.6,56.2,27.5,55.2,27.6,54.2C27.6,54.2,27.6,54.2,27.6,54.2z"/>
		</g>
		<g class="st8">
			<path class="st6" d="M27.9,54c-0.3,1.3-0.5,2.6,0.3,3.8c0.5,0.9,1.5,1.3,2.5,1c0.1,0,0.1-0.2,0-0.2c-1,0-1.9-0.5-2.3-1.4
				C27.9,56.2,27.7,55.1,27.9,54L27.9,54L27.9,54z"/>
		</g>
		<g class="st8">
			<path class="st6" d="M27.6,54.8c-0.1,1.3-0.3,2.6,0.7,3.6c0.5,0.6,1.8,1.2,2.4,0.5c0.1-0.1,0.1-0.2,0-0.2c0,0-0.1,0-0.1,0
				c-0.4,0-0.8,0-1.1,0c-0.5-0.2-0.9-0.5-1.2-1C27.9,56.8,27.7,55.8,27.6,54.8C27.7,54.9,27.6,54.9,27.6,54.8L27.6,54.8z"/>
		</g>
		<g class="st8">
			<path class="st6" d="M27.8,54.4c-0.6,1.8-0.4,5.2,2.3,4.7c2.6-0.5,4.8-3.8,5.8-6c0-0.1,0-0.2-0.1-0.2c-0.1,0-0.2,0-0.2,0.1
				c-0.9,1.5-2,2.9-3.2,4.1c-0.4,0.3-0.8,0.6-1.2,0.9c-0.8,0.4-1.8,0.5-2.7,0.2C27.6,57.6,27.8,55.5,27.8,54.4L27.8,54.4z"/>
		</g>
		<g class="st8">
			<path class="st6" d="M34.1,55.9c0.5-0.9,1-1.7,1.4-2.6c0.3-0.6,0.5-1.2,0.4-1.9c0-0.1-0.2-0.1-0.2,0
				C35.6,52.9,34.7,54.4,34.1,55.9L34.1,55.9L34.1,55.9z"/>
		</g>
		<g class="st8">
			<path class="st6" d="M35.6,51.7c-0.7,1.6-1.6,3-2.7,4.3c-1.1,1.1-2.2,2.2-3.5,3.1c-0.2,0.2,0,0.4,0.2,0.3c3-1.3,5.2-4.6,6.1-7.6
				C35.8,51.7,35.7,51.6,35.6,51.7z"/>
		</g>
		<g class="st8">
			<path class="st6" d="M35.2,51.7c-0.5,1.8-1.5,3.3-2.9,4.5c-0.7,0.7-2,1.9-3,1.4c-0.7-0.3-0.6-0.6-0.8-1.3
				c-0.1-0.5-0.3-1.1-0.5-1.6c0-0.1-0.1-0.2-0.2-0.1c-0.1,0-0.1,0.1-0.1,0.2c-0.1,1-0.4,3,0.5,3.8s2.3,0,3-0.4
				c2.1-1.2,4.6-3.8,4.2-6.4C35.5,51.5,35.3,51.6,35.2,51.7L35.2,51.7z"/>
		</g>
		<g class="st8">
			<path class="st6" d="M28.6,60.6c-1.3,3.9-1.4,8.2-2.3,12.2c-0.4,1.8-2.3,5.7-0.9,7.4c2.7,3.6,8.4-4.4,9.7-5.9
				c0.5-0.5,0.4-1.4-0.1-1.8c-0.5-0.4-1.2-0.4-1.7,0c-1.8,1.7-3.6,3.5-5.2,5.4c-0.6,0.6-0.6,1.5,0,2.1s1.5,0.6,2.1,0
				c1-1,2.1-1.9,3.2-2.7l-1.5-2c-1.2,1.1-2.3,2.1-3.5,3.1c-1.5,1.3,0.7,3.5,2.2,2.2c1.2-1,2.5-2,3.6-3.2l-1.9-1.9
				c-2.2,1.7-4.5,3.2-7,4.6l2.2,2.2c0.5-1.2,1.5-2,2-3.2c0.4-1.4,0.6-2.9,0.4-4.3c-0.1-4.2-0.4-8.9,0.6-13c0.1-0.4-0.1-0.8-0.5-0.9
				c-0.4-0.1-0.8,0.1-0.9,0.5c-0.8,3.1-0.5,6.2-0.9,9.4c-0.3,2.1-0.7,4.2-1.3,6.3c-0.5,1.3-1.6,2.3-2.2,3.6c-0.6,1.3,0.7,3,2.2,2.2
				c2.6-1.6,5-3.4,7.2-5.5c1.2-1.1-0.3-2.7-1.6-2.1c-1.5,0.8-3,1.9-4.2,3.1l2.2,2.2c1-1.2,2.1-2.4,3.1-3.5c0.9-1-0.3-2.9-1.5-2
				c-1.2,0.9-2.4,1.8-3.7,2.5l2,2c1.4-1.9,3-3.7,4.8-5.3l-1.8-1.8c-1.3,1.5-2.5,3.2-3.9,4.6c-0.3,0.5-0.8,0.8-1.3,1
				c-0.9,0.6-1,0.3-0.2-1.1c0.2-1.2,0.5-2.4,0.9-3.6c0.9-4.1,1.8-8.8,1.1-12.9C29.8,60,28.8,60.1,28.6,60.6L28.6,60.6z"/>
		</g>
		<g class="st8">
			<path class="st6" d="M40.1,47.2c5.1-3.3,10.9-6.3,15.5-10.5c0.2-0.2,0-0.5-0.3-0.4c-5.8,2.4-10.7,6.8-15.4,10.7
				C39.8,47,39.9,47.2,40.1,47.2z"/>
		</g>
		<g class="st8">
			<path class="st6" d="M28.4,60.9c-3.6,6.1-4.6,16-3.6,22.9c0.1,0.5,0.7,0.3,0.8-0.1c0.2-3.8,0.1-7.6,0.7-11.5s1.9-7.4,2.4-11.2
				C28.7,60.9,28.5,60.8,28.4,60.9L28.4,60.9z"/>
		</g>
		<g class="st8">
			<path class="st6" d="M28.1,61.7c-3.5,5.5-5,15.8-3.3,22.1c0.1,0.2,0.5,0.3,0.5,0c0.6-3.9,0.2-7.9,0.9-11.8
				c0.5-3.4,1.7-6.8,2.1-10.2C28.3,61.7,28.1,61.7,28.1,61.7z"/>
		</g>
		<g class="st8">
			<path class="st6" d="M25.3,84.8c8.2-4.2,15-10.5,20.9-17.5l-0.7-0.5C40,74,31.3,77.2,24.8,83.3l1.3,0.5c0.1-1,0-2-0.4-3
				c-0.2-0.7-1.4-0.6-1.4,0.2l0.2,2.3c0.1,0.8,1.4,0.9,1.3,0l-0.1-1.8c0-0.8-1.3-0.8-1.3,0c0,0.6,0,1.1,0.1,1.7
				c0,0.3,0.3,0.6,0.7,0.5c0.3,0,0.5-0.3,0.5-0.5c0-1.5,0.3-3,0.9-4.3l-1.2-0.3c-0.3,1.2-0.4,2.3-0.4,3.5c0,0.3,0.3,0.6,0.6,0.6
				c0.3,0,0.5-0.2,0.6-0.5c0.2-0.6,0.3-1.3,0.5-1.9l-1.2-0.2l-0.2,1.8c-0.1,0.7,1.2,0.9,1.3,0.2l0.3-2h-1.3l0.3,1.9
				c0.1,0.7,1.2,0.6,1.3,0c0.2-0.7,0.3-1.4,0.2-2.1l-1.3,0.4l0.5,1.1c0.2,0.3,0.6,0.5,1,0.3c0.2-0.1,0.3-0.3,0.3-0.4l0.3-1.3h-1.4
				l0.2,0.7c0.1,0.4,0.5,0.6,0.9,0.5c0.2-0.1,0.4-0.2,0.5-0.5l-0.3-0.1c0.3,0.1,0.6-0.1,0.8-0.3c1.5-2.1,6-3.9,8.2-5.4l-0.8-1.1
				c-3.3,3.3-10.2,3.9-11.7,8.6l1.3,0.2c-0.4-3.5,0.4-7.9,1.4-11.3c0-0.2-0.1-0.3-0.3-0.4c-0.1,0-0.3,0.1-0.3,0.2
				c-0.9,3.4-1.2,6.6,1.2,9.5c0.3,0.4,0.9-0.1,0.6-0.5l-1.7-2.9c-0.2-0.4-0.8-0.1-0.7,0.3c0,0.9,0.3,1.1,0.9,0.7
				c-0.1-0.2-0.3-0.3-0.6-0.2c-0.2,0.1-0.3,0.3-0.2,0.6l0,0l0.4,1.2l0.8-0.3l-0.9-1.6c-0.2-0.4-1-0.1-0.8,0.3l0.6,1.6l0.8-0.3
				l-0.6-1.1c-0.2-0.5-0.9-0.1-0.8,0.3l0.2,1.1l0.9-0.2l-0.4-1c-0.2-0.4-1-0.4-0.9,0.1c0.2,2-3,3.3-1.4,5.7c1,1.6,2.6,0.8,3.8-0.2
				c0.4-0.4-0.2-0.9-0.6-0.6c-2-1.3-2.5-2.2-1.5-2.6c0.1,0,0.1-0.1,0.2-0.2c-0.1-2.2,0.8,0.3,0.5-2.2l-0.9,0.1l0.4,1
				c0.1,0.2,0.3,0.4,0.5,0.3c0.2-0.1,0.4-0.3,0.3-0.5l-0.2-1.1l-0.8,0.3l0.6,1.1c0.2,0.4,1,0.1,0.8-0.3l-0.6-1.5L25.8,78l0.9,1.6
				c0.2,0.4,0.9,0.1,0.8-0.3l-0.4-1.2l-0.8,0.3l0.4,0.7c0.2,0.4,0.9,0.1,0.7-0.3c-0.1-1-0.3-1.1-0.7-0.4l1.1,2l0.6-0.5
				c-1.3-1.4-1.9-3.3-1.7-5.2l0.3-2.3c-1-0.6-1.4,2.3-1.5,3c-0.8,2.3-1.1,4.7-0.9,7.1c0,0.4,0.3,0.6,0.7,0.6c0.3,0,0.5-0.2,0.6-0.4
				c0.9-2.6,4.8-3.4,7-4.5c1.6-0.9,3.1-2.1,4.4-3.4c0.5-0.5-0.2-1.6-0.8-1.1c-1.8,1.3-3.7,2.6-5.7,3.8c-0.3,0.2-2.7,1.6-2.6,1.7
				c-0.4-0.1-0.8,0.1-0.9,0.5l-0.2,0.7h1.4l-0.2-0.7c-0.2-0.6-1.3-0.7-1.4,0L26.7,81l1.3-0.2l-0.5-1.1c-0.2-0.3-0.6-0.4-1-0.2
				c-0.2,0.1-0.3,0.3-0.3,0.6L26,81.8h1.3L27,79.9c-0.1-0.8-1.2-0.5-1.3,0.2l-0.3,2h1.3l0.1-1.8c0-0.3-0.3-0.6-0.7-0.6
				c-0.3,0-0.5,0.2-0.6,0.4c-0.1,0.6-0.3,1.3-0.5,1.9l1.2,0.2c0-1.1,0.1-2.2,0.3-3.2c0.1-0.3-0.2-0.7-0.5-0.7
				c-0.3-0.1-0.6,0.1-0.7,0.4c-0.6,1.5-0.9,3.1-0.9,4.6h1.2v-1.7h-1.3v1.8h1.3L25.6,81l-1.4,0.2l0.3,2.6c0,0.4,0.3,0.7,0.8,0.7
				c0.1,0,0.2,0,0.4-0.1c7-5.4,15.5-9.7,20.6-17.3c0.3-0.5-0.4-0.9-0.7-0.4C39.9,74,32.8,79.5,24.9,84.1c-0.2,0.1-0.2,0.3-0.1,0.5
				C24.9,84.8,25.1,84.9,25.3,84.8z"/>
		</g>
		<g class="st8">
			<path class="st6" d="M27.8,63.5c-2,5.1-2.4,13-0.4,18.2l1.1-0.5c-1.1-2.2-1.9-4.5-2.2-7c-0.1-0.6-1-0.4-1,0.1
				c0.2,2.1,0.3,4.3,0.5,6.4c0,0.3,0.3,0.6,0.6,0.6c0.3,0,0.6-0.3,0.6-0.6c0-1.6,0.1-3.2,0.1-4.9c0-0.3-0.3-0.6-0.7-0.5
				c-0.3,0-0.5,0.3-0.5,0.5c-0.1,2.1-0.2,4.2-0.2,6.3c0,0.3,0.3,0.6,0.7,0.5c0.3,0,0.5-0.3,0.5-0.5c0.1-1.7,0-3.3-0.2-5
				c-0.1-0.7-1.1-0.7-1.1,0c0,1.5-1.1,5.4,1.2,5.6c0.3,0,0.5-0.1,0.6-0.4c0.2-0.4,3.7-2.4,4.3-2.8c2.6-1.9,5.3-3.8,7.9-5.7
				c0.7-0.5,0-1.6-0.7-1.1c-2.1,1.5-4.2,2.9-6.3,4.4c-1.3,0.9-4.2,3.8-5.8,3.8c-0.3,0-0.6,0.2-0.7,0.6c0.4-1.4,0.6-2.9,0.5-4.3h-1.1
				c0.2,1.6,0.2,3.3,0,5h1.2c0.1-2.1,0.1-4.2,0.2-6.3h-1.2c0,1.6,0,3.2-0.1,4.9H27c-0.2-2.1-0.5-4.3-0.7-6.4h-1
				c0.3,2.6,1,5.1,2.2,7.4c0.3,0.6,1.4,0.2,1.1-0.5c-2.3-5.8-0.8-11.9-0.6-17.8C28,63.5,27.9,63.5,27.8,63.5L27.8,63.5z"/>
		</g>
		<g class="st8">
			<path class="st6" d="M27.7,64.1c-1.9,5.1-3.1,13-0.4,18c0.2,0.3,0.8,0.2,0.7-0.2c-0.4-3-1.1-5.8-1-8.9c0.1-3.1,0.8-5.9,0.8-8.9
				C27.9,64.1,27.8,64.1,27.7,64.1C27.8,64.1,27.7,64.1,27.7,64.1L27.7,64.1z"/>
		</g>
		<g class="st8">
			<path class="st6" d="M27.2,67.3c-1.6,4-3.2,10.7-1,14.7c0,0.1,0.1,0.1,0.2,0.1c0,0,0.1,0,0.1-0.1c0.4-2-0.1-4.3-0.1-6.4
				c0.1-2.8,0.4-5.6,0.9-8.3C27.3,67.3,27.3,67.3,27.2,67.3C27.3,67.3,27.2,67.3,27.2,67.3L27.2,67.3z"/>
		</g>
		<g class="st8">
			<path class="st6" d="M26.7,67.3c-0.9,5.1-2.7,10-1.3,15.2c0.1,0.4,0.5,0.6,0.9,0.5c0.2,0,0.3-0.2,0.4-0.3c0.5-1,1-1.9,1.6-2.8
				c0.4-0.7-0.6-1.3-1.1-0.6c-0.6,0.8-1,1.7-1.2,2.7c-0.1,0.3,0.1,0.7,0.5,0.8c0.2,0.1,0.4,0,0.6-0.2c0.5-0.4,1-0.8,1.3-1.3l-1-0.8
				L27,81.2c-0.2,0.3,0,0.7,0.3,0.9c0.3,0.1,0.6,0.1,0.8-0.1c0.4-0.3,0.7-0.5,1-0.8l-1-0.6l-0.2,0.6c-0.1,0.5,0.4,1,0.9,0.7
				c2.3-1.8,4.9-3.3,7.1-5.3c0.4-0.3-0.1-0.9-0.5-0.7c-2.5,1.4-4.8,3.3-7.2,5l0.9,0.7l0.2-0.6c0.1-0.3-0.1-0.7-0.5-0.8
				c-0.2,0-0.3,0-0.5,0.1c-0.4,0.2-0.7,0.5-1.1,0.8l0.9,0.9l0.4-0.8c0.3-0.6-0.5-1.4-1-0.8c-0.4,0.5-0.8,1-1.3,1.3l1.1,0.6
				c0.2-0.9,0.5-1.7,1.1-2.4l-1.1-0.6c-0.5,0.9-1.1,1.8-1.7,2.7l1.2,0.2c-1.4-4.9,0.6-9.8,0.5-14.8C27.2,67,26.7,66.9,26.7,67.3
				L26.7,67.3z"/>
		</g>
		<g class="st8">
			<path class="st6" d="M25.6,74.3c-0.4,1.7-0.7,3.5-0.8,5.3c0,0.9-0.4,2.8,0.3,3.6c1,1.2,1.9,0,2.2-1L26.1,82c0,0.5,0,0.9,0,1.4
				c0,0.3,0.3,0.6,0.6,0.6c0.2,0,0.3-0.1,0.4-0.2c0.5-0.4,0.9-0.8,1.2-1.3L27.2,82L27,82.8c-0.1,0.5,0.4,1,0.9,0.7
				c3.6-2.5,8.1-4.3,10.6-8.3c0.1-0.1,0-0.3-0.1-0.3c-0.1,0-0.2,0-0.2,0c-1.3,1-2.6,2-3.8,3.1c-0.8,0.7-4.4,4-5.7,3.7
				c-0.2-0.1-0.4,0-0.6,0.2l-0.8,0.7l0.9,0.7l0.2-0.8c0.1-0.5-0.6-1.1-1-0.6c-0.3,0.5-0.7,0.9-1.2,1.3l1.1,0.4c0-0.5,0-0.9,0-1.4
				c0-0.7-1.1-0.8-1.2-0.2c-0.3-0.6-0.4-1.2-0.3-1.8c0-0.6,0-1.3,0-1.9C25.7,76.9,25.7,75.6,25.6,74.3
				C25.7,74.3,25.7,74.2,25.6,74.3C25.6,74.3,25.6,74.3,25.6,74.3L25.6,74.3z"/>
		</g>
		<g class="st8">
			<path class="st6" d="M30.6,51.2c-0.7-0.5-1.8,0.3-2.4,0.7c-0.7,0.6-1.6,1.4-1.5,2.4c0.1,0.7,0.8,1.2,1.5,1.1
				c0.1,0,0.3-0.1,0.4-0.1c1.2-0.5,0.9-1.7,1.3-2.7c0.3-0.8-1.1-1.4-1.5-0.6c-0.5,1-0.7,2.1-0.6,3.2c0,0.4,0.4,0.8,0.8,0.8
				c0.2,0,0.4-0.1,0.6-0.2c0.7-0.6,1.1-1.4,1.2-2.3c0.1-0.8-1.1-1.1-1.5-0.4c-0.3,0.7-1.1,2.1-0.6,2.8c0.1,0.2,0.4,0.4,0.7,0.4
				c1.1-0.1,1.8-1.4,2.2-2.3c0.3-0.7-0.4-1.5-1.1-1.1c-0.9,0.6-1.9,2.1-0.9,3.1c1,1,2.6-0.2,3.1-1.2c0.2-0.3,0.1-0.7-0.2-0.9
				c-0.3-0.1-0.6-0.1-0.8,0.1c-0.2,0.1-0.3,0.3-0.5,0.4c-0.2,0.1-0.4,0.2-0.5,0.3l0.1,0.3l0-0.2c0.2-0.2,0.2-0.3,0.5-0.5l-1.1-1.1
				c-0.1,0.3-0.3,0.6-0.5,0.8c-0.1,0.1-0.6,0.7-0.3,0.7l0.7,0.4c0.1,0.1,0.2-0.4,0.2-0.4c0.1-0.3,0.2-0.5,0.3-0.8l-1.4-0.4
				c-0.1,0.5-0.3,0.9-0.7,1.2l1.4,0.6c-0.1-0.8,0-1.7,0.4-2.4l-1.5-0.6c-0.2,0.5-0.3,0.9-0.3,1.4c0.1,0.8,0.6-0.1,0.9-0.4
				c0.5-0.5,1.6-1,1.7-1.7C30.8,51.5,30.7,51.4,30.6,51.2L30.6,51.2z"/>
		</g>
		<g class="st8">
			<path class="st6" d="M29.7,50.5c-0.6,0.2-1.2,0.6-1.5,1.2c-0.5,0.5-0.8,1.2-0.8,1.9c0.1,0.6,0.6,1,1.2,0.9c0.1,0,0.1,0,0.2,0
				c0.7-0.2,1.3-0.7,1.7-1.3c0.4-0.7-0.4-1.3-1-1c-0.8,0.4-1.3,1.2-1.4,2.1c0,0.4,0.3,0.7,0.8,0.7c0.1,0,0.2,0,0.4-0.1
				c0.7-0.4,1.7-1.3,1.6-2.2c0-0.4-0.3-0.8-0.8-0.8c0,0-0.1,0-0.1,0c-0.4,0.1-0.8,0.4-1,0.8c-0.5,0.6-1,1.8,0,2.2
				c0.7,0.3,1.4,0,1.7-0.7c0.1-0.1,0.1-0.3,0.1-0.4c0-0.3-0.2-0.5-0.5-0.5c-0.1,0-0.2,0-0.2,0.1c0,0-0.7,0.5-0.3,0.5
				c0.1,0,0.3-0.5,0.4-0.5L29.4,53c-0.2-0.3-0.2,0-0.4,0.2c-0.2,0.2-0.4,0.3-0.6,0.4l1.1,0.6c0.1-0.4,0.3-0.7,0.6-0.8l-1-1
				c-0.1,0.1-0.2,0.2-0.3,0.3c-0.2,0.2-0.4,0.1-0.2,0.4s0.2,0.2,0.3-0.1s0.2-0.3,0.2-0.5c0.3-0.5,0.8-1,0.9-1.5
				C30.1,50.9,30,50.5,29.7,50.5L29.7,50.5z"/>
		</g>
		<g class="st8">
			<path class="st6" d="M29.1,53.1c0.6,0.3,1.4,0.2,1.9-0.4c0.3-0.3,0.2-0.8-0.1-1.1c0,0-0.1,0-0.1-0.1c-0.4-0.2-0.9-0.1-1.2,0.2
				c-0.6,0.5-1.3,1.3-1,2.1c0.2,0.4,0.5,0.7,1,0.7c0.4,0,0.9-0.2,1.1-0.5c0.3-0.3,0.5-0.8,0.4-1.2C31,52.3,30.5,52,30,52.1
				c-0.8,0.1-1.7,1.1-1.3,1.9c0.4,0.8,1.6,0.5,2.1-0.1c0.4-0.4,0.4-1.1,0-1.5C30.6,52.1,30.3,52,30,52c-0.6,0-1.1,0.6-1.1,1.2
				c0,0.3,0.2,0.7,0.5,0.9c0.6,0.4,1.4,0.3,1.9-0.3c0.1-0.2,0.2-0.5,0.2-0.7c0-0.3-0.3-0.6-0.6-0.6c-0.2,0-0.4,0.1-0.5,0.3
				c-0.1,0.1-0.2,0.2-0.2,0.3c0-0.1-0.1,0.2,0,0.1c-0.5,0.5-0.1-0.2-0.4-0.2c0,0.1-0.1,0.1-0.2,0.1c-0.1,0.1,0,0.1,0.2,0.1l0.2,0.3
				c0,0-0.1,0-0.1,0.1l0.1-0.1l0.1-0.1c0.1-0.1,0-0.1-0.2,0l-0.2-0.2l0,0v-0.4c0,0.1-0.1,0.2-0.2,0.3s0,0,0,0l0.2,0.2
				c0.1,0.1-0.1,0.1,0,0c0.1-0.1,0.1-0.2,0.2-0.3c0.1-0.2,0.3-0.3,0.5-0.3h-0.3L30,52.6l-0.1-0.3c0,0.3-0.6,0.5-0.8,0.5
				S28.9,53,29.1,53.1L29.1,53.1z"/>
		</g>
		<g class="st8">
			<path class="st6" d="M29.8,52.9c-0.4,0.1-0.8,0.3-1,0.6c-0.2,0.4-0.1,0.9,0.3,1.2c0.7,0.5,1.9-0.3,2.2-0.9
				c0.4-0.6,0.2-1.4-0.4-1.8c-0.2-0.1-0.4-0.2-0.7-0.2c-0.8,0-2.1,0.8-2,1.8c0,1.1,1.4,1.5,2.2,0.9c0.8-0.6,1.6-1.7,0.7-2.5
				c-0.7-0.5-1.7-0.3-2.2,0.4c-0.1,0.1-0.2,0.3-0.2,0.4c-0.3,1,0.7,2.2,1.7,1.5c0.5-0.3,0.7-1,0.3-1.6c-0.3-0.4-0.7-0.6-1.2-0.5
				c-0.5,0.2-0.9,0.6-0.9,1.2c0,0.5,0.3,1,0.9,1.2c0.4,0.2,0.7-0.4,0.5-0.7c0-0.1-0.1-0.1-0.1-0.2v-0.1c0-0.1,0-0.1,0,0
				c0,0.1-0.2,0-0.2,0c-0.1,0-0.3-0.2-0.2-0.4l0.3-0.3c-0.2,0.1-0.1,0.2,0.3,0.1v0c0,0,0,0,0,0c0,0,0,0,0-0.1c0-0.8-0.1-0.3-0.2-0.3
				c-0.1,0-0.5,0.4-0.5,0.4c0,0,0.2,0.2,0.2,0.2c0,0.2,0,0.2,0,0.1c0,0,0.1-0.1,0.1-0.1c0.1-0.1,0.3-0.2,0.4-0.3c0,0-0.1,0-0.1,0
				c0,0,0,0.1,0,0.1c-0.1,0.2-0.4,0.2-0.5,0.4h-0.1c0,0,0.1,0.1,0.2,0.1c0.1,0,0.3-0.1,0.4-0.2C30.5,53.4,30.2,52.8,29.8,52.9
				L29.8,52.9z"/>
		</g>
		<g class="st8">
			<path class="st6" d="M29.1,53.6c0.5,0.3,1.2,0.3,1.6-0.2c0.4-0.5,0.4-1.2-0.1-1.6c0,0-0.1-0.1-0.1-0.1c-1.2-0.7-2.6,1.1-2.2,2.2
				c0.5,1.6,2.8,0.7,2.8-0.7c0-1.6-2.6-1.3-2.8,0c0,0.6,0.5,1.2,1.1,1.2c0.1,0,0.2,0,0.4,0c0.7-0.2,1.1-1,0.9-1.7
				c-0.1-0.3-0.4-0.5-0.8-0.4c-0.1,0-0.2,0.1-0.2,0.1c-0.1,0.1-0.3,0.3-0.3,0.5c0,0.1-0.1,0,0,0.1c0.1,0,0.3-0.1,0.4,0.1l0.1,0.4
				c0,0.4-0.2,0.2-0.1,0.2l0.2,0c0.1,0,0,0-0.1,0l-0.3-0.3c-0.3-0.4,0.1-0.3,0-0.2c-0.1,0-0.1,0.1-0.2,0.1c0.1-0.4,0.3,0.2,0.3,0.2
				c0,0,0.1-0.1,0.1-0.1l0.3-0.3c-0.2,0.1-0.3,0-0.4-0.3l0.1-0.1h-0.2c-0.3-0.1-0.5,0.1-0.6,0.3C28.8,53.2,28.9,53.4,29.1,53.6
				L29.1,53.6z"/>
		</g>
		<g class="st8">
			<path class="st6" d="M30.2,52.2c-0.6-0.3-1.4-0.1-1.7,0.6c0,0,0,0.1-0.1,0.1c-0.2,0.7,0.2,1.5,1,1.7c0,0,0,0,0,0
				c0.8,0.2,1.6-0.3,1.8-1.1c0.2-0.7-0.2-1.4-0.9-1.6c-0.1,0-0.1,0-0.2,0c-0.9,0.1-1.6,0.7-1.8,1.5c-0.1,0.7,0.4,1.4,1.1,1.5
				c0.1,0,0.3,0,0.4,0c0.8-0.1,1.4-0.8,1.3-1.6c-0.1-0.8-0.8-1.4-1.6-1.3c-0.1,0-0.1,0-0.2,0c-0.8,0.2-1.2,1-1,1.8
				c0,0.1,0.1,0.2,0.1,0.3c0.4,0.6,1.2,0.8,1.8,0.5c0.1-0.1,0.2-0.1,0.3-0.2c0.2-0.2,0.2-0.5,0.1-0.8c-0.1-0.2-0.4-0.3-0.6-0.3
				c-0.1,0-0.2,0-0.3,0.1c0,0,0,0.1,0,0c0,0,0,0.1,0,0.1c0,0-0.2,0.2-0.3,0.2c-0.1,0-0.1-0.1-0.1-0.2c0,0,0,0,0,0c0,0,0,0,0.1,0
				c0.4,0.3,0,0.4,0.2,0.2l0.2-0.2c-0.1,0.1-0.3,0-0.3-0.1l0,0c0,0-0.1,0.1,0,0.1C30.3,53.4,30.8,52.4,30.2,52.2L30.2,52.2z"/>
		</g>
		<g class="st8">
			<path class="st6" d="M29.4,54c0.6,0.3,1.3,0.1,1.6-0.4c0.2-0.4,0.2-1-0.1-1.3c-1-1.1-2.6,0.2-2.6,1.4c0,0.6,0.5,1.2,1.1,1.2
				c0.1,0,0.1,0,0.2,0c0.7-0.1,1.2-0.6,1.5-1.2c0.3-0.6,0-1.4-0.6-1.6c0,0-0.1,0-0.2-0.1c-0.7-0.1-1.4,0.3-1.7,1
				c-0.3,0.7,0,1.5,0.7,1.8c0.1,0,0.1,0,0.2,0.1c0.6,0.2,1.2-0.2,1.4-0.8c0.1-0.3,0-0.6-0.1-0.8c-0.2-0.3-0.6-0.4-0.9-0.2
				c-0.1,0.1-0.3,0.2-0.3,0.4c0-0.1,0.7-0.1,0.5,0.2c0.1-0.2-0.3-0.3-0.4-0.4s0.1-0.1,0-0.1c-0.1,0-0.1,0.1-0.2,0.2
				c0,0-0.1,0.1-0.1,0.1c0,0,0.5,0.3,0.5,0.3c0,0,0.1-0.2,0.1-0.3c0,0,0.1,0,0-0.1c-0.1-0.1,0,0,0,0c0.1,0.1,0-0.1,0-0.1
				c0,0-0.1,0-0.2,0C29.2,52.9,28.9,53.7,29.4,54L29.4,54z"/>
		</g>
		<g class="st8">
			<path class="st6" d="M29.9,52.6c-0.8-0.2-1.6-0.2-2,0.6c-0.3,0.6,0,1.3,0.6,1.6c0.2,0.1,0.4,0.1,0.6,0.1c0.8-0.1,1.6-0.6,1.8-1.4
				c0.1-0.7-0.3-1.4-1.1-1.6c-0.1,0-0.3,0-0.4,0c-0.8,0-1.5,0.7-1.7,1.5c-0.1,0.7,0.4,1.3,1.1,1.4c0.2,0,0.4,0,0.6-0.1
				c0.8-0.2,1.3-1.1,1.1-1.9c0,0,0,0,0,0c-0.3-0.6-1-0.9-1.6-0.7c-0.1,0.1-0.2,0.1-0.3,0.2c-0.5,0.5-0.5,1.3,0,1.8
				c0.2,0.2,0.3,0.3,0.6,0.3c0.7,0.2,1.4-0.2,1.6-0.9c0-0.2,0.1-0.4,0-0.6c-0.1-0.4-0.5-0.6-0.9-0.5c-0.2,0.1-0.4,0.3-0.5,0.5v0.1
				c0-0.1,0.5,0.1,0.4,0c0,0.2,0,0.3-0.1,0.5l-0.1,0.1c-0.2,0.1-0.4,0-0.4-0.3c0-0.3-0.1-0.3-0.1-0.2c0,0.1,0,0,0,0s-0.1,0-0.1,0
				s0.5,0.5,0.4,0.5c0,0,0.2-0.1,0.2-0.1c0,0,0.1,0,0.1,0c0,0,0,0-0.1-0.1s-0.1-0.1-0.1-0.2c0-0.3,0-0.1-0.2,0
				c-0.1,0.1-0.1,0.1-0.2,0.1c0,0-0.1,0,0,0s0.1,0,0.2,0.1s0.2,0.2,0.1,0.1c-0.1,0,0,0,0,0s0.1-0.1,0.1-0.1c0.1,0,0.2-0.1,0.4-0.1
				C30.3,53.4,30.4,52.7,29.9,52.6L29.9,52.6z"/>
		</g>
		<g class="st8">
			<path class="st6" d="M29.6,52.5c-0.5-0.2-1.1,0.1-1.2,0.6c-0.1,0.2-0.1,0.3,0,0.5c0.2,0.6,0.8,1,1.4,0.9c0.1,0,0.1,0,0.2-0.1
				c0.7-0.3,1-1.1,0.8-1.8c-0.3-0.7-1-1-1.7-0.8c-0.7,0.3-1.1,1-0.9,1.8c0.2,0.7,0.9,1.1,1.6,0.9c0.1,0,0.1,0,0.2-0.1
				c0.6-0.3,0.9-1,0.6-1.6c-0.3-0.6-1-0.9-1.6-0.6c-0.6,0.3-0.9,1-0.6,1.6c0.1,0.3,0.4,0.6,0.8,0.7c0.6,0.2,1.3-0.3,1.4-0.9
				c0-0.2,0-0.4,0-0.6c-0.1-0.3-0.4-0.5-0.8-0.4c-0.1,0-0.3,0.1-0.3,0.3c-0.1,0.2-0.1,0-0.2,0.2c0.3-0.5,0.9,0.7,0.1,0.6
				c-0.2,0-0.3-0.3-0.2-0.5c0.2-0.2,0.3,0,0.3,0c0,0-0.1-0.1-0.1-0.1c0-0.1,0,0,0,0s0,0.1,0.1,0c0.2,0.1,0.2,0.4,0,0.4
				c0.3-0.1,0.5-0.3,0.4-0.6C29.9,52.7,29.8,52.6,29.6,52.5z"/>
		</g>
		<g class="st8">
			<path class="st6" d="M28.8,53.8v-0.3c0.1-0.5-0.6-0.8-0.8-0.3c-0.7,1.5-1.8,5.9,1.1,6c0.2,0,0.4-0.2,0.4-0.4c0-0.1,0-0.2-0.1-0.2
				c-0.8-0.5-1.2-1.4-1.1-2.3c0.1-0.9,0.3-1.8,0.6-2.7l-0.7,0.2c0.1,0.1,0.2,0.2,0.3,0.3C28.5,54.1,28.8,53.9,28.8,53.8L28.8,53.8z"
				/>
		</g>
		<g class="st8">
			<path class="st6" d="M26.7,54.1c-0.1,1.5,0.2,3,0.8,4.3c0,0.1,0.1,0.1,0.2,0c0,0,0.1-0.1,0.1-0.1c-0.2-1.4-0.5-2.8-0.7-4.2
				c0-0.1-0.1-0.2-0.3-0.2C26.8,54,26.7,54,26.7,54.1z"/>
		</g>
		<g class="st8">
			<path class="st6" d="M26.7,56.4c-0.4,3.6,5.1,4,6.4,1.2c0.1-0.1,0-0.3-0.1-0.4c-0.1,0-0.2,0-0.3,0c-0.9,0.4-1.5,1.2-2.5,1.4
				c-1.5,0.3-3-0.5-3-2.2C27.2,56.1,26.7,56.1,26.7,56.4L26.7,56.4z"/>
		</g>
		<g class="st8">
			<path class="st6" d="M28.7,59.7c2.5-0.8,5.7-2.1,7.2-4.4c0.2-0.4-0.2-0.7-0.5-0.5c-1.2,0.7-2.3,1.5-3.3,2.3
				c-1.1,0.8-2.3,1.4-3.6,2c-0.1,0.1-0.2,0.3-0.1,0.4C28.5,59.6,28.6,59.7,28.7,59.7L28.7,59.7z"/>
		</g>
		<g class="st8">
			<path class="st6" d="M31,59c1.9-1.1,4.4-3,4.9-5.3c0-0.2-0.1-0.4-0.2-0.4c-0.1,0-0.2,0-0.3,0.1c-0.8,0.9-1.5,1.8-2.1,2.7
				c-0.8,0.9-1.6,1.7-2.5,2.4C30.3,58.7,30.7,59.1,31,59z"/>
		</g>
		<g class="st8">
			<path class="st6" d="M34,56.5c1.1-1.2,2.7-2.9,2.6-4.7c0-0.2-0.3-0.3-0.4-0.2c-0.5,0.7-0.9,1.4-1.2,2.2c-0.4,0.9-0.8,1.7-1.3,2.4
				C33.6,56.5,33.9,56.7,34,56.5L34,56.5z"/>
		</g>
		<g class="st8">
			<path class="st9" d="M38.4,60.5c1.9-1.7,2.8-4.1,3.6-6.5l-1.6-0.2c-0.3,2.3-0.6,4.6-1.1,6.9c-0.1,0.5,0.2,1,0.7,1
				c0.4,0.1,0.9-0.2,1-0.6c0.7-1.9,1.5-3.7,2.6-5.4l-1.7-0.7c-0.4,2.1-1,4.1-1.7,6.1c-0.4,1,1.2,1.6,1.7,0.7l2.9-4.7l-1.6-0.9
				c-0.9,1.7-1.8,3.4-2.6,5c-0.2,0.5,0,1,0.4,1.3c0.4,0.2,1,0.1,1.2-0.3c1.1-1.6,2.4-3.1,3.9-4.5l-1.3-1l-3.7,5
				c-0.6,0.9,0.8,2,1.5,1.2c1.5-1.7,3-3.4,4.7-5l-1.4-1.1l-4.6,6.5c-0.6,0.9,0.8,1.9,1.5,1.2c2.1-2.2,4.2-4.4,6.4-6.6L48,56.7
				c-1.9,2.1-3.6,4.4-5,6.9c-0.3,0.5-0.1,1.1,0.4,1.3c0.4,0.2,0.9,0.2,1.2-0.1c2-2.1,3.9-4.2,5.8-6.5l-1.3-1
				c-1.8,2.4-3.6,4.9-5.4,7.4c-0.6,0.9,0.8,1.9,1.5,1.1c1.9-2,3.7-4.1,5.6-6c0.8-0.8-0.4-2-1.2-1.2c-2.3,2.2-4.3,4.7-5.9,7.4
				c-0.3,0.5-0.1,1,0.4,1.3c0.2,0.1,0.5,0.2,0.7,0.1c5-1.8,8.1-8.3,10.8-12.5c3.4-5.2,7.8-11.4,7.9-17.8c0-0.4-0.4-0.8-0.8-0.8
				s-0.8,0.4-0.8,0.8c-0.2,5.8-4.2,10.9-7.2,15.6c-2.5,3.8-5.9,11.2-10.4,12.8l1.1,1.4c1.5-2.6,3.4-5,5.5-7.2l-1.2-1.2
				c-1.9,2-3.8,3.9-5.7,5.9l1.5,1.1c1.8-2.5,3.6-4.9,5.3-7.4c0.6-0.8-0.7-1.8-1.3-1c-1.8,2.3-3.7,4.4-5.9,6.3l1.6,1.2
				c1.3-2.4,2.8-4.6,4.5-6.6c0.7-0.9-0.5-2.1-1.3-1.3c-2.1,2.2-4.3,4.4-6.5,6.5l1.5,1.2c1.5-2.2,3-4.3,4.5-6.5
				c0.6-0.9-0.7-1.8-1.4-1.1c-1.7,1.6-3.2,3.2-4.8,4.9l1.5,1.2l3.5-5.2c0.6-0.8-0.7-1.7-1.3-1c-1.5,1.4-2.9,2.9-4.2,4.6l1.5,1.2
				c0.9-1.7,1.7-3.4,2.6-5.1c0.3-0.4,0.1-1-0.3-1.3c-0.4-0.3-1-0.1-1.3,0.3c-1,1.6-2,3.1-2.9,4.7l1.7,0.7c0.7-2,1.2-4,1.6-6.1
				c0.1-0.5-0.2-1-0.7-1.1c-0.4-0.1-0.8,0.1-1,0.4c-1.1,1.8-2,3.8-2.7,5.8l1.7,0.5c0.5-2.4,0.9-4.9,1.1-7.3c0.1-1-1.4-1.1-1.6-0.2
				c-0.6,2.3-1.8,4.4-2.4,6.7c0,0.1,0.1,0.3,0.2,0.3C38.4,60.6,38.4,60.6,38.4,60.5L38.4,60.5z"/>
		</g>
		<g class="st8">
			<path class="st6" d="M61.4,34c0.1,0.1,0.2,0.1,0.3,0c0.1,0,0.2-0.1,0.1-0.2c0-0.1-0.1-0.2-0.2-0.1l0,0c-0.5,0.2-0.9,0.4-1.3,0.8
				c-0.1,0.1-0.1,0.3,0,0.4c0,0,0,0,0,0c0.3,0.3,0.8,0.4,1.3,0.3c0.4-0.1,0.6-0.5,0.6-0.9c0-0.3-0.3-0.6-0.7-0.5
				c-0.3,0-0.6,0.3-0.5,0.7c0,0,0,0.1,0,0.1c0,0.1,0.1,0.2,0.3,0.3c0.6,0.2,1.2-0.4,0.8-1c-0.3-0.3-0.8-0.4-1.1-0.1
				c-0.2,0.1-0.3,0.3-0.3,0.6c-0.1,0.5,0.3,0.9,0.7,1c0.2,0,0.5,0,0.6-0.2c0.5-0.4,0.3-1.3-0.4-1.1l0.3,0.7c0.7-0.5,1,1.4,1.1,1.7
				c0.1,0.6,0.4,1.2,0.6,1.8c0.1,0.2,0.3,0.2,0.5,0.1c0.1-0.1,0.1-0.2,0.1-0.3c-0.1-1.1-0.4-2.2-0.9-3.2c-0.2-0.7-1-1.1-1.7-0.8
				c0,0,0,0,0,0c-0.4,0.1-0.3,0.7,0.1,0.7l0,0l-0.2-0.3v-0.2l0.2,0.4c-0.4,0-0.8,0-1.1,0l0.1,0.4c0.3-0.3,0.7-0.6,1-0.8l-0.3-0.2
				L61.4,34C61.3,33.9,61.3,34,61.4,34L61.4,34z"/>
		</g>
		<g class="st8">
			<path class="st6" d="M64,32c-2.5-0.5-5,0.9-6,3.4c0,0.1,0.1,0.1,0.1,0.1c1.2-2.1,3.4-3.3,5.8-3.2C64.1,32.2,64.2,32,64,32L64,32z
				"/>
		</g>
		<g class="st8">
			<path class="st6" d="M62.9,31.4c-1.9,0.6-4.1,1.1-5.8,2.1c-0.2,0.1-0.1,0.4,0.2,0.4c2-0.3,4-1.3,5.8-2
				C63.4,31.7,63.3,31.2,62.9,31.4z"/>
		</g>
		<g class="st8">
			<path class="st6" d="M60.8,34c0.6,0.1,1.2,0.5,1.6,0.9c0.4,0.5,0.6,1,0.8,1.5c0.1,0.2,0.3,0.2,0.4,0.1c0.1,0,0.1-0.1,0.1-0.2
				c0.2-0.8-0.1-1.7-0.8-2.2c-0.6-0.5-1.4-0.7-2.2-0.5C60.8,33.7,60.7,33.8,60.8,34C60.8,33.9,60.8,34,60.8,34z"/>
		</g>
		<g class="st10">
			<path class="st6" d="M61.7,34.1c0.5-0.8,1.1,0.9,1.3,1.1c0.1,0.1,0.3,0.1,0.4,0c0,0,0.1-0.1,0.1-0.1c0.2-0.7-0.2-1.5-0.8-1.8
				c-0.5-0.2-1.2,0-1.4,0.6c0,0,0,0,0,0.1C61.2,34.2,61.6,34.4,61.7,34.1z"/>
		</g>
		<g class="st10">
			<path class="st6" d="M64.7,32.7c-1.1-1.4-3.1-0.9-4.3,0.1c-0.3,0.2,0,0.6,0.3,0.5c1.2-0.3,2.5-1,3.7-0.2
				C64.7,33.2,64.9,32.9,64.7,32.7z"/>
		</g>
		<g class="st10">
			<path class="st6" d="M59.5,32.7l-0.4,0.2c0,0,0,0,0,0L59.5,32.7C59.5,32.7,59.5,32.6,59.5,32.7L59.5,32.7z"/>
		</g>
		<g class="st10">
			<path class="st6" d="M53.4,35.8c2.7-1.2,5.3-2.7,7.8-4.3c0.2-0.1,0.1-0.5-0.2-0.4c-2.7,1.2-5.3,2.7-7.8,4.4
				c-0.1,0.1-0.1,0.2-0.1,0.3S53.3,35.9,53.4,35.8z"/>
		</g>
		<g class="st10">
			<path class="st6" d="M61.4,33.8c2.2-0.1,1.9,2.8,2.7,4.1c0.1,0.1,0.2,0.1,0.3,0.1c0.1,0,0.1-0.1,0.1-0.2c0-1.7-0.7-5.4-3.2-4.3
				C61.1,33.6,61.2,33.9,61.4,33.8L61.4,33.8z"/>
		</g>
		<g class="st10">
			<path class="st6" d="M62.9,34.7c0.3,3,0.3,6,0,9c0,0.1,0.2,0.1,0.2,0c0.9-2.9,1-6.1,0.3-9.1C63.3,34.4,62.9,34.4,62.9,34.7
				L62.9,34.7z"/>
		</g>
		<g class="st10">
			<path class="st6" d="M63,35.2c-0.5,3.5-1,6.8-2.4,10.1c-1.6,3.6-4,6.4-6.6,9.4c-0.1,0.1,0,0.4,0.2,0.3
				c6.1-3.9,10.1-12.6,8.9-19.8C63.1,35.1,63,35.1,63,35.2z"/>
		</g>
		<g class="st10">
			<path class="st6" d="M53.9,55.2L53.9,55.2L53.9,55.2z"/>
		</g>
		<g class="st10">
			<path class="st6" d="M57.2,50.4C57.2,50.4,57.2,50.4,57.2,50.4c0-0.1,0-0.1,0-0.1C57.2,50.4,57.2,50.4,57.2,50.4
				C57.2,50.4,57.2,50.4,57.2,50.4z"/>
		</g>
		<g class="st10">
			<path class="st6" d="M56.6,50.7c-0.3,5.9-7.6,11.8-11.6,15.6c-4,3.8-8.5,6.9-12.7,10.3c-0.5,0.4,0.1,1.1,0.7,0.8
				c6-3.2,11.4-8.1,16-13c3.5-3.7,8.6-8.3,7.8-13.8C56.7,50.6,56.6,50.7,56.6,50.7z"/>
		</g>
		<g class="st10">
			<path class="st6" d="M27.3,58.1c-0.2,1.4,1.7,2.2,2.8,2.1c0.2,0,0.3-0.2,0.3-0.3c0-0.1-0.1-0.2-0.2-0.3c-2.4-0.7-2.4-3.2-1.7-5.1
				c0.1-0.2-0.3-0.4-0.4-0.2c-0.8,1-1.1,2.3-0.6,3.5c0.5,1.1,1.4,2,2.5,2.4l0.2-0.6c-1.4,0.1-1.8-0.7-2.7-1.5
				C27.4,58.1,27.3,58.1,27.3,58.1L27.3,58.1z"/>
		</g>
		<g class="st10">
			<path class="st6" d="M27.5,55c-0.5,1-1,3-0.3,4c0.7,1,2.1,0.5,2.8-0.3c0.2-0.2,0.1-0.6-0.2-0.6c-0.5,0-1,0.3-1.4,0.6
				c-0.1,0.1-0.1,0.4,0,0.5c0.1,0.1,0.2,0.1,0.2,0.1c0.7,0.1,1.3-0.1,1.9-0.4l-0.4-0.7c-0.3,0.2-0.7,0.4-0.9,0.7
				c-0.1,0.2-0.1,0.4,0,0.6c0.1,0.1,0.2,0.1,0.4,0.1c0.2,0,0.4-0.1,0.6-0.3l-0.4-0.4l-0.6,0.4c-0.1,0.1-0.2,0.3-0.1,0.4
				c0.1,0.1,0.2,0.2,0.4,0.1c1.3-0.5,2.5-1.2,3.4-2.2c0.2-0.2,0-0.6-0.3-0.4c-1,0.8-2.1,1.5-3.3,2.1l0.2,0.5
				c0.2-0.2,0.4-0.3,0.7-0.4c0.2-0.1,0.1-0.7-0.2-0.6l-0.4,0.1l0.3,0.7c0.2-0.3,0.5-0.5,0.8-0.6c0.4-0.3,0-0.9-0.4-0.7
				c-0.5,0.3-1,0.4-1.5,0.4l0.2,0.6l0.9-0.4l-0.2-0.6l-0.2,0.2c-0.5,0.6-0.9,0.6-1.3-0.1c-0.6-0.6-0.6-0.6-0.5-1.3
				c0-0.7,0.1-1.3,0.1-1.9C27.7,55,27.5,55,27.5,55L27.5,55z"/>
		</g>
		<g class="st10">
			<path class="st6" d="M27.6,61.9c-0.4,1.3-0.6,2.6-0.7,3.9c0,0,0.1,0,0.1,0C27.1,64.5,27.3,63.2,27.6,61.9
				C27.7,61.8,27.6,61.8,27.6,61.9z"/>
		</g>
		<g class="st10">
			<path class="st6" d="M26.8,62.6c-1.7,6.9-2.2,14.3-2.7,21.4c0,0.3,0.3,0.6,0.6,0.6c0,0,0.1,0,0.1,0c0.6-0.2,1.3-0.3,2-0.4
				c0.3-0.1,0.5-0.4,0.4-0.7c0-0.1-0.1-0.2-0.2-0.3l-1-0.7l-0.7,0.9l0.7,0.4c0.5,0.3,1.1-0.3,0.8-0.8l-0.6-0.9l-0.8,0.8l0.6,0.3
				c0.4,0.2,1-0.1,0.8-0.6h-0.2c0.3,0,0.5-0.2,0.5-0.5c0-0.1-0.1-0.2-0.1-0.3l-0.5,0.1c0.3-0.1,0.5-0.4,0.4-0.6c0-0.1,0-0.1-0.1-0.2
				L26.1,81c0.3,0,0.5-0.3,0.5-0.6c0,0,0-0.1,0-0.1c-0.4-1.5-0.4-3.5-0.5-5.1c0-0.6-1-0.6-1,0c0.1,2.1-0.5,6.4,1.1,8.2
				c0.2,0.1,0.4,0.2,0.6,0.2c1.1-0.4,2.2-0.9,3.2-1.6c0.2-0.2,0.1-0.6-0.1-0.8c-0.1-0.1-0.3-0.1-0.5-0.1c-2.4,1.3-2.7,1.7-3-1.6
				c-0.1-1.4-0.2-2.8-0.3-4.2h-1c0.1,1-0.3,4.8,0.7,4.7c-0.3,0-0.5,0.3-0.5,0.5c0,0.1,0,0.2,0.1,0.3h0.4c-0.3,0.1-0.4,0.4-0.4,0.6
				c0,0.1,0.1,0.2,0.1,0.2l0.6,0.6l0.4-0.8H26c-0.3,0-0.5,0.2-0.5,0.5c0,0,0,0.1,0,0.1l0.2,0.6l0.8-0.6l-0.6-0.3
				c-0.5-0.2-1.1,0.3-0.8,0.8l0.6,0.9l0.8-0.8l-0.7-0.4c-0.5-0.3-1.2,0.4-0.7,0.9c0.3,0.4,0.8,0.7,1.3,0.9l0.1-1
				c-2,0.3-1-2.2-0.9-3.6c0.2-1.8,0.3-3.6,0.5-5.4c0.4-3.8,0.9-7.6,1.1-11.4c0-0.1-0.1-0.2-0.2-0.2C27,62.4,26.9,62.5,26.8,62.6
				L26.8,62.6z"/>
		</g>
		<g class="st10">
			<path class="st6" d="M36.5,47.4c5.7-2.6,11.2-5.7,16.3-9.3c0.1-0.1,0-0.2-0.1-0.2c-5.7,2.6-11.2,5.6-16.4,9.2
				c-0.1,0.1-0.1,0.2,0,0.2C36.4,47.4,36.4,47.5,36.5,47.4z"/>
		</g>
		<g class="st10">
			<path class="st6" d="M38.9,55.9L38.9,55.9L38.9,55.9z"/>
		</g>
		<g class="st10">
			<path class="st6" d="M28.3,53.7c-0.7,1.6-1,3.4-0.8,5.1c0.1,0.6,1,0.8,1.1,0.2l0.6-2.7l-1.2-0.2v2.9c0,0.5,0.7,0.8,1,0.4
				c0.4-0.5,0.7-1,0.8-1.6c0.2-0.6-0.8-1.1-1.1-0.5c-0.3,0.5-0.4,1-0.4,1.6c0,0.3,0.3,0.6,0.6,0.6c0.1,0,0.3-0.1,0.4-0.2
				c0.5-0.4,0.9-0.8,1.2-1.3c0.4-0.7-0.6-1.3-1-0.6c-0.3,0.5-0.4,1.1-0.3,1.6c0.1,0.3,0.4,0.5,0.8,0.4c0.1,0,0.2-0.1,0.3-0.1
				c0.6-0.6,1.3-1.3,1.8-2l-1-0.6l-0.2,0.5c-0.1,0.3,0.1,0.7,0.5,0.8c0.2,0,0.3,0,0.4-0.1c0.9-0.7,1.8-1.5,2.4-2.4
				c0.5-0.7-0.7-1.3-1.1-0.6c-0.6,0.8-1.2,1.6-2,2.3c-0.3,0.3-0.7,0.6-1.1,0.9c-0.8,0.5-1.4,0-2.1-0.4c-0.7-0.5-1.8,0.7-1,1.3
				l0.2,0.2c0.3,0.3,0.9,0.3,1.2,0c0.1-0.2,0.2-0.3,0.2-0.6c0.1-1.2,0.3-2.4,0.8-3.6c0.3-0.8-0.8-1.3-1.4-0.8
				c-1.2,1-1.6,3.7-0.2,4.7c0.6,0.4,1.3,0.3,1.8-0.2c0.9-1-0.3-1.7-0.1-2.7s-1.5-1.1-1.6-0.2c-0.3,1,0.3,2.1,1.3,2.3
				c0.2,0,0.3,0.1,0.5,0.1c1.5,0,3.2-1.4,4.1-2.4c0.5-0.6-0.1-1.6-0.9-1.1c-0.5,0.3-1,0.7-1.6,1c-0.1,0.1-2,1.2-1.9,0.4h-1.7
				c0,0.4,0.1,1.7,0.6,1.4c0.3-0.2,0.1-0.6,0.2-0.9c0-0.4,0.2-0.9,0.6-1.1l-1.4-0.8c-0.5,1.3-0.8,2.6-0.9,4l1.4-0.6l-0.2-0.2l-1,1.3
				c1.1,1,2.7,1.1,3.9,0.1c1.3-1,2.4-2.3,3.3-3.7l-1.1-0.6c-0.5,0.8-1.2,1.5-1.9,2l0.9,0.7l0.2-0.5c0.1-0.3-0.1-0.7-0.5-0.8
				c-0.2,0-0.4,0-0.6,0.2c-0.6,0.7-1.2,1.3-1.8,2l1,0.3l0.2-0.7l-1-0.6c-0.2,0.4-0.6,0.8-1,1.1l1,0.4c0-0.3,0-0.7,0.2-1l-1.1-0.5
				c-0.1,0.4-0.2,0.8-0.5,1.1l1,0.4v-2.9c0-0.3-0.3-0.6-0.6-0.6c-0.3,0-0.5,0.2-0.6,0.4l-0.6,2.7l1.1,0.2c-0.2-1.6,0-3.2,0.4-4.8
				C29.2,53.6,28.5,53.2,28.3,53.7L28.3,53.7z"/>
		</g>
		<g class="st10">
			<path class="st6" d="M31,82.6c0.1,0,0.2-0.1,0.3-0.1c0,0,0,0,0,0c0,0,0,0,0,0c-0.1,0-0.2,0-0.3,0C30.8,82.4,30.9,82.6,31,82.6
				L31,82.6z"/>
		</g>
		<g class="st10">
			<path class="st6" d="M31.2,82.6c6.2-3,11.1-9.2,15.3-14.5c0.1-0.1,0.1-0.3,0-0.4c-0.1-0.1-0.3-0.1-0.4,0l0,0
				c-2.2,2.9-4.6,5.7-7.3,8.2c-2.4,2.3-5.3,4.1-7.7,6.4c-0.1,0.1-0.1,0.2,0,0.2C31,82.6,31.1,82.6,31.2,82.6L31.2,82.6z"/>
		</g>
		<g class="st10">
			<path class="st6" d="M64.6,39.1c-0.1,1-0.3,2-0.7,3c-0.3,0.9-0.8,1.7-1,2.6c-0.1,0.2,0.1,0.5,0.3,0.5c0.1,0,0.3,0,0.4-0.1
				c1.6-1.4,1.8-4.2,1.4-6.1C65,38.8,64.6,38.9,64.6,39.1z"/>
		</g>
		<g class="st10">
			<path class="st6" d="M64.4,38.8c0,1.1-0.2,2.3-0.4,3.4c-0.1,0.9-0.6,2-0.2,2.9c0.1,0.2,0.2,0.3,0.4,0.2c0,0,0.1,0,0.1-0.1
				c0.8-0.6,0.8-1.9,0.9-2.8c0.1-1.2-0.1-2.5-0.4-3.6c0-0.1-0.2-0.2-0.3-0.1C64.5,38.7,64.4,38.7,64.4,38.8L64.4,38.8z"/>
		</g>
		<g class="st10">
			<path class="st6" d="M64.7,38.5c0.3,2-0.6,4-0.2,6c0.1,0.3,0.4,0.5,0.7,0.4c0.2-0.1,0.4-0.2,0.4-0.4c0.2-1.2,0.2-2.5,0-3.7
				c0.1-0.9-0.2-1.7-0.7-2.4C64.8,38.2,64.7,38.3,64.7,38.5L64.7,38.5z"/>
		</g>
		<g class="st10">
			<path class="st6" d="M64.8,38.7c-0.2,0.9-0.3,1.9-0.4,2.9c-0.2,0.8-0.3,1.6-0.2,2.4c0.1,0.2,0.3,0.4,0.6,0.3
				c0.1,0,0.1-0.1,0.2-0.1c0.5-0.7,0.7-1.6,0.7-2.4c0.1-1,0.1-2-0.1-3.1c-0.1-0.2-0.3-0.3-0.4-0.2C64.9,38.5,64.9,38.6,64.8,38.7z"
				/>
		</g>
		<g class="st10">
			<path class="st6" d="M64.9,39.4c-0.2,0.9-0.3,1.7-0.4,2.6c-0.1,0.7-0.3,1.6,0.2,2.1c0.1,0.1,0.3,0.1,0.4,0.1
				c0.6-0.5,0.5-1.1,0.5-1.8c0-1,0-1.9-0.1-2.9C65.6,39.1,65,39,64.9,39.4L64.9,39.4z"/>
		</g>
		<g class="st10">
			<path class="st6" d="M64.6,39.5c-0.1,0.9-0.2,1.8-0.3,2.7c-0.2,0.6-0.2,1.2,0,1.8c0.1,0.2,0.4,0.3,0.6,0.1c0,0,0,0,0.1-0.1
				c0.4-0.6,0.6-1.3,0.5-1.9c0-0.9,0-1.8-0.1-2.7c0-0.2-0.2-0.3-0.4-0.3C64.7,39.2,64.6,39.4,64.6,39.5z"/>
		</g>
		<g class="st10">
			<path class="st6" d="M64.7,39.6c-0.2,0.9-0.4,1.8-0.5,2.8c-0.1,0.8-0.4,1.6,0.2,2.2c0.2,0.1,0.4,0.1,0.6,0c0.5-0.6,0.4-1.3,0.4-2
				c0-0.9,0.1-1.9,0.1-2.8c0-0.2-0.1-0.4-0.3-0.5C64.9,39.2,64.7,39.4,64.7,39.6L64.7,39.6L64.7,39.6z"/>
		</g>
		<g class="st10">
			<path class="st6" d="M64.5,39.7c-0.2,1-0.3,2-0.4,3.1c-0.1,0.8-0.3,1.8,0.3,2.4c0.1,0.1,0.4,0.1,0.5,0c0.6-0.6,0.4-1.4,0.4-2.2
				c0-1,0-2.1,0.1-3.1C65.4,39.3,64.6,39.2,64.5,39.7L64.5,39.7z"/>
		</g>
		<g class="st10">
			<path class="st6" d="M64.5,39.1c-0.1,1.1-0.3,2.2-0.4,3.3c-0.1,0.9-0.4,1.9,0.1,2.6c0.1,0.2,0.3,0.2,0.5,0.1c0,0,0,0,0.1-0.1
				c0.6-0.7,0.5-1.6,0.5-2.5c0-1.2,0-2.4,0.1-3.6C65.4,38.5,64.6,38.5,64.5,39.1L64.5,39.1z"/>
		</g>
		<g class="st10">
			<path class="st6" d="M65.1,39.5c-0.2,0.9-0.5,1.9-0.6,2.8c-0.2,0.8-0.3,1.6-0.2,2.4c0.1,0.2,0.4,0.4,0.6,0.3
				c0.1,0,0.2-0.1,0.2-0.2c0.3-0.7,0.5-1.4,0.5-2.2c0.1-1,0.2-2,0.4-3C66,39.2,65.2,38.9,65.1,39.5L65.1,39.5z"/>
		</g>
		<g class="st10">
			<path class="st6" d="M65,38.8c-0.2,1.1-0.5,2.3-0.7,3.4c-0.3,0.9-0.4,1.9-0.2,2.8c0.1,0.2,0.3,0.3,0.5,0.3c0.1,0,0.2-0.1,0.2-0.2
				c0.4-0.9,0.6-1.8,0.6-2.8c0.1-1.2,0.2-2.3,0.4-3.5C65.9,38.5,65,38.4,65,38.8L65,38.8z"/>
		</g>
		<g class="st10">
			<path class="st6" d="M64.8,38.8L64,42.6c-0.3,1-0.5,2-0.4,3c0.1,0.2,0.3,0.3,0.4,0.3c0.1,0,0.2-0.1,0.2-0.2
				c0.6-0.9,0.6-2,0.8-3.1c0.2-1.2,0.4-2.4,0.6-3.5C65.9,38.5,65,38.2,64.8,38.8z"/>
		</g>
		<g class="st10">
			<path class="st6" d="M65.1,40c-0.5,1.2-0.9,2.5-1.4,3.7c-0.5,1.1-0.8,2.2-0.9,3.4c0,0.2,0.2,0.4,0.4,0.4c0.1,0,0.3-0.1,0.3-0.2
				c0.6-1,1-2.1,1.2-3.3c0.3-1.3,0.6-2.5,1-3.8c0-0.2-0.1-0.4-0.2-0.4S65.1,39.8,65.1,40z"/>
		</g>
		<g class="st10">
			<path class="st11" d="M34.2,84.5c12.4-3,25-5.3,37.8-6.7l-0.3-2c-12.2,3-24.4,5.9-36.6,9c-0.5,0.2-0.9,0.7-0.7,1.3
				c0.2,0.5,0.7,0.9,1.3,0.7c5.7-1.3,11.4-2.6,17-3.8L52.2,81c-8.9,2.2-18,3.9-27.2,5.1l0.5,1.8c5.5-2.4,11.3-3.8,17.3-4.3l-0.2-1.8
				c-4.1,1-8.2,2.1-12.3,3.1l1,1.3c0.6-1,0.5-1.1,0-2.2l-0.5,1.2C50.9,80.9,71.4,78.2,92,77c0.5,0,0.8-0.5,0.8-1
				c0-0.4-0.4-0.8-0.8-0.8c-22.5-2-44.5,4.6-65.7,11.6c-0.5,0.2-0.7,0.7-0.6,1.2c0.2,0.4,0.6,0.7,1,0.6c17.6-2.6,35.1-5.7,52.4-9.9
				c1.1-0.3,0.6-1.8-0.5-1.7c-7.7,1-15.3,2.2-23,3.3c-1.1,0.2-0.8,2.1,0.3,2c13-1.7,26-3.5,39.1-5.2c0.9-0.1,1.3-1.6,0.2-1.7
				c-5.5-0.9-11.1-1-16.6-0.3c-1,0.1-1,1.7,0,1.6c5.4-0.5,10.8-0.4,16.1,0.4l0.2-1.7c-13,1.7-26.1,3.2-39.1,4.9l0.3,2
				c7.7-1.1,15.3-2.3,22.9-3.5l-0.5-1.7c-17.2,4.2-34.6,7.5-52.2,9.7l0.2,1.8C48,82,69.5,75.2,92,77v-1.8
				c-20.7,1.4-41.4,4.2-61.7,8.4c-0.5,0.1-0.7,0.6-0.6,1.1c0,0.1,0,0.1,0.1,0.2l-0.1,0.5c-0.2,0.4-0.1,0.9,0.3,1.2
				c0.2,0.1,0.4,0.1,0.6,0.1c4.1-1,8.2-2,12.3-3c1-0.2,0.8-1.8-0.2-1.8c-6.2,0.5-12.3,1.9-18,4.3c-0.9,0.4-0.9,2,0.3,1.9
				c9.4-0.9,18.5-3,27.7-5.1c1.2-0.3,0.7-2.1-0.5-1.9c-5.7,1.2-11.4,2.5-17.1,3.7l0.5,2c12.2-2.9,24.4-6,36.6-9
				c1.1-0.3,0.9-2.2-0.3-2c-12.9,1.4-25.7,3.7-38.3,7c-0.5,0.2-0.7,0.7-0.6,1.2C33.3,84.3,33.8,84.6,34.2,84.5L34.2,84.5z"/>
		</g>
		<g class="st10">
			<path class="st11" d="M38.4,47.4c7.6-3.2,15-8.4,22-12.8c0.2-0.2,0.3-0.5,0.1-0.7c-0.1-0.2-0.4-0.3-0.7-0.2
				c-7.3,4.1-15.4,8-21.9,13.2C37.7,47.1,38.1,47.5,38.4,47.4L38.4,47.4z"/>
		</g>
		<g class="st10">
			<path class="st11" d="M38.2,48.1c5-0.3,9.7,2.1,12.4,6.3c0.2,0.4,0.7,0.6,1.1,0.4c0.1,0,0.2-0.1,0.2-0.2
				c4.5-5.5,7.5-12.1,8.7-19.1c0.1-0.8-0.9-1.6-1.5-0.9c-3.6,4.5-6.7,9.4-9.1,14.6c-0.4,0.8,0.7,1.9,1.4,1c2.3-2.8,4.3-5.9,6-9
				l-1.5-0.9l-2.9,6.3c-0.4,1,1,1.9,1.5,0.9l3.1-6.6c0.5-1-1-1.8-1.5-0.9c-1.8,3.6-3.7,7.2-5.5,10.8h1.6c-2.3-4.1-6.9-6.3-11.5-5.4
				l0.8,1.9c5.6-2.4,11-5.1,16.3-8.1l-1.4-1.4c-2.6,3.5-4.4,7.6-5.2,11.9l1.6-0.5c-0.9-1.2-2.4-2-3.9-2c-0.6,0-1,0.4-1,1
				c0,0.2,0,0.4,0.1,0.5c0.4,0.7,0.9,1.3,1.4,2l1.4-1.4c-5.4-3.3,3.4-6,4.5-6.3l-0.9-1.6l-3.7,4.7l1.6,0.9c0.7-1.6,1.3-3.2,2-4.7
				c0.4-1-1.2-1.6-1.7-0.7L49.8,46c-0.3,0.5-0.1,1,0.4,1.3c0.4,0.2,0.8,0.1,1.1-0.1c0.8-0.8,1.5-1.6,2.3-2.4c0.6-0.6,0-1.9-0.9-1.6
				l-4.1,1.6l0.9,1.6l2-0.9c1.1-0.2,0.8-1.9-0.3-1.9c-1.8-0.1-3.5,0.2-5.2,0.7c-0.5,0.2-0.8,0.7-0.6,1.2c0.2,0.5,0.6,0.7,1.1,0.6
				l5-0.9l-0.5-1.8l-5.8,1.8c-0.5,0.1-0.8,0.7-0.6,1.2c0.1,0.4,0.5,0.6,0.9,0.7l5.4,0.6c1,0.1,1.3-1.7,0.2-1.8l-2.6-0.4
				c-0.5-0.1-1,0.2-1.1,0.7c-0.1,0.5,0.2,0.9,0.6,1.1l3.7,1.1l0.5-1.8l-2.2-0.4l0.2,1.7c4.1-2.7,7.2-6.7,8.8-11.3
				c0.1-0.5-0.2-1-0.7-1.2c-0.2-0.1-0.5,0-0.7,0.1c-6.5,4.7-13.5,8.7-20.8,11.9c-1.2,0.5-0.2,2.3,1,1.8c7.3-3.3,14.3-7.3,20.8-12
				L57.3,36c-1.5,4.2-4.2,7.8-7.9,10.2c-0.6,0.4-0.6,1.6,0.2,1.7l2.2,0.4c0.5,0.1,1-0.2,1.2-0.7s-0.2-1-0.7-1.2l0,0l-3.8-1.2
				l-0.5,1.8l2.6,0.4l0.2-1.8l-5.4-0.6l0.2,1.8l5.8-1.8c0.5-0.2,0.8-0.7,0.6-1.2c-0.2-0.5-0.6-0.7-1.1-0.6l-5,0.9l0.5,1.8
				c1.5-0.5,3.1-0.7,4.7-0.6L51,43.5c-1.1,0.2-2.1,0.7-2.8,1.4c-0.7,0.6,0,2,0.9,1.6l4.1-1.6l-0.9-1.6L50,45.7l1.5,1.1l2.7-4.3
				l-1.6-1l-2,4.7c-0.4,0.9,0.8,2.1,1.5,1.2l3.7-4.6c0.4-0.4,0.3-1-0.1-1.4c-0.2-0.2-0.5-0.3-0.8-0.2c-2.6,0.7-5.7,1.6-6.8,4.3
				c-0.9,2.1-0.1,4.5,1.9,5.5c0.8,0.5,1.9-0.5,1.4-1.4l-1.3-2L49,49.3l2.5,1.4c0.4,0.4,1.1,0.4,1.4,0c0.1-0.1,0.2-0.3,0.2-0.4
				c0.8-4.1,2.5-8,5-11.4c0.6-0.8-0.6-1.8-1.4-1.4c-5.2,3-10.5,5.6-16,7.9c-0.9,0.4-1,2.2,0.3,2c3.8-0.6,7.6,1.1,9.6,4.4
				c0.3,0.4,0.9,0.6,1.3,0.3c0.1-0.1,0.2-0.2,0.3-0.3c1.8-3.7,3.5-7.3,5.4-10.9L56.1,40l-3.2,6.6l1.5,0.9l2.9-6.3
				c0.4-1-1-1.9-1.5-0.9c-1.7,3.1-3.6,6-5.7,8.7l1.4,1c2.3-5.1,5.3-9.9,8.9-14.2L58.8,35c-1.2,6.7-4,13-8.1,18.4l1.3,0.2
				c-2.9-4.7-8.3-7.4-13.8-6.9C37.3,46.7,37.2,48.1,38.2,48.1L38.2,48.1z"/>
		</g>
		<g class="st10">
			<path class="st11" d="M26.3,60.5c-0.1,0.6,0.2,1.1,0.8,1.3c0.4,0.1,0.9-0.1,1.2-0.4c0.3-0.5,0.1-1.2-0.4-1.6
				c-0.3-0.2-0.7-0.2-1.1,0c-0.9,0.5-0.8,2,0.3,2c1.1,0,1.1-1.6,0.2-2c-0.3-0.1-0.5,0-0.7,0.3c-0.5,1-0.5,2.4,0.9,2.5
				c0.8-0.1,1.5-0.4,2.2-0.8c0.9-0.4,1.8-0.8,2.6-1.4c0.4-0.4,0-1-0.5-0.9c-0.8,0.2-1.5,0.5-2.2,0.9c-0.3,0.2-2.5,1.4-2,0.3
				l-0.7,0.3c0.4,0,0.5-0.1,0.2-0.4C27,60.2,26.3,60.1,26.3,60.5z"/>
		</g>
		<g class="st10">
			<path class="st11" d="M32.8,58.1c-1,0.2-1.9,1.2-2.8,1.7c-0.4,0.2-1.2,0.8-1.7,0.7l-0.9-0.9c0-0.2,0.1-0.3,0.2-0.5
				c0.1-0.2,0.1-0.4,0.1-0.6c0.1-0.4-0.6-0.6-0.8-0.4c-1.2,1.2-0.9,3.7,1.2,3.6c1.6-0.1,4.7-1.8,5-3.5C33,58.2,32.9,58.2,32.8,58.1
				C32.9,58.1,32.8,58.1,32.8,58.1L32.8,58.1z"/>
		</g>
		<g class="st10">
			<path class="st11" d="M26.7,61.1C24.6,68,24,77,24.8,84.2c0,0.3,0.3,0.5,0.6,0.4c0.2,0,0.4-0.2,0.4-0.4c0.3-3.8,0.2-7.7,0.3-11.6
				c0.2-3.8,0.8-7.7,0.7-11.5C26.9,61,26.8,61,26.7,61.1C26.8,61,26.8,61.1,26.7,61.1L26.7,61.1z"/>
		</g>
		<g class="st10">
			<path class="st11" d="M26.6,62.9c-1.4,3.1-1.7,7-2,10.4c-0.3,3.9-0.8,8.2-0.2,12.1c0.1,0.4,0.5,0.2,0.6-0.1
				c0.5-3.7,0.2-7.5,0.6-11.3S26.9,66.6,26.6,62.9C26.7,62.9,26.6,62.8,26.6,62.9L26.6,62.9z"/>
		</g>
		<g class="st10">
			<path class="st11" d="M26.2,63c-2,7.1-1.9,15.2-1.4,22.4c0,0.7,1.1,0.7,1,0c-0.5-7.6,0.3-14.8,0.5-22.4C26.3,63,26.3,63,26.2,63
				C26.2,63,26.2,63,26.2,63L26.2,63z"/>
		</g>
		<g class="st10">
			<path class="st11" d="M26.9,85.1c4.1-1.2,7.8-4.7,10.8-7.6c3.3-3.1,7.3-7,9.2-11.2c0.2-0.4-0.3-0.8-0.6-0.5
				c-3.2,3.2-5.7,7.1-9,10.3C33.9,79.4,29.8,81.7,26.9,85.1C26.8,85.1,26.8,85.2,26.9,85.1L26.9,85.1z"/>
		</g>
		<g class="st10">
			<path class="st11" d="M27.8,82.6c3.3-2.4,6.3-5.2,9.4-7.9c3.4-3,7.1-6,10-9.4c0.1-0.2,0-0.5-0.2-0.3c-3.4,2.3-6.3,5.2-9.4,8
				c-3.4,3.1-6.9,6.1-9.9,9.5C27.6,82.5,27.6,82.6,27.8,82.6L27.8,82.6z"/>
		</g>
		<g class="st10">
			<path class="st11" d="M27.4,83.3c5.8-5.1,11.9-10.1,17.5-15.5c0.2-0.2-0.1-0.6-0.3-0.4c-6.4,4.3-12.2,10-17.4,15.7
				c0,0.1,0,0.1,0,0.2C27.3,83.3,27.4,83.3,27.4,83.3z"/>
		</g>
		<g class="st10">
			<path class="st11" d="M27.2,83.2c7.4-6.1,14.8-12.7,21-20c0.2-0.2,0.1-0.5-0.1-0.6c-0.2-0.1-0.4-0.1-0.5,0
				c-7.1,6.5-13.7,13.6-20.5,20.5C27,83.2,27.1,83.3,27.2,83.2L27.2,83.2z"/>
		</g>
		<g class="st10">
			<path class="st11" d="M38.6,74c4.7-4,9.8-7.9,13.9-12.6c0.2-0.3-0.1-0.8-0.4-0.6c-5.1,3.6-9.4,8.4-13.8,12.8
				C37.9,73.9,38.3,74.2,38.6,74z"/>
		</g>
		<g class="st10">
			<path class="st11" d="M43.6,68.1c4.9-4.1,8.6-9.3,10.8-15.3c0.1-0.3-0.3-0.4-0.4-0.2c-3.2,5.3-6.8,10.3-10.7,15.1
				c-0.1,0.1-0.1,0.2,0,0.3C43.4,68.2,43.5,68.2,43.6,68.1z"/>
		</g>
		<g class="st10">
			<path class="st11" d="M46.1,65.8c5.3-4.7,10.9-10.9,13.3-17.7c0.2-0.5-0.6-0.7-0.8-0.4c-2,2.8-3.6,5.9-5.6,8.8
				c-2.2,3.1-4.6,6.2-7.1,9.1c0,0.1,0,0.1,0,0.2C46,65.8,46.1,65.8,46.1,65.8L46.1,65.8z"/>
		</g>
		<g class="st10">
			<path class="st11" d="M56.4,49.1c-1.4,2.9-2.9,5.7-4.7,8.3c-1.7,2.7-4.1,5-5.6,7.8c-0.2,0.3,0.2,0.7,0.5,0.5
				c5.1-3.5,8.2-10.8,10.1-16.4C56.8,49,56.4,48.9,56.4,49.1L56.4,49.1z"/>
		</g>
		<g class="st10">
			<path class="st11" d="M57,46.3c-2,3.8-3.7,7.7-6,11.4c-2.3,3.7-5.2,6.8-7.6,10.4c-0.2,0.3,0.2,0.8,0.6,0.6
				c6.5-5,11.7-14.2,13.5-22.1C57.5,46.2,57.1,46.1,57,46.3z"/>
		</g>
		<g class="st10">
			<path class="st11" d="M55.9,49.2c-3.4,6.5-7.8,11.8-12.8,17.1c-0.2,0.3,0.1,0.7,0.4,0.5c6-4.2,10.3-10.7,12.9-17.4
				C56.6,49.1,56.1,48.9,55.9,49.2L55.9,49.2z"/>
		</g>
		<g class="st10">
			<path class="st11" d="M38.4,53C38.4,53,38.4,53,38.4,53c0-0.1,0-0.1,0-0.1C38.3,52.9,38.3,53,38.4,53C38.3,53,38.4,53,38.4,53z"
				/>
		</g>
		<g class="st10">
			<path class="st11" d="M38.4,53l0.5-1L38,51.7c-0.1,1.1-0.2,2.1-0.5,3.1l1.1,0.3c0.2-1,0.6-2,1.2-2.8L38.6,52v1.9
				c-0.1,0.6,0.7,1.1,1.1,0.4l1.4-2.4L40,51.5l-0.5,2.3c-0.1,0.3,0.1,0.7,0.4,0.7c0.3,0.1,0.5,0,0.7-0.3l1.1-1.6l-1.1-0.3v1.6
				c0,0.3,0.3,0.6,0.6,0.6c0.1,0,0.2,0,0.3-0.1c0.4-0.3,0.8-0.6,1-1l-1.1-0.3l0,1.6c0,0.3,0.3,0.6,0.6,0.6c0.1,0,0.3-0.1,0.4-0.2
				l1.2-1.4l-1-0.3l0.3,1.4c0.1,0.3,0.4,0.5,0.8,0.4c0.1,0,0.2-0.1,0.3-0.2l1.1-1.2l-1.1-0.6c-0.1,0.5-0.1,1-0.1,1.5
				c0,0.4,0.3,0.6,0.7,0.6c0.2,0,0.3-0.1,0.4-0.2l1.1-1l-1.1-0.6l-0.3,1.2c-0.1,0.3,0.1,0.7,0.5,0.8c0.2,0,0.3,0,0.5-0.1l1.1-0.7
				L45.7,54l-0.2,0.8c-0.1,0.3,0.2,0.7,0.5,0.7c0.1,0,0.3,0,0.4-0.1l1-0.5l-0.9-0.4l0.3,0.9c0.1,0.3,0.4,0.5,0.8,0.4c0,0,0,0,0,0
				c0.5-0.1,1.6,0.7,2.2,0.9c0.8,0.2,1.5,0.4,2.3,0.4c0.8,0.1,0.8-1.2,0-1.2c-1.9-0.2-3.1-1.8-4.9-1.4l0.8,0.4l-0.3-0.9
				c-0.1-0.3-0.4-0.6-0.8-0.5c-0.1,0-0.1,0-0.2,0.1l-1,0.5l0.9,0.7l0.2-0.8c0.1-0.3-0.1-0.7-0.5-0.8c-0.2,0-0.3,0-0.5,0.1l-1.1,0.7
				l0.9,0.7l0.3-1.1c0.1-0.3-0.1-0.7-0.5-0.8c-0.2,0-0.4,0-0.6,0.2l-1,1l1.1,0.5v-1.2c0.1-0.6-0.6-1.2-1.1-0.6L43,54.2l1,0.3
				l-0.3-1.4c-0.1-0.3-0.4-0.5-0.8-0.4c-0.1,0-0.2,0.1-0.3,0.2l-1.2,1.4l1.1,0.4v-1.6c0-0.3-0.3-0.6-0.6-0.6c-0.2,0-0.4,0.1-0.5,0.3
				l-0.6,0.6l0.9,0.5v-1.6c0-0.3-0.3-0.6-0.6-0.6c-0.2,0-0.4,0.1-0.5,0.3l-1.1,1.6l1.1,0.5c0.2-0.8,0.3-1.5,0.5-2.3
				c0.1-0.3-0.2-0.6-0.5-0.7c-0.2,0-0.5,0.1-0.6,0.3l-1.4,2.4l1.1,0.4c0.2-0.7,0.2-1.5,0.1-2.2c0-0.3-0.3-0.6-0.6-0.6
				c-0.2,0-0.4,0.1-0.5,0.3c-0.6,0.9-1.1,2-1.3,3.1c-0.1,0.3,0.1,0.6,0.5,0.7c0.3,0.1,0.5-0.1,0.6-0.4c0.4-1.1,0.5-2.3,0.4-3.5
				c-0.1-0.6-1-0.6-1,0C37.9,52.1,38,52.6,38.4,53C38.3,53,38.3,53,38.4,53C38.4,53,38.4,53,38.4,53L38.4,53z"/>
		</g>
		<g class="st10">
			<path class="st11" d="M30,61.6c-0.4,4.7-0.3,9.4,0.2,14.1c0,0.5,0.4,0.9,0.9,0.9c0.1,0,0.1,0,0.2,0c2.1-0.6,4-1.6,5.7-3
				c0.9-0.7-0.2-1.9-1.1-1.5l-1.5,0.7l1.1,1.5l1.3-1.6c0.3-0.4,0.3-1-0.1-1.3c-0.3-0.3-0.7-0.3-1-0.1l-2.3,1.2l1.2,1.2l1.3-1.9
				c0.6-0.9-0.7-1.7-1.4-1.1l-2.2,1.7l1.4,1.1l1.5-2.1c0.6-0.8-0.8-1.9-1.4-1.1l-1,0.9l1.3,1c0.1-0.8,0.2-1.6,0.3-2.4H33l-0.7,1.9
				l1.4,0.4c0.1-0.5,0.1-1,0.2-1.5c0.1-0.9-1.3-1-1.5-0.2l-0.8,2.5l1.5,0.2c-0.1-1.1-0.2-2.2-0.3-3.3c0-0.4-0.4-0.8-0.8-0.8
				c-0.4,0-0.8,0.4-0.8,0.8l-0.3,3.3h1.6c-0.2-2.8-0.1-5.6,0.3-8.4c0.1-1-1.4-1.5-1.6-0.4L31,65.7l1.6,0.2c-0.1-1.3-0.2-2.5-0.3-3.8
				c0-0.5-0.4-0.8-0.8-0.8c-0.5,0-0.8,0.4-0.8,0.8c-0.2,4.2,0.6,8.3,2.4,12.1l1.6-0.9l-1.4-2.6c-0.5-0.9-1.6-0.4-1.7,0.5
				c-0.2,1.7,0,3.4,0.6,5.1l1.4-1l-0.8-0.4c-0.6-0.3-1.5,0-1.4,0.8c0,0.6,0.2,1.2,0.5,1.7c0.3,0.4,0.8,0.6,1.3,0.3
				c5.3-3,9.9-7.2,13.4-12.2c0.6-0.8-0.7-1.9-1.4-1.1c-1.9,2.1-4.6,5.7-7.5,5.6c-3.8-0.2-4.4-6.2-3.9-9.2c0.2-1.1-1.5-1.7-1.8-0.5
				c-0.8,3.9,0.1,9.2,3.7,11.6c3.7,2.5,8.5-3.9,10.7-6.2l-1.4-1.1c-3.4,4.7-7.7,8.7-12.8,11.5l1.3,0.3l-0.3-0.8l-1.4,0.8l0.8,0.3
				c0.5,0.2,1,0.1,1.3-0.4c0.1-0.2,0.1-0.4,0.1-0.7c-0.5-1.5-0.6-3-0.5-4.6l-1.7,0.5c0.5,0.9,0.9,1.7,1.4,2.6c0.6,1,2.1,0.1,1.6-0.9
				c-1.6-3.5-2.4-7.3-2.3-11.2h-1.7c0.1,1.3,0.2,2.5,0.3,3.8c0.1,0.9,1.5,1.2,1.6,0.2l0.2-1.5l-1.6-0.2c-0.4,2.8-0.5,5.7-0.3,8.6
				c0,0.4,0.4,0.8,0.8,0.8s0.8-0.4,0.8-0.8l0.3-3.3h-1.6c0.1,1.1,0.2,2.2,0.3,3.3c0,0.4,0.4,0.8,0.9,0.7c0.3,0,0.6-0.2,0.7-0.5
				l0.7-2.6l-1.5-0.2c-0.1,0.5-0.1,1-0.1,1.5c-0.1,0.8,1,1,1.4,0.4c0.5-0.8,0.9-1.7,0.9-2.7c0.1-0.9-1.3-1-1.5-0.2
				c-0.2,0.8-0.4,1.4-0.5,2.2c-0.1,0.5,0.2,1,0.7,1.1c0.2,0.1,0.5,0,0.7-0.1c0.6-0.2,1.1-0.6,1.4-1.1l-1.4-1.1l-1.5,2.1
				c-0.7,0.9,0.7,1.7,1.4,1.1l2.2-1.7l-1.4-1.1l-1.3,1.9c-0.6,0.8,0.5,1.6,1.2,1.2c0.7-0.4,1.5-0.8,2.3-1.1l-1.1-1.4L34.2,73
				c-0.4,0.4-0.4,1,0,1.3c0.3,0.3,0.8,0.4,1.1,0.1l1.5-0.7l-1.1-1.5c-1.4,1.2-3,2-4.8,2.6l1.1,0.9c-0.5-4.7-0.6-9.4-1-14.1
				c0-0.3-0.2-0.5-0.5-0.5S30,61.3,30,61.6L30,61.6z"/>
		</g>
		<g class="st10">
			<path class="st11" d="M66.2,27.9c-0.3,1.1-0.4,2.3-0.4,3.5c-0.1,1.2-0.1,2.3,0.1,3.5c0.1,0.2,0.3,0.4,0.6,0.3
				c0.1,0,0.3-0.2,0.3-0.3c0.2-1.1,0.3-2.3,0.3-3.5c0.1-1.2,0.1-2.3-0.2-3.5c-0.1-0.2-0.3-0.3-0.4-0.2
				C66.4,27.7,66.3,27.8,66.2,27.9z"/>
		</g>
		<g class="st10">
			<path class="st11" d="M66.8,29.2c-1.4,8.4-1.2,17.2-1.2,25.7c0,9.1,0.1,18.1,0.5,27.2c0,1,1.6,1.3,1.8,0.2
				c0.2-1.6,0.5-3.3,0.9-4.9l-1.9-0.3c-0.1,1.5-0.2,3-0.3,4.6c0,1.4,2,1.4,2.1,0c0.1-1.1,0.2-2.1,0.3-3.2s-1.9-1.4-2-0.3
				c-0.2,1.8-0.5,3.6-0.7,5.5h2.1l-0.1-1.9c0-0.5-0.5-0.9-1-0.9c-0.4,0-0.7,0.3-0.9,0.7c-0.3,0.7-0.4,1.4-0.3,2.1
				c0,0.4,0.4,0.8,0.8,0.8l2.4,0.2l0.2-1.4c-1,0.1-2,0-2.9-0.2l0.9,0.9c0-2.2-0.1-4.3-0.3-6.4c-0.1-1.2-1.8-1.2-1.8,0
				c0,2.2,0.1,4.3,0.3,6.4c0,0.4,0.4,1,0.9,0.9c1-0.2,2-0.2,3-0.1c0.4,0,0.7-0.4,0.7-0.8c0-0.3-0.2-0.6-0.5-0.7
				C69,82.7,68,82.5,67,82.7l0.8,0.8l0.4-1.3l-1.8-0.5l-0.1,1.9c-0.1,1.2,1.9,1.5,2.1,0.3c0.3-1.8,0.4-3.6,0.6-5.5H67
				c-0.1,1.1-0.2,2.1-0.4,3.2h2.1c0.1-1.5,0.1-3,0.1-4.6c0-1.3-1.8-1.2-2,0c-0.2,1.6-0.4,3.1-0.7,4.7L68,82
				c-0.4-8.8-0.7-17.6-0.7-26.4s0.7-17.6,0-26.4C67.3,28.9,66.9,28.8,66.8,29.2L66.8,29.2z"/>
		</g>
		<g class="st10">
			<path class="st12" d="M69.5,30.2c-0.8,17.9,0.5,36-0.7,53.9l1.5-0.4c-1.6-3.7-2.1-7.9-1.4-11.9h-1.7c0.5,3.4,1,6.9,1.6,10.3
				l1.7-0.5c-1.7-9-0.6-18.1-0.3-27.1c0.3-8.9-1.4-17.9,0.4-26.7L69.1,28l0.5,0.8c0.6,0.9,1.9,0.1,1.4-0.8l-0.5-0.8
				c-0.2-0.4-0.7-0.5-1.1-0.3c-0.2,0.1-0.4,0.3-0.4,0.5c-1.9,9-0.2,18.1-0.5,27.2c-0.3,9.3-1.2,18.4,0.2,27.6
				c0.2,1.1,1.9,0.6,1.7-0.5c-0.5-3.4-1.1-6.9-1.6-10.3c-0.1-0.5-0.7-0.7-1.1-0.6c-0.3,0.1-0.5,0.3-0.6,0.6c-0.8,4.5-0.2,9,1.7,13.1
				c0.4,0.8,1.4,0.3,1.5-0.4c0.6-8.9,0.3-17.9,0.3-26.8s0.2-18.1-0.2-27.1c0-0.3-0.3-0.5-0.6-0.5C69.7,29.7,69.5,29.9,69.5,30.2z"/>
		</g>
		<g class="st10">
			<path class="st12" d="M68.6,80.8c0.4-1.8,0.4-3.7-0.1-5.6c0-0.1-0.2-0.1-0.2,0C68.6,77.1,68.7,78.9,68.6,80.8
				C68.5,80.8,68.6,80.8,68.6,80.8L68.6,80.8z"/>
		</g>
		<g class="st10">
			<path class="st12" d="M67.8,72.5c0,1.9,0.5,3.8,0.7,5.7c0.2,1.9,0.1,3.9,0.4,5.8c0,0.4,0.3,0.6,0.7,0.6c0.4,0,0.6-0.3,0.6-0.7
				c0-0.1,0-0.2-0.1-0.3l-0.3-0.6c-0.1-0.1-0.3-0.2-0.4-0.1c0,0-0.1,0.1-0.1,0.1l-0.3,0.6l1.2,0.5c0.6-3.6,0-8.7-1.8-11.9
				c-0.1-0.1-0.3-0.2-0.4-0.1C67.8,72.3,67.8,72.4,67.8,72.5L67.8,72.5z"/>
		</g>
		<g class="st10">
			<path class="st12" d="M70,76.3l0.2-0.6l-0.7-0.3c-0.3,1.2-0.4,2.5-0.3,3.8c-0.1,1.3-0.2,2.6-0.1,3.8c0.1,0.6,1,0.5,1.2,0
				c0.3-1.3,0.5-2.7,0.4-4.1c0.1-1.2,0-2.4-0.4-3.6c-0.2-0.4-0.9,0-0.6,0.4l0.2,0.6c0,0.1,0.1,0.1,0.1,0.1S70,76.4,70,76.3z"/>
		</g>
		<g class="st10">
			<path class="st12" d="M69.7,74.7c-0.5,1-0.8,2.1-0.8,3.3c-0.2,1.2-0.3,2.3-0.5,3.5H70c0-2.1,0-4.2,0-6.3c0-0.8-1.2-1-1.4-0.2
				l-1.1,5.6l1.4,0.2c0-1.3,0.1-2.6,0.3-3.9c0.2-0.9-1.2-1.3-1.4-0.4L66.6,81l1.4,0.1c0-1.3,0.1-2.6,0.5-3.8l-1.4-0.4
				c-0.3,1.2-0.4,2.4-0.4,3.6c0,0.4,0.7,0.7,0.9,0.2c0.4-1.1,0.8-2.3,1-3.4c0.1-0.4-0.2-0.8-0.6-0.9c-0.4-0.1-0.7,0.1-0.8,0.5
				c-0.4,1.4-0.5,2.8-0.5,4.2c0,0.4,0.3,0.7,0.7,0.7c0.3,0,0.6-0.2,0.7-0.5l1.1-4.5l-1.4-0.4c-0.3,1.4-0.4,2.8-0.4,4.3
				c0,0.8,1.2,1,1.4,0.2l1.1-5.6L68.5,75c0,2.1,0,4.2,0,6.3c0,1,1.4,0.9,1.5,0c0.2-1.2,0.3-2.3,0.4-3.5c0.2-1,0.2-2.1,0-3.1
				c-0.1-0.2-0.3-0.3-0.4-0.3C69.9,74.5,69.8,74.6,69.7,74.7L69.7,74.7z"/>
		</g>
		<g class="st10">
			<path class="st12" d="M66.8,74.5c-0.2,1.4-0.3,2.8-0.3,4.2c-0.2,1.6-0.3,3.2-0.3,4.8c0,0.3,0.3,0.6,0.6,0.6
				c0.2,0,0.5-0.2,0.5-0.4c0.5-1.5,0.7-3,0.6-4.6c0.1-1.6,0-3.1-0.5-4.6C67.4,74.1,66.9,74.1,66.8,74.5L66.8,74.5z"/>
		</g>
		<g class="st10">
			<path class="st12" d="M66.8,74.3c-0.4,3.2-0.6,6.4-0.7,9.6c0,0.9,1.2,1,1.5,0.2l1.7-4.7l-1.5-0.2c0,1.4,0,2.9,0,4.3
				c0,0.4,0.4,0.7,0.8,0.7c0.3,0,0.6-0.2,0.7-0.5l0.6-2.6h-1.4c0.3,0.8,0.4,1.6,0.3,2.4c-0.1,0.8,1.2,0.9,1.4,0.2l0.7-2.3l-1.4-0.2
				c0,0.9,0,1.7,0.1,2.6c0,0.4,0.3,0.7,0.7,0.7c0.4,0,0.7-0.3,0.7-0.7c0.2-4-0.1-8-0.8-12c-0.1-0.3-0.6-0.2-0.6,0.1
				c-0.1,4,0.1,8,0,11.9h1.4c0-0.9,0-1.7,0-2.6c0-0.4-0.3-0.7-0.7-0.7c-0.3,0-0.6,0.2-0.7,0.5l-0.7,2.3l1.4,0.2c0.1-1,0-1.9-0.3-2.8
				c-0.1-0.4-0.5-0.6-0.9-0.5c-0.2,0.1-0.4,0.3-0.5,0.5c-0.2,0.9-0.5,1.7-0.7,2.6l1.4,0.2c0-1.4,0-2.9,0-4.3c0-0.4-0.4-0.7-0.8-0.7
				c-0.3,0-0.6,0.2-0.7,0.5l-1.7,4.7l1.5,0.2c0.1-3.2,0.1-6.4,0-9.6c0-0.2-0.2-0.4-0.4-0.4S66.8,74.1,66.8,74.3L66.8,74.3z"/>
		</g>
		<g class="st10">
			<path class="st12" d="M70.1,78.2c0.2-5.7,0.6-11.8-0.3-17.4c0-0.3-0.5-0.2-0.5,0.1c-0.7,5.6-0.1,11.7,0.2,17.4
				c0,0.2,0.2,0.3,0.4,0.3C70,78.4,70.1,78.3,70.1,78.2z"/>
		</g>
		<g class="st10">
			<path class="st12" d="M68.7,77.1c0.2-5.7,0.6-12-0.5-17.6c0-0.1-0.2-0.2-0.3-0.2c-0.1,0-0.1,0.1-0.2,0.2
				c-1.2,5.5-0.6,12.1,0.2,17.6C68,77.6,68.7,77.5,68.7,77.1L68.7,77.1z"/>
		</g>
		<g class="st10">
			<path class="st12" d="M66.6,79.4c0.9-7.1,1.2-14.3,1-21.5c0-0.3-0.5-0.4-0.6-0.1c-1.4,7.1-1.8,14.4-1.2,21.6
				c0,0.2,0.2,0.4,0.4,0.4S66.6,79.6,66.6,79.4L66.6,79.4z"/>
		</g>
		<g class="st10">
			<path class="st12" d="M67.5,64.1c-0.3,5-1.3,10.6-0.3,15.6c0.1,0.2,0.4,0.3,0.6,0.2c0.1,0,0.2-0.1,0.2-0.2
				c1.2-4.9,0.3-10.6,0.2-15.6c-0.1-0.2-0.3-0.3-0.5-0.3C67.6,63.8,67.5,63.9,67.5,64.1L67.5,64.1z"/>
		</g>
		<g class="st10">
			<path class="st12" d="M67.6,68.1c-0.2,2.1-0.3,4.2-0.4,6.2c0,1.8-0.3,3.7,0.2,5.5c0.1,0.2,0.3,0.4,0.6,0.3c0.1,0,0.3-0.2,0.3-0.3
				c0.5-1.7,0.3-3.7,0.3-5.5c0-2.1-0.1-4.2-0.3-6.2c0-0.2-0.2-0.3-0.4-0.3C67.8,67.8,67.7,68,67.6,68.1z"/>
		</g>
		<g class="st10">
			<path class="st12" d="M68.1,67.3c-0.2,2.3-0.3,4.5-0.4,6.8c0,2-0.3,4.1,0.2,6c0.1,0.3,0.4,0.4,0.6,0.3c0.1,0,0.3-0.2,0.3-0.3
				c0.6-1.9,0.3-4,0.3-6c0-2.3-0.2-4.5-0.3-6.8c0-0.2-0.2-0.3-0.4-0.3C68.3,67,68.2,67.1,68.1,67.3z"/>
		</g>
		<g class="st10">
			<path class="st12" d="M69.1,66.8c0.2,4.1-0.2,8.5,0.5,12.5c0.1,0.3,0.3,0.4,0.6,0.3c0.2,0,0.3-0.2,0.3-0.3
				c0.8-4-0.1-8.6-0.8-12.6C69.7,66.3,69.1,66.4,69.1,66.8L69.1,66.8z"/>
		</g>
		<g class="st10">
			<path class="st12" d="M69.9,65.7c-0.3,4.7-1.3,9.5-1.1,14.1c0,0.3,0.2,0.5,0.5,0.5c0.2,0,0.4-0.1,0.5-0.4
				c1.2-4.5,0.9-9.6,0.8-14.2c0-0.2-0.2-0.3-0.4-0.3C70.1,65.4,69.9,65.5,69.9,65.7L69.9,65.7z"/>
		</g>
		<g class="st10">
			<path class="st12" d="M65.6,22.6V22c0-0.9-1.5-0.7-1.2,0.2c1.1,3.8,2,8.3,4,11.7c0.2,0.3,0.8,0.2,0.7-0.2c-0.5-4-2.3-8-3.6-11.8
				l-0.9,0.7l0.5,0.3C65.3,23,65.5,22.8,65.6,22.6L65.6,22.6z"/>
		</g>
		<g class="st10">
			<path class="st13" d="M67.9,14.4c-0.4,2.2-1.4,4.1-2,6.3c0,0.1,0,0.2,0.1,0.2c0.1,0,0.2,0,0.2-0.1c1.3-1.8,1.6-4.2,1.9-6.3
				C68.1,14.3,67.9,14.3,67.9,14.4z"/>
		</g>
		<g class="st10">
			<path class="st13" d="M68.2,10.5c0,3.7,0.2,7.3,0.6,11c0.3,3.6,1.3,7.8-1,10.8c-0.4,0.6,0.6,1.4,1,0.8c2-2.5,1.6-5.5,1.3-8.5
				c-0.4-4.7-0.6-9.6-1.6-14.2C68.6,10.3,68.3,10.4,68.2,10.5L68.2,10.5z"/>
		</g>
		<g class="st10">
			<path class="st14" d="M68.5,12.6c-0.7,5.6,2.6,13.3-1.2,18c-0.2,0.2-0.2,0.5,0,0.7c0.1,0.1,0.4,0.2,0.6,0.1
				c2.6-1.2,2.4-3.8,2.2-6.3c-0.3-4.1-0.2-8.6-1.3-12.5C68.8,12.3,68.5,12.4,68.5,12.6L68.5,12.6z"/>
		</g>
		<g class="st10">
			<path class="st14" d="M67.9,12.5c0.9,3.4,3.4,8.2,2.6,11.6C70.2,26,68.3,27,68.4,29c0,0.2,0.2,0.3,0.4,0.3c0.1,0,0.2-0.1,0.3-0.2
				c1.2-1.8,3.5-2.9,3.4-5.3c-0.1-1.6-0.9-3.2-1.3-4.7c-0.7-2.3-1.4-4.6-2.3-6.8c-0.1-0.2-0.4-0.4-0.6-0.3
				C68,12.1,67.9,12.3,67.9,12.5L67.9,12.5z"/>
		</g>
		<g class="st10">
			<path class="st14" d="M68.8,12c-0.1,2.5,0.7,5,1.2,7.4c0.4,1.4,0.6,2.8,0.8,4.2c0.1,2.2-1.1,3.8-2.5,5.5
				c-0.3,0.4,0.1,1.1,0.6,0.8c2.4-1.6,3.7-3.4,3.3-6.3c-0.5-3.6-1.3-8.3-3-11.6c-0.1-0.1-0.2-0.1-0.3-0.1C68.9,11.9,68.8,12,68.8,12
				L68.8,12z"/>
		</g>
		<g class="st10">
			<path class="st14" d="M65.1,22.3l0.2-0.4l-0.8-0.1c0.3,1.5,1.1,3,1.7,4.5c0.5,1.4,0.7,2.9,1.5,4.1c0.2,0.2,0.6,0.3,0.7-0.1
				c0.2-1.6-0.5-3.2-1-4.6c-0.4-1.5-1.2-3-2.1-4.3c-0.4-0.4-1,0.2-0.6,0.6l0.4,0.3C65,22.3,65,22.3,65.1,22.3
				C65.1,22.3,65.1,22.3,65.1,22.3L65.1,22.3z"/>
		</g>
		<g class="st10">
			<path class="st14" d="M64.8,21.2c0.5,1.4,1.1,2.7,1.8,4c0.6,1.5,1.3,3,2.1,4.4c0.2,0.3,0.6,0.4,0.8,0.2c0.2-0.1,0.3-0.4,0.3-0.6
				c-0.4-1.5-1.1-3-1.9-4.3c-0.6-1.4-1.5-2.8-2.6-3.9c-0.1-0.1-0.4-0.1-0.5,0C64.8,20.9,64.7,21.1,64.8,21.2L64.8,21.2z"/>
		</g>
		<g class="st10">
			<path class="st14" d="M65.5,20.3c0.5,1.8,1.1,3.5,1.7,5.2c0.5,1.3,0.9,2.9,1.9,3.9c0.1,0.1,0.3,0.1,0.4,0c0-0.1,0.1-0.1,0.1-0.2
				c0-1.5-0.8-2.8-1.3-4.2c-0.7-1.7-1.6-3.3-2.4-5c-0.1-0.1-0.2-0.1-0.3-0.1C65.5,20.1,65.5,20.2,65.5,20.3L65.5,20.3z"/>
		</g>
		<g class="st10">
			<path class="st14" d="M65.9,20.1c0.6,2.1,1.5,4.1,2.5,6l1.1-0.7c-0.8-1.6-1.5-3.3-2.1-5l-1.2,0.5c0.7,1.4,1.4,2.8,2.1,4.2
				c0.4,0.8,1.5,0.1,1.2-0.7c-0.6-1.4-1.3-2.8-1.9-4.3l-1.2,0.7c0.6,1,1.1,1.9,1.7,2.9c0.4,0.7,1.4,0.2,1.3-0.5
				c-0.2-1.1-0.6-2.2-1.2-3.2c-0.5-0.8-1.7-0.1-1.3,0.7c0.4,0.8,0.8,1.5,1.4,2.2c0.5,0.6,1.4,0,1.2-0.7c-0.3-1.1-0.6-2.1-1-3.1
				l-1.3,0.8L68,21c0.4,0.5,1.4,0.4,1.4-0.4c0-0.9-0.4-1.8-1-2.6l-1.1,1.1l0.5,0.5c0.4,0.4,1.3,0.2,1.3-0.5c-0.1-1,0.1-2,0-3
				c-0.1-1-1.5-1-1.5,0c0.1,1-0.1,2,0,3l1.2-0.5l-0.5-0.5c-0.7-0.7-1.7,0.3-1.1,1.1l0.6,1.5l1.4-0.4l-0.8-1.1
				c-0.2-0.3-0.7-0.4-1-0.2c-0.3,0.2-0.4,0.6-0.2,0.9c0.4,0.9,0.7,1.8,0.9,2.7l1.3-0.7c-0.5-0.5-0.9-1.2-1.2-1.9l-1.3,0.7
				c0.5,0.9,0.9,1.8,1.1,2.8l1.3-0.5c-0.6-1-1.1-1.9-1.7-2.9c-0.5-0.8-1.6-0.1-1.2,0.7c0.6,1.4,1.3,2.8,2,4.2l1.2-0.7
				c-0.7-1.4-1.4-2.8-2.1-4.2c-0.2-0.3-0.6-0.4-0.9-0.2c-0.3,0.2-0.4,0.5-0.3,0.7c0.6,1.8,1.4,3.6,2.3,5.3c0.4,0.8,1.5,0.1,1.1-0.7
				c-0.9-2-1.9-3.9-3.2-5.6C66.1,19.5,65.8,19.8,65.9,20.1L65.9,20.1z"/>
		</g>
		<g class="st10">
			<path class="st14" d="M66.1,20.9c-0.1,1,0.2,1.4,0.6,2.4c0.7,1.5,1.3,3.1,1.8,4.7l1.4-0.4c-0.5-1.6-1-3.2-1.6-4.7L67,23.4
				c0.4,0.8,0.9,1.6,1.3,2.4c0.2,0.3,0.6,0.4,0.9,0.2c0.2-0.2,0.4-0.4,0.3-0.7c-0.4-1.4-0.8-2.9-1.2-4.3l-1.2,0.5l1.3,1.9
				c0.1,0.3,0.5,0.5,0.8,0.4c0.3-0.1,0.5-0.4,0.4-0.7c0.1-1.8,0.2-3.9-0.5-5.6c0-0.3-0.3-0.5-0.6-0.5c-0.3,0-0.5,0.3-0.5,0.6
				c0,1.8,0.1,3.7,0.3,5.5l1.2-0.3l-1.2-1.9c-0.2-0.3-0.6-0.4-1-0.2C67.1,20.7,67,21,67,21.3c0.4,1.4,0.8,2.9,1.3,4.3l1.2-0.5
				c-0.4-0.8-0.8-1.6-1.3-2.5c-0.2-0.3-0.6-0.4-0.9-0.2c-0.3,0.2-0.4,0.5-0.3,0.8c0.5,1.6,1,3.2,1.5,4.8c0.3,0.9,1.7,0.5,1.4-0.4
				c-0.6-2-1.5-5.9-3.6-6.8C66.2,20.7,66.1,20.8,66.1,20.9C66.1,20.9,66.1,20.9,66.1,20.9L66.1,20.9z"/>
		</g>
		<g class="st10">
			<path class="st11" d="M68.2,27.9c0.7,0.2,1.5,0.2,2.2,0c0.6-0.1,0.4-0.9-0.1-0.9c-1.3-0.1-2.5-0.1-3.8,0.1
				c-0.3,0-0.5,0.2-0.5,0.5c0,0.3,0.2,0.5,0.5,0.5c1.3,0.1,2.6,0,3.9-0.2L70,27c-0.6,0.3-1.2,0.4-1.8,0.5C68,27.5,68,27.8,68.2,27.9
				L68.2,27.9z"/>
		</g>
		<g class="st10">
			<path class="st11" d="M66.3,28.1c0.7,0.2,1.4,0.2,2.1,0.2c0.7,0.1,1.4,0,2.1-0.1c0.2,0,0.3-0.2,0.2-0.4c0-0.1-0.1-0.2-0.2-0.2
				c-0.7-0.1-1.4-0.1-2.1-0.1c-0.7-0.1-1.4,0-2.1,0.2c-0.1,0-0.2,0.2-0.2,0.3C66.1,28.1,66.2,28.2,66.3,28.1L66.3,28.1z"/>
		</g>
		<g class="st10">
			<path class="st11" d="M67,27.9c1.2,0.5,3,0.9,4.3,0.4c0.2-0.1,0.3-0.2,0.2-0.4c0-0.1-0.1-0.2-0.2-0.2c-0.7-0.1-1.3-0.2-2-0.1
				c-0.7,0-1.5,0-2.2-0.1C66.8,27.5,66.7,27.9,67,27.9z"/>
		</g>
		<g class="st10">
			<path class="st11" d="M69.4,28.4c-0.5,1.3-0.1,2.9-0.1,4.3c-0.1,1.5-0.1,2.9,0,4.4c0,0.3,0.4,0.2,0.5,0c0.5-1.5,0.7-3.1,0.6-4.7
				c0-1.3,0-2.9-0.8-4C69.6,28.3,69.5,28.3,69.4,28.4C69.4,28.3,69.4,28.4,69.4,28.4L69.4,28.4z"/>
		</g>
		<g class="st10">
			<path class="st11" d="M69.5,28.3c-0.6,4.8-0.6,9.7-0.2,14.5c0,0.3,0.5,0.4,0.6,0.1c0.8-4.8,0.9-9.8,0.1-14.7
				C69.9,27.9,69.5,28,69.5,28.3z"/>
		</g>
		<g class="st10">
			<path class="st11" d="M68.1,28.4c-0.8,0.2-1.5,0.6-2.1,1.1c-0.2,0.2-0.2,0.6,0,0.9c0.1,0.1,0.3,0.2,0.4,0.2l2.1-0.1l-0.4-1.1
				l-1.7,1.3c-0.3,0.3-0.3,0.7,0,0.9c0.1,0.1,0.2,0.1,0.3,0.2c0.8,0.2,1.7,0.2,2.5,0l-0.4-1.3c-0.8,0.3-1.5,0.8-1.9,1.5
				c-0.2,0.3-0.1,0.7,0.3,0.9c0,0,0.1,0,0.1,0.1l0.9,0.2l-0.2-1.2c-0.7,0.4-1.4,1-1.1,1.8c0.2,0.6,0.8,0.9,1.4,0.7c0,0,0,0,0,0
				l-0.6-1.1l-1.2,1.4c-0.2,0.3-0.2,0.7,0,0.9c0.1,0.1,0.3,0.2,0.4,0.2h1l-0.2-1.3c-0.7,0.1-1.2,0.8-1.1,1.6
				c0.1,0.7,0.8,1.2,1.6,1.1c0.3-0.1,0.6-0.2,0.8-0.4c0.2-0.3,0.2-0.7-0.1-0.9c-0.2-0.2-0.6-0.2-0.8,0v-0.1c0.3-0.1,0.5-0.4,0.4-0.8
				c-0.1-0.3-0.3-0.5-0.6-0.5h-1l0.5,1.1l1.2-1.4c0.4-0.5,0-1.3-0.6-1.1l0.7-0.1c0.3-0.2,0.4-0.6,0.2-0.9c-0.1-0.1-0.2-0.2-0.4-0.3
				l-0.9-0.2l0.4,1c0.3-0.4,0.7-0.7,1.2-0.9c0.4-0.1,0.5-0.5,0.4-0.8c-0.1-0.3-0.5-0.5-0.8-0.5c-0.6,0.1-1.2,0.1-1.8,0l0.3,1.1
				l1.6-1.4c0.2-0.3,0.2-0.7,0-0.9c-0.1-0.1-0.3-0.2-0.4-0.2l-2.1,0.2l0.4,1c0.4-0.5,1-1,1.6-1.2C68.8,28.8,68.6,28.2,68.1,28.4
				L68.1,28.4z"/>
		</g>
		<g class="st10">
			<path class="st11" d="M67.9,29.1c-0.8-0.4-1.4,0.2-1.9,0.8c-0.2,0.3-0.2,0.7,0,0.9c0.1,0.1,0.3,0.2,0.4,0.2h1.4l-0.5-1.1l-1,0.9
				c-0.3,0.3-0.3,0.7,0,0.9c0.1,0.1,0.2,0.1,0.3,0.2l0.8,0.2v-1.3c-0.6,0.2-1.2,0.6-1.1,1.4c0.1,0.6,0.6,0.9,1.2,0.9
				c0.1,0,0.2,0,0.2-0.1l-0.8-1l-0.4,0.9c-0.2,0.3-0.1,0.8,0.3,0.9c0,0,0.1,0,0.1,0.1l0.4,0.1l-0.4-1l-0.5,0.9
				c-0.2,0.3-0.1,0.7,0.2,0.9c0.1,0.1,0.2,0.1,0.3,0.1l0.4,0l-0.7-0.7c0.1,1,0,2.2,1,2.8c0.5,0.3,1.2,0.2,1.6-0.3
				c0.1-0.1,0.1-0.2,0.2-0.4c0.1-0.2-0.1-0.5-0.3-0.6c-0.1,0-0.2,0-0.3,0c-0.7,0.4-0.7-1.2-0.7-1.6c0-0.4-0.3-0.7-0.7-0.7h-0.4
				l0.6,1l0.5-0.9c0.2-0.3,0.1-0.7-0.3-0.9c0,0-0.1,0-0.1-0.1l-0.4-0.1l0.4,1l0.4-0.9c0.2-0.5-0.2-1.2-0.8-1l0.4,0.4
				c0.6-0.2,0.7-1.1,0-1.3l-0.9-0.2l0.3,1.1l1-0.9c0.3-0.3,0.2-0.7,0-0.9c-0.1-0.1-0.3-0.2-0.4-0.2c-0.5,0-0.9,0-1.4,0.1l0.5,0.9
				c0.4-0.5,0.8-0.7,1-1.3C68,29.2,68,29.1,67.9,29.1L67.9,29.1z"/>
		</g>
		<g class="st10">
			<path class="st11" d="M68,29.6c-0.3-0.5-0.9-0.8-1.5-0.5c-0.2,0.1-0.4,0.3-0.5,0.5c-0.6,1.1,0.5,2,1.5,2l-0.2-1.3
				c-0.8,0.3-1.9,0.9-1.7,1.9c0.1,0.7,0.8,1.1,1.4,0.9c0.1,0,0.1,0,0.2,0l-0.8-1c-0.3,0.5-0.6,1-0.7,1.6c-0.1,0.3,0.1,0.7,0.5,0.8
				l0.8,0.2l-0.3-1.1c-0.5,0.4-0.6,1.1-0.2,1.6c0.2,0.3,0.5,0.4,0.8,0.4l-0.5-0.8c-0.3,1.1,0.3,2,1.5,1.9L68,35.6l-0.6,0.6
				c-0.3,0.3-0.2,0.7,0,1c0.1,0.1,0.3,0.2,0.4,0.2h0.5l-0.3-1.2c-1.7,1.3,0.7,3,2,1.5c0.2-0.2,0.2-0.5,0-0.6
				c-0.1-0.1-0.3-0.2-0.4-0.1c-0.3,0.1-0.7,0.2-0.9,0.4c0.4-0.3,0.4-1.1-0.2-1.2l-0.5-0.1l0.3,1.1l0.6-0.6c0.3-0.3,0.2-0.7,0-1
				c-0.1-0.1-0.3-0.2-0.5-0.2l-0.2-0.2c0.1-0.3-0.1-0.7-0.5-0.8v0.2c0.3-0.3,0.2-0.7,0-1c-0.1-0.1-0.2-0.1-0.3-0.2l-0.8-0.2l0.5,0.8
				c0.1-0.5,0.3-0.9,0.6-1.3c0.4-0.5-0.2-1.1-0.8-1l0.8-0.2c0.4-0.1,0.5-0.5,0.4-0.9c-0.1-0.3-0.3-0.4-0.6-0.5l0.2-0.3
				C67.9,30,68,29.9,68,29.6C68,29.7,68,29.6,68,29.6L68,29.6z"/>
		</g>
		<g class="st10">
			<path class="st11" d="M67.9,29.7l0.2,0.2l0.2-0.6c-1.1,0.2-1.9,1.1-2.1,2.2c-0.1,1,0.6,1.8,1.6,2l-0.3-1.1l-1.8,2
				c-0.3,0.2-0.3,0.7-0.1,1c0.1,0.1,0.2,0.2,0.3,0.2l1.5,0.2v-1.3c-1.5,0.3-2.2,2.3-0.3,2.5L66.3,36c-0.3,1.3,0.7,2.4,2,1.8
				l-0.5-1.3l-1,0.7c-0.3,0.2-0.4,0.7-0.2,1c0.1,0.1,0.2,0.2,0.4,0.3c0.7,0.3,1.4,0.2,2-0.2c0.3-0.2,0.4-0.8-0.1-0.9
				c-0.5-0.1-1.1-0.1-1.5-0.2l0.2,1.3l1-0.7c0.3-0.2,0.4-0.7,0.2-1c-0.2-0.3-0.6-0.4-0.9-0.2l-0.1-0.2c0.1-0.4-0.1-0.8-0.5-0.9
				c0,0-0.1,0-0.1,0h-0.3l0.6,0.3l0.4-0.1c0.6-0.1,0.7-1.2,0-1.3l-1.5-0.2l0.3,1.1l1.8-2c0.3-0.3,0.2-0.7,0-0.9
				c-0.1-0.1-0.3-0.2-0.4-0.2c-1.7-0.2,0.5-2.1,0.7-2.3c0.2-0.2-0.2-0.9-0.5-0.5l-0.2,0.2C67.8,29.6,67.8,29.7,67.9,29.7L67.9,29.7z
				"/>
		</g>
		<g class="st10">
			<path class="st11" d="M69.9,29.4l-0.2,0.9c-0.4,0.2-0.5,0.7-0.3,1.1c0.1,0.1,0.2,0.2,0.3,0.3l0.6,0.3l-0.2-1.3
				c-0.8,0.7-1.6,1.6-1.5,2.8c0,0.5,0.2,1,0.4,1.5c0.4,0.6,0.4,1.4,0.1,2c-0.1,0.3,0,0.6,0.2,0.7c0,0,0.1,0,0.1,0l0.3,0.1
				c0.3,0.1,0.6,0,0.8-0.2c0.6-0.5,0.8-1.2,0.7-1.9c-0.1-0.5-0.3-0.9-0.5-1.3c-0.5-1.1-0.2-1.6,0.7-2.4c0.3-0.3,0.3-0.8,0-1.1
				c-0.1-0.1-0.1-0.1-0.2-0.2l-0.6-0.3l0.2,1.3c1.2-1.2,1.4-3.6-0.8-3.5c-0.4,0-0.6,0.4-0.6,0.7C69.4,29.1,69.6,29.4,69.9,29.4
				L69.9,29.4z"/>
		</g>
		<g class="st15">
			<path class="st7" d="M68.3,11.2c-0.1,2.1,0.5,4.1,0.8,6.2c0.4,2.3,0.5,4.7,1,6.9c0.1,0.4,0.5,0.6,0.8,0.5
				c0.3-0.1,0.5-0.3,0.5-0.6c0-2.3-0.3-4.5-0.8-6.7c-0.4-2.2-0.7-4.5-1.8-6.4c-0.1-0.1-0.3-0.2-0.4-0.1C68.4,11,68.3,11.1,68.3,11.2
				L68.3,11.2z"/>
		</g>
		<g class="st15">
			<path class="st7" d="M70.2,23.9c-0.7,0.6-1.2,1.5-1.3,2.5c-0.2,0.6-0.4,1.9,0.4,2.2s1.3-0.7,1.5-1.3c0.5-0.9,0.6-1.9,0.5-2.9
				c-0.1-0.4-0.5-0.6-0.9-0.5C70.3,23.9,70.2,23.9,70.2,23.9L70.2,23.9z"/>
		</g>
		<g class="st15">
			<path class="st7" d="M70.6,23.8c-0.8,0.3-1.1,1.2-1.4,1.9c-0.3,0.7-0.9,1.9-0.4,2.7c0.2,0.3,0.5,0.3,0.8,0.2
				c0.8-0.4,1-1.6,1.2-2.4c0.2-0.8,0.6-1.7,0.1-2.4C70.7,23.8,70.6,23.7,70.6,23.8L70.6,23.8z"/>
		</g>
		<g class="st15">
			<path class="st7" d="M71.9,24.3c-0.8,1.5-1.9,2.9-2.6,4.4c-0.2,0.4,0.2,1,0.7,0.7c1.6-1.1,2.3-2.9,2.8-4.7
				C72.9,24.2,72.1,23.8,71.9,24.3z"/>
		</g>
		<g class="st15">
			<path class="st7" d="M64.8,22.3l-0.1,0.1c-0.2,0.2-0.2,0.5-0.1,0.8c0.6,1.5,1.3,2.9,1.9,4.4c0.4,1.2,0.9,2.4,1.5,3.6
				c0.2,0.4,0.9,0.3,0.9-0.2c-0.2-1.5-0.7-2.9-1.3-4.2c-0.5-1.4-1.1-2.8-1.8-4.1c-0.1-0.2-0.3-0.3-0.6-0.3
				C65,22.2,64.9,22.2,64.8,22.3L64.8,22.3z"/>
		</g>
		<g class="st15">
			<path class="st7" d="M66.2,40.8c-1.5,6.4-0.2,14-0.2,20.6c0,7.3-0.2,14.7,0.3,22c0.1,0.6,0.6,1.1,1.2,1c0.5,0,1-0.5,1-1
				c0.2-7.3-0.3-14.7-0.6-22c-0.2-6.5,0.8-14.3-0.9-20.6c-0.1-0.2-0.3-0.3-0.5-0.3C66.3,40.6,66.2,40.7,66.2,40.8L66.2,40.8z"/>
		</g>
		<g class="st10">
			<path class="st11" d="M61.5,35.1H61c-0.2,0-0.4,0.1-0.5,0.4c-0.3,1.3,0.8,1.9,1.8,1c0.2-0.2,0.2-0.6,0-0.8
				c-0.1-0.1-0.2-0.1-0.2-0.1c-0.6-0.2-1.3,0.1-1.5,0.7c-0.1,0.2-0.1,0.4-0.1,0.6c0,0.2,0.1,0.4,0.3,0.5c0.5,0.4,1.2,0.3,1.7,0
				l-0.8-0.5c0.1,3.7-0.5,7.3-1.7,10.8c0,0.2,0.1,0.4,0.3,0.5c0.2,0,0.3,0,0.4-0.2c1.9-3.4,2.6-7.4,2-11.2c-0.1-0.3-0.4-0.5-0.7-0.4
				c-0.2,0-0.3,0.1-0.4,0.3l0.2,0.2l-0.5-0.9l0.1,0.3C62.1,36,62.1,35.1,61.5,35.1L61.5,35.1z"/>
		</g>
		<g class="st10">
			<path class="st11" d="M62.7,32.7c-0.6,4.5-0.8,8.9-2.1,13.3c-1.4,4.8-4,8.9-6.1,13.3c-0.1,0.2,0.2,0.5,0.4,0.3
				c5.9-6.3,9.6-18.3,8.6-26.8C63.5,32.4,62.8,32.2,62.7,32.7L62.7,32.7z"/>
		</g>
		<g class="st10">
			<path class="st11" d="M63.5,34.4c-1.1,3.7-1.5,7.6-2.6,11.3c-1.3,4.1-3,8.1-5,11.8c0,0.1,0,0.2,0.1,0.2c0.1,0,0.2,0,0.2-0.1
				c4.3-6.3,8.2-15.4,7.4-23.3C63.7,34.3,63.6,34.3,63.5,34.4L63.5,34.4z"/>
		</g>
		<g class="st10">
			<path class="st11" d="M63.5,33.3c-1.7,5.5-2.5,11-4.7,16.4s-5.6,9.8-8.3,14.9c0,0.1,0,0.2,0.1,0.2c0.1,0,0.1,0,0.2,0
				c4.1-3.8,6.8-9.6,9-14.7s4.5-11.2,4.4-16.7c0-0.2-0.1-0.3-0.3-0.3C63.7,33,63.6,33.2,63.5,33.3z"/>
		</g>
		<g class="st10">
			<path class="st11" d="M65.8,38.3c-2,3.5-4.1,6.9-5.5,10.7c-0.1,0.2,0.2,0.3,0.3,0.1c1.9-3.5,3.4-7.2,5.3-10.7
				C65.9,38.4,65.9,38.3,65.8,38.3C65.8,38.3,65.8,38.3,65.8,38.3z"/>
		</g>
		<g class="st10">
			<path class="st11" d="M57.6,54.2c-2.2,3.6-4.6,7.1-6.7,10.7c0,0.1,0,0.1,0.1,0.2c0,0,0.1,0,0.1,0c2.3-3.5,4.4-7.2,6.6-10.7
				C57.8,54.2,57.7,54.2,57.6,54.2C57.7,54.2,57.7,54.2,57.6,54.2z"/>
		</g>
		<g class="st10">
			<path class="st11" d="M59.8,49.6c-6,8.5-12.5,16.8-18.4,25.4c-0.2,0.2,0.2,0.4,0.4,0.3c7.6-6.9,13.8-16.4,18.1-25.6
				c0,0,0-0.1,0-0.1S59.9,49.6,59.8,49.6z"/>
		</g>
		<g class="st10">
			<path class="st11" d="M31.4,84c10.3-6.3,20.1-18,24.6-29.1c0.2-0.5-0.5-0.7-0.8-0.3c-3.6,5.5-6.9,11-11.1,16
				c-4,4.7-8.7,8.5-13.2,12.7c-0.2,0.2-0.2,0.5,0,0.7C30.9,84.1,31.1,84.1,31.4,84L31.4,84z"/>
		</g>
		<g class="st10">
			<path class="st11" d="M32.5,82.9c9-4.7,16.4-14.1,21.2-22.8c0-0.1,0-0.1-0.1-0.1c0,0-0.1,0-0.1,0c-3.2,4.4-6.6,8.6-10.3,12.5
				c-3.4,3.6-7.5,6.5-11,10.1c-0.1,0.1-0.1,0.2,0,0.2C32.3,82.9,32.4,82.9,32.5,82.9L32.5,82.9z"/>
		</g>
		<g class="st10">
			<path class="st11" d="M33.2,81.8c8.8-6,17.5-15.1,22.6-24.6c0.2-0.3-0.2-0.6-0.5-0.4c-3.6,4.2-6.7,8.8-10.5,13
				C41.1,74,37,77.7,33.1,81.6C33,81.7,33.1,81.9,33.2,81.8L33.2,81.8z"/>
		</g>
		<g class="st10">
			<path class="st11" d="M34.5,80.9c9-6.6,18.3-15.3,24-24.8c0.1-0.2,0-0.3-0.1-0.4c-0.1-0.1-0.3,0-0.4,0.1
				c-3.9,4.2-7.3,8.8-11.3,13c-3.9,4.2-8.2,8.1-12.3,12C34.4,80.9,34.4,81,34.5,80.9L34.5,80.9z"/>
		</g>
		<g class="st10">
			<path class="st11" d="M29,52.6c-1,0.9-1,2.7-0.7,3.9l1.2-0.5c-0.7-1-0.4-2.4,0.7-3.1c0.1,0,0.1-0.1,0.2-0.1L29.2,52
				c-0.5,1.3-0.4,2.8,0.1,4.1l0.7-1l-0.7,0.1c-0.4,0.1-0.7,0.5-0.7,0.9c0,0.3,0.2,0.5,0.5,0.6c1.3,0.4,2.7,0.1,3.8-0.7
				c0.6-0.4,0.3-1.7-0.6-1.3c-0.5,0.2-1.1,0-1.4-0.5c0,0,0,0,0,0c-0.2-0.6,0.2-0.9,0.3-1.4c0.1-0.4-0.1-0.8-0.5-0.9
				c-0.1,0-0.2,0-0.3,0c-1.2,0.4-1.4,2.1-0.9,3.1c0.6,1.1,2,1.6,3.1,1.1l-0.6-1.3c-0.8,0.5-1.7,0.7-2.6,0.4l-0.2,1.5l0.7-0.1
				c0.4,0,0.8-0.4,0.7-0.9c0-0.1,0-0.2-0.1-0.3c-0.4-1-0.5-2.1-0.1-3.1c0.1-0.4-0.2-0.8-0.6-0.9c-0.2,0-0.3,0-0.5,0.1
				c-1.7,1-2.3,3.2-1.3,4.9c0,0,0.1,0.1,0.1,0.1c0.4,0.5,1.4,0.2,1.2-0.5c-0.2-0.5-0.2-1.1-0.2-1.6c0.1-0.5,0.2-1,0.4-1.5
				c0.1-0.2-0.1-0.5-0.3-0.5C29.3,52.5,29.1,52.5,29,52.6L29,52.6z"/>
		</g>
		<g class="st10">
			<path class="st11" d="M66.8,44.4c-1.2,6.1-0.7,12.8-0.7,19c0,6.8,0,13.8,0.8,20.5c0,0.5,0.4,1,1,1s1-0.4,1-1
				c0.1-1.1-0.8-1.6-1.7-1.4c-0.5,0.2-0.8,0.7-0.6,1.2c0.1,0.4,0.5,0.7,0.9,0.7h2.3c0.6,0,1-0.5,1-1c0-0.1,0-0.2,0-0.2
				C69.7,78.1,70,73,69.2,68c-0.1-0.8-1.3-0.7-1.5,0c-1.1,5,0,10.7,0.9,15.7l1-1.2c-0.8,0-1.5,0-2.3,0l0.3,1.9l-0.7-0.5h1.9
				c0.1-6.8-0.5-13.7-0.8-20.5c-0.3-6.2,0.2-12.8-0.9-19C67.2,44.2,66.9,44.2,66.8,44.4L66.8,44.4z"/>
		</g>
		<g class="st10">
			<path class="st11" d="M66.1,35.2c-0.8,3.6-0.5,7.4-0.5,11.1c0,4.2,0.1,8.4,0.1,12.6c-0.1,8.4,0.4,16.8,1.3,25.2
				c0.1,0.9,1.5,1,1.5,0c0-3.6,0.2-7.1,0.4-10.7c0-1.2-1.8-1.2-1.9,0c-0.2,3.3-0.5,6.6-0.7,9.8c-0.1,1.3,2,1.3,2,0
				c0.7-9.3,1.1-19-1.9-28c0-0.2-0.2-0.3-0.4-0.3c-0.2,0-0.3,0.2-0.3,0.3c-0.1,9.3,1.2,18.6,0.5,27.9h2c0.2-3.3,0.4-6.6,0.6-9.8H67
				c0.1,3.6,0.2,7.1,0.1,10.7h1.5c-0.1-8.4-0.6-16.8-1.1-25.2c-0.2-4.2-0.3-8.4-0.3-12.6c0-3.7,0.3-7.5-0.5-11.1
				c0-0.1-0.2-0.2-0.3-0.2C66.2,35.1,66.2,35.1,66.1,35.2z"/>
		</g>
		<g class="st10">
			<path class="st11" d="M69,83.4c-1.2,0.2-0.8-8-0.7-8.9c0-3.1,0-6.1,0-9.2c0-6.1,0.2-12.3-0.5-18.4c0-0.3-0.2-0.5-0.5-0.5
				c-0.3,0-0.5,0.2-0.5,0.5c-0.8,8.6-0.3,17.4-0.2,26.1c0,2.2-1.6,12.9,2.9,11.7C70.2,84.5,69.9,83.2,69,83.4L69,83.4z"/>
		</g>
		<g class="st10">
			<path class="st11" d="M69.4,34.5c-1,4.4-0.6,8.8,0.3,13.3c0.1,0.2,0.3,0.3,0.5,0.2c0.1-0.1,0.2-0.2,0.3-0.3
				c0-4.4-0.9-8.7-0.8-13.2c0-0.1-0.1-0.1-0.1-0.1C69.4,34.4,69.3,34.5,69.4,34.5L69.4,34.5z"/>
		</g>
		<g class="st10">
			<path class="st11" d="M70.3,50.3c0,3.5,0.3,7,0.9,10.5c0,0.2,0.4,0.2,0.4-0.1c-0.3-3.5-0.6-6.9-0.8-10.4
				C70.8,50,70.3,50,70.3,50.3L70.3,50.3z"/>
		</g>
		<g class="st10">
			<path class="st11" d="M70.3,56.8c0.2,5.6-0.4,11.2,0.1,16.8c0,0.2,0.4,0.3,0.4,0.1c0.8-5.5,0.2-11.3-0.2-16.8
				C70.7,56.7,70.3,56.7,70.3,56.8L70.3,56.8z"/>
		</g>
		<g class="st10">
			<path class="st11" d="M70.1,55c-0.2,5.5-0.4,11-0.4,16.6c-0.1,4.9-0.6,10.3,0.6,15.1c0.1,0.4,0.9,0.5,0.9,0
				c0.8-4.9,0-10.2-0.2-15.1c-0.2-5.5-0.3-11-0.3-16.6c0-0.2-0.2-0.3-0.3-0.2C70.2,54.7,70.1,54.8,70.1,55z"/>
		</g>
		<g class="st10">
			<path class="st11" d="M66.8,30.1l-0.5,0l-0.2,1.5C66,32.1,66,32.7,66,33.3c-0.2,2.3-0.3,4.6-0.4,6.9c-0.2,3.9-0.1,7.7,0.4,11.6
				c0.1,0.4,0.7,0.3,0.7-0.1c0.6-7.5,0.7-15.4,0.6-23c0-0.2-0.2-0.3-0.4-0.3c-0.1,0-0.3,0.1-0.3,0.3v1.4c0,0,0,0.1,0.1,0.1
				C66.8,30.2,66.8,30.1,66.8,30.1L66.8,30.1z"/>
		</g>
	</g>
</g>
</svg>
