<?xml version="1.0" encoding="utf-8"?>
<!-- Generator: Adobe Illustrator 23.0.1, SVG Export Plug-In . SVG Version: 6.00 Build 0)  -->
<svg version="1.1" id="Layer_1" xmlns="http://www.w3.org/2000/svg" xmlns:xlink="http://www.w3.org/1999/xlink" x="0px" y="0px"
	 viewBox="0 0 102.3 103.9" style="enable-background:new 0 0 102.3 103.9;" xml:space="preserve">
<style type="text/css">
	.st0{fill:#FCC949;stroke:#DBA81B;stroke-miterlimit:10;}
	.st1{fill:#BC8202;stroke:#FCC949;stroke-width:0.25;stroke-miterlimit:10;}
	.st2{fill:#FCC949;}
	.st3{fill:#BC8202;}
	.st4{fill:#FCC949;stroke:#BC8202;stroke-width:0.75;stroke-miterlimit:10;}
	.st5{opacity:0.31;}
	.st6{fill:#916919;}
	.st7{opacity:0.5;}
</style>
<title>Asset 16</title>
<g>
	<g id="Layer_15">
		<circle class="st0" cx="51.2" cy="51.4" r="30.4"/>
		<circle class="st1" cx="50.4" cy="51.4" r="16.4"/>
		<path class="st2" d="M35.7,50.6c-2-0.5-4.1-0.5-6.1,0.1c-0.2,0.1-0.3,0.2-0.2,0.5c0.1,0.1,0.1,0.2,0.2,0.2c2,0.5,4.1,0.5,6.1,0.1
			c0.2-0.1,0.4-0.3,0.3-0.5C36,50.8,35.9,50.7,35.7,50.6z"/>
		<path class="st2" d="M50.1,36.4c0.7-1,0.3-2.6,0.2-3.7c0-0.2-0.4-0.3-0.4-0.1c-0.2,1.1-0.7,2.7,0,3.7C49.9,36.4,50,36.4,50.1,36.4
			C50,36.4,50,36.4,50.1,36.4z"/>
		<path class="st2" d="M65.3,51.5c0.7,0.2,1.4,0.3,2,0.2c0.7,0,1.4-0.1,2-0.4c0.3-0.1,0.1-0.5-0.1-0.6c-0.7-0.2-1.4-0.3-2.1-0.2
			c-0.7-0.1-1.3,0.1-1.9,0.3c-0.2,0.1-0.2,0.4-0.1,0.5C65.3,51.4,65.3,51.4,65.3,51.5L65.3,51.5z"/>
		<path class="st2" d="M50.2,66.1c-0.5,0.8-0.4,2-0.4,2.9c0,1.1,0.1,2.3,0.2,3.4c0.1,0.2,0.2,0.3,0.4,0.2c0.1-0.1,0.2-0.1,0.2-0.2
			c0.2-1.1,0.3-2.2,0.3-3.4c0-1,0.2-2-0.4-2.9c-0.1-0.1-0.2-0.2-0.4-0.1C50.2,65.9,50.2,66,50.2,66.1z"/>
		<path class="st3" d="M46.2,23.7l-0.6,0.4c-0.5,0.4,0.4,0.4,0.6,0.4c1.8-0.5,8.5-3.4,8,0.6c-0.1,0.5,1.3,0.2,1.3-0.2
			c0.6-4.9-7.6-1.5-9.4-1l0.6,0.4l0.6-0.4C47.8,23.5,46.6,23.5,46.2,23.7L46.2,23.7z"/>
		<path class="st3" d="M47.8,33.4c1.1-0.5,2.3-0.8,3.5-1.1c1.1-0.3,3.8-1.3,3.1,0.8c-0.2,0.7,1,0.7,1.3,0.2c1.7-4.7-6.7-1.3-8.4-0.6
			C46.4,33,47.2,33.7,47.8,33.4L47.8,33.4z"/>
		<path class="st3" d="M47.5,70.6L46.1,71l0.5,0.6l3.1-1.2c0.6-0.2,4.9-2.2,4.7-0.1c-0.1,0.6,1.3,0.4,1.3-0.1
			c0.5-4.3-8.3,0.4-9.6,0.8c-0.8,0.4-0.1,0.8,0.5,0.6l1.3-0.5C48.8,70.9,48.1,70.3,47.5,70.6L47.5,70.6z"/>
		<path class="st3" d="M48.7,72.1l-0.8,0.5c-0.6,0.4,0.1,0.8,0.5,0.7c1.4-0.5,2.8-1,4.2-1.6l-0.9-0.4c-0.5,0.7-0.9,1.5-1.2,2.3
			c-0.2,0.7-0.6,1.7-0.4,2.5c0.3,1.4,2,0.6,2.7,0.1c0.7-0.5,2.3-1.7,1-2.5c-1.1-0.6-2.6,0.5-3.4,1.3c-0.5,0.6,0.7,0.7,1.1,0.4
			c0.2-0.2,0.4-0.5,0.7-0.6c0.6-0.2,0.4,0.5,0.1,0.8c-0.8,0.7-1,0.1-0.8-0.6c0.2-1.3,0.7-2.5,1.5-3.5c0.4-0.5-0.7-0.5-0.9-0.4
			c-1.3,0.5-2.6,1.1-3.8,1.5l0.5,0.7l0.8-0.5C50.2,72.1,49.1,71.8,48.7,72.1L48.7,72.1z"/>
		<path class="st3" d="M48.4,78.8L48,79c-0.5,0.4,0.5,0.2,0.7,0.2l3.5-1.3c1.1-0.4,3.8-1.7,3.5,0.4c-0.1,0.4,1.3,0.1,1.3-0.2
			c0.2-1.5-0.5-2-1.9-1.7C52.8,76.9,50.5,78,48.4,78.8L49,79l0.4-0.2C49.9,78.5,48.7,78.6,48.4,78.8L48.4,78.8z"/>
		<path class="st3" d="M47.7,25.3l-0.1,5.8c0,0.7,1.3,0.4,1.3-0.1l0.1-5.8C49,24.5,47.7,24.8,47.7,25.3z"/>
		<path class="st3" d="M50.8,27.6c0.9-0.1,1.8-0.5,2.3-1.3c0.4-0.7,0.5-2-0.6-2c-2.2-0.1-3.5,3.4-2.4,5c0.9,1.3,3.9,1.3,4.3-0.6
			c0.2-1-0.7-1.3-1.6-1.1c-1.1,0.1-2,0.6-2.8,1.4c-0.2,0.3,1,0.1,1.2-0.1c2-2.2,2.4,1.1,1,0.8c-0.8-0.2-1.2-1.4-1.2-2.1
			c0-0.2,0.7-2.7,1-2.5c0.1,0.2,0.1,0.5,0.1,0.7c0,0.7-0.4,1.3-1.1,1.5C50.5,27.2,49.8,27.8,50.8,27.6L50.8,27.6z"/>
		<path class="st3" d="M78.2,46.3c0.6-1.4-1-2-2.1-2c-2.5,0.1-5.1,1.1-7.6,1.6c-0.8,0.2-0.7,0.7,0.1,0.5l4.2-0.9c1-0.2,5-1.3,4,1
			C76.8,46.8,78.1,46.7,78.2,46.3L78.2,46.3z"/>
		<path class="st3" d="M74.9,46.3c-1.2,0.2-2.4,0.4-3.6,0.7c-0.4,0.1-0.8,0.2-1.2,0.5c-0.5,0.6-0.2,1.8-0.2,2.5v3.8
			c0,0.6,1.3,0.3,1.3-0.2V49c0-1,0.3-1.4,1.3-1.6l2.3-0.4C75.3,46.9,75.8,46.1,74.9,46.3L74.9,46.3z"/>
		<path class="st3" d="M69.4,55.7l4.4-1.1c0.6-0.2,1.3-0.4,1.9-0.5c1.6-0.1,2.2,0.7,1.6,1.8c-0.2,0.4,1.1,0.2,1.3-0.2
			c0.7-1.3-0.3-2.5-1.7-2.5c-1.1,0-2.2,0.5-3.2,0.7l-4.4,1.1C68.4,55.3,68.6,55.9,69.4,55.7L69.4,55.7z"/>
		<path class="st3" d="M22.4,48l4.2-1.6c0.7-0.2,1.6-1,2.1-0.2c0.2,0.5,0.3,1.1,0.2,1.6c0,0.1,1.3,0,1.3-0.4
			c0.2-1.4-0.4-2.5-1.9-2.1C26.2,45.8,24,47,22,47.8C21.1,48.1,21.9,48.2,22.4,48z"/>
		<path class="st3" d="M24.7,57.8l3.4-1.3c0.5-0.2,1.3-0.7,1.8-0.2c0.5,0.4,0.5,1.1,0.7,1.7c0.1,0.4,1.4,0.1,1.3-0.4
			c-0.2-1.3-0.7-2.4-2.2-2.2c-0.7,0.1-1.4,0.4-2.1,0.7l-3.4,1.3C23.4,57.7,24.2,58,24.7,57.8L24.7,57.8z"/>
		<path class="st3" d="M24.3,51.3c0.1,1.9,0.8,5.2,3.4,4c2.2-1,2.4-4,1.3-5.8c-0.3-0.5-1.6,0-1.2,0.5c0.7,1.2,0.7,2.6,0.1,3.8
			c-1.5,2.3-2.3-1.9-2.3-2.7C25.6,50.5,24.2,50.8,24.3,51.3L24.3,51.3z"/>
		<path class="st3" d="M25.6,53.7c1.4-0.8,2.9-1.4,4.5-2c0.8-0.3,0.1-0.8-0.5-0.6c-1.6,0.6-3.2,1.4-4.8,2.2
			c-0.2,0.1-0.3,0.4-0.1,0.5C25,54,25.4,53.8,25.6,53.7L25.6,53.7z"/>
		<ellipse transform="matrix(0.6441 -0.7649 0.7649 0.6441 -20.857 57.3399)" class="st4" cx="51.2" cy="51.1" rx="24.3" ry="1.8"/>
		<g class="st5">
			<path class="st3" d="M67.1,32.9c-1.7,3.1-3.5,6.2-5.5,9.2c-0.4,0.6,1.3,0.4,1.6-0.1c2-3.1,3.9-6.2,5.6-9.4
				C69,32.3,67.4,32.4,67.1,32.9L67.1,32.9z"/>
		</g>
		<g class="st5">
			<path class="st3" d="M37.1,70.1c2.7-1.7,5.2-3.9,7.2-6.4c0.5-0.6-1.3-0.5-1.6-0.1C40.7,66,38.5,68,36,69.6
				C35,70.2,36.5,70.5,37.1,70.1L37.1,70.1z"/>
		</g>
		<g class="st5">
			<path class="st3" d="M62.7,40.6c2-2.4,3.7-5,5.2-7.8c0.1-0.2-0.3-0.2-0.4-0.1c-1.5,2.7-3.2,5.3-5.2,7.7
				C62.2,40.6,62.6,40.7,62.7,40.6L62.7,40.6z"/>
		</g>
		<g class="st5">
			<path class="st3" d="M62.7,40l-0.6,1c0,0.1,0.4,0,0.4-0.1l0.6-1.1C63.2,39.8,62.8,39.8,62.7,40L62.7,40z"/>
		</g>
		<g class="st5">
			<path class="st3" d="M62.6,39.9l-0.5,0.9c-0.2,0.2,0.2,0.3,0.4,0.1L63,40C63.1,39.8,62.8,39.7,62.6,39.9z"/>
		</g>
		<g class="st5">
			<path class="st3" d="M62.8,40c-0.2,0.3-0.5,0.6-0.7,0.9c-0.1,0.2,0.3,0.1,0.4,0c0.2-0.3,0.4-0.5,0.7-0.8
				C63.3,39.8,62.9,39.8,62.8,40L62.8,40z"/>
		</g>
		<g class="st5">
			<path class="st3" d="M62.8,39.9l-0.7,1c-0.1,0.2,0.3,0.1,0.4,0l0.7-1C63.2,39.7,62.8,39.8,62.8,39.9L62.8,39.9z"/>
		</g>
		<g class="st5">
			<path class="st3" d="M62.8,39.8c-0.3,0.4-0.6,0.8-0.9,1.3c-0.1,0.1,0.4,0,0.4-0.1c0.2-0.4,0.5-0.8,0.9-1.3
				c0.1-0.1-0.2-0.1-0.2-0.1C62.9,39.7,62.9,39.8,62.8,39.8L62.8,39.8z"/>
		</g>
		<g class="st5">
			<path class="st3" d="M62.9,39.7l-1,1.7c-0.1,0.2,0.4,0.1,0.4,0l1-1.7C63.4,39.5,62.9,39.6,62.9,39.7L62.9,39.7z"/>
		</g>
		<g class="st5">
			<path class="st3" d="M35.7,70.1c0.8-0.1,1.4-0.5,2-1c1.1-0.9,2.3-1.9,3.3-2.9c0.2-0.2-0.2-0.2-0.3-0.1c-0.5,0.4-1,0.8-1.4,1.2
				c-0.2,0.2,0.2,0.1,0.4,0.1c1-0.7,1.8-1.4,2.6-2.3c0.2-0.2-0.2-0.1-0.3-0.1c-0.7,0.3-1.3,0.8-1.7,1.3c-0.2,0.2,0.2,0.1,0.3,0.1
				c0.4-0.2,0.7-0.4,1.1-0.7c0.2-0.2-0.2-0.1-0.4-0.1c-0.5,0.4-1,0.8-1.5,1.3C39.5,67,40,67,40.1,66.9c0.5-0.5,1-0.8,1.5-1.3
				l-0.4-0.1c-0.3,0.2-0.7,0.5-1,0.7l0.3,0.1c0.5-0.5,1.1-0.9,1.7-1.2L41.9,65c-0.8,0.8-1.7,1.6-2.6,2.3l0.4,0.1
				c0.4-0.4,0.8-0.8,1.3-1.1l-0.3-0.1c-0.6,0.6-1.3,1.3-1.9,1.8s-2,1.9-2.8,2C35.7,69.9,35.4,70.1,35.7,70.1z"/>
		</g>
		<g class="st5">
			<path class="st6" d="M50.5,66.1c0.3,0.5,0.5,1,0.5,1.6c0,0.2,0.4,0.1,0.4-0.1c0-0.6-0.2-1.2-0.5-1.7
				C50.9,65.8,50.5,65.9,50.5,66.1z"/>
		</g>
		<g class="st5">
			<path class="st6" d="M64.9,51.5c0.5,0.4,1.1,0.5,1.7,0.4l-0.2-0.1l0,0c-0.1,0.1,0.3,0.1,0.4,0l0,0c0.1-0.1-0.1-0.1-0.2-0.1
				c-0.5,0.1-1-0.1-1.3-0.4C65.2,51.3,64.8,51.5,64.9,51.5L64.9,51.5z"/>
		</g>
		<g class="st5">
			<path class="st6" d="M50.5,36.4c0.2-0.4,0.4-0.8,0.4-1.3l-0.4,0.2c0.3,0.1,0.6,0.1,0.9,0.1c0.2,0,0.4-0.3,0.1-0.3
				c-0.2,0-0.5,0-0.7-0.1c-0.1,0-0.4,0-0.4,0.2c-0.1,0.4-0.2,0.8-0.4,1.2C49.9,36.5,50.3,36.5,50.5,36.4L50.5,36.4z"/>
		</g>
		<g class="st5">
			<path class="st6" d="M35.9,51.4c-0.5,0.2-1,0.3-1.5,0.3c-0.1,0-0.3,0.1-0.3,0.2c0,0.5,0.1,0.9,0.2,1.4c0,0.1,0.5,0.1,0.4-0.1
				c-0.1-0.5-0.1-0.9-0.2-1.4L34.2,52c0.7,0,1.3-0.1,1.9-0.4C36.3,51.5,36.1,51.4,35.9,51.4z"/>
		</g>
		<g class="st5">
			<path class="st3" d="M23.9,51.7c0,1.8,1,4.4,3.1,4.7c1.8,0.2,3.2-1.9,2.6-3.5c-0.1-0.2-0.2-0.3-0.4-0.2c-0.1,0-0.2,0.1-0.2,0.2
				c-0.7,0.9-1,3.2-2.6,1.8c-0.8-0.9-1.5-1.9-2-3c-0.1-0.1-0.2-0.2-0.3-0.1C23.9,51.5,23.9,51.6,23.9,51.7L23.9,51.7z"/>
		</g>
		<g class="st5">
			<path class="st3" d="M47.9,74.1c1-0.1,2-0.6,2.9-0.9l-0.7-0.7c-0.4,1.3-0.9,3.1,0,4.2c1,1.3,2.3,0.4,3.1-0.7
				c0.4-0.6-0.6-1.4-1.1-0.8c-0.2,0.2-0.5,0.7-0.8,0.6c-0.5-0.1-0.4-0.5-0.4-0.8c0-0.7,0.1-1.4,0.3-2.2c0.1-0.3-0.1-0.7-0.5-0.7
				c-0.1,0-0.2,0-0.2,0c-1,0.4-2,0.5-2.9,1c-0.2,0.2-0.3,0.5-0.2,0.7C47.6,74,47.8,74.1,47.9,74.1L47.9,74.1z"/>
		</g>
		<g class="st5">
			<path class="st3" d="M74.7,47.3l0.2,0.1c0.3,0.1,0.5-0.4,0.2-0.5c-0.7-0.3-1.4-0.1-2.2,0.1c-0.8,0.1-1.4,0.2-1.8,0.8
				c-0.3,0.5-0.5,1.2-0.4,1.8c-0.1,1.1-0.2,2.3-0.2,3.5c0.1,0.4,0.4,0.7,0.8,0.7c0.4-0.1,0.7-0.3,0.7-0.7c0.1-0.7,0.1-1.3,0.1-2
				c-0.1-0.7-0.1-1.4,0.1-2.2c0.4-1.2,2.2-0.7,3-1.6L74.6,47l-0.1,0.2C74.6,47.2,74.6,47.3,74.7,47.3L74.7,47.3z"/>
		</g>
		<g class="st5">
			<path class="st3" d="M48.7,27.4c-0.4,0.4-0.6,0.8-0.6,1.4c-0.1,0.9-0.1,1.8-0.3,2.6c-0.2,1.1,1.5,1.2,1.4,0.2
				c-0.1-0.8,0.1-1.7,0-2.5c0-0.6,0.1-1.3-0.4-1.7C48.7,27.4,48.7,27.4,48.7,27.4L48.7,27.4z"/>
		</g>
		<g class="st5">
			<path class="st3" d="M50.3,28.7c0.2,0.9,0.6,1.6,1.6,2c0.9,0.3,1.9,0.1,2.7-0.5c0.7-0.5,1.1-1.5,0.4-2.2
				c-0.7-0.7-2.4-0.5-3.1,0.1c-0.2,0.2-0.3,0.5,0,0.7c0.4,0.2,0.8,0.2,1.3,0.2c0.1,0,0.7,0,0.8,0.1c0.2,0.4-0.6,0.6-0.8,0.7
				c-1,0.2-2.1-0.2-2.6-1.1c0-0.1-0.1-0.1-0.1-0.1S50.3,28.7,50.3,28.7z"/>
		</g>
		<g class="st5">
			<path class="st3" d="M51.9,28.1c0.7,0,1.3-0.2,1.7-0.7c0.4-0.4,0.4-1,0.2-1.4c-0.5-1.2-3-1.1-3.3,0.2c-0.1,0.2,0.1,0.5,0.3,0.6
				c0.1,0,0.1,0,0.1,0c0.6,0.1,1.3-0.6,1.9-0.3c0.7,0.3-0.8,1-1,1.1C51.5,27.6,51.5,28.1,51.9,28.1L51.9,28.1z"/>
		</g>
		<path class="st3" d="M49.4,57.4c0.8,0,1.5-0.7,1.5-1.5c0-0.8-0.7-1.5-1.5-1.5s-1.5,0.7-1.5,1.5l0,0C47.9,56.6,48.6,57.4,49.4,57.4
			z"/>
		<path class="st3" d="M46.2,55.3c1.3,0,2.3-1,2.3-2.3s-1-2.3-2.3-2.3s-2.3,1-2.3,2.3S44.9,55.3,46.2,55.3L46.2,55.3z"/>
		<g class="st7">
			<path class="st3" d="M47.8,52.5c0.1,0.2,0.1,0.5,0.1,0.8c-0.1,0.3-0.1,0.5-0.2,0.8c0,0.3,0.2,0.5,0.5,0.5c0.1,0,0.2-0.1,0.4-0.1
				c0.5-0.5,0.6-1.6,0.4-2.3S47.6,51.7,47.8,52.5L47.8,52.5z"/>
		</g>
		<g class="st7">
			<path class="st3" d="M48.5,55.3c0.4-0.1,0.7-0.1,1.1,0.1c0.1,0.1,0.2,0.1,0.3,0.2c0.2,0.2,0.5,0.2,0.9,0.2
				c0.3-0.1,0.5-0.4,0.5-0.7c0-0.7-0.8-1.1-1.4-1.2c-0.6-0.1-1.2-0.1-1.7,0.2C47.7,54.4,47.9,55.4,48.5,55.3L48.5,55.3z"/>
		</g>
		<g class="st7">
			<path class="st3" d="M36.6,69.8c2.2-1.9,4.2-4,6.4-6c2.2-2,4.4-3.8,6.4-6c0.2-0.2,0.2-0.5,0-0.7c-0.2-0.2-0.5-0.2-0.7,0l0,0
				c-2.3,1.8-4.3,4-6.4,5.9c-2.1,2-4.4,3.8-6.4,5.9c-0.2,0.2-0.2,0.6,0,0.8C36,70.1,36.4,70.1,36.6,69.8z"/>
		</g>
		<g class="st7">
			<path class="st3" d="M65.9,34.2c-5.9,5.2-10.3,12.5-15.1,18.7C50,54,52,55.2,52.9,54c4.6-6.2,10.2-12.5,13.4-19.6
				c0.1-0.1,0-0.2-0.1-0.3C66.1,34.1,66,34.1,65.9,34.2z"/>
		</g>
		<g class="st5">
			<path class="st6" d="M62.4,41.6c-2.7,2.5-5,5.6-7.3,8.4c-1.1,1.3-2.1,3.1-3.4,4.1c-0.9,0.7-2,0.2-2.8,0.8
				c-1.4,1.1,0.3,3.2,1.4,1.5c0.1-0.1,0.1-0.3,0-0.5L50,55.6c-0.1-0.1-0.2-0.2-0.4-0.2l-0.5,0.1c-0.2,0-0.4,0.2-0.4,0.5
				c0,0.1,0,0.1,0.1,0.2c0.6,1,1.8,0.8,1.8-0.5c0-0.2-0.2-0.4-0.4-0.4H50c-0.2,0-0.4,0.2-0.4,0.4v0.2c0,0.2,0.1,0.4,0.3,0.4
				c1.7,0.4,3.4-2.8,4.3-3.9c2.8-3.7,5.8-7.3,8.9-10.7L62.5,41c-1.9,2.1-3.7,4.1-5.5,6.3l0.6,0.6c1.7-2.1,3.4-4.2,4.9-6.4
				c0.3-0.4-0.4-0.8-0.7-0.4c-1.6,2.1-3.2,4.1-4.9,6.2c-0.4,0.4,0.2,1.1,0.6,0.6c1.8-2.1,3.6-4.3,5.4-6.4c0.3-0.4-0.2-0.8-0.5-0.5
				c-2.2,2.4-4.3,4.9-6.3,7.4c-0.7,0.8-6.3,7.8-6.6,7.2l-0.4,0.7c1-0.2,1.9-0.5,2.7-1c1.4-0.9,2.5-2.9,3.5-4.1c2.5-3,5.3-6,7.3-9.3
				c0.1-0.1,0-0.2-0.1-0.2C62.5,41.6,62.4,41.6,62.4,41.6L62.4,41.6z"/>
		</g>
		<g class="st5">
			<path class="st6" d="M49,55.7c0.2,0,0.4-0.2,0.3-0.4c0-0.2-0.2-0.3-0.3-0.3c-0.2,0-0.4,0.2-0.3,0.4C48.7,55.6,48.8,55.7,49,55.7z
				"/>
		</g>
		<g class="st5">
			<path class="st6" d="M48.8,55.7c0.3-0.1,0.5-0.4,0.9-0.4s0.7,0,1-0.2c0.1-0.1,0.2-0.2,0.1-0.3c0,0,0-0.1-0.1-0.1
				c-0.2-0.3-0.8-0.2-1.1-0.1c-0.4,0.1-0.8,0.4-1,0.7C48.4,55.6,48.6,55.9,48.8,55.7z"/>
		</g>
		<g class="st5">
			<path class="st6" d="M48.7,55.7c0.4-0.2,0.8-0.4,1.2-0.5c0.4,0,0.7,0.2,1.1,0.1c0.1,0,0.2-0.1,0.2-0.2v-0.1
				c-0.2-0.5-0.9-0.5-1.3-0.4c-0.5,0.1-1,0.3-1.3,0.8C48.5,55.6,48.6,55.7,48.7,55.7L48.7,55.7z"/>
		</g>
		<g class="st5">
			<path class="st6" d="M50,55.2c0.2,0,0.5,0,0.7,0.1c0.2,0.1,0.4,0.1,0.6,0.2c0.1,0,0.2-0.1,0.2-0.2c0,0,0,0,0-0.1
				c-0.2-0.6-1-0.6-1.5-0.4C49.7,54.9,49.7,55.2,50,55.2L50,55.2z"/>
		</g>
		<g class="st5">
			<path class="st6" d="M50.9,55c1.2-1.1,2.3-2.2,3.4-3.4c1-1,1.9-2.2,2.8-3.4c0.2-0.2-0.2-0.5-0.4-0.3c-1.1,1.1-2,2.3-3,3.4
				c-1,1.1-2.1,2.2-3.1,3.4c-0.1,0.1-0.1,0.2,0,0.3C50.8,55.1,50.8,55.1,50.9,55L50.9,55z"/>
		</g>
		<g class="st5">
			<path class="st6" d="M51.2,55.1c3.8-3.8,7.1-8.3,10.4-12.5c0.3-0.4-0.2-0.9-0.5-0.5c-3.4,4.2-6.9,8.3-10.3,12.5
				c-0.4,0.4,0.2,1.1,0.6,0.6c3.4-4.2,6.8-8.4,10.3-12.6L61.1,42c-3.4,4.3-7,8.5-10.3,12.8C50.8,55,51.1,55.3,51.2,55.1L51.2,55.1z"
				/>
		</g>
		<g class="st5">
			<path class="st6" d="M50,54.7c-0.2-0.3-0.7-0.2-1-0.1c-0.4,0.2-0.5,0.6-0.6,1c0,0.2,0.1,0.3,0.3,0.3c0.1,0,0.2-0.1,0.3-0.2
				c0-0.2,0.2-0.4,0.4-0.5s0.4-0.1,0.6-0.2C50.1,55,50.1,54.8,50,54.7C50,54.8,50,54.7,50,54.7L50,54.7z"/>
		</g>
		<g class="st5">
			<path class="st6" d="M50.4,55.2c-0.2-0.5-0.8-0.8-1.3-0.6c-0.1,0.1-0.3,0.1-0.4,0.2c-0.2,0.2-0.4,0.6-0.3,1
				c0.1,0.3,0.3,0.7,0.7,0.7c0.1,0,0.2-0.1,0.2-0.2c0-0.4-0.4-0.6-0.1-1c0.2-0.4,0.7-0.2,1,0.1c0.1,0.1,0.2,0.1,0.2,0
				C50.4,55.3,50.4,55.3,50.4,55.2L50.4,55.2z"/>
		</g>
		<g class="st5">
			<path class="st6" d="M50.2,54.7c-0.4-0.2-0.9,0-1.1,0.4c-0.1,0.3-0.1,1,0.4,1c0.1,0,0.2-0.1,0.2-0.2c0-0.2-0.1-0.3-0.1-0.5
				s0.2-0.4,0.5-0.4l0,0c0.1,0,0.2-0.1,0.2-0.2C50.2,54.8,50.2,54.7,50.2,54.7z"/>
		</g>
		<g class="st5">
			<path class="st6" d="M50.8,55c-0.5,0-0.9,0.1-1.4,0.1c-0.3,0.1-0.2,0.6,0.1,0.5c0.5-0.1,0.9-0.2,1.4-0.3c0.1,0,0.2-0.1,0.1-0.2
				C51,55.1,50.9,55,50.8,55z"/>
		</g>
		<g class="st5">
			<path class="st6" d="M50.2,54.8c-0.5-0.1-1.3,0.2-1.3,0.8c0,0.1,0.1,0.1,0.1,0.1c0.1,0,0.1,0,0.1-0.1c0.3-0.4,0.5-0.7,1-0.6
				C50.3,55.1,50.3,54.9,50.2,54.8L50.2,54.8z"/>
		</g>
		<g class="st5">
			<path class="st6" d="M62.8,40.2c-1.1,1.1-2.3,2.6-2.6,4.2c-0.1,0.1,0,0.2,0.1,0.3s0.2,0,0.2-0.1c0.4-0.7,0.7-1.5,1.1-2.2
				s0.8-1.4,1.3-2.1C63.1,40.2,62.9,40.1,62.8,40.2L62.8,40.2z"/>
		</g>
		<g class="st5">
			<path class="st6" d="M63.4,39.5c-2.5,2.4-4.6,5.2-6.2,8.2c-0.1,0.1,0.1,0.3,0.2,0.2c2.1-2.7,4.1-5.5,6.2-8.2
				C63.7,39.5,63.5,39.4,63.4,39.5L63.4,39.5z"/>
		</g>
		<g class="st5">
			<path class="st6" d="M42,65.6c1.3-0.9,2.4-2.3,3.5-3.5c1.2-1.1,2.3-2.4,3.3-3.7c0.2-0.2-0.2-0.5-0.4-0.3
				c-1.3,1.1-2.5,2.4-3.5,3.8c-1,1.1-2.3,2.2-3,3.5C41.8,65.6,41.9,65.8,42,65.6L42,65.6z"/>
		</g>
		<g class="st5">
			<path class="st6" d="M42,65.2c2.5-2,4.6-4.7,6.7-7c0.2-0.3-0.2-0.7-0.4-0.4c-2.2,2.3-4.8,4.6-6.6,7.2
				C41.6,65.1,41.8,65.2,42,65.2L42,65.2z"/>
		</g>
		<g class="st5">
			<path class="st6" d="M41.9,65.3c1.3-0.8,2.3-2.1,3.4-3.2c1.2-1.3,2.4-2.5,3.5-3.8c0.2-0.2-0.1-0.6-0.4-0.4
				c-1.2,1.3-2.3,2.6-3.5,3.8c-1.1,1.1-2.3,2.2-3.2,3.4C41.6,65.2,41.8,65.4,41.9,65.3z"/>
		</g>
	</g>
</g>
</svg>
