<svg xmlns="http://www.w3.org/2000/svg" viewBox="0 0 798.37 638.88"><defs><style>.cls-1{fill:#505075;}.cls-2{fill:#fefefe;}.cls-3{fill:#6f6f6f;}.cls-4{fill:#fff;}.cls-5{fill:#797979;}.cls-6{fill:#2c2c2c;}.cls-7{fill:#b6b6b6;}.cls-8{fill:#717171;}.cls-9{fill:#555;}.cls-10{fill:#4a4a4a;}.cls-11{fill:#707070;}</style></defs><title>Asset 1</title><g id="Layer_2" data-name="Layer 2"><g id="Layer_1-2" data-name="Layer 1"><path class="cls-1" d="M11.87,602c5.69-4.54,11.45-9,17-13.67a10.29,10.29,0,0,1,7.23-2.6c8.3.13,16.6,0,25-.55A51.33,51.33,0,0,0,49,574.27c-15.12-9.79-28.51-21.39-38.34-36.68-11.5-17.87-13.81-36.73-6.25-56.76,7.31-19.36,19.33-35.63,32.87-50.92a320,320,0,0,1,27.37-27,85.45,85.45,0,0,1,18-12.37c21.06-10.74,42-21.77,62.92-32.75a11.69,11.69,0,0,1,6.63-1.69c21.33,1.93,40.8-4.08,60.33-12.2C255,326.26,297.88,309.78,340.66,293c3.95-1.55,6.28-3.26,5.39-7.76-1.72-8.69,1.81-14.54,9.07-19.47s13.89-11.4,20.94-17a8.1,8.1,0,0,0,3.39-6.73c.2-6.49.81-13,1-19.46a9.33,9.33,0,0,1,3.24-6.92c5.87-5.66,11.51-11.57,17.39-17.23,1.95-1.88,3.11-3.82,2.7-6.55-.05-.33,0-.67,0-1-1.85-11.48.91-20.85,12.05-26.42,2.33-1.16,2.5-3.35,2.26-5.59-.8-7.51,1.18-14.4,4.07-21.27,4-9.51,7.42-19.26,11.35-28.81,1.46-3.57,2.12-6.94.58-10.57-3.43-8-2.57-15.7,1.66-23.27,1.81-3.25,2.94-6.87,4.88-11.52,1.23,8.5-.55,15.79,1.2,22.87,3.34,7.71,5.91,15.41,2.66,24-3.36,8.87-6.53,17.83-10.05,26.65a18.78,18.78,0,0,0-1.09,11.67c.23,1,.3,2,.57,2.95,1.89,6.69.93,12.33-5.44,16.38-4.91,3.11-6.56,7.43-4.55,13.23,1,2.78.95,5.92,1.71,8.82,1.19,4.53-.4,7.71-4.13,10.25-7.44,5.06-14.52,10.64-21.89,15.8a9.37,9.37,0,0,0-4.4,8.79c.2,7.16-.05,14.33.1,21.5a12,12,0,0,1-4,9.77c-2.82,2.59-5.36,5.49-8.18,8.08-2.64,2.45-2.22,3.95.93,5.46,8.71,4.18,17.31,8.6,25.73,13.33,1,.57,2.11,1,3.11,1.6,1.29.75,3.07,1.38,3,3,0,2-2,2.44-3.59,2.94-25.41,8.07-50.89,15.91-76.33,23.86-24.64,7.71-49.33,15.28-73.92,23.17-.91.29-2,.35-2.83,1.76a166.53,166.53,0,0,0,14.48,11.76c3.76,2.8,4.3,5.52,2.42,9.8-8.94,20.27-18,40.47-26.7,60.87a21,21,0,0,1-5.15,7.29c-11.28,10.41-23,20.28-36.12,28.31-16.66,10.16-35.19,15-54.06,18.55-4.89.93-7.06,3.07-8.3,7.69-3.47,12.87-7.23,25.66-10.93,38.46-1.81,6.28-1.53,6.88,4.74,6.63,12-.49,24,1.18,35.93,1,2,0,5,.82,5.35-2.12s.62-6.53-3-8.29a53.66,53.66,0,0,1-5.39-2.63c-3.41-2.16-3.68-3.95-.53-6.59,4.22-3.52,8.6-6.85,13-10.17,14.34-10.87,28.73-21.67,42.95-32.7a45.22,45.22,0,0,0,4.86-4.31c21.66-22.39,44.87-43.23,66.54-65.61,2.91-3,5.8-4.28,10.16-3.47,55.38,10.28,110.5,21.79,165.18,35.33,44.46,11,87.24,26.74,128.72,46.11,13.14,6.14,26.19,12.41,38.89,19.43a10.48,10.48,0,0,1,5.55,7.21c1.52,6.32,2.72,12.71,4,19.09.57,3,2,4.61,5.09,5.26,5.22,1.11,10.46,2.11,15.59,3.58,3,.86,4.74,0,5.51-3.13,2.2-9.07,4.87-18,7-27.09.75-3.14-.21-5.41-2.54-7.53-17.5-15.9-34.75-32.06-52.08-48.14-13.18-12.23-26.43-24.38-39.58-36.64-3.31-3.08-7.39-5.12-11.23-7.45-40-24.28-79.76-49-119.76-73.36-4.43-2.7-4.59-2.75-6.73,2.31-5.2,12.27-10.42,24.54-15.53,36.85-.64,1.53-1.19,3.11-1.94,4.6s-1.49,3.07-3.16,2.74-1.54-2.32-1.73-3.76c-3.27-24.58-5.73-49.27-8.94-73.86-.11-.82-.11-1.66-.14-2.49-.17-5.24,1.05-6.15,5.76-4,20.62,9.39,41.3,18.63,62,27.9,7.84,3.51,15.56,7.32,24.4,10.81-3.6-12.4-8.67-23-16.75-32.16-9.87-11.17-22.68-17.33-36.56-21.53-9.24-2.79-18.67-5-28.38-5.56-2-.12-4.48,0-5-2.38-.58-2.6,1.88-3.62,3.73-4.69q29.52-17.13,60.9-3.67c9.81,4.19,19.42,8.82,28,15.25a35.84,35.84,0,0,1,2.91,2.34c.35.5-.5.14.16.23q.3,0,.24-.21c0-.07-.11-.1-.34-.12a13.3,13.3,0,0,0-2.21-1.77c-7.51-7.57-14.36-15.73-21.66-23.47a18.07,18.07,0,0,0-7.71-5.21c-9.18-3-18.29-6.2-27.58-8.84a29.49,29.49,0,0,1-3.76-1.34c-1.25-.54-2.62-1.18-2.75-2.64s1.27-2.32,2.47-2.81c7.53-3.09,14.8-6.32,23.55-4.64,7.4,1.43,14.45,3,21.16,6.7,9.88,5.51,19.91,10.76,30.55,16.48C527.55,234,520,221.66,508.4,212.33c-5.71-4.59-12.4-7-19.37-8.91-1.18-.32-3-.32-2.92-2,.08-1.49,1.66-1.93,3-2.29,8.38-2.31,16.53-.73,24.56,1.68,10.45,3.13,19.84,8.55,29.21,14a19,19,0,0,0,3.38,1.8c-4.1-8.5-8.57-16.16-14.82-22.78-7.93-8.4-17.78-12.64-29-14.33-2.8-.42-5.59-.9-8.37-1.39-.8-.14-1.76-.38-2-1.28-.32-1.3.87-1.69,1.7-2.05,4.13-1.83,8.59-2.63,12.87-4,2.64-.84,5.44-1.29,8-3-4.8-6.55-11.68-7-18.45-7.37-5.15-.32-10.33.26-15.47-.26-7.13-.72-7.62-1.34-8.18-8.5,0-.33,0-.67-.08-1-2.24-12.2.63-11,10.21-9.06,8.15,1.64,16.38,2.88,24.41,5.1,2.37,1.7,3.93.6,5.24-1.48a39.36,39.36,0,0,0,4.36-9.89c6.4-12.74,13.79-24.94,21.14-37.13C541,93,542,88.4,538.85,83a47.07,47.07,0,0,1-3.59-8.18c-.54-1.57-1.3-3.4,1.71-3,7.15,2,10.72,6.56,11.9,14,1.35,8.52,5.76,17,5.3,25.25-.44,8.1-5.34,15.95-8.29,23.92-.4,1.09-.83,2.18-1.24,3.27-2.53,6.71-2.6,6.83,3.51,10.18,2.2,1.2,2.51,2.66,2.34,4.86-.48,6.31-.67,12.64-1.2,18.95-.2,2.41.22,4.36,2.31,5.6,12,7.19,15.57,18,13.37,31.26-.11.65,0,1.34,0,2-1.17,10,.79,19.15,6.82,27.3,1.7,2.3,1.56,4.33-.08,6.76-3.64,5.38-6.83,11.06-10.47,16.44-1.64,2.42-1.62,4.35-.27,6.84,2.79,5.12,5.11,10.5,8,15.56,1.66,2.91,1.34,5-.61,7.61-4,5.34-7.53,11-11.43,16.4a6.61,6.61,0,0,0-1.19,6.48c.73,2.2.76,4.64,1.56,6.81,3.7,10.09,3.66,19.72-3.14,28.63-2.45,3.2-.12,4.56,2.14,6.22q75.93,55.78,151.88,111.57a13.17,13.17,0,0,1,5.85,9.65c2.89,20.62,6.15,41.19,9.13,61.8.4,2.74,1.67,3.66,4.15,4.65,8.7,3.48,16.06,9.35,24,14.18,1.46.89,1.29,2.63,1.47,4.09,1.77,14.22,3.63,28.42,5.14,42.67.37,3.45,1.42,4.85,5,5.28,10.6,1.31,10.59,1.46,9.29-8.94-1.24-9.92-2.45-19.84-3.79-29.75a13.22,13.22,0,0,1,.62-5.87c2-6.68,3.7-13.53,6.2-20,2.57-6.71,3.18-13.12.05-19.71-1.49-3.14-1-5.9,1-8.8,3.12-4.46,5.83-9.21,9.06-14.39,2.37,4.64,4.39,8.62,6.45,12.58a5,5,0,0,1,.07,4.36c-4.29,10.43-3.15,20.81.33,31.12,1.83,5.41,1.46,10.66.25,16.17-3,13.66-5.37,27.47-8.49,41.1-1.06,4.66.44,5.85,4.58,6.18,3.26.27,6.48,1.09,9.85,1.69-.72,2.07-2.35,2.3-3.55,3-11.2,6.25-22.48,12.36-33.65,18.67a10.91,10.91,0,0,1-7.09,1.43c-62.55-7.44-125.21-13.77-187.9-19.85C496.86,612.2,427.47,606.17,358,601.46c-84.85-5.74-169.75-8.79-254.78-5.2-28.48,1.21-56.9,3.3-85.19,6.86C15.9,603.05,13.4,605.09,11.87,602Z"/><path class="cls-2" d="M519.9,274.06a203,203,0,0,0-26.63-14.42c-20.89-9.33-41.34-9-61.37,2.42-1.7,1-3.32,2.09-5.41,3.43,2.12,1.57,4.14,1.22,5.95,1.43,15.67,1.75,30.82,5.38,45.13,12.18,21.42,10.18,31.9,28.56,38.62,51.26l-94-42.4c3.4,28.58,6.69,56.28,10,84,2.15.24,1.88-1.67,2.3-2.65,6.18-14.56,12.33-29.13,18.31-43.78,1.23-3,2.18-3.64,5.22-1.76q64.65,39.86,129.45,79.49a31.45,31.45,0,0,1,4.67,3.73q45.87,42.42,91.78,84.81c2.73,2.51,3.32,4.66,2.3,8.2-2.7,9.44-5,19-7.29,28.55-.67,2.83-1.56,3.9-4.7,3.05-6.42-1.73-12.95-3.15-19.48-4.43-2.5-.49-3.53-1.45-3.95-4.07-1-6.4-2.8-12.69-3.81-19.1-.67-4.34-2.65-6.93-6.59-9C582,464.09,520.73,440.77,456.2,425.94,408,414.87,359.63,404.53,311,395.42c-4.62-.87-7.84-.28-11.39,3.3-19.29,19.36-39.1,38.19-58.37,57.57-17.61,17.71-38.66,31.06-58,46.59-4.41,3.54-9,6.87-14.16,10.82,3.56,1.65,6.55,3.19,9.66,4.43a4.79,4.79,0,0,1,3.46,4.77c.55,9.32,1.79,7.85-7.37,7.8-13-.07-26-.4-39-.4-3.46,0-4.76-.51-3.6-4.4q6.94-23.22,13.38-46.58c.74-2.69,2-3.79,4.67-4.13,36.82-4.72,67.57-21.4,93.45-47.64a19.72,19.72,0,0,0,4.3-6c9-20.77,18.09-41.53,27.34-62.2,1.37-3.06.9-4.6-1.67-6.53-6-4.48-11.72-9.28-18.37-14.6l161.21-50.33c-12.18-6.33-23.17-12.19-34.32-17.73-3.57-1.78-4.85-3.24-1-5.9,10.59-7.33,14.81-17.34,12.4-30-2.23-11.66,2.28-19.42,12.63-24.89,5.55-2.92,10.21-7.46,15.48-11,2.77-1.84,3.7-3.72,2.88-7-1.24-5-1.77-10.18-3-15.18-.68-2.74-.1-4.6,2.16-5.93,9-5.25,11.62-12.72,8.16-22.49-1.29-3.66-.29-7.12,1.07-10.63,3.33-8.53,6.14-17.27,9.72-25.69a22.15,22.15,0,0,0,.9-16.4,77.28,77.28,0,0,1-1.81-8.76c.06-7.31,0-14.63.26-21.94.09-2.46-.6-6.17,4.11-5.44,7-.65,8.09-2.53,5.28-9-.87-2-1.42-4.15-2.58-5.93-5-7.7-4.3-15.61-1.63-23.87,1.22-3.79,3.24-5.58,7.14-5.42a35.19,35.19,0,0,1,4,0c3.66.56,5.2-.83,4.5-4.53,3.4-1.24,9.32,1.63,9.44,4.86.06,1.67.44,2.45,1.93,2.81,2.12-.11,3.4,1.32,4.47,2.75,4.37,5.86,11.07,8.33,17,11.91,2.65,1.61,4.41.08,5.94-1.85,2.88-3.65,6.1-7,9.05-10.61,1.22-1.5,2.67-3.52,4.83-2.92s1.55,3,1.92,4.73c1.37,6.41.69,12.91.79,19.37,0,3.61-1.87,5-5.29,5-4,0-8,.24-12,0a20.41,20.41,0,0,0-14.84,4.48,49.53,49.53,0,0,1-7.1,4.6c-.79.45-1.67.72-2.39,1.23-.25.13-.39.22-.39.22-.4.09-.3.21.2.06s1.18-.54,1.81-.75c1.16-.38,2.29-.83,3.46-1.18,18.79-4.92,36.23-1.5,52.55,8.62,1.63,1,3.71,1.75,3.75,4.23.85,1.64.64,3-1,4-.24.66-2.35-.59-1.35,1.46C538.42,79,543.22,85,542.47,91c-.72,5.79-5.67,11-8.77,16.55l-15.86,28.18c-2.59.14-2.62-2-3.08-3.61-3.32-11.69-3.52-23.65-3.08-35.68.1-2.8,1.64-4.59,3.72-6.15,3.6-2.7,7.51-5,11-7.78.87-.7,2.33-1.17,2-2.55s-1.74-1.43-2.83-1.75c-6.55-1.94-13.15-3.74-19.59-6-3.38-1.18-4.24-.19-3.67,3,1.56,8.86,2.67,17.79,4,26.68,1,6.47.3,7.27-6.22,7.4-14.2.28-10.73-2.16-18.82,11.09-1.62,2.66-3.08,5.43-5.18,9,6.05-2.95,11.11-5.48,16.16-8a5.9,5.9,0,0,1,7.29,1c4.51,4,8.88,8.07,13.6,11.77,3.07,2.42,3.63,5.22,1.2,8.14-2,2.41-1.79,8-7.46,5.67-10.42-2.12-20.86-4.17-31.26-6.39-2.5-.53-2.88.43-2.67,2.53.37,3.64.81,7.3.88,11,.06,2.62,1.13,3.41,3.61,3.46,6.49.15,13,1,19.47.68,8.49-.42,15.1,2.79,21.26,9.33l-25,7.65c28.38,1.33,45.21,17.29,55.45,43.45-10.38-5.89-19.79-11.7-30.1-15.71s-20.92-6.17-32-2.54c27.25,4.87,38.65,26.24,50.47,47.62-1.76.68-2.73-.36-3.75-.9-11-5.83-22.11-11.63-33.07-17.61-3.86-2.11-7.95-3-12.15-4.12-11.27-3-21.31-.12-31.77,5.67,5.75,1.83,11,4,16.38,5.1,16.3,3.38,29.52,11.25,39.24,25,2.86,4,6.53,7.48,9.84,11.19C521.73,275,520.83,274.56,519.9,274.06Z"/><path class="cls-1" d="M538,67.81c-15.77-11.46-33.14-16.1-52.49-12.34-1.47.28-2.94.48-4.41.72-1.3.11-3,1.31-3.26-1.26,4.25-2.89,8.55-5.73,12.75-8.7a9,9,0,0,1,5.62-1.53c6,.06,12,0,17.95.06,2.33,0,3.29-.66,3.13-3.14-.5-8.08-.83-16.18-1.29-25.7-5.22,6.06-9.78,11-13.9,16.26-2.37,3-4.15,3.57-7.67,1.47C487,29.22,479.54,25,474.22,17.92c-.83-1.49-.74-2.68.8-3.8,3.09-2.26,6.14-4.57,9-7.06,2-1.67,3.59-.61,4.88.51,6.8,5.91,12.82,4.53,19.73-.47,8.38-6.06,8.74-5.55,15.48,2.55,6.32,7.61,6.32,7.61,15.77,4.72,9.22-2.83,9-2.68,14.72,5.18,2.56,3.53,2.86,6.41,1.2,10.4-4.84,11.67-9.25,23.51-13.79,35.3C541.31,67.17,540.81,69.23,538,67.81Z"/><path class="cls-1" d="M462.85,10.25c.49,1.94,2.81,2.8,3,5.63-4.14,0-8.22.15-12.27-.06-2.81-.14-4.51.62-4.69,3.63a1.3,1.3,0,0,1-.11.49c-6.08,11.59-.12,21.49,4.75,31.33,2,4.12.86,6.06-2.29,8.53-2.46,1.91-3.68,1.14-5.1-.85-6.64-11.12-13.14-22.33-20-33.32-2.08-3.32-1.76-4.72,2-5.88,3.15-1,6-2.93,9.21-3.8,5.31-1.47,7.74-4.36,6.76-10-.27-1.53-1.07-4.41,1.51-4.52,3.32-.14,6.94-3.44,10.12.56C458,4.82,460.47,7.5,462.85,10.25Z"/><path class="cls-3" d="M11.87,602c1.68,2.32,4.21.11,6.13,1.14-1.81,1.37-4,.9-6,1.26-.72.13-1.85.35-1.73-.82C10.29,603,11.29,602.5,11.87,602Z"/><path class="cls-4" d="M434.85,585.17c-14.16-.29-28.31-.69-42.47-.76-3.68,0-4.38-.91-3.58-4.49,3.73-16.57,7.11-33.22,10.78-49.8.92-4.16,1.23-8.13-.25-12.21-2.8-7.69-3.05-15.58-1.84-23.62.6-4-4.11-12.43-7.52-14.15a1.84,1.84,0,0,0-2.22.36c-1.05.82-2.1,1.64-3.12,2.49-3.06,2.56-7.77,4.66-8.67,7.84-.85,3,3.69,6.21,6,9.23,1.45,1.92,1.18,3.53.42,5.53-3.34,8.7-6.45,17.5-9.89,26.16A22.57,22.57,0,0,0,371,542.46c1.12,12.28,2,24.58,3.18,36.85.35,3.6-.16,5-4.25,4.84-12-.39-24-.44-36-.35-3.68,0-4.5-1-3.83-4.58,2.61-13.91,4.86-27.89,7.48-41.79a35.79,35.79,0,0,0-.09-15.28c-1.59-6.77-2.69-13.66-4-20.67-1.93.45-1.81,2-2.33,3.07-10.11,20.58-14.8,42.19-12.43,65.18.35,3.47-.1,7,.09,10.49.15,2.69-.9,3.45-3.46,3.41q-13.49-.24-27-.16c-2.45,0-3.84-.55-3.61-3.27.48-5.79-3-9.71-6-14.21-8-12.12-18.68-19.53-32.81-23-10.16-2.51-10-3.25-4.31-12q26.61-41.1,53.18-82.24c1.76-2.72,3.45-3.76,6.81-3.39q67.07,7.43,133.54,19c3.86.67,5.06,2.26,5.39,6,2.73,31.35,6.47,62.64,5.27,94.21-.24,6.49.1,13,.17,19.48-.41,2.69-2.53,1.45-3.87,1.49C439.74,585.53,437.26,585.9,434.85,585.17Z"/><path class="cls-2" d="M175.74,373.29C169,375,163.28,376.6,162,384.39c-1.77,10.74-8.45,17.05-18,22.49-31.11,17.86-60.91,37.76-86.77,62.93C42.34,484.33,30.68,501,25.39,521.46a8,8,0,0,1-1,1.58,48.52,48.52,0,0,1-2.79-33.8c5.93-22.62,18.65-41.41,33.19-59.25a82.32,82.32,0,0,1,29.37-23.26c27.14-12.73,53.71-26.67,80.71-39.68,11.11-5.36,23.36-7.77,35.08-11.54,18.06-5.81,36.22-11.33,54.23-16.93,1.45,1.47.42,2.71.12,3.88q-9.67,38.27-19.43,76.52c-.53,2.06-.87,4.08-3,5.45-22,13.94-45.32,23.93-71.89,24.69-4.6.14-5.59-.62-4.19-5.32,6.6-22.19,12.83-44.49,19.18-66.75C175.2,376,175.39,374.87,175.74,373.29Z"/><path class="cls-4" d="M551.82,589.62c-9-.48-18-1.08-27-1.34-3.17-.09-4.36-.94-4.22-4.28.26-6.32-.08-12.66.14-19,.1-2.89-.94-4.14-3.65-4.88-5.45-1.51-10.78-3.48-16.23-5-2.69-.73-3-1.69-1.78-4.11,4.21-8.13,7.95-16.51,12.39-24.51a131.06,131.06,0,0,0,14.32-38.67c.64-3.29,1.67-4.38,5.25-3.45Q564,493,596.94,501.1c3.11.77,4.38,2,4.14,5.38a77.07,77.07,0,0,0,0,13c.36,3.72-1.3,4.89-4.5,5.59-4.39,1-8.65,2.51-13,3.42-3.22.66-4.2,2.06-4,5.41.93,17.13,1.41,34.29,2.41,51.41.28,4.69-.48,6.5-5.7,5.89C568.16,590.23,560,590.1,551.82,589.62Z"/><path class="cls-2" d="M248.48,581.59c-5.72-6.46-11.59-12.8-17.09-19.45a9.61,9.61,0,0,0-8.56-3.78c-8.9.24-17.81.08-27,1.22l19.8,10c3.06,1.54,6,10,4.34,12.95-1,1.85-3,1-4.54,1-33,.33-65.93.55-98.9.87-14.81.14-29.63.33-44.44.75-3.84.11-4.39-.91-3.38-4.43,2.9-10.07,5.81-20.16,8-30.39,1.11-5.11,4.14-6.3,8.41-6.49q16.45-.76,32.93-1.41c21.8-.84,43.59-1.63,65.39-2.5a24.79,24.79,0,0,1,8.34,1.07c17.82,5.45,35.65,10.89,53.54,16.1,3.33,1,4.49,2.41,4.31,5.89-.3,6.08-.08,12.19-.08,18.29Z"/><path class="cls-2" d="M634,571.22c-.36-6.48-.62-13-1.13-19.45-.2-2.52.71-3.71,2.88-5,5.6-3.39,10.91-3.78,17.42-2.08,26.72,7,53.6,13.42,80.47,19.84,3.58.86,4.31,2.15,3.85,5.71-1.37,10.56-2.38,21.18-3.26,31.79-.26,3.1-1.11,3.78-4.24,3.39-30.06-3.82-60.19-7.08-90.4-9.5-3.28-.26-4.61-1.24-4.64-4.71-.07-6.66-.62-13.31-1-20Z"/><path class="cls-4" d="M143.9,435.46c-2.39,6.76-4.64,13.15-6.9,19.53q-10,28.25-20,56.47c-2.75,7.7-9.61,12.14-14.75,17.92-.66.73-2.52.51-3.82.51-4.83,0-9.69-.41-14.48,0s-7.8-1.61-10.47-5.22a26.3,26.3,0,0,1-5.15-20.24,51.4,51.4,0,0,1,5.28-17.1c13.6-25.21,34-42.29,61.48-50.62A21.92,21.92,0,0,1,143.9,435.46Z"/><path class="cls-1" d="M507,148c5.94.64,5.85-5,7.95-8s-1.72-3.75-3.16-5.11c-4.35-4.11-9.06-7.84-13.47-11.9-1.75-1.61-3.16-1.77-5.25-.66a132.19,132.19,0,0,1-19.21,8.57c4.16-7.11,8.34-14.2,12.47-21.32.93-1.61,2.4-1.52,3.91-1.52,4,0,8-.18,12,.06,3.36.21,3.77-.94,3.24-4-1.76-10.33-3.14-20.73-4.68-31.1-.27-1.86-1-4,2.4-2.9,9.66,3,19.34,5.94,30.13,9.24-6.07,4.32-11.23,8.14-16.56,11.7A7.26,7.26,0,0,0,513,97.83c.13,11.31-.4,22.65,2.84,33.69.45,1.5-.08,3.46,2,4.21a38.37,38.37,0,0,1-5.2,11.2C511,149.25,509.29,150,507,148Z"/><path class="cls-2" d="M632.15,538.32c-5.39,4.24-9.95,8-14.71,11.5a6.29,6.29,0,0,0-2.79,5.87c.29,11.3.28,22.61.63,33.91.1,3.34-.74,4.55-4.17,3.88-4.2-.82-9.92,1.14-12.37-1.83-2.12-2.58-.94-7.93-1.11-12.06-.31-7.64-.43-15.29-.86-22.92a9.19,9.19,0,0,1,2.54-7.18c3.88-4.34,7.54-8.86,11.24-13.35,1.1-1.33,2.09-2.5,4.13-2C620.12,535.51,625.59,536.76,632.15,538.32Z"/><path class="cls-5" d="M434.85,585.17c3.64-1.31,7.67,1.15,11.19-1.21l16.79,1.16c.31.15.42.32.34.5s-.17.3-.27.3C453.54,586.09,444.17,586.56,434.85,585.17Z"/><path class="cls-6" d="M462.9,585.92a7.2,7.2,0,0,1-.07-.8H465a8.86,8.86,0,0,0,5.73.06l11.18,1.06C475.55,586.41,469.14,588.3,462.9,585.92Z"/><path class="cls-7" d="M519.9,274.06l1.89-.77c1.29,0,1.07,1.57,2,1.88.16.83,0,1.32-1,1Z"/><path class="cls-8" d="M522.83,276.15l1-1c1.16.38,2.5,1.29,1.61,2.3S523.5,277.08,522.83,276.15Z"/><path class="cls-9" d="M470.76,585.17c-1.92,1.23-3.84,1.44-5.73-.06Z"/><path class="cls-1" d="M485.85,89.29,458.3,79.66c2.1-2.37,4.84-2.51,7.14-3.38,5.6-2.12,11.3-4,16.92-6,2.36-.86,3.67-.93,3.55,2.28C485.7,77.85,485.85,83.17,485.85,89.29Z"/><path class="cls-10" d="M477.86,54.93c.67,1.5,2.25.63,3.26,1.26-.77,1-1.9.86-3,1-1.17.33-2.38.73-2.3-1.26Z"/><path class="cls-11" d="M475.86,55.93c.39,1.12,1.44,1,2.3,1.26a7.45,7.45,0,0,1-4.71,1.11C473.61,56.74,474.72,56.32,475.86,55.93Z"/></g></g></svg>