<svg xmlns="http://www.w3.org/2000/svg" xmlns:xlink="http://www.w3.org/1999/xlink" width="220.084" height="320.137" viewBox="0 0 220.084 320.137">
  <defs>
    <filter id="Path_1764" x="0" y="0" width="220.084" height="320.137" filterUnits="userSpaceOnUse">
      <feOffset dx="10" dy="8" input="SourceAlpha"/>
      <feGaussianBlur result="blur"/>
      <feFlood flood-opacity="0.161"/>
      <feComposite operator="in" in2="blur"/>
      <feComposite in="SourceGraphic"/>
    </filter>
  </defs>
  <g transform="matrix(1, 0, 0, 1, 0, 0)" filter="url(#Path_1764)">
    <path id="Path_1764-2" data-name="Path 1764" d="M82.411-65.758H149.45V0H82.411ZM13.664-206.668a122.023,122.023,0,0,1,7.9-42.273,100.279,100.279,0,0,1,20.923-33.306,94.279,94.279,0,0,1,32.452-21.991q19-7.9,42.487-7.9,30.317,0,50.6,8.326T200.69-283.1q12.383,12.383,17.72,26.688t5.338,26.688q0,20.5-5.338,33.733a83.168,83.168,0,0,1-13.237,22.631,88.307,88.307,0,0,1-17.507,16.012q-9.607,6.618-18.148,13.237a84.891,84.891,0,0,0-15.159,15.158q-6.619,8.54-8.327,21.35v16.226H88.389v-19.215q1.281-18.361,7.046-30.744a88.22,88.22,0,0,1,13.451-21.137,107.479,107.479,0,0,1,16.226-15.158q8.54-6.405,15.8-12.81a57.323,57.323,0,0,0,11.743-14.091q4.483-7.686,4.056-19.215,0-19.642-9.607-29.036t-26.687-9.394q-11.529,0-19.855,4.484a39.574,39.574,0,0,0-13.664,11.956A51.862,51.862,0,0,0,79-228.232a86.943,86.943,0,0,0-2.562,21.563Z" transform="translate(-13.66 312.14)" fill="#505075"/>
  </g>
</svg>
