<svg xmlns="http://www.w3.org/2000/svg" width="1395.84" height="1117.193" viewBox="0 0 1395.84 1117.193">
  <defs>
    <style>
      .cls-1 {
        fill: #232323;
      }
    </style>
  </defs>
  <g id="Layer_2" data-name="Layer 2" transform="translate(-0.039 -0.018)">
    <g id="Layer_1" data-name="Layer 1" transform="translate(0.038 0.018)">
      <path id="Subtraction_11" data-name="Subtraction 11" class="cls-1" d="M-724.9-1946.67a19.894,19.894,0,0,1-2.64-.184c-114.328-13.6-230.23-25.177-328.528-34.7-132.065-13.031-251.137-23.079-364.02-30.739-56.332-3.81-107.556-6.606-156.6-8.545-55.184-2.185-106.44-3.248-156.7-3.248-45.162,0-89.627.909-132.165,2.7-54.517,2.316-103.239,6.24-148.948,12h-.2a12.963,12.963,0,0,0-3.169.524h-.022a13.624,13.624,0,0,1-3.131.524,4.533,4.533,0,0,1-4.251-3c1.654-1.324,3.28-2.623,4.973-3.955l.245-.2.874-.7.673-.525.593-.467.339-.27.15-.119.031-.024h.009l.24-.19.014-.014.047-.037.072-.056.016-.014.03-.022c6.677-5.285,14.246-11.277,21.418-17.309a17.932,17.932,0,0,1,11.966-4.556c.317,0,.512,0,.675.012,3.31.054,6.717.08,10.13.08,11.821,0,22.8-.35,33.582-1.049a89.587,89.587,0,0,0-21.156-19.075,263.39,263.39,0,0,1-36.986-28.461,199.98,199.98,0,0,1-16.042-16.785,179.309,179.309,0,0,1-14.006-18.883,124.76,124.76,0,0,1-12.049-23.765,103.12,103.12,0,0,1-5.911-24.441,101.437,101.437,0,0,1,.337-25.151,119.348,119.348,0,0,1,6.7-25.885,231.408,231.408,0,0,1,24.652-47.184,385.643,385.643,0,0,1,32.821-41.847,559.809,559.809,0,0,1,47.854-47.208,148.985,148.985,0,0,1,31.472-21.628c33.526-17.1,66.733-34.538,98.847-51.4l.115-.061.157-.083h.012l.823-.432q5.027-2.642,10.055-5.28a20.354,20.354,0,0,1,10.62-2.972c.306,0,.633,0,.972.024,4.682.419,9.429.634,14.11.634,33.961,0,65.248-11.1,91.372-21.963,59.292-24.631,119.711-48.229,178.139-71.049h.009l.068-.024h.012l.874-.339.469-.184.108-.042.3-.119.853-.334,1.4-.545.371-.145,1.4-.545c12.173-4.756,26.31-10.281,40.039-15.659a19.406,19.406,0,0,0,7.885-4.848c1.791-2.2,2.273-4.973,1.539-8.718a29.454,29.454,0,0,1,2.041-19.486c2.622-5.257,7.135-10.018,13.812-14.555a264.726,264.726,0,0,0,23.016-18.343l.042-.034.024-.02h0l.047-.04.073-.065.112-.1.042-.037c4.277-3.672,8.7-7.478,13.244-11.082a14.181,14.181,0,0,0,5.927-11.765c.175-5.595.514-11.157.846-16.531v-.339l.01-.165v-.11l.014-.241.016-.26c.329-5.34.668-10.859.832-16.377a16.318,16.318,0,0,1,5.665-12.1c5.07-4.9,9.978-9.821,14.725-14.59l.2-.2.042-.042.031-.031.054-.055.039-.04.087-.087.038-.04.04-.039c4.869-4.9,9.906-9.966,15.146-15,3.943-3.8,5.355-7.226,4.72-11.452a5.443,5.443,0,0,1-.024-1.147v-.262c0-.11.01-.226.01-.338a63.727,63.727,0,0,1-.812-14.316,39.961,39.961,0,0,1,2.829-12.655,33.691,33.691,0,0,1,7.087-10.717,44,44,0,0,1,11.964-8.5c4.18-2.083,4.343-6.111,3.951-9.777a59.277,59.277,0,0,1,1.138-19.012,101.494,101.494,0,0,1,5.978-18.184c3.707-8.822,7.16-17.833,10.49-26.546l.035-.091.01-.03v-.014l.033-.084v-.011l.035-.093.012-.03.026-.07v-.013l.01-.024.022-.058v-.019l.01-.026.023-.06c2.913-7.605,5.924-15.468,9.109-23.2,2.15-5.254,3.951-11.559,1.014-18.481a43.09,43.09,0,0,1-3.57-20.631,49.361,49.361,0,0,1,6.469-20.062,99.722,99.722,0,0,0,5.5-12.542l.012-.026.01-.026v-.018l.035-.091v-.018c.885-2.287,1.8-4.652,2.96-7.418a115.255,115.255,0,0,1,.736,19.39v.047c-.147,7.146-.287,13.891,1.36,20.549,5.542,12.8,10.466,26.576,4.649,41.962-2.376,6.273-4.843,12.958-6.17,16.549l-.028.077-.012.032-.018.049-.079.212v.008l-.091.243-.01.024v.017l-.016.042c-3.53,9.546-7.181,19.416-11.136,29.338a32.524,32.524,0,0,0-2.586,10.05,32.535,32.535,0,0,0,.681,10.355c.159.712.276,1.434.381,2.071l.014.084v.177a23.473,23.473,0,0,0,.573,2.826,28.891,28.891,0,0,1,.659,16.049,22.177,22.177,0,0,1-10.171,12.588,19.579,19.579,0,0,0-8.516,9.8,19.992,19.992,0,0,0,.559,13.33,42.38,42.38,0,0,1,1.782,8.592v.1a55.411,55.411,0,0,0,1.192,6.73c1.974,7.518-.32,13.218-7.221,17.921-7.121,4.836-14.1,9.993-20.857,14.979l-.044.032-.014.011-.039.03-.022.018-.01.011-.031.022-.154.115-.038.028-.023.016-.273.2-.031.022-.018.011-.04.028-.1.073-.035.026c-5.091,3.757-10.861,8.019-16.545,12a16.328,16.328,0,0,0-6.026,6.6,16.331,16.331,0,0,0-1.668,8.773c.175,6.723.146,13.568.112,19.609v.885c-.028,5.56-.058,11.309.068,17.1a21.207,21.207,0,0,1-1.517,9.351,21.23,21.23,0,0,1-5.476,7.731c-2.464,2.255-4.775,4.623-7.011,6.913l-.04.04-.037.039-.026.028v.011l-.033.033h-.018l-.068.07-.012.013c-1.9,1.949-4.5,4.621-7.041,6.958-2.273,2.108-3.235,3.785-3,5.277s1.7,2.865,4.63,4.27c16.133,7.742,30.847,15.367,44.987,23.308.8.458,1.646.862,2.392,1.224l.03.014h.047l.042.021h.009l.019.008.019.009h.012l.025.012h.012l.026.013c.831.4,1.86.892,2.8,1.456.219.126.442.249.659.366l.051.028h0l.026.014h.014l.1.054.052.026.065.035.019.011.1.054.04.024c2.067,1.1,4.2,2.243,4.1,4.618,0,3.223-2.981,4.132-5.612,4.934l-.121.039c-.184.054-.365.112-.544.175-29.113,9.244-58.354,18.337-86.632,27.132l-.21.066-.142.043-.045.016-.566.175-.236.073-.768.24-1.077.335-.035.011-.175.056h-.019c-17.446,5.42-30.816,9.582-43.536,13.561-13.772,4.3-28.831,8.987-33.779,10.525l-.656.2-2.909.908-.311.1-1.4.439-.624.2-.112.033-.8.247-.068.021-.393.122h-.009l-.991.308-.148.043-.409.126c-28.335,8.815-57.635,17.932-86.63,27.242l-.629.175-.035.011-.075.021-.054.016h-.009a5.861,5.861,0,0,0-4.146,2.85,291.486,291.486,0,0,0,25.317,20.56,13.676,13.676,0,0,1,5.814,7.6,15.1,15.1,0,0,1-1.574,9.538q-4.766,10.792-9.209,20.822l-.191.429-.2.458-1.11,2.509-.419.951-.4.89-.337.762-.03.067-.025.058-.016.037-.014.032-.023.051c-11.408,25.746-23.2,52.368-34.713,79.364a36.545,36.545,0,0,1-9,12.747c-16.25,14.992-38.116,34.167-63.153,49.5a211.753,211.753,0,0,1-45.809,20.551,397.371,397.371,0,0,1-48.709,11.889c-8.378,1.593-12.311,5.237-14.512,13.445-5.071,18.813-10.519,37.591-15.781,55.742l-.016.059-.021.073-.035.123-.01.039-.019.072v.011l-.281.981-.217.745-.565,1.948-.308,1.065-.469,1.619-.184.633-.5,1.731-.164.57q-.267.918-.525,1.836c-1.677,5.8-2.234,8.647-1.1,10.153.817,1.091,2.525,1.516,6.093,1.516.909,0,1.957-.024,3.294-.079,2.623-.1,5.357-.159,8.106-.159,8.775,0,17.364.488,25.668.958h.147c8.4.474,17.089.965,25.679.965,1,0,2.084,0,3.221-.024.556,0,1.184.038,1.886.084h.189c.664.043,1.351.091,2.063.091,2.35,0,4.808-.461,5.217-3.891.68-5.714.834-11.54-5.245-14.494a94.973,94.973,0,0,1-9.424-4.6c-3.137-1.988-4.653-3.75-4.775-5.55s1.1-3.672,3.846-5.974c7.331-6.12,14.935-11.9,22.729-17.781,4.216-3.2,9.289-7.037,15.509-11.741l.329-.249.617-.465.748-.566.285-.215.075-.056.023-.018.2-.148.025-.018c18.708-14.143,38.035-28.769,57.289-43.7a79.841,79.841,0,0,0,8.5-7.536c18.951-19.6,38.814-38.733,58.028-57.238l.012-.011.012-.012.056-.053.009-.008.04-.039.192-.184.045-.043.042-.04.025-.024.131-.127c19.112-18.411,38.874-37.449,57.747-56.932a23.234,23.234,0,0,1,6.277-4.822,15.889,15.889,0,0,1,7.256-1.661,23.244,23.244,0,0,1,4.229.417c105.763,19.63,200.232,39.834,288.8,61.772a1159.569,1159.569,0,0,1,114.481,34.822c36.414,13.13,73.617,28.541,110.575,45.8,21.929,10.244,45.345,21.449,68,33.97a18.461,18.461,0,0,1,6.294,5.2,18.452,18.452,0,0,1,3.412,7.411c2.123,8.847,3.906,17.834,5.629,26.525v.07l.009.043.014.07.012.065.065.33.119.606.088.434.073.372.122.616.065.327c.259,1.3.525,2.623.78,3.917a11.716,11.716,0,0,0,2.8,6.138,11.3,11.3,0,0,0,6.1,3.059c1.3.276,2.8.59,5.18,1.087l.054.011h.047l.047.009.061.012h.016c7.186,1.5,14.617,3.053,21.855,5.126a12.306,12.306,0,0,0,3.411.549c3.235,0,5.212-1.913,6.225-6.022,1.823-7.541,3.873-15.152,5.679-21.868v-.022l.028-.1v-.012l.009-.034.012-.045.038-.147v-.051l.016-.062v-.06c2.178-8.112,4.431-16.5,6.415-24.96,1.235-5.185-.136-9.246-4.441-13.166-23.4-21.266-46.475-42.723-68.786-63.467l-.072-.067-.028-.026-.1-.094-.245-.227-.15-.14-.86-.8-.421-.392-1.17-1.088-1.07-.995c-6.884-6.4-12.312-11.449-18.154-16.869-9.88-9.164-20.472-18.946-28.6-26.445l-.1-.094-.175-.175-.045-.042-.128-.117-.073-.068-.85-.783-.323-.3c-11.94-11.025-25.473-23.521-38.9-36.044a82.194,82.194,0,0,0-15.036-10.315l-.016-.008-.017-.009-.081-.047-.292-.175-.108-.063-.025-.016c-1.049-.612-2.623-1.526-4.06-2.4-38.371-23.291-75.707-46.246-111.8-68.445l-.11-.068-.238-.145-.175-.108-.154-.1-1-.614-.051-.033-1.923-1.184-.108-.067-.192-.117-.3-.186c-27.2-16.725-61.058-37.542-93.336-57.2-3.147-1.923-5.216-3.179-6.674-3.179-1.958,0-2.972,2.211-5.093,7.216l-.888,2.1-1.206,2.841-1.49,3.514-.323.768-.021.047-.063.147-.018.042-.016.035-.052.125c-6.7,15.795-15.036,35.453-23.079,54.816-.323.761-.644,1.563-.941,2.316l-.042.114-.009.026-.012.035v.021l-.021.053-.019.043-.01.022-.012.035-.012.028c-.7,1.768-1.427,3.595-2.3,5.35l-.114.222c-1.145,2.283-2.327,4.646-4.654,4.646a4.477,4.477,0,0,1-.757-.077c-2.448-.486-2.686-3.042-2.892-5.3v-.04l-.016-.175v-.014l-.009-.1v-.1l-.01-.114v-.011c-.022-.225-.049-.482-.079-.727-2.958-22.205-5.557-44.665-8.067-66.382l-.021-.185-.016-.135v-.07l-.031-.276v-.018l-.042-.35v-.037l-.012-.1v-.224c-2.306-19.932-4.689-40.551-7.4-61.369a31.348,31.348,0,0,1-.217-3.352v-.351c0-.217-.012-.434-.021-.652-.145-4.418.285-6.819,1.437-8a3.105,3.105,0,0,1,2.358-.887,16.615,16.615,0,0,1,6.275,1.9c31.893,14.521,63.885,28.849,94.825,42.7l.624.279.428.193.463.206.46.206.126.056,4.586,2.053.525.234,2.39,1.07,1.06.474,1.059.474,1.857.833c3.68,1.645,7.531,3.418,10.625,4.843l.136.063.11.051.47.217.019.011.075.035.31.143h.012l.407.187.093.043.047.023h.019l.044.019.025.011h.01c9.5,4.385,19.331,8.917,30.248,13.235-6.8-23.417-16.1-41.285-29.284-56.229a110.552,110.552,0,0,0-29.333-23.392,171.85,171.85,0,0,0-34.591-14.25c-9-2.719-17.014-4.788-24.5-6.323a173.188,173.188,0,0,0-25.118-3.4c-.21-.015-.437-.028-.764-.042h-.224c-3.249-.156-6.929-.332-7.752-4.11-.911-4.065,2.467-5.945,5.45-7.6l.217-.119.054-.032.3-.175.024-.014.189-.107.04-.022.084-.047.163-.091a128.285,128.285,0,0,1,29.156-12.581,108.077,108.077,0,0,1,29.667-4.2,111.568,111.568,0,0,1,23.668,2.588,132.2,132.2,0,0,1,23.987,7.766c15.376,6.567,33.22,14.87,48.956,26.663a62.655,62.655,0,0,1,5.088,4.091c.119.175.175.3.148.386h.129a.488.488,0,0,0,.4-.122.3.3,0,0,0,.025-.245c0-.117-.156-.175-.6-.21a23.2,23.2,0,0,0-3.864-3.1c-7.67-7.731-15.049-15.932-22.184-23.862l-.01-.013-.03-.033-.068-.075-.012-.014-.082-.092-.026-.03-.01-.014h0l-.066-.074-.086-.1-.042-.047-.1-.108c-4.9-5.43-9.938-11.041-15.145-16.568a31.653,31.653,0,0,0-13.48-9.109c-3.636-1.19-7.333-2.415-12.763-4.222h-.066l-.051-.018h-.022c-11.492-3.829-23.376-7.791-35.318-11.19a52.608,52.608,0,0,1-6.574-2.343c-1.923-.833-4.574-1.975-4.808-4.615-.175-2.018,1.275-3.672,4.32-4.915l.119-.051.537-.222.5-.2.215-.087.32-.131c10.269-4.228,19.969-8.217,31.042-8.217a44.7,44.7,0,0,1,8.431.8c12.786,2.467,25.229,5.219,37.007,11.716,11.992,6.689,23.854,13.019,36.413,19.719l.145.077.063.033.038.021.135.072.156.084.1.054c5.155,2.749,10.7,5.71,16.364,8.752a308.341,308.341,0,0,0-20.212-33.494,138.769,138.769,0,0,0-25.927-28.013,69.536,69.536,0,0,0-16.108-9.547,130.388,130.388,0,0,0-17.759-6.033c-.339-.093-.68-.165-1.163-.261h-.024c-1.89-.383-4.032-.816-3.917-3.231.142-2.637,2.972-3.394,5.245-4a55.534,55.534,0,0,1,14.958-1.972,99.121,99.121,0,0,1,27.989,4.91c18.533,5.548,35.063,15.166,51.054,24.466a33.306,33.306,0,0,0,5.927,3.157,207.424,207.424,0,0,0-11.54-21.147,121.766,121.766,0,0,0-14.365-18.682c-12.9-13.666-29.489-21.855-50.7-25.055-5.153-.776-9.863-1.593-14.636-2.432-1.573-.274-3.1-.736-3.5-2.238-.525-2.108,1.224-2.85,2.633-3.446l.135-.053h.021l.084-.037.042-.019.046-.02h.014a96.619,96.619,0,0,1,14.4-4.68h.107l.051-.014h.01l.091-.024c2.435-.656,5.194-1.4,7.847-2.241.914-.3,1.894-.573,2.9-.855l.124-.035.04-.011.144-.04.07-.019.1-.028.065-.018h.031a34.852,34.852,0,0,0,10.51-4.231,27.988,27.988,0,0,0-14.837-10.491,72.805,72.805,0,0,0-17.373-2.389h-.037c-1.883-.124-3.986-.175-6.619-.175-2.055,0-4.466.042-5.373.058h-.566c-1.594.028-3.446.058-5.226.058a91.31,91.31,0,0,1-9.267-.4c-6.432-.65-9.616-1.268-11.459-3.208-1.965-2.064-2.387-5.78-2.843-11.655a7.373,7.373,0,0,0-.14-1.749c-1.726-9.387-1.68-14.115.159-16.32a5.592,5.592,0,0,1,4.638-1.663,59.88,59.88,0,0,1,10.585,1.637h.073l2.394.491c4,.8,7.913,1.535,11.693,2.242l.189.037.159.03.126.022h.037l.185.035h.059c9.926,1.848,20.189,3.757,30.23,6.536a6.537,6.537,0,0,0,3.789,1.458c1.923,0,3.635-1.285,5.375-4.045a69.11,69.11,0,0,0,7.623-17.292c10.882-21.68,23.589-42.752,35.879-63.133h0l.014-.024v-.008l.017-.028.058-.094.981-1.623a31.484,31.484,0,0,0,5.049-13.141,21.629,21.629,0,0,0-3.25-13.417,82.346,82.346,0,0,1-6.275-14.3l-.073-.213-.046-.131c-.558-1.6-1.133-3.252-.449-4.2a2.551,2.551,0,0,1,2.236-.8,9.1,9.1,0,0,1,1.324.1,27.519,27.519,0,0,1,14.316,8.672,31.754,31.754,0,0,1,6.49,15.808,135.292,135.292,0,0,0,4.355,17.309v.018l.009.032v.018l.012.031v.034c2.633,8.815,5.355,17.934,4.869,26.71-.537,9.842-4.909,19.63-9.139,29.094v.031l-.01.021v.018l-.021.042v.011c-1.838,4.109-3.735,8.354-5.3,12.606-.392,1.049-.792,2.108-1.236,3.275l-.016.043-.049.127-.068.175c-.241.619-.524,1.353-.8,2.1l-.045.117c-4.381,11.622-4.465,11.844,6.182,17.682,3.829,2.088,4.392,4.6,4.091,8.5-.39,5.083-.675,10.277-.927,14.861v.175l-.01.21v.024l-.014.268v.021c-.3,5.431-.635,11.586-1.135,17.575a13.242,13.242,0,0,0,.524,5.664,7.756,7.756,0,0,0,3.523,4.129,55.782,55.782,0,0,1,13.043,10.581,43.744,43.744,0,0,1,7.954,12.764,48.737,48.737,0,0,1,3.3,14.755,71.066,71.066,0,0,1-.92,16.552,10.515,10.515,0,0,0-.042,2.32v.178c.019.35.037.673.037,1a71.366,71.366,0,0,0,1.241,25.078,62.618,62.618,0,0,0,10.683,22.652c2.869,3.885,2.827,7.418-.14,11.819-3.207,4.733-6.195,9.575-9.083,14.257l-.012.019-.026.04-.033.056-.012.019v.014l-.01.018-.01.018-.019.03c-2.9,4.693-5.9,9.544-9.092,14.276-2.782,4.1-2.915,7.455-.472,11.959,2.231,4.1,4.259,8.217,6.221,12.212l.016.032v.011l.017.033v.011l.012.026.06.121c2.407,4.887,4.9,9.937,7.651,14.758a11.477,11.477,0,0,1,1.832,6.848,13.006,13.006,0,0,1-2.9,6.455c-3.918,5.227-7.577,10.633-11.118,15.86l-.051.077-.045.07-.025.033-.012.02-.044.065-.012.016-.08.119v.012h0c-2.612,3.847-5.572,8.218-8.585,12.4a11.582,11.582,0,0,0-2.079,11.33,38.318,38.318,0,0,1,1.25,5.6v.1a34.546,34.546,0,0,0,1.458,6.218,60.057,60.057,0,0,1,4.138,25.8,44.087,44.087,0,0,1-2.847,12.344,49.474,49.474,0,0,1-6.782,11.912,6.643,6.643,0,0,0-1.785,4.879c.323,2.221,2.488,3.791,4.78,5.454l.068.049.023.016.135.1.114.083.152.112.257.187q132.755,97.525,265.55,195.069a22.939,22.939,0,0,1,10.228,16.872c2.892,20.667,6.073,41.759,8.877,60.372l.014.091v.047l.066.437.01.066.01.074v.037l.047.308.028.19.192,1.283.017.115.012.084.121.81.1.7.019.126c1.894,12.588,4.25,28.247,6.431,43.31a8.839,8.839,0,0,0,2.262,5.216,14.31,14.31,0,0,0,4.993,2.916c10.582,4.23,20.172,10.583,29.447,16.727l.016.011.028.021.033.021.022.013.136.093.11.073.1.065.128.084.047.032c3.831,2.535,7.793,5.158,11.889,7.653,2.1,1.276,2.273,3.546,2.448,5.74.035.49.072.965.131,1.413.588,4.778,1.152,9.242,1.883,15.036l.028.226.033.26v.037l.012.108v.056l.017.136v.039c2.411,19.183,4.906,39.019,6.994,58.712a11.133,11.133,0,0,0,2.273,6.594,9.8,9.8,0,0,0,6.469,2.637l.8.1.087.011h.086a96,96,0,0,0,10.3.967c2.514,0,3.965-.429,4.852-1.433,1.776-2.016,1.224-6.38.145-15.075v-.061l-.019-.15q-.371-2.96-.738-5.918l-.4-3.167-.094-.757-.014-.115-.066-.524-.084-.665c-1.649-13.239-3.352-26.925-5.235-40.866a23.18,23.18,0,0,1,1.084-10.263c.874-2.932,1.724-5.9,2.591-8.945l.086-.294.021-.075.04-.136.017-.059.01-.037.033-.114.026-.094v-.014c2.375-8.35,4.827-16.977,8.01-25.2,5.011-13.09,5.039-24.041.088-34.461a13.8,13.8,0,0,1-1.415-7.851,17.092,17.092,0,0,1,3.163-7.535c3.782-5.419,7.188-11.015,10.795-16.941l.012-.016.012-.02.04-.065.009-.016.247-.407.009-.014c1.42-2.337,3.072-5.053,4.721-7.681l1.157,2.273.977,1.923.329.649.045.089.014.026.042.086.091.175.052.1.2.388.039.075.022.043.018.037c2.568,5.032,5.478,10.735,8.291,16.136a8.718,8.718,0,0,1,.121,7.623c-6.67,16.206-6.487,33.5.577,54.411a42.513,42.513,0,0,1,2.212,14.07,67.531,67.531,0,0,1-1.773,14.2c-2.4,10.93-4.546,21.816-6.634,32.346v.013l-.01.061v.037l-.03.157-.035.175v.051l-.023.108-.026.131-.009.045v.019c-2.507,12.685-5.1,25.8-8.053,38.721-.9,3.93-.761,6.411.442,8.043,1.178,1.6,3.441,2.426,7.565,2.755a101.009,101.009,0,0,1,11.7,1.887h.138l.072.014.145.03h.079l.255.051c1.541.308,3.184.635,4.834.93a7.323,7.323,0,0,1-4.673,4.484l-.025.011-.087.039h-.035a14.758,14.758,0,0,0-1.388.7c-9.183,5.121-19.621,10.872-24.079,13.327l-.023.013-.281.156-.031.018-.068.037-.052.028-.091.051-.164.091-.047.026-.1.053-.208.115c-10.375,5.717-22.13,12.2-33.694,18.732A19.127,19.127,0,0,1-724.9-1946.67ZM-937.62-2065.187c.175,3.111.379,6.307.558,9.128v.29c.525,8.375,1.082,17.035,1.171,25.548.051,5.752,2.021,7.753,8.113,8.237,49.8,3.99,101.5,9.422,158.057,16.61a20.311,20.311,0,0,0,2.4.175,4.312,4.312,0,0,0,3.691-1.354,8.756,8.756,0,0,0,1.323-4.746c1.855-22.364,3.612-39.514,5.7-55.584.823-6.373-.624-8.518-6.731-9.983l-.609-.146-.094-.023c-45.934-10.975-93.43-22.324-139.992-34.521a47.742,47.742,0,0,0-12.085-1.717,34.2,34.2,0,0,0-18.369,5.354c-3.553,2.111-5.406,4.128-5.039,8.744.633,8.02,1.049,16.209,1.457,24.128v.2l.01.2c.14,2.752.315,6.177.5,9.476l-.088-.018Zm-44.76,38.553a25.033,25.033,0,0,1,4.827.386,14.5,14.5,0,0,0,2.761.31,4.255,4.255,0,0,0,3.213-1.089c1-1.034,1.409-2.887,1.317-6.006-.334-10.77-.483-21.726-.628-32.321v-.047c-.121-8.825-.245-17.949-.474-26.925a10.966,10.966,0,0,1,4.878-10.263c5.8-4.265,11.482-8.793,17.5-13.587l.016-.012.233-.186c2.56-2.039,5.205-4.146,7.971-6.322-3.441-.818-6.674-1.574-9.8-2.315h-.031c-7.224-1.7-14.049-3.308-20.714-4.987a6.742,6.742,0,0,0-1.593-.207c-2.567,0-4.055,1.8-5.628,3.7q-1.448,1.749-2.892,3.515h0c-5.4,6.57-10.985,13.365-16.755,19.82a16.063,16.063,0,0,0-4.441,12.552c.465,8.263.727,16.678.981,24.815v.008c.156,4.992.316,10.153.525,15.25.085,2.1-.028,4.406-.138,6.644-.273,5.525-.554,11.239,2.079,14.442,2.189,2.652,5.945,3.009,9.331,3.009,1.187,0,2.437-.049,3.647-.1h.061c1.223-.028,2.482-.08,3.741-.08Zm-138.8-190.927c-3.572,0-4.74,2.418-5.549,6.59a228.813,228.813,0,0,1-25.038,67.611c-4.661,8.393-8.943,17.159-13.083,25.634h0l-.042.087-.014.026c-2.75,5.628-5.595,11.447-8.52,17.1-1.154,2.289-1.448,3.712-.983,4.761s1.693,1.773,4.095,2.425c4.729,1.32,9.441,2.845,14.012,4.32l.037.013.035.01h.026c4.661,1.507,9.478,3.065,14.265,4.391a8.963,8.963,0,0,1,5.032,2.857,8.521,8.521,0,0,1,1.35,5.675c-.185,5.315-.144,10.706-.1,15.911v.175c.046,5.605.091,11.4-.143,17.135-.119,2.816.3,4.574,1.35,5.7,1.079,1.161,2.883,1.694,6.029,1.784,11.736.339,23.537,1.01,34.953,1.659h.023l1.524.087.35.019c3.39.193,6.9.39,10.358.576,4.2.247,8.392.44,12.459.627h.126c9.9.456,20.131.927,30.2,2.128a26.381,26.381,0,0,0,3.06.2,6.975,6.975,0,0,0,5.364-1.691c1.612-1.712,1.784-4.759,1.542-8.807-.937-16.029-1.621-32.3-2.282-48.029v-.213c-.542-12.911-1.156-27.543-1.923-41.646-.35-5.927,1.409-8.313,6.994-9.458,4.069-.852,8.149-2.02,12.1-3.147h.021l.068-.019h.026c3.431-.979,6.976-1.991,10.517-2.8,5.467-1.2,8.508-3.179,7.868-9.775a135.29,135.29,0,0,1,0-22.729,8.744,8.744,0,0,0-1.422-6.415,10.317,10.317,0,0,0-5.813-2.992c-38.325-9.425-77.093-19.26-115.221-29.233a14.73,14.73,0,0,0-3.648-.541ZM-1272.9-2040.133a10.324,10.324,0,0,1,1.67.2h.01l.058.011h.093a11.14,11.14,0,0,0,1.848.213c1.166,0,2.56-.35,2.972-3.042-.04-3.583-.128-7.225-.2-10.151v-.186l-.009-.432v-.021c-.175-7.632-.372-15.524-.087-23.271.781-20.56.42-42.973-1.107-68.522-1.355-22.628-3.472-45.54-5.52-67.7l-.01-.11v-.045l-.01-.121v-.091l-.019-.206v-.089l-.012-.124-.063-.673-.028-.285v-.051l-.018-.175-.01-.127c-.7-7.588-1.573-17.033-2.388-26.4a12.331,12.331,0,0,0-2.4-7.26,11.29,11.29,0,0,0-7.027-3.232c-77.147-13.427-155.7-24.6-233.483-33.22a18.754,18.754,0,0,0-2.146-.128c-4.259,0-6.906,1.641-9.763,6.053-31.416,48.638-62.7,97.015-92.979,143.79-5.07,7.788-7.66,11.98-6.553,14.781,1.018,2.579,5.168,4,14.087,6.2a105.48,105.48,0,0,1,17.42,5.863,90.117,90.117,0,0,1,15.284,8.567,88.91,88.91,0,0,1,13.272,11.408,102.433,102.433,0,0,1,11.391,14.37c.754,1.133,1.5,2.212,2.231,3.254l.016.023.017.024.03.042c4.586,6.6,8.917,12.84,8.2,21.506a5.4,5.4,0,0,0,.974,4.256c.941,1.024,2.539,1.461,5.338,1.461,3.688-.022,7.658-.035,11.8-.035,11.926,0,23.838.107,35.407.314h.329a6.064,6.064,0,0,0,4.623-1.345,6.014,6.014,0,0,0,1.1-4.619c-.152-2.724-.077-5.446,0-8.08v-.247a80.5,80.5,0,0,0-.159-10.015,198.808,198.808,0,0,1-.839-29.706,197.584,197.584,0,0,1,3.521-28.857,210.675,210.675,0,0,1,7.613-28.065,239.388,239.388,0,0,1,11.435-27.335,10.29,10.29,0,0,0,.525-1.46l.01-.026v-.014a4.545,4.545,0,0,1,3.534-3.867c.615,3.322,1.213,6.63,1.608,8.828l.094.525v.04l.086.479v.014l.01.061v.045l.017.1v.026c1.61,8.954,3.13,17.411,5.156,26.025a62.772,62.772,0,0,1,1.521,13.349,63.042,63.042,0,0,1-1.362,13.369c-2.355,12.457-4.5,24.739-6.567,36.619l-.021.117-.012.087-.042.245v.014l-.01.054v.016l-.114.645v.021l-.045.259-.009.053v.042c-1.976,11.32-4.021,23.025-6.242,34.9-.617,3.291-.47,5.189.493,6.349s2.822,1.659,6.205,1.659c6.008-.045,11.54-.068,16.94-.068,16.984,0,32.031.222,46,.68.463.014.783.021,1.049.021,2.754,0,4.417-.481,5.4-1.562,1.248-1.38,1.3-3.765.993-6.922-1.149-11.9-2.144-23.978-3.023-34.633l-.044-.537v-.016l-.023-.275-.028-.369-.031-.379v-.022l-.052-.619v-.032l-.047-.571c-.717-8.7-1.46-17.692-2.306-26.977a39.64,39.64,0,0,1,2.6-18.725c3.515-8.854,6.842-17.816,10.061-26.483v-.011l.061-.166.01-.026.012-.035.054-.14.026-.065v-.021l.019-.051c1.63-4.4,4.355-11.767,7.038-18.742,1.4-3.671,1.719-6.42-.735-9.667a56.541,56.541,0,0,0-4.051-4.53l-.012-.016c-3.686-3.847-7.5-7.834-6.427-11.592,1.091-3.878,5.5-6.88,9.754-9.792l.047-.026.016-.011.072-.049h.01l.052-.035c1.773-1.21,3.6-2.458,5.2-3.789,1.7-1.428,3.471-2.808,5.03-4.021l.037-.03.012-.01.11-.086.022-.016.145-.113.08-.061.019-.012a3.2,3.2,0,0,1,2.348-1.018,3.205,3.205,0,0,1,1.535.388c2.812,1.418,6.338,5.584,9.2,10.875,2.949,5.45,4.425,10.634,3.944,13.865-2.329,15.455-1.276,28.962,3.217,41.3a30.329,30.329,0,0,1,1.79,10.62,50.078,50.078,0,0,1-1.351,10.727c-2.883,13.006-5.708,26.263-8.2,37.957l-.024.113-.079.366-.038.19-.084.4-.009.043-.061.292v.03l-.031.142-.016.072-.03.14-.117.541-.023.11-.023.1-.075.35-.014.066c-3.215,15.082-6.541,30.678-10.022,46.158-.748,3.35-.7,5.172.2,6.284s2.649,1.574,6.058,1.574c18.925.091,37.462.51,55.386.916h.523c4.483.1,11.98.268,18.348.4a21.449,21.449,0,0,0,6.38.793c1.018,0,2.051-.038,2.963-.073h.175c.958-.037,1.986-.071,3.018-.071h.292Zm-450.544-79.771c-.664,0-1.287.014-1.851.039-23.464.935-47.127,1.827-68,2.612l-.874.033-.222.009-1.385.052h-.122l-.226.009-.82.031-.78.03-.874.033-1.018.038c-13.244.5-26.942,1.013-40,1.518-19.121.753-38.493,1.584-57.575,2.465-7.419.329-12.763,2.385-14.7,11.347-3.8,17.734-8.917,35.493-13.854,52.663l-.018.059-.012.043-.014.054v.028l-.082.287c-.969,3.369-1.025,5.192-.2,6.294.762,1.014,2.364,1.467,5.191,1.467.35,0,.65,0,.913-.014,27.018-.77,53.311-1.084,77.7-1.312,26.593-.26,52.05-.474,82.569-.722h1.49c29.48-.245,59.971-.5,88.861-.787a16.906,16.906,0,0,1,1.962.159h.023a17.417,17.417,0,0,0,2.156.175,3.859,3.859,0,0,0,3.8-2.088c1.238-2.206,1.1-6.4-.369-11.223-1.4-4.579-4.17-9.887-7.218-11.419l-34.619-17.484a335.8,335.8,0,0,1,36.107-1.923h.736c3.159-.051,6.819-.112,10.363-.206q.775-.075,1.554-.072a16.836,16.836,0,0,1,7.476,1.749,16.876,16.876,0,0,1,5.943,4.927c6.854,8.29,14.087,16.354,21.081,24.154l.025.031.031.035.022.022.1.11.021.022h0l.049.054c3.147,3.509,5.77,6.441,8.546,9.571l1.871-.544c0-2.943-.031-5.745-.06-8.455v-1.367c-.075-7.251-.154-14.75.213-22.154a9.966,9.966,0,0,0-1.467-6.775,11.129,11.129,0,0,0-6.071-3.523c-30.2-8.794-60.259-17.951-93.608-28.149a43.132,43.132,0,0,0-12.715-1.911Zm-73.416-182.709a38.272,38.272,0,0,0-12.975,2.262c-47.4,14.366-83.566,44.143-107.494,88.506a89.483,89.483,0,0,0-9.232,29.9,46.123,46.123,0,0,0,9,35.388,25.09,25.09,0,0,0,7.015,6.773,17.3,17.3,0,0,0,9.205,2.447c.657,0,1.359-.031,2.086-.09,2.491-.215,5.245-.32,8.408-.32,2.682,0,5.389.074,8.008.145h.785c2.509.07,5.352.15,8.116.15.349,0,.769,0,1.3.024h.4c.334,0,.748.019,1.122.019a5.494,5.494,0,0,0,3.861-.947c2.675-3.009,5.594-5.8,8.427-8.49l.016-.016c6.861-6.55,13.952-13.321,17.348-22.825,12.279-34.667,23.719-66.964,34.969-98.731,1.855-5.245,3.672-10.386,5.525-15.634l.2-.556.409-1.158.289-.816.377-1.067.058-.164.28-.794c1.907-5.42,3.474-9.847,4.93-13.956C-1795.233-2302.578-1796.055-2302.613-1796.859-2302.613Zm195.244-169.31c-7.107,2.207-15.085,4.677-25.107,7.772l-.862.268-.727.225-.114.035-.077.022-.164.051-.121.037c-22.128,6.836-45.01,13.9-67.645,21.191-6.457,2.074-13.022,3.92-19.371,5.705h-.01l-.147.042h-.035l-.03.009h-.012c-13.987,3.929-28.441,7.992-41.729,14.407-20.806,10.023-41.221,20.238-60.958,30.115l-.051.024-.028.014-.122.063-.049.022-.042.021-.241.121c-25.933,12.972-52.741,26.382-79.625,38.99a143.93,143.93,0,0,0-28.02,17.373,143.91,143.91,0,0,0-23.33,23.294c-22.505,27.611-47,61.511-58.03,103.594a84.841,84.841,0,0,0,4.878,59.1,14.235,14.235,0,0,0,1.748-2.763,165.556,165.556,0,0,1,8.94-25.631,177.924,177.924,0,0,1,12.6-23.415,230.114,230.114,0,0,1,34.129-41.263,604.23,604.23,0,0,1,72.411-59.807c23.172-16.468,49.11-32.894,79.3-50.221,9.289-5.3,15.911-10.438,20.836-16.187a46.077,46.077,0,0,0,10.635-23.137,18.787,18.787,0,0,1,8.431-13.69c4.427-2.892,10.354-4.391,15.582-5.714-.377,1.736-.666,3.229-.8,3.946l-.014.077-.009.043-.031.156v.039l-.019.1c-.136.7-.3,1.5-.449,2.208-2.843,9.966-5.9,20.726-7.724,27.158l-.072.253-.211.747-.042.15-.1.372v.014c-8.167,28.784-16.61,58.547-25.373,88.006-1.241,4.16-1.352,6.387-.381,7.693.874,1.167,2.642,1.644,6.12,1.644.456,0,.946,0,1.586-.026,41.125-1.177,81.065-14.9,125.692-43.17,3.411-2.2,4.2-5.317,5.015-8.618l.026-.1.018-.068c.061-.249.124-.495.189-.745,11.639-45.634,23.069-90.645,33.972-133.791a11.208,11.208,0,0,1,.436-1.283v-.012l.01-.024v-.019c.648-1.686,1.32-3.429-.668-5.445Z" transform="translate(2045.966 3063.863)"/>
      <path id="Path_494" data-name="Path 494" class="cls-1" d="M586.124,116.313c-27.573-20.037-57.943-28.149-91.774-21.575-2.57.49-5.14.839-7.711,1.259-2.273.192-5.245,2.29-5.7-2.2,7.431-5.053,14.949-10.018,22.292-15.211a15.736,15.736,0,0,1,9.826-2.675c10.49.1,20.981,0,31.384.1,4.074,0,5.752-1.154,5.473-5.49-.874-14.127-1.451-28.289-2.255-44.934-9.127,10.6-17.1,19.233-24.3,28.429-4.144,5.245-7.256,6.242-13.41,2.57-12.991-7.745-26.034-15.124-35.336-27.5-1.451-2.605-1.294-4.686,1.4-6.644,5.4-3.951,10.735-7.99,15.736-12.344,3.5-2.92,6.277-1.067,8.532.892,11.889,10.333,22.415,7.92,34.5-.822,14.652-10.6,15.281-9.7,27.065,4.458,11.05,13.305,11.05,13.305,27.573,8.253,16.12-4.948,15.736-4.686,25.737,9.057,4.476,6.172,5,11.207,2.1,18.184-8.462,20.4-16.173,41.105-24.111,61.719C591.911,115.194,591.037,118.8,586.124,116.313Z" transform="translate(354.457 2.216)"/>
      <path id="Path_495" data-name="Path 495" class="cls-1" d="M491.28,17.908c.857,3.392,4.913,4.9,5.245,9.844-7.238,0-14.372.262-21.453-.1-4.913-.245-7.885,1.084-8.2,6.347a2.275,2.275,0,0,1-.192.857c-10.63,20.264-.21,37.573,8.3,54.778,3.5,7.2,1.5,10.6-4,14.914-4.3,3.339-6.434,1.993-8.917-1.486C450.455,83.613,439.09,64.013,427.1,44.8c-3.637-5.8-3.077-8.253,3.5-10.281,5.508-1.748,10.49-5.123,16.1-6.644,9.284-2.57,13.533-7.623,11.819-17.484-.472-2.675-1.871-7.711,2.64-7.9,5.8-.245,12.134-6.015,17.694.979C482.8,8.414,487.119,13.1,491.28,17.908Z" transform="translate(317.907 -0.018)"/>
      <path id="Path_496" data-name="Path 496" class="cls-1" d="M13.074,602c2.937,4.056,7.361.192,10.718,1.993-3.165,2.4-6.994,1.574-10.49,2.2-1.259.227-3.235.612-3.025-1.434C10.312,603.748,12.06,602.874,13.074,602Z" transform="translate(7.612 450.515)"/>
      <path id="Path_503" data-name="Path 503" class="cls-1" d="M531.8,206.511c10.386,1.119,10.228-8.742,13.9-13.987s-3.007-6.557-5.525-8.934c-7.606-7.186-15.841-13.708-23.551-20.806-3.06-2.815-5.525-3.095-9.179-1.154a231.128,231.128,0,0,1-33.587,14.984c7.273-12.431,14.582-24.828,21.8-37.276,1.626-2.815,4.2-2.658,6.836-2.658,6.994,0,13.987-.315,20.981.1,5.875.367,6.591-1.644,5.665-6.994-3.077-18.061-5.49-36.245-8.182-54.376-.472-3.252-1.748-6.994,4.2-5.07,16.89,5.245,33.814,10.386,52.68,16.155-10.613,7.553-19.635,14.232-28.954,20.456a12.694,12.694,0,0,0-6.592,11.837c.227,19.775-.7,39.6,4.966,58.9.787,2.623-.14,6.05,3.5,7.361a67.085,67.085,0,0,1-9.092,19.582C538.8,208.7,535.806,210.008,531.8,206.511Z" transform="translate(354.577 52.223)"/>
      <path id="Path_505" data-name="Path 505" class="cls-1" d="M434.85,586.076c6.364-2.29,13.41,2.011,19.565-2.116l29.356,2.028c.542.262.734.56.594.874s-.3.525-.472.525C467.528,587.684,451.145,588.506,434.85,586.076Z" transform="translate(325.382 437.014)"/>
      <path id="Path_506" data-name="Path 506" class="cls-1" d="M462.952,586.519a12.6,12.6,0,0,1-.122-1.4h3.794a15.49,15.49,0,0,0,10.018.1l19.547,1.854C485.07,587.375,473.863,590.68,462.952,586.519Z" transform="translate(346.322 437.882)"/>
      <path id="Path_507" data-name="Path 507" class="cls-1" d="M519.9,274.636l3.3-1.346c2.255,0,1.871,2.745,3.5,3.287.28,1.451,0,2.308-1.748,1.748Z" transform="translate(389.035 204.503)"/>
      <path id="Path_508" data-name="Path 508" class="cls-1" d="M522.83,276.9l1.748-1.748c2.028.664,4.371,2.255,2.815,4.021S524,278.524,522.83,276.9Z" transform="translate(391.227 205.895)"/>
      <path id="Path_509" data-name="Path 509" class="cls-1" d="M475.048,585.215c-3.357,2.151-6.714,2.518-10.018-.1Z" transform="translate(347.969 437.874)"/>
      <path id="Path_510" data-name="Path 510" class="cls-1" d="M506.469,103.9,458.3,87.059c3.672-4.144,8.462-4.389,12.484-5.91,9.791-3.707,19.757-6.994,29.583-10.491,4.126-1.5,6.417-1.626,6.207,3.986C506.207,83.894,506.469,93.2,506.469,103.9Z" transform="translate(342.932 52.188)"/>
      <path id="Path_511" data-name="Path 511" class="cls-1" d="M479.39,54.93c1.171,2.623,3.934,1.1,5.7,2.2-1.346,1.748-3.322,1.5-5.245,1.748-2.046.577-4.161,1.276-4.021-2.2Z" transform="translate(356.042 41.079)"/>
      <path id="Path_512" data-name="Path 512" class="cls-1" d="M477.664,55.93c.682,1.958,2.518,1.748,4.021,2.2a13.026,13.026,0,0,1-8.235,1.941C473.73,57.346,475.671,56.612,477.664,55.93Z" transform="translate(354.271 41.827)"/>
    </g>
  </g>
</svg>
