<svg xmlns="http://www.w3.org/2000/svg" width="449.608" height="260.623" viewBox="0 0 449.608 260.623">
  <defs>
    <style>
      .cls-1 {
        fill: #fff;
      }

      .cls-1, .cls-2 {
        fill-rule: evenodd;
      }
    </style>
  </defs>
  <g id="Group_1" data-name="Group 1" transform="translate(-657 -218)">
    <g id="Introduction" transform="translate(820.011 218)">
      <g id="variations">
        <g id="images">
          <g id="a-person_bust" data-name="a-person/bust" transform="translate(0 0)">
            <g id="body_Coffee" data-name="body/Coffee" transform="translate(0 92.36)">
              <path id="_-Background" data-name="ðŸŽ¨-Background" class="cls-1" d="M91.606.671C86.391-3.3,73.3-5.089,67.733-1.263c-5.5,3.841-6.1,10.053-8.659,15.768-2.417-1.14-6.409.493-7.109,2.736-.87,1.058-.909,4.031-1.508,5.454C24.378,26.847,20.418,47.188,17.279,70.279,13.127,93.711,3.7,117.092,7.792,141.205a13.767,13.767,0,0,0-1.342,2.413A2.511,2.511,0,0,0,8.6,147.361c2.432-.214,4.84-.506,7.283-.6,6.773-.235,13.552-.207,20.328-.121l.924.012c34.148.426,68.294,1.264,102.443,1.486a1.772,1.772,0,0,0,1.68-2.206c-.333-2.208-.642-4.417-.965-6.625,8.077,2.134,16.664,2.671,24.718.224.563-.574-1.313-.263-1.611-.35,7.413-5.067,5.2-15.742,4.542-23.43-4.083-26.345-5.522-55.494-21.3-77.975-6.825-9.174-16.83-16.438-28.327-18.072L118,19.663c-3.362-.448-7.108-.593-10.047-2.422-3.306-2.64-4.715-7.518-8.192-7.564-1.148-.015-2.711,1.438-4.392,2.425-.126-2.171-1.295-4-1.553-5.686l-.021-.144C93.522,4.31,93.891,2.545,91.606.671ZM35.56,70.975c7.329-5.094,26.261-2.534,26.695-2.249.954.628,1.365.683,1.881,1.5q.765.1,1.528.21c1.02.333.264,1.589-.915,1.141.709,3.059-1.378,5.235-2.208,8.259a16.805,16.805,0,0,0,0,3.751c-.081,1.279-1.5,2.79-1.259,4.074.838,4.563,5.384,9.014,3.467,13.439-1.27,2.5-5.089,3.773-7.628,4.623-5.26,2.02-14.426-.076-17.482-4.623-1.63-2.426-3.519-8.544-4.491-10.442l-.215-3.01C34.4,80.165,33.929,72.109,35.56,70.975Z" transform="translate(-4.223 3.382)"/>
              <path id="_-Ink" data-name="ðŸ–-Ink" class="cls-2" d="M101.882,9.236a.6.6,0,0,0-.933.72,23.657,23.657,0,0,0,2.433,3.853c.588.729,1.218,1.419,1.856,2.1a36.63,36.63,0,0,0-4.369,4.827,80.2,80.2,0,0,1-5.2,6.239A16.593,16.593,0,0,1,89.2,31.1l-.507.176c-2.522.886-5.218,2.082-6.64,4.471a.559.559,0,0,0,.759.759c2.47-1.53,5.373-1.838,8.062-2.849a20.072,20.072,0,0,0,6.863-4.4,68.947,68.947,0,0,0,5.424-6.227,47.321,47.321,0,0,1,5.639-5.695c3.158,2.125,6.762,3.05,10.426,3.958l.4.1a60.327,60.327,0,0,1,10.761,3.547,32.405,32.405,0,0,1,8.492,5.331,39.91,39.91,0,0,1,6.536,8.5c4.182,6.733,7.122,14.109,9.71,21.575a222.885,222.885,0,0,1,6.761,23.7c.924,4.077,1.675,8.183,2.292,12.317q.445,2.987.793,5.987a33.545,33.545,0,0,0,.959,6.386,1.584,1.584,0,0,0,1.607,1.215l.135,1.686c.179,2.248.345,4.5.4,6.76.093,3.761.051,7.512-.219,11.266l-.038.511c-.213,2.74-.687,5.818-2.747,7.824-2.132,2.078-5.412,2.731-8.286,2.768-6.694.088-13.138-3.077-19.062-5.853q-9.152-4.289-17.827-9.474-4.425-2.629-8.748-5.428-2.12-1.371-4.21-2.79c-.8-.542-1.554-1.135-2.366-1.616a1.123,1.123,0,0,0,.242-1.462c2.348-2.039,3.326-5.678,3.44-8.623a45.881,45.881,0,0,0-.533-7.1c-.139-1.187-.311-2.372-.49-3.554-.07-.467-.124-.966-.207-1.459a194.041,194.041,0,0,0,19.55,9.348c3.43,1.413,6.9,2.684,10.425,3.849l.714.235a77.433,77.433,0,0,0,10.2,2.75c.184.033.334-.239.137-.326-3.362-1.484-6.84-2.736-10.252-4.1l-.561-.229h0a1.137,1.137,0,0,0,.2-.029c2-.483,3.987-1.228,5.949-1.855a36.046,36.046,0,0,0,5.571-1.825c.131-.068.058-.25-.07-.259a25.281,25.281,0,0,0-5.867.754l-.7.123c-1.181.208-2.388.432-3.563.724a1.514,1.514,0,0,0-.575-1.021c-3.443-2.55-3.093-7.7-3.462-11.5l-.273-2.821c-.48-4.936-.988-9.872-1.76-14.771-.041-.262-.446-.187-.447.06-.04,6.073.418,12.118.648,18.182l.036.995c.127,3.742.227,7.627,2.582,10.506a.809.809,0,0,0-1.042.125,1.952,1.952,0,0,0-.511,1.259q-3.193-1.339-6.357-2.744c-6.78-3-13.418-6.368-19.881-10.006a1.241,1.241,0,0,0-1.7.433l-.05-.007-.025,0-.049,0h-.006a2.646,2.646,0,0,0-2.93.585c-.023.022-.043.046-.063.069a10.454,10.454,0,0,1-2.749-1.8,28.014,28.014,0,0,1-4.431-5.4c-2.33-3.549-4.31-7.495-7.458-10.416A21.649,21.649,0,0,0,79.2,69.5a.33.33,0,0,0-.09-.27c-.171-.175-.293-.236-.514-.13a.08.08,0,0,0-.035.033l-.325-.555c-.177-.3-.359-.6-.422-.684-.378-.476-.767-.948-1.161-1.41a10.184,10.184,0,0,0-2.315-2.1c-1.933-1.188-3.965-.516-5.952.134-1.2.393-2.4.8-3.6,1.2l-.123.04c-.894.287-1.94.539-2.34,1.486a1.939,1.939,0,0,0-.109,1.141c-8.49-2.16-17.919-1.167-26.2,1.368a1,1,0,0,0-.7.7,53.442,53.442,0,0,0-.942,14.816,37.446,37.446,0,0,0,3.1,12.379l.1.221c1.677,3.628,4.335,8.1,8.394,9.236,2.451.686,5.162.282,7.661.156a68.8,68.8,0,0,0,7.319-.522,8.078,8.078,0,0,0,5.346-3.045,14.7,14.7,0,0,0,2.237-5.13c.225.072.449.148.67.235a7.376,7.376,0,0,1,2.433,1.642c1.506,1.459,2.675,3.231,4.251,4.624a17.953,17.953,0,0,0,4.8,2.994c3.613,1.562,7.489,2.186,11.311,3.013l.267.059a28.186,28.186,0,0,1,8.353,2.9,1.73,1.73,0,0,0,.572,1.128,1.317,1.317,0,0,0-.244,1.712c1.1,1.746,2.993,2.739,4.693,3.855l.111.073q2.509,1.664,5.06,3.261c3.457,2.166,6.987,4.212,10.566,6.168,5.757,3.147,11.638,6.115,17.625,8.807-.359,1.769-.228,3.592-.5,5.373l-.041.254a1.72,1.72,0,0,0,.5,1.645l.048.045v-.006l.043.039.014.012,0,0a1.536,1.536,0,0,0,.162.131l.07.045h0a1.49,1.49,0,0,0,1.451.028l.051-.028.086-.049a1.657,1.657,0,0,0,.756-1.858c-.6-1.65-.833-3.411-1.391-5.073l.443.2h0l.584.255c6.312,2.73,13.324,5.03,20.2,3.168a11.563,11.563,0,0,0,7.4-5.4c1.5-2.791,1.708-6.032,1.787-9.137a73.566,73.566,0,0,0-.612-11.521,69.069,69.069,0,0,0-1.382-7.673,1.9,1.9,0,0,0,.628-1.209,29.149,29.149,0,0,0-.544-7.314q-.469-3.513-1.048-7.008c-.788-4.7-1.7-9.4-2.77-14.048a184.594,184.594,0,0,0-7.42-24.335l-.264-.691a94.02,94.02,0,0,0-10.51-20.718,32.686,32.686,0,0,0-7.461-8.007,35.449,35.449,0,0,0-9.37-4.672,53.963,53.963,0,0,0-10.195-2.365c-3.523-.48-7.242-.774-10.529-2.22a1.756,1.756,0,0,0-.641-2.215A61.92,61.92,0,0,1,101.882,9.236ZM26.5,76.914a.159.159,0,0,0-.29.122c1.145,4.694,2.22,9.4,2.922,14.181,1.268,8.634,1.035,17.38.931,26.078l-.005.45c-.053,4.684-.127,9.37-.282,14.052-.078,2.367-.233,4.757-.149,7.125.046,1.285.388,2.5.509,3.769a23.391,23.391,0,0,1-.041,3.348c-.035.739,1.055.707,1.129,0l.1-.915a15.517,15.517,0,0,1,.654-3.417,18.65,18.65,0,0,0,.834-4.042c.242-2.144.35-4.311.443-6.47l.064-1.494a239.679,239.679,0,0,0-.255-27.11l-.046-.644C32.386,93.425,31.3,84.217,26.5,76.914ZM50.913,23.2a.258.258,0,0,0-.137-.5l-.6.144A63.925,63.925,0,0,0,37.305,27.02a28.671,28.671,0,0,0-10.387,8.525c-5.392,7.028-7.633,15.568-9.4,24.1-1.966,9.481-3.756,19-5.738,28.476l-.368,1.766c-1.835,8.828-3.567,17.661-4.844,26.593l-.091.648c-1.287,9.186-2.062,18.689-.657,27.9.278,1.822,3.309,1.368,3.19-.432a140.184,140.184,0,0,1-.35-15.6q.355-7.825,1.455-15.582c.613-4.352,1.528-8.65,2.337-12.967l.127-.681c.678-3.672,1.377-7.34,2.074-11.009l1.042-5.493c1.561-8.224,3.153-16.456,4.952-24.628l.107-.481c1.76-7.863,4.356-16.1,9.636-22.343C35.748,29.479,43.419,26.288,50.913,23.2Zm19.472,83.4a.419.419,0,0,0-.719,0,8.945,8.945,0,0,0-.706,3.413l-.011.117c-.13,1.38-.246,2.766-.316,4.151q-.2,3.943-.191,7.887c.009,2.7.063,5.392.208,8.086l.04.721c.133,2.341.355,4.952,1.467,7a.963.963,0,0,0,1.738-.227c.766-2.464.373-5.385.176-7.908l-.153-1.969c-.151-1.968-.295-3.938-.41-5.909-.156-2.7-.286-5.4-.41-8.1q-.062-1.315-.13-2.63l-.072-1.314A9.4,9.4,0,0,0,70.385,106.6Zm86.228,3.491-.34-.328c-1.042-1.02-2.359-2.592-3.9-2.494a.926.926,0,0,0-.878,1.154c.272,1.292,1.59,1.963,2.539,2.752,1.039.865,2.019,1.788,3,2.721.867.827,1.7,1.678,2.516,2.555l.3.33c.292.318,2.37,2.2,2.145,2.687l-.012.022a.13.13,0,0,0,.145.189c.9-.284.841-1.053.5-1.833a20.568,20.568,0,0,0-2.791-4.163,35.177,35.177,0,0,0-3.228-3.592ZM67.133,72.522c.694-1.641,3.25-1.606,4.7-1.508A28.045,28.045,0,0,1,82.7,73.895c3.371,1.772,5.643,4.611,7.675,7.75l.1.147c1.981,3.08,3.888,6.726,6.99,8.844a15.919,15.919,0,0,0,5.341,2.491.979.979,0,0,0,.624.481l.13.03a7.074,7.074,0,0,0,2.126.174c0,.358,0,.714-.01,1.054-.026.973-.037,1.951-.037,2.925,0,2.041.109,4.085.024,6.126a12.263,12.263,0,0,1-1.2,5.3,8,8,0,0,1-2.486,2.715,28.5,28.5,0,0,0-8.163-3.139c-3.456-.842-6.994-1.4-10.372-2.544a18.473,18.473,0,0,1-4.6-2.244A21.052,21.052,0,0,1,75,100.195l-.185-.213a12.475,12.475,0,0,0-4.223-3.456c-1.467-.646-3.4-.761-4.683-1.76a2.613,2.613,0,0,1-.8-2.059,9.924,9.924,0,0,0,2.509-.167l.424-.05a17.082,17.082,0,0,0,2.293-.39.15.15,0,0,0,0-.287,19.992,19.992,0,0,0-2.717-.44l-.217-.027a7.369,7.369,0,0,0-2.533-.091,6.922,6.922,0,0,0-.657-1.629A7.94,7.94,0,0,1,62.9,87.145a1.432,1.432,0,0,1,.153-.8l.042-.079a.667.667,0,0,1,.2-.245.166.166,0,0,0,.077.039,1.253,1.253,0,0,0,1.472-.586c1.24.154,2.593.1,3.755.153l1.175.057a14.982,14.982,0,0,0,3.749-.171.21.21,0,0,0,.05-.38,20.148,20.148,0,0,0-4.764-1.057c-.868-.133-1.741-.235-2.611-.352-.58-.078-1.194-.207-1.795-.238a3.7,3.7,0,0,1,1.4-5.637,4.321,4.321,0,0,0,2.282.069c.832-.071,1.666-.12,2.5-.116,1.674.007,3.448.448,5.106.258.269-.031.52-.39.252-.609a9.47,9.47,0,0,0-4.7-1.594l-.334-.045c-.54-.071-1.2-.174-1.878-.236a1.07,1.07,0,0,0-.845-.584c-.124-.017-.248-.027-.372-.037l0-.012h0C66.811,74.889,66.855,73.179,67.133,72.522Zm69.31,32a.891.891,0,0,0,.058.079l.032.037-.167-.067.076-.049ZM49.466,68.855a94.151,94.151,0,0,1,12.8-.238,3.125,3.125,0,0,0,2.685,2.108,5.092,5.092,0,0,0-.363,4.694A6.043,6.043,0,0,0,61.5,84.051a4.068,4.068,0,0,0-1.259,3.094,7.533,7.533,0,0,0,1.441,3.41,8.571,8.571,0,0,1,.911,3.415,4.869,4.869,0,0,0,3.183,3.7l-.086.339a9.57,9.57,0,0,1-2.13,4.527c-1.534,1.529-3.914,1.515-5.941,1.612l-.1,0c-1.856.093-3.711.2-5.567.307l-1.391.078c-2.137.118-4.188.132-5.932-1.281-2.847-2.306-4.8-6.123-6.035-9.5C36,86.666,35.973,78.883,37.163,71.5A61.715,61.715,0,0,1,49.466,68.855ZM84.9,80.622l-.031,0a2.066,2.066,0,0,0-1.695,1.654c-.312,1.225-.159,2.333-.909,3.439a6.583,6.583,0,0,0-1.358,3.453,11.953,11.953,0,0,1-.154,1.721l-.093.4a3.714,3.714,0,0,0-.131,1.284.943.943,0,0,0,.662.869c1.353.433,2.4-.564,2.747-1.825.3-1.089-.1-2.387.325-3.41.236-.567.671-1.041.917-1.612a5.275,5.275,0,0,0,.4-1.772c.074-1.163-.954-2.561-.381-3.615C85.33,80.982,85.191,80.615,84.9,80.622Zm17.969-12c-.916-.186-1.955-.613-2.859-.258a.693.693,0,0,0-.3,1.143,4.478,4.478,0,0,0,2.589.882l.081.014q1.627.3,3.26.572,3.071.509,6.159.894c2.115.262,4.236.5,6.36.67l.822.067a23.478,23.478,0,0,0,5.422-.023c.256-.04.215-.413,0-.478a36.442,36.442,0,0,0-6.038-.988c-2.12-.263-4.236-.541-6.347-.871s-4.212-.683-6.309-1.073Q104.29,68.905,102.873,68.617ZM69.819,66.742a5.4,5.4,0,0,1,2.559-.565c1.5.243,2.839,1.707,4.028,2.672l-.6-.116c-3.055-.587-7.1-1.22-9.664.723-.007-.011-.012-.022-.019-.034a5.57,5.57,0,0,0-.709-.829c-.025-.024-.049-.048-.073-.073l-.141-.15.323-.112c.692-.245,1.511-.561,1.641-.607l.009,0C68.058,67.349,68.941,67.054,69.819,66.742Zm25.1-64.055c.126-1.617-2.391-1.6-2.515,0a17.872,17.872,0,0,0,2.212,10.041c.012.022.026.042.039.063-1.061.552-2.133,1.082-3.23,1.555-1.4.606-2.832,1.157-4.286,1.625-1.316.424-2.937.591-4.043,1.472-2.333,1.858-1.456,5.715-1.007,8.214l.07.395A6.565,6.565,0,0,1,82,29.894a10.324,10.324,0,0,1-2.794,3.24L79,33.325a14.109,14.109,0,0,0-2.661,3.011,21.03,21.03,0,0,0-2.356-3.507c-.637-.841-.184-1.118.274-1.94a3.9,3.9,0,0,0,.517-2.536,6.011,6.011,0,0,0-2.91-3.774c-1.565-1.068-3.311-1.858-4.929-2.852a67.408,67.408,0,0,1-9.478-6.964c-.081-.072-.22.022-.156.12a37.024,37.024,0,0,0,8.326,9.106c1.346,1.043,2.76,1.907,4.184,2.817l.409.263a3.873,3.873,0,0,1,1.543,1.5c.26.634-.294,1.113-.593,1.639-.948,1.669-.49,3.225.634,4.64l.052.065a10.508,10.508,0,0,1,2.368,4.416c.87,3.778-.342,7.714-1.61,11.261l-.05.14c-.686,1.912-1.415,3.81-2.011,5.752l-.164.537a8.7,8.7,0,0,0-.377,5.388.782.782,0,0,0,1.412.184c1.249-2.074,1.56-4.57,2.342-6.851.763-2.223,1.639-4.405,2.375-6.637a21.311,21.311,0,0,0,1.239-8.98.592.592,0,0,0,.03-.053l.242-.528a11.482,11.482,0,0,1,2.492-3.821,24.183,24.183,0,0,0,3.588-3.683c2.135-3.128.814-6.608.557-10.029l-.03-.419a3.082,3.082,0,0,1,.391-2.167c.522-.553,1.745-.694,2.437-.939a39.287,39.287,0,0,0,5.23-2.257A33.283,33.283,0,0,0,96.9,13.357l.73-.55a12.854,12.854,0,0,0,3.12-3c.089-.136-.062-.356-.224-.291a27.588,27.588,0,0,0-3.674,2.081,1.463,1.463,0,0,0-.065-.134A15.471,15.471,0,0,1,94.918,2.687ZM53.724,21.2c-.514-1.41-2.855-1.3-2.762.374A10.863,10.863,0,0,0,52.079,25.2l.053.125A23.3,23.3,0,0,0,53.955,28.8a44.443,44.443,0,0,0,4.659,5.979,7.192,7.192,0,0,0,5.906,2.557,6.748,6.748,0,0,0,2.839-.814c1.024-.584,2.136-2.338,3.442-1.913.127.041.245-.144.135-.232-1.508-1.215-3.22.669-4.664,1.123a5.305,5.305,0,0,1-5.809-1.832,59.87,59.87,0,0,1-4.037-5.895,28.511,28.511,0,0,1-1.685-3.156C54.245,23.515,54.132,22.323,53.724,21.2Zm3.507-8.674a.24.24,0,0,0-.349-.269,33.127,33.127,0,0,0-2.764,2.246Q52.6,15.752,51.045,16.95c-1.513,1.166.241,3.314,1.573,2.039A17.2,17.2,0,0,0,57.231,12.531Zm5.442-6.822a1.259,1.259,0,0,0-2.437.622l.011.047a6.582,6.582,0,0,1-2.277,6.761l-.074.06c-1.264,1.012.527,2.782,1.779,1.779A9.054,9.054,0,0,0,62.673,5.708Z" transform="translate(-5.07 3.382)"/>
            </g>
            <g id="head_Gray-Bun" data-name="head/Gray-Bun" transform="translate(31.467 0)">
              <path id="_-Background-2" data-name="ðŸŽ¨-Background" class="cls-1" d="M-4.223,41.134C-.06,15.946,31.727,11.4,52.441,16.706c.382-4.845,3.433-9.126,7.24-11.942C75.855-6.879,95,12.888,91.169,29.925c-.688,5.161-4.812,11.05-10.582,10.167C87.84,53.823,90.674,81.51,74.695,90.069c-1.542,1.1-1.8,3.327-2.984,4.756-1.926,2.305-10.155,5.242-14.607,2.888a11.464,11.464,0,0,1-4.9,2.982c-9.747,7.806-23.993,9.567-35.862,6.346C9.029,105.8,1.449,102.5-2.313,95.757-5.5,90.626-4.032,84.614-2.571,79.183a72.886,72.886,0,0,0,1.3-9.036,4.334,4.334,0,0,1-.677-2.212C-2.513,65.221-3.74,62.7-4.353,60a45.479,45.479,0,0,1,.13-18.862" transform="translate(5.282 -1.268)"/>
              <path id="_-Ink-2" data-name="ðŸ–-Ink" class="cls-2" d="M-3.89,53.962c.24,3.037,1.527,5.77,2.6,8.6-.118-1.675-.062-3.418-.18-5.156,1.253-10.889,16.056-13.75,21.8-21.984-.218-.465-.3-4.622.561-3.453,3.324,14.55,23.08,21.85,36.605,21.878a1.708,1.708,0,0,1,2.668,1.729,74.742,74.742,0,0,0-1.167,27.163c.612,3.183.715,7.012,2.624,9.755,2.026,1.928-.41,2.082-1.75,1.647-.374.526-.768,1.036-1.164,1.544,1.925,1.331,4.735.6,6.728-.281,2.217-1.174,3.484-3.449,5.09-5.272A8.634,8.634,0,0,1,74.451,86.4c9.513-6.468,9.267-20.657,7.9-30.912-3.979-30.516-37.836-45.24-65.008-34.639C2.671,24.6-4.2,39.776-3.89,53.962m88.5-17.276c5.8-5.781,4.635-15.888.987-22.553C78.289.207,57.528.66,55.042,17.539a45.291,45.291,0,0,1,24.84,21.232,8.857,8.857,0,0,0,4.73-2.085M-4.223,41.139C-.06,15.95,31.727,11.409,52.441,16.711c.382-4.845,3.433-9.126,7.24-11.943C75.855-6.875,95,12.893,91.169,29.93c-.688,5.161-4.812,11.05-10.582,10.167,7.253,13.731,10.087,41.418-5.893,49.977-1.542,1.1-1.8,3.327-2.984,4.756-1.926,2.305-10.155,5.241-14.607,2.889-1.058,1.3-7.066,5.25-6.628,1.377.442-1.043,1.808-1.316,2.717-1.831a15.457,15.457,0,0,0,4.876-4.29c-4.1-11.558-3.785-24.428-1.49-36.329-13.718-.69-29.859-6.705-35.909-19.914C16.579,46.343,3.9,47.58.691,58.327.5,63.972,1.708,69.532.83,75.18.573,80.711-2.35,86.206-.66,91.7c4.721,11.983,21.716,13.742,32.944,13.241,2.667-.221,4.881-1.662,7.073-3.031a1.528,1.528,0,0,1,2.073,2.074c-3.074,4.291-9.4,4.666-14.253,4.512-12.6-.748-30.811-4.472-31.465-20.037.416-6.17,2.836-12.076,3.012-18.308a4.336,4.336,0,0,1-.676-2.212c-.561-2.714-1.788-5.233-2.4-7.939a45.475,45.475,0,0,1,.13-18.862" transform="translate(5.282 -1.268)"/>
            </g>
            <g id="face_Smiling" data-name="face/Smiling" transform="translate(39.448 49.033)">
              <path id="_-Ink-3" data-name="ðŸ–-Ink" class="cls-2" d="M30.32,50.92a8.6,8.6,0,0,0,3.614-2.781,1.669,1.669,0,0,0,.338-1.3,1.872,1.872,0,0,0-.728-1.172,1.742,1.742,0,0,0-1.305-.353,1.635,1.635,0,0,0-1.1.73l-.065.09a5.694,5.694,0,0,1-2.086,1.751,4.7,4.7,0,0,1-2.582.454,6.93,6.93,0,0,1-4.208-2.413c-.158-.161-.316-.327-.474-.5a.746.746,0,0,0-.394-.3.846.846,0,0,0-.543.008.862.862,0,0,0-.427.324.791.791,0,0,0-.135.524,5.429,5.429,0,0,0,1.79,3.431,7.677,7.677,0,0,0,8.309,1.5ZM25.2,30.512c-1.6.97-4.026,3.232-2.31,5.637,2.02,2.12,4.929-.311,6.362-1.41,1.329-.852,2.822,1.34,1.589,2.335-10.357,7.671-14.56-6.308-6.448-7.7C25.288,29.218,25.62,30.212,25.2,30.512Zm18.56-8.923c-.176-2.189-3.508-2.686-3.84-.52a8.869,8.869,0,0,0,.926,5.469,1.629,1.629,0,0,0,3.091-.629A17.643,17.643,0,0,0,43.762,21.589ZM18.4,20.62a1.777,1.777,0,0,0-1.939-.789c-2.511.734-1.771,4.3-.889,6.036a1.747,1.747,0,0,0,2.728.352c1.141-1.353,1.687-4.056.237-5.39A1.835,1.835,0,0,0,18.4,20.62Zm22.487-8.609-.4-.069c-1.227-.212-2.753-.416-3.621.571a1.434,1.434,0,0,0,0,2c1.088.881,2.292.54,3.6.614a14.3,14.3,0,0,1,3.143.536A21.359,21.359,0,0,1,49.668,18.8c.255.171.515-.155.393-.393a12.526,12.526,0,0,0-5.464-5.1A13.514,13.514,0,0,0,40.883,12.011Zm-20.2-.983-.3.062c-3.3.691-7.6,2.071-9.16,5.317-.06.459,0,.557.055.622l.017.021a.427.427,0,0,0,.275.193l.167-.042a9.485,9.485,0,0,0,1.834-.716l.6-.293a16.4,16.4,0,0,1,2.127-.907,25.034,25.034,0,0,1,4.845-1.07,1.987,1.987,0,0,0,.972-.369,1.461,1.461,0,0,0,.544-.828,1.485,1.485,0,0,0-.168-1.241,1.573,1.573,0,0,0-.767-.661A1.8,1.8,0,0,0,20.685,11.028Z" transform="translate(-11.197 -10.99)"/>
            </g>
            <g id="accessories_Glasses-2" data-name="accessories/Glasses-2" transform="translate(27.759 51.358)">
              <path id="_-Ink-4" data-name="ðŸ–-Ink" class="cls-2" d="M9.744,20.175A9.531,9.531,0,0,0,20,22.165C28.766,18.5,24.477,7.079,17.719,4.012a22.642,22.642,0,0,0-3-.823c-.093-.046-.3.086-.541-.038-7.452.832-9.148,12.4-4.435,17.025m28.263.679a10.819,10.819,0,0,0,12.6,3.22c8.633-3.4,5.571-13.531-.336-17.5-12.477-4.69-17.629,7.244-12.26,14.282M56.721,12.4l.024-.009-.137-.061c.015.039.031.077.045.116a.511.511,0,0,1,.067-.046M3.8,8.27a3.864,3.864,0,0,1,2.3.606C7.547,4.025,12.855-.465,17.47,2.809a12.824,12.824,0,0,1,7.865,7.211c2.764-1.645,7.11-.942,9.507,1.233,1.57-5.189,5.433-7.006,10.031-7.274,5.019-.822,10.021,4.054,11.582,7.965,1.3-.148,3.237-.561,4.458.24C68.838,10.1,82.692,8.959,84.3,10.114c1.148.441,1.778,3.151.175,3.3-1.4-.2.163-1.986-1.245-2.181-7.5-.465-14.79,1.047-22.216,1.681-.663.892-2.805,1.191-3.948.832,1.8,6.636-2.085,11.15-7.907,12.5-9.014,2.072-16.857-6-14.5-14.386a12.948,12.948,0,0,0-8.846-.585c4.971,18.3-24.492,17.48-19.89-1.772C2.863,11.027,2.2,8.577,3.8,8.27" transform="translate(-2.958 -1.691)"/>
            </g>
          </g>
        </g>
      </g>
    </g>
    <g id="Introduction-2" data-name="Introduction" transform="translate(657 243.266)">
      <g id="variations-2" data-name="variations">
        <g id="images-2" data-name="images">
          <g id="a-person_bust-2" data-name="a-person/bust" transform="translate(0 0)">
            <g id="body_Macbook" data-name="body/Macbook" transform="translate(0 80.313)">
              <path id="_-Background-3" data-name="ðŸŽ¨-Background" class="cls-1" d="M9.417,44.272l9.051.889c14.448,1.1,28.89,3.411,43.228,4.795a.927.927,0,0,1,1.48-.082c1.43-.125,3.034-1.219,4.33-.081.042-.006.084-.013.126-.017a90.911,90.911,0,0,0,5.451-13.888c.988-2.909,2.317-5.726,4.774-7.679,4.192-2.911,13.8-8.815,18.721-8.567a3.66,3.66,0,0,1,1.167-2.378c-1.487-2.536,4.459-4.191,4.878-3.9-.269-8.473,3.715-15.831,12.5-17.518,7.869-1.641,19.063-1.916,23.3,6.312.465-.052,5.221-.077,5.681-.026.715-.906,8.572,7.683,5.352,10.674,28.79,12.741,45.16,11.22,53.129,47.038,1.077,3.365,1.156,7.047,2.293,10.336,4.047,9.454,7.33,19.521,8.147,29.808,1.973.505,2.2,3.986-.085,4.489a5.357,5.357,0,0,0-2.24.954c.5,8.43-1.54,27.687-2.825,27.628-2.618,8.336-14.3,10.689-22.566,7.759,1.425,2.683,0,4.37,0,5.8-29.752,1.126-62.283.477-92.027,2.022-3.805-.054-7.807.935-11.559.365-2.289-.548-2.293-4.148.029-4.594l-10.144-2.2c.227-.086-4.181-3.019-7.513-8.5-3.1-6.131-.99-13.532-2.395-20.2-10.974-.9-22.13-1.281-32.984-3.141-1.48,4.43-7.886-.868-9.923-3l.008-.01a2.471,2.471,0,0,1-1.8-2.287,3,3,0,0,1-.174-3.335C13.783,84.2,9.152,66.3,7.479,48.6a3.749,3.749,0,0,1-1.622-.791l.038-.038a2.013,2.013,0,0,1,.379-3.192A4.673,4.673,0,0,1,9.417,44.272Z" transform="translate(-4.241 5.072)"/>
              <path id="_-Ink-5" data-name="ðŸ–-Ink" class="cls-2" d="M137.643.25a1.863,1.863,0,0,0-3.589.99A12.866,12.866,0,0,0,135.73,5.4a10.053,10.053,0,0,0,2.094,2.757c-1.563,1.459-3.186,2.865-4.85,4.2a59.591,59.591,0,0,1-5.7,4.033c-1.73,1.082-3.539,2.041-5.17,3.276A10.325,10.325,0,0,0,118.5,24a8.925,8.925,0,0,0,.128,5.819l.063.217c.564,1.9,1.539,4.19.187,5.981a15.527,15.527,0,0,1-2.554,2.285,19.935,19.935,0,0,0-2.151,2.108,17.4,17.4,0,0,0-3.354,5.572l-.067.188c-.634,1.83-1.1,4.072-.24,5.869a.65.65,0,0,0,1.176-.154c.312-1.136.3-2.326.557-3.479a13.075,13.075,0,0,1,1.314-3.412,18.438,18.438,0,0,1,4.518-5.364l.547-.445c1.426-1.171,2.736-2.413,3.026-4.35.31-2.073-.521-4.048-1.054-6.01a6.768,6.768,0,0,1-.091-3.914,25.028,25.028,0,0,0,1.691,2.243c1.056,1.353,2.121,2.7,3.184,4.045,1.09,1.381,2.153,2.785,3.165,4.224q.679.966,1.347,1.94c.336.487.8.974,1.17,1.471a.876.876,0,0,0,.079.79c1.941,2.623,4.7-2.85,5.421-4.232,1.466-2.816,2.557-5.807,4.028-8.623a67.731,67.731,0,0,1,5.195-8.423c1.17-1.612,2.482-3.125,3.552-4.788,2.522,2.288,5.841,3.821,8.889,5.212,3.349,1.528,6.829,2.776,10.262,4.1l1.014.394c5.916,2.31,11.978,4.848,16.9,8.951,5.779,4.821,9.2,11.542,11.743,18.5,2.93,8.011,5.354,16.239,7.613,24.461q1.734,6.31,3.285,12.672c.909,3.735,1.662,7.507,2.714,11.2-2.134-.075-4.567.751-6.389.989a106.364,106.364,0,0,0-24.332,5.821A1.729,1.729,0,0,0,180,107.98c-.558-.157-1.116-.317-1.675-.474.612-.938.32-2.614.272-3.654l0-.071c-.049-1.385-.2-2.772-.3-4.154-.185-2.635-.427-5.251-.748-7.871l-.082-.655c-.364-2.851-.633-5.718-1.03-8.564l-.047-.326c.19-.728.412-1.447.645-2.163.62-1.907,1.495-3.7,2.261-5.55.09-.217-.219-.342-.364-.212a15.335,15.335,0,0,0-3.158,4.2c-.014-.073-.027-.147-.042-.22l-.094-.465a7.983,7.983,0,0,0-1.213-3.251.171.171,0,0,0-.291,0,8.931,8.931,0,0,0-.843,3.84c-.116,1.452-.131,2.922-.11,4.378.04,2.845.24,5.7.4,8.54.157,2.792.464,5.548.861,8.312l.075.519c.194,1.315.353,2.647.608,3.954l.072.356a17.131,17.131,0,0,0,.493,2.32q-10.5-2.929-21.038-5.737Q147.033,99,139.409,97a5.694,5.694,0,0,0-1.019-1.338c-1.373-1.33-3.192-1.923-4.86-.9a.22.22,0,0,0,0,.377c.32.175.64.354.955.541l-3.051-.827c-2.28-.618-4.588-1.391-6.921-1.822a107.22,107.22,0,0,0-13.451-5.176l-.533-.181a51.105,51.105,0,0,0-7.113-2.115c-1.753-.321-3.812.066-4.517,1.864a28.053,28.053,0,0,0-2.544,1.961c-.586.492-1.147,1.014-1.719,1.523l-.1.092a2.158,2.158,0,0,0-.952,1.322c-.059.333.153.784.564.74,1.257-.135,2.279-1.592,3.132-2.463.659-.673,1.323-1.369,1.924-2.108a.746.746,0,0,0,1.054-.266c1.157-2.191,4.326-.673,6.08-.153l2.512.744q1.884.559,3.764,1.127c3.445,1.046,6.872,2.217,10.348,3.179a.723.723,0,0,0,.323,1.182,74.375,74.375,0,0,0,8.532,2.353q2.677.695,5.351,1.4a4.377,4.377,0,0,1,.618,1.708,19.534,19.534,0,0,1-.955,7.488l-.1.346c-.526,1.865-1.3,4.152-2.907,5.33a2.852,2.852,0,0,1-1.4.532q-4.724-2.432-9.45-4.861a.878.878,0,0,0-1.254.588,20.441,20.441,0,0,1-3.229-.812c-1.7-.577-3.022-1.676-4.612-2.436-3.077-1.471-6.22.336-8.975,1.709l-.635.312c-1.236.6-3.806,1.752-4.4.112-.574-1.587,1.239-3.283,2.41-4a15.914,15.914,0,0,1,4.6-1.687c.9-.217,1.812-.394,2.73-.523a16.956,16.956,0,0,0,3.116-.462.57.57,0,0,0,0-1.089,11.523,11.523,0,0,0-4.991.424l-.841.207a20.054,20.054,0,0,0-4.734,1.691,8.594,8.594,0,0,0-2.948,2.528,2.266,2.266,0,0,0-2.276-.355l-.452.125a4.257,4.257,0,0,1-2.08.207c-.1-.529-.195-1.059-.3-1.588q-1.554-7.8-3.425-15.539Q87.435,74.671,83.193,61.62l-.283-.87a31.746,31.746,0,0,0-2.222-5.988,7.075,7.075,0,0,0-4.47-3.253c-2.142-.6-4.394-.912-6.579-1.316-.488-.09-.977-.176-1.465-.264a24.034,24.034,0,0,0,1-2.239l.048-.113c.6-1.359,1.131-2.742,1.648-4.132l.386-1.045a52.131,52.131,0,0,1,3.208-7.348,19.116,19.116,0,0,1,5.5-6.18c4.656-3.419,10.268-5.163,14.783-8.816.186-.15-.052-.406-.24-.311-3.049,1.533-6.341,2.575-9.512,3.823l-.626.247A31.383,31.383,0,0,0,77.142,27.5a20.066,20.066,0,0,0-5.756,6.674,59.267,59.267,0,0,0-3.31,8.328l-.266.744c-.4,1.115-.817,2.227-1.292,3.312a31.488,31.488,0,0,0-1.4,2.829c-.875-.152-1.751-.3-2.627-.451A421.055,421.055,0,0,0,5.064,43.355a1.085,1.085,0,0,0-1.031,1.354C5.879,55.632,7.52,66.592,9.32,77.523q1.179,7.156,2.408,14.3c.416,2.414.9,4.819,1.29,7.236a50.457,50.457,0,0,0,1.094,5.827,11.126,11.126,0,0,0,2.473,4.664,8.856,8.856,0,0,0,5.052,2.409c4.741.816,9.6,1.149,14.384,1.693l25.446,2.9a63.166,63.166,0,0,0-.229,10.131l.1,1.867c.079,1.5.174,3.006.39,4.493a9.059,9.059,0,0,0,2.379,4.836,28.775,28.775,0,0,0,3.917,3.417,19.729,19.729,0,0,0,4.54,2.8l.216.086c1.459.57,4.2,1.452,6.191,1.13-.261,1.307-.765,2.712-.318,4.005a.891.891,0,0,0,1.473.389c.953-1.013,1.027-2.35,1.253-3.671q.351-2.062.616-4.137c.348-2.674.619-5.372.7-8.069q.128-4.153-.1-8.308c-.076-1.42-.171-2.84-.351-4.251-.077-.6-.156-1.205-.246-1.805q-.049-.329-.108-.654l2.284.257c3.5.391,7.006.745,10.533.8a1.134,1.134,0,0,0,.949-.46,1.307,1.307,0,0,0,1.171.623c4.925-.019,9.512-1.63,13.992-3.528,2.258-.958,4.481-1.994,6.742-2.944,2.111-.886,4.368-1.518,6.427-2.516l5.413,2.84a2.356,2.356,0,0,0,.145.383,3.142,3.142,0,0,0,1.757,1.4,4.22,4.22,0,0,0,2.074.3q6.157,3.228,12.32,6.447l4.11,2.143c8.188,4.265,16.344,8.6,24.583,12.764l.607.306a73.613,73.613,0,0,0,9.06,3.954,16.04,16.04,0,0,1-.046,2.424l-.016.185c-.094,1-.3,2.253.506,2.965a.931.931,0,0,0,1.446-.186c.515-1.013.053-2.609-.11-3.709a10.623,10.623,0,0,0-.233-1.184,24.633,24.633,0,0,0,11.036,1c3.587-.589,6.366-2.85,8.606-5.615a25.554,25.554,0,0,0,4.945-9.965,51.388,51.388,0,0,0,1.069-12.681,117.221,117.221,0,0,0-.743-13.567,6.547,6.547,0,0,1,1.88-.222,1.462,1.462,0,0,0,1.416.624c1.15,1.268-1.767,2.565-2.7,2.89-.324.112-.289.638.084.622l.235-.011c1.44-.076,2.928-.322,3.775-1.661a2.61,2.61,0,0,0-.334-3.22,115.8,115.8,0,0,0-3-14.905c-1.167-4.839-2.464-9.647-3.839-14.43l-.617-2.141A210.277,210.277,0,0,0,200,46.531a47.612,47.612,0,0,0-5.538-10.262,35.26,35.26,0,0,0-7.68-7.561c-5.492-3.983-11.936-6.39-18.268-8.683l-.283-.1c-3.281-1.187-6.554-2.389-9.8-3.675-2.869-1.138-5.617-2.58-8.473-3.735q.139-.253.269-.511l.053.044.028.021a.793.793,0,0,0,.947-.122c.668-.631.442-1.331,0-1.985l-.058-.083c-.546-.764-1.032-1.573-1.535-2.365l-.315-.5a20.473,20.473,0,0,0-2.86-3.749,6.147,6.147,0,0,0-1.7-1.169c.052-.109-.4-.333-.531-.221a14.453,14.453,0,0,0-6.215-.361M62.7,116.692l2.666.3q4.4.5,8.8.977l6.375.693c.016.363.06.719.068.993.042,1.416.073,2.832.1,4.247q.089,4.257-.192,8.512c-.181,2.744-.42,5.489-.79,8.215l-.076.545-.044.287a1.245,1.245,0,0,0-.846.468c-.54.644-2.492.018-3.254-.253a15.53,15.53,0,0,1-3.524-1.957,22.474,22.474,0,0,1-2.943-2.506l-.753-.746a9.626,9.626,0,0,1-1.959-2.475,13.7,13.7,0,0,1-.886-4.214c-.224-1.7-.492-3.405-.775-5.1M140.1,98.824l.277.073c10.046,2.67,20.077,5.419,30.154,7.972,4.987,1.263,10,2.435,14.99,3.674l.808.2c3.939,1,7.925,2.195,10.941,5.053a.119.119,0,0,0,.168-.169c-3.251-3.461-7.874-4.927-12.313-6.2-.821-.235-1.642-.465-2.463-.7a144.728,144.728,0,0,1,18.444-5.362c1.616-.344,3.25-.6,4.864-.942,1.126-.241,2.225-.59,3.339-.879l.876-.22.012,2.77c.015,3.924.008,7.845-.192,11.768l-.038.726c-.233,4.366-.6,8.823-2.147,12.94a23.583,23.583,0,0,1-5.888,8.933,10.643,10.643,0,0,1-4.519,2.666,15.3,15.3,0,0,1-5.038.374c-8.076-.563-15.266-4.952-22.282-8.586q-17.213-8.916-34.439-17.806a5.609,5.609,0,0,0,.869-.732,12.847,12.847,0,0,0,2.887-5.88,31.023,31.023,0,0,0,.947-6.971M125.481,117.41a.151.151,0,0,0-.224.129,5.9,5.9,0,0,0,.812,2.534l.038.084c.44.98.922,1.946,1.42,2.9q1.494,2.85,3.112,5.634a66.751,66.751,0,0,0,7.441,10.546c.645.733,1.7-.207,1.291-1a117.993,117.993,0,0,0-6.713-10.963q-1.8-2.676-3.605-5.345c-.5-.741-1.016-1.479-1.541-2.206l-.317-.435M6.336,45.535q15.122.457,30.183,1.993,14,1.438,27.872,3.825,2.9.5,5.785,1.037l1.156.217c1.926.365,4.279.516,5.994,1.545,1.809,1.085,2.3,3.354,2.9,5.224q1.061,3.3,2.067,6.617,4,13.17,7.268,26.551c1.077,4.425,2.033,8.875,3.041,13.316.895,3.946,1.882,7.847,2.914,11.753a1.147,1.147,0,0,0-.472-.214c-5.123-1.09-10.352-1.564-15.551-2.167l-.5-.058q-8.068-.95-16.139-1.867L27.217,109.3a41.909,41.909,0,0,1-6.4-.833c-3.477-.959-4.292-4.848-4.876-7.945l-.017-.094c-1.759-9.357-3.159-18.8-4.8-28.176m83.557,34.485c1.384-.091,3.277-1.359,4.327-1.268a3.868,3.868,0,0,0-.482,3.106c.883,3.135,4.88,1.513,6.805.555a20.81,20.81,0,0,1,4.85-2.114c1.979-.417,3.321.371,4.993,1.279a14.783,14.783,0,0,0,4.408,1.557,9.242,9.242,0,0,0,2.371.106.977.977,0,0,0,.159.105l.41.215a22.98,22.98,0,0,0-5.471,1.182c-1.789.543-3.545,1.2-5.292,1.868l-1.719.661c-4.239,1.624-8.627,3.166-13.215,3.152a1.382,1.382,0,0,0-.813.24m6.409-20.466a4.678,4.678,0,0,0-3.72.9c-1.317,1.073-2.2,2.853-4.095,2.97a.5.5,0,0,0-.132.973c1.41.417,2.551-.346,3.511-1.336l.646-.675a4.2,4.2,0,0,1,3.434-1.684c1.724.063,3.451.462,5.165.664q2.91.344,5.827.594c.091.008.106-.135.022-.156l-2.181-.543m-7.157-7.3-.226-.023a8.533,8.533,0,0,0-5.572.868l-.34.206a12.924,12.924,0,0,0-4.336,3.689.341.341,0,0,0,.38.5c1.92-.461,3.325-1.871,4.94-2.926,1.812-1.184,3.685-.989,5.752-.8,2,.178,4,.423,5.982.757,1.862.313,3.73.808,5.611.965v0c.215,0,.338-.323.119-.433a25.691,25.691,0,0,0-6.2-1.84M171.7,37.34a.16.16,0,0,0-.3-.08,33.264,33.264,0,0,0-2.654,7.562c-.721,2.623-1.3,5.272-1.825,7.941a87.316,87.316,0,0,0-1.66,16.286c-.005.786,1.275,1,1.4.19.832-5.358,1.629-10.721,2.467-16.078.422-2.694.912-5.378,1.382-8.064m-11.6-3.8c.1-.313-.361-.418-.477-.132a33.194,33.194,0,0,0-1.805,20.289c.255,1.027,1.758.582,1.566-.432m-32.71-25.379c.013-.235-.291-.272-.406-.11-1.228,1.731-1.737,4.049-3.892,4.943-1.076.447-2.286.369-3.236,1.123a1.584,1.584,0,0,0-.646,2.065.509.509,0,0,0,.793.1,4.823,4.823,0,0,1,.88-1.152,6.533,6.533,0,0,1,2.04-.633,4.988,4.988,0,0,0,2.254-1.343m-18.3-33.862a.248.248,0,0,0-.329.086.271.271,0,0,0,.04.415,9.9,9.9,0,0,0-.444,1.5q-.193.857-.411,1.707c-.29,1.145-.544,2.3-.835,3.444-.308,1.214-.675,2.415-1.083,3.6-.027.077-.056.155-.086.234l-.047.12-.011-.018a.129.129,0,0,0-.235.1c.019.126.044.252.066.378l-.043.113a2.1,2.1,0,0,0,.04,2.111,1,1,0,0,0,.637.42,36.8,36.8,0,0,0,1.45,3.887l.159.366a21.777,21.777,0,0,0,2.914,5.189c1.385,1.7,3.289,2.859,4.5,4.721a11.473,11.473,0,0,1,1.269,2.755l.119.371a2.971,2.971,0,0,0,1.133,1.768.572.572,0,0,0,.684-.088c1.331-1.408-.062-4.036-.864-5.4a19.371,19.371,0,0,0-4.345-4.538,19.164,19.164,0,0,1-3.928-5.635c-.658-1.244-1.294-2.516-1.963-3.766a5.657,5.657,0,0,0,1.16-2.7l.021-.076a30.407,30.407,0,0,0,.9-4.177,22.984,22.984,0,0,0,.218-4.05l-.014-.347m-3.265,3.957c.154-.212-.1-.452-.313-.408a14.338,14.338,0,0,0-3.7,1.678l-.124.067A5.185,5.185,0,0,0,95.9,16.634a6.588,6.588,0,0,0-.412,3.4l.007.107a28.364,28.364,0,0,0,.392,4.139.969.969,0,0,0,1.305.72c.634,2,2.415,3.48,3.717,5.06,1.659,2.015,1.347,4.736,1.173,7.164-.07.983,1.152,1.262,1.782.738l1.45-1.205q.363-.3.723-.605c.206-.173.411-.348.613-.525l.3-.267c.134-.12.726-.781.9-.809.419-.067,1.414,1.038,1.755,1.385l.043.043a17.767,17.767,0,0,1,1.761,2.024.129.129,0,0,0,.222-.13,18.223,18.223,0,0,0-1.713-2.955l-.135-.185c-.445-.6-1.041-1.657-1.825-1.833-.958-.216-1.914.745-2.611,1.278l-.044.034q-.5.373-.986.757a9.61,9.61,0,0,0-1.127-5.191,19.814,19.814,0,0,0-2.486-2.856c-.939-1.051-1.429-2.343-2.278-3.437a.644.644,0,0,0-.424-.241c-.033-.88-.162-1.769-.262-2.639l-.029-.261a5.359,5.359,0,0,1,.122-2.987,7.277,7.277,0,0,1,2.184-1.995l.606-.471M144.192,3.221a4.721,4.721,0,0,1,1.079.853,17.977,17.977,0,0,1,2.5,3.782c.388.708.762,1.425,1.153,2.131.17.307.345.612.522.915.082.14.325.418.445.589-.134.188-.272.372-.413.555-.054.07-3.768,4.117-5.063,5.7a51.8,51.8,0,0,0-5.27,7.733c-1.483,2.687-2.613,5.531-3.987,8.269a20.648,20.648,0,0,1-2.435,3.919c-.038.046-.078.09-.117.136a11.957,11.957,0,0,0-1.8-2.712l-.044-.059c-1.067-1.438-2.193-2.833-3.344-4.2q-1.577-1.878-3.233-3.683l-.415-.451a12.373,12.373,0,0,0-2.872-2.669,5.385,5.385,0,0,1,.421-.638,14.316,14.316,0,0,1,4.018-3.283l.954-.581a65.654,65.654,0,0,0,10.262-7.337,41.572,41.572,0,0,0,4.671-4.846l.491-.622m-3.52-4.584a20.708,20.708,0,0,1,5.061.657c-1.384,1.309-2.7,2.722-4.051,4.053-.12-.9-.366-1.789-.574-2.667" transform="translate(-4.014 5.072)"/>
            </g>
            <g id="head_Short-5" data-name="head/Short-5" transform="translate(78.725 0)">
              <path id="_-Background-4" data-name="ðŸŽ¨-Background" class="cls-1" d="M47.747,15.906c-12,0-24.4,9.3-28.8,15.238-3.7,4.991-5.687,27.558-5.687,42.809,0,3.19-1.76,9.2-1.246,12.254,1.882,11.18,10.079,20.557,26.3,20.557s27.858-6.434,39.918-23.708c5.851,0,8.687-4.489,8.729-11.573Q87,64.4,81.315,61.82q2.028-27.957-3.08-35.236C73.126,19.305,59.743,15.906,47.747,15.906Z" transform="translate(-9.527 -11.624)"/>
              <path id="_-Ink-6" data-name="ðŸ–-Ink" class="cls-2" d="M53.831,11.953a80.546,80.546,0,0,0-22.46,1.211,1.227,1.227,0,0,0-1.014.928c-3.516.161-7.035.419-10.547.611A1.661,1.661,0,0,0,18.4,17.169c.116.226.237.446.359.666l-.154-.051a4.12,4.12,0,0,0-3.226.032A3.229,3.229,0,0,0,13.84,21.4a5.5,5.5,0,0,0,.34,1.027,4.375,4.375,0,0,0-.864.025,3.086,3.086,0,0,0-2.747,2.938c-.118,2.358,1.4,4.751,3.19,6.44a2.989,2.989,0,0,0-.251,1.8,3.46,3.46,0,0,0,2.222,2.51,11.578,11.578,0,0,0-.536,4.443,1.23,1.23,0,0,0,.956,1.032,69.8,69.8,0,0,0-3.274,15.043,91.588,91.588,0,0,0-.705,10.815q-.02,2.449.082,4.9l.028.612a41.414,41.414,0,0,0,.406,5.364,15.022,15.022,0,0,0-1.7,6.188,19.05,19.05,0,0,0,.938,7.615c3.038,9.176,12.207,14.967,21.416,16.472,8.524,1.393,18.389-.482,23.37-8.228.078-.122-.089-.224-.186-.143-3.564,2.9-7.7,4.193-12.19,4.822-7.766,1.087-16.5-.756-22.728-5.642A17.721,17.721,0,0,1,15.509,90a16.65,16.65,0,0,1-.46-5.772c.194-1.961,1.062-3.635,1.61-5.489a1.656,1.656,0,0,0-.393-1.621c-.107-1.505-.361-3.023-.458-4.523q-.162-2.559-.2-5.119c-.044-3.542.1-7.091.4-10.618C16.557,50.4,18,44.1,18.854,37.7a1.053,1.053,0,0,0,1.238.152l.049-.027.258-.148a.371.371,0,0,1,.047,0,13.563,13.563,0,0,0,5.284-.6A15.541,15.541,0,0,0,30.6,34.555a22.24,22.24,0,0,1,.4,4.284,1.151,1.151,0,0,0,1.711.983,71.378,71.378,0,0,0,9.6-5.873q.533,2.73,1.067,5.461a1.1,1.1,0,0,0,1.6.651,20.325,20.325,0,0,0,5.846-5.123q.48.917.963,1.833l.486.914a3.933,3.933,0,0,0,2.172,2.179,2.021,2.021,0,0,0,2.413-1.422c.114-.312.22-.634.317-.957A55.69,55.69,0,0,0,60.4,43.776a83.081,83.081,0,0,0,6.158,8.483c.659.839,1.787.038,1.878-.778.053-.48.1-.962.135-1.442,1.264,2.552,2.583,5.081,4.021,7.536l-.206.807h0c-.593,2.384-1.085,4.784-1.621,7.18a1.657,1.657,0,0,0,1.141,2.01c1.079.157,2.1.709,3.2.329,1.2-.414,1.443-1.456,2.012-2.443a3.988,3.988,0,0,1,.387-.549l.036.047h0c.089.116.3-.01.247-.144l-.062-.154h0a21.2,21.2,0,0,1,1.611-1.417,5.739,5.739,0,0,1,3.6.54,6.8,6.8,0,0,1,2.945,5.865,15.433,15.433,0,0,1-2.163,7.82,5.462,5.462,0,0,1-2.527,2.316c-1.086.435-2.263.3-3.368.71a1.257,1.257,0,0,0-.74,1.82c.03.051.063.1.1.146l-.329.436c-.226.3-.462.626-.682.963-.562.647-1.153,1.27-1.726,1.907-1.058,1.173-2.085,2.378-3.127,3.567-.983,1.122-2.022,2.177-3.093,3.215-1.012.983-2.275,1.809-3.205,2.858-.9,1.023-1.149,2.809.338,3.4,1.646.656,3.1-.882,4.21-1.908l.047-.043A30.677,30.677,0,0,0,74.936,90.5a4.554,4.554,0,0,0,4.965.094,4.35,4.35,0,0,0,1.618-2.33,3.391,3.391,0,0,0,.79.09c.133.077.267.153.4.223a1.986,1.986,0,0,0,2.878-.877,4.608,4.608,0,0,0-.416-3.336l-.083-.214A18.721,18.721,0,0,0,84.3,82.3a10.019,10.019,0,0,0,2.244-2.395,17.746,17.746,0,0,0,2.7-11.4,9.848,9.848,0,0,0-3.061-6.083l.063-.165h0a24.7,24.7,0,0,0,1.209-3.758,38.815,38.815,0,0,0,.644-4.635,44.525,44.525,0,0,0-.188-9.851A38.859,38.859,0,0,0,81.632,26.8a4.734,4.734,0,0,0,1.376-4.216,3.152,3.152,0,0,0-1.264-1.871c-.357-.234-.782-.27-1.139-.465l-.107-.059c-.157-.091-.037-.082.057-.507.37-1.7.063-3.341-1.806-3.906-1.76-.531-3.425.6-4.466,1.938-2.725-1.934-6.317-2.946-9.475-3.806A68.288,68.288,0,0,0,53.831,11.953Zm29.438,57a2.119,2.119,0,0,0-2.59-2.012,5.227,5.227,0,0,0-2.269,1.2l-.331.262a8.117,8.117,0,0,0-2.269,2.269c-.722,1.357.8,3.183,2.231,2.232a8.888,8.888,0,0,0,2.247-2.683l.066-.1a5.966,5.966,0,0,1,.947-1.253l.086-.076a1.2,1.2,0,0,1,.442-.263.963.963,0,0,1,1.077.427l.013.04A.179.179,0,0,0,83.269,68.954Z" transform="translate(-10.563 -11.624)"/>
            </g>
            <path id="_-Ink-7" data-name="ðŸ–-Ink" class="cls-2" d="M30.32,50.92a8.6,8.6,0,0,0,3.614-2.781,1.669,1.669,0,0,0,.338-1.3,1.872,1.872,0,0,0-.728-1.172,1.742,1.742,0,0,0-1.305-.353,1.635,1.635,0,0,0-1.1.73l-.065.09a5.694,5.694,0,0,1-2.086,1.751,4.7,4.7,0,0,1-2.582.454,6.93,6.93,0,0,1-4.208-2.413c-.158-.161-.316-.327-.474-.5a.746.746,0,0,0-.394-.3.846.846,0,0,0-.543.008.862.862,0,0,0-.427.324.791.791,0,0,0-.135.524,5.429,5.429,0,0,0,1.79,3.431,7.677,7.677,0,0,0,8.309,1.5ZM25.2,30.512c-1.6.97-4.026,3.232-2.31,5.637,2.02,2.12,4.929-.311,6.362-1.41,1.329-.852,2.822,1.34,1.589,2.335-10.357,7.671-14.56-6.308-6.448-7.7C25.288,29.218,25.62,30.212,25.2,30.512Zm18.56-8.923c-.176-2.189-3.508-2.686-3.84-.52a8.869,8.869,0,0,0,.926,5.469,1.629,1.629,0,0,0,3.091-.629A17.643,17.643,0,0,0,43.762,21.589ZM18.4,20.62a1.777,1.777,0,0,0-1.939-.789c-2.511.734-1.771,4.3-.889,6.036a1.747,1.747,0,0,0,2.728.352c1.141-1.353,1.687-4.056.237-5.39A1.835,1.835,0,0,0,18.4,20.62Zm22.487-8.609-.4-.069c-1.227-.212-2.753-.416-3.621.571a1.434,1.434,0,0,0,0,2c1.088.881,2.292.54,3.6.614a14.3,14.3,0,0,1,3.143.536A21.359,21.359,0,0,1,49.668,18.8c.255.171.515-.155.393-.393a12.526,12.526,0,0,0-5.464-5.1A13.514,13.514,0,0,0,40.883,12.011Zm-20.2-.983-.3.062c-3.3.691-7.6,2.071-9.16,5.317-.06.459,0,.557.055.622l.017.021a.427.427,0,0,0,.275.193l.167-.042a9.485,9.485,0,0,0,1.834-.716l.6-.293a16.4,16.4,0,0,1,2.127-.907,25.034,25.034,0,0,1,4.845-1.07,1.987,1.987,0,0,0,.972-.369,1.461,1.461,0,0,0,.544-.828,1.485,1.485,0,0,0-.168-1.241,1.573,1.573,0,0,0-.767-.661A1.8,1.8,0,0,0,20.685,11.028Z" transform="translate(76.214 31.687)"/>
          </g>
        </g>
      </g>
    </g>
    <g id="Introduction-3" data-name="Introduction" transform="translate(944.017 218)">
      <g id="variations-3" data-name="variations">
        <g id="images-3" data-name="images">
          <g id="a-person_bust-3" data-name="a-person/bust" transform="translate(0 0)">
            <g id="body_Shirt-and-Coat" data-name="body/Shirt-and-Coat" transform="translate(0 97.01)">
              <path id="_-Background-5" data-name="ðŸŽ¨-Background" class="cls-1" d="M9.132,137.035q.505-9.395,1.247-18.774c.988-12.455,2.281-24.919,4.433-37.231a202.077,202.077,0,0,1,9.375-35.535,72.114,72.114,0,0,1,7.256-14.78A32.153,32.153,0,0,1,42.848,20.3c4.226-2.483,9.135-6.79,13.188-9.57,1.692-1.16,5.173-1.083,6.334-2.8C63.889,5.684,62.9,2.243,64.436,0A18.962,18.962,0,0,1,71.4-6a16.929,16.929,0,0,1,10.14-2.843C86.8-9.158,92.1-7.483,95.472-3.2a12.7,12.7,0,0,1,2.8,7.33A2.22,2.22,0,0,1,97.708,5.8q.334.446.664.895a2.533,2.533,0,0,1,3.379-.794,47.379,47.379,0,0,0,11.333,6.007,2.638,2.638,0,0,1,2.88.487,6.408,6.408,0,0,0,1.035.76c1.488.4,3,.741,4.532,1a2.009,2.009,0,0,1,1.2.722,1.653,1.653,0,0,1,1.786-.365A55.3,55.3,0,0,1,146.073,28.9c6.441,7.2,9.824,16.159,12.4,25.337a241.948,241.948,0,0,1,6.066,30.316c1.516,10.334,3.01,20.709,4.053,31.1a121.654,121.654,0,0,1,.545,17.627,87.507,87.507,0,0,1-.828,8.771c-.1.68-.2,1.464-.371,2.246a.881.881,0,0,1,1.014,1.022c-.72,4.806-6.528,6.206-10.534,6.76a150.791,150.791,0,0,1-19.756,1.446c-6.5.037-13-.38-19.489-.754q-9.977-.574-19.954-1.158-39.973-2.345-79.949-4.673c-2.435-.143-5.215-.336-7.3-1.749-2.859-1.937-3.006-5.014-2.837-8.16Z" transform="translate(-7.924 8.877)"/>
              <path id="_-Ink-8" data-name="ðŸ–-Ink" class="cls-2" d="M138.938,83.277a.169.169,0,0,0-.264-.2c-3.235,2.84-4.929,7.4-5.284,11.617-.376,4.471.157,9.1.361,13.569.227,4.977.431,9.957.708,14.932.281,5.048.584,10.094.844,15.143l.584,11.358h0a12.169,12.169,0,0,0,.392,3.829,1.735,1.735,0,0,0,3.306.016l.014-.048.041.032a13.068,13.068,0,0,0,.033-4.25l-.612-12.409h0c-.432-8.771-.818-17.542-1.282-26.311l-.158-2.923q-.326-5.9-.517-11.794l-.043-1.312C136.932,90.572,137.032,86.844,138.938,83.277ZM60.513,10.464a10,10,0,0,0-4.8,1.057c-.712.274-1.387.591-2.071.919a5.152,5.152,0,0,0-1.934,1.9l-.282.414c-2.195,3.218-3.672,6.93-5.338,10.433-1.949,4.1-3.918,8.187-5.826,12.3l-.941,2.028q-.706,1.521-1.4,3.047l-.8,1.772c-.8,1.8-1.521,3.7-.378,5.552,1.064,1.724,2.949,3.058,4.441,4.391l3.737,3.336a21.612,21.612,0,0,0-5.32,9.311,22.378,22.378,0,0,0-4.7-.978c-2.09-.364-2.346,2.8-.374,2.762a26.253,26.253,0,0,0,4.66-.187A29.188,29.188,0,0,0,38.619,72c-.628,6.107.744,12.249,2.175,18.158l.117.485c1.554,6.4,3.028,12.807,4.346,19.256s2.509,12.952,3.564,19.463c1.074,6.627,1.833,13.291,2.65,19.953a1.919,1.919,0,0,0,1.872,1.873,1.882,1.882,0,0,0,1.871-1.873c-.842-7.255-2.037-14.472-3.224-21.678-2.045-12.409-4.618-24.71-7.579-36.93l-.517-2.128c-1.332-5.519-2.54-11.206-1.872-16.9.544-4.636,2.481-9.579,6.311-12.458l.116-.087a1.8,1.8,0,0,0,.358-2.775l-1.683-1.648-3.371-3.292-.68-.665c-.567-.554-1.136-1.1-1.723-1.637-.355-.323-1.317-.938-1.387-1.468-.046-.346.364-.954.53-1.273l.761-1.536h0c.432-.876.851-1.758,1.273-2.64.874-1.825,1.761-3.645,2.616-5.479l5.138-11.014h0a71.174,71.174,0,0,1,4.636-9.26l.374-.56a6.38,6.38,0,0,0,.784-1.5,6.138,6.138,0,0,1,.778-1.637,6.017,6.017,0,0,1,3.7-1.974C60.745,10.742,60.676,10.48,60.513,10.464Zm39.518-2.893a.1.1,0,0,0-.026.195,11.342,11.342,0,0,1,4.332,2.355,6.713,6.713,0,0,1,1.55,1.848,3.154,3.154,0,0,1,.273.862l.018.1a3.054,3.054,0,0,0,.5,1.276l.047.074a39.823,39.823,0,0,1,3.674,7.812l2.189,5.878h0l2.188,5.879,2.116,5.683c.389,1.046.79,2.087,1.191,3.129.173.451.359.9.518,1.356a4.638,4.638,0,0,0,.143.53l-.018.031h0a9.863,9.863,0,0,1-2.285,1.9l-2.3,1.858h0c-1.638,1.325-3.318,2.613-4.907,4a1.684,1.684,0,0,0,.736,2.788c1.865.608,3.692,1.335,5.53,2.023.742.278,1.515.519,2.248.826l.446.193c.174.078.091.078.084.4a7.389,7.389,0,0,1-.158,1.021Q117.2,65.2,116.16,70.8q-3.674,19.786-8.712,39.278c-1.686,6.562-3.493,13.091-5.216,19.643-1.718,6.535-3.979,12.976-6.138,19.376-.609,1.8,2.252,2.581,2.846.784,2.488-7.527,4.764-15.12,7.114-22.689,4.176-13.451,7.467-27.193,10.377-40.969q2.164-10.241,3.957-20.556.339-1.952.665-3.907l.317-1.917c.217-1.366.341-2.789-.721-3.871-1.036-1.055-2.816-1.429-4.18-1.924l-.1-.036c-.868-.324-1.742-.636-2.613-.958,1.283-1.01,2.55-2.043,3.829-3.053,1.032-.815,2.081-1.613,3.1-2.446a3.941,3.941,0,0,0,1.61-2.687,7.666,7.666,0,0,0-.795-3.25l-.038-.1c-.387-1.046-.776-2.091-1.174-3.133l-2.465-6.45h0c-1.567-4.1-3.067-8.231-4.715-12.3a43.57,43.57,0,0,0-2.2-4.715c-.4-.734-.839-1.451-1.311-2.144a4.384,4.384,0,0,0-1.827-1.583c-1.31-.685-2.337-1.833-3.653-2.54A8.638,8.638,0,0,0,100.032,7.571ZM95.78.259a.1.1,0,0,0-.185.05,38.359,38.359,0,0,0,.747,6.133c.3,2.021.395,4.155.827,6.155a1.561,1.561,0,0,0,.052.275l.021.069h0a1.813,1.813,0,0,0,1.24,1.184c-.183,1.015-.356,2.032-.5,3.055-.249,1.757-.477,3.518-.7,5.278l-.268,2.113q-.379,2.987-.742,5.976a17.036,17.036,0,0,1-1.9.657,25.4,25.4,0,0,1-4.549.75c-3.128.307-6.28.449-9.419.623l-.672.038a66.426,66.426,0,0,1-10.6-.124,36.746,36.746,0,0,1-5.179-.908c-.865-.217-1.706-.541-2.569-.753a3.1,3.1,0,0,1-.829-.406.9.9,0,0,0-.539-.33l-.063-.011h0l-.062-.009-.022-.01,0,.007a1.868,1.868,0,0,0-.5,0c-.063-1.553-.131-3.107-.217-4.66-.229-4.171-.863-8.522-.017-12.657a.109.109,0,0,0-.21-.058c-1.661,4.377-1.474,9.164-1.558,13.771-.082,4.505-.032,9.014-.01,13.52a2.268,2.268,0,0,0-.838.585,1.392,1.392,0,0,0,0,1.933,2.633,2.633,0,0,0,.852.486q.025,5.872.084,11.745a1.619,1.619,0,0,0,.028,2.508c.14,12.678.37,25.357.561,38.034l.4,26.6h0c.053,3.543.142,7.087.173,10.63l-.025.01h0l-.088.041c-.149.07-.371.183-.417.3a.155.155,0,0,0-.014.067,1.226,1.226,0,0,0-.695,2.08l.11.133h0a1.274,1.274,0,0,0,1.142.369c0,2.211-.018,4.423-.012,6.634,0,.676.013,1.351.025,2.027l.027,1.619c.019.924.1,2.1,1.047,2.514a1.712,1.712,0,0,0,2.457-1,1.573,1.573,0,0,0,.049-.858c.014-.436.082-.942.073-1.347l-.035-1.688h0c0-.261-.016-.521-.023-.781l.031,0h0c3.793.184,7.613.094,11.412.092l1.69,0c1.41,0,2.823-.007,4.23-.061l.528-.022c1.054-.05,2.163-.065,3.255-.16q-.209,1.683-.385,3.369a1.985,1.985,0,0,0,1.971,1.972,2.036,2.036,0,0,0,1.971-1.972c.658-4.978.928-10,1.557-14.985.563-4.462,1.052-8.934,1.548-13.4l.166-1.49q2.725-24.4,5.268-48.827l.786-7.612c.793-7.672,1.592-15.345,2.265-23.028q.577-6.589,1.073-13.183c.245-3.23.4-6.443.5-9.667a1.646,1.646,0,0,0,.418-1.613c-.1-.358-.221-.713-.347-1.068q.012-.523.023-1.047a.48.48,0,0,0-.6-.446c-.488-1.182-1.026-2.354-1.474-3.525A38.231,38.231,0,0,0,95.78.259Zm40.541,20.48c-7.589-4.758-16.622-8.181-25.669-7.812-.206.008-.264.322-.05.37a85.138,85.138,0,0,1,14.273,4.3,54.021,54.021,0,0,1,12.819,7.6,56.4,56.4,0,0,1,16.389,21.553,98.409,98.409,0,0,1,4.964,15.293c1.39,5.493,2.536,11.045,3.488,16.63a287.469,287.469,0,0,1,3.56,33.36c.593,11.366.349,22.74.771,34.108a1.516,1.516,0,0,0,3.03,0c.958-12.924.427-26.055-.459-38.97a279.148,279.148,0,0,0-4.429-34.62l-.2-.99c-2.095-10.569-4.622-21.394-9.686-30.965A53.029,53.029,0,0,0,136.321,20.739ZM30.943,71.251a.12.12,0,0,0-.229,0c-.865,2.423-.9,5.156-1.126,7.71l-.018.2c-.221,2.329-.387,4.661-.541,7l-.058.875c-.619,9.521-1.394,19.033-2.561,28.5-1.163,9.435-2.735,18.805-4.436,28.156a2,2,0,0,0,1.363,2.4,1.972,1.972,0,0,0,2.4-1.364c1.055-5.367,1.909-10.742,2.671-16.156q2.01-14.3,2.984-28.716.484-7.237.6-14.482c.036-2.243-.022-4.492-.141-6.733l-.029-.517A25.13,25.13,0,0,0,30.943,71.251Zm82,60.646a.119.119,0,0,0-.163.162,41.07,41.07,0,0,0,5.378,6.479c2.008,2.122,3.967,4.309,6.017,6.389,1.48,1.5,3.862-.921,2.3-2.3-2.2-1.939-4.493-3.781-6.729-5.676l-.978-.83A35.266,35.266,0,0,0,112.942,131.9Zm-69.791-1.2a.2.2,0,0,0-.311-.24c-1.185.964-2.247,2.114-3.392,3.132s-2.309,1.948-3.517,2.865-2.452,1.8-3.725,2.64a36.237,36.237,0,0,1-3.249,1.826,2.045,2.045,0,0,0-1.365.794,2.134,2.134,0,0,0,.168,2.829l.149.117h0a2.255,2.255,0,0,0,3.08,0c1.068-.956,2.077-2.009,3.1-3.019l.308-.3c1.1-1.071,2.176-2.177,3.19-3.332l.917-1.044A34.007,34.007,0,0,0,43.151,130.7Zm5.46-111.917c.2-.131.075-.482-.168-.4L48,18.539A30.557,30.557,0,0,0,42.519,20.9a36.248,36.248,0,0,0-5.1,3.721,47.351,47.351,0,0,0-8.552,9.963c-4.82,7.3-7.8,15.655-10.208,24.018A264.62,264.62,0,0,0,12.5,85.766c-1.64,9.283-2.9,18.649-3.735,28.039q-.615,6.939-.823,13.9c-.071,2.388-.069,4.774-.049,7.162.005.615,0,1.229-.006,1.843l-.023,1.842a14.324,14.324,0,0,0,.125,3.526c.445,1.832,3.472,1.49,3.373-.382a10.553,10.553,0,0,0,.071-1.911c.015-.084.03-.168.047-.255a1.036,1.036,0,0,0-.089-.673c-.016-.31-.03-.617-.035-.919-.02-1.23-.019-2.455.015-3.685.072-2.592.175-5.185.279-7.776.208-5.178.5-10.358.917-15.524A260.116,260.116,0,0,1,22.287,57.59,81.824,81.824,0,0,1,32.762,34.731a60.284,60.284,0,0,1,7.131-8.569A57.946,57.946,0,0,1,48.611,18.783Zm35.828,115.9-.359,2.6c-.179,1.3-.357,2.6-.525,3.9-1.145-.157-2.317-.223-3.421-.321-1.932-.171-3.877-.254-5.815-.334-4.007-.165-8.034-.452-12.045-.432-.042,0-.081,0-.119.006l-.2-5.123h0l2.818,0h0c2.388,0,4.775-.024,7.163-.045,2.15-.018,4.3-.021,6.452-.066l.921-.022C80.941,134.8,82.741,134.887,84.439,134.687Zm-22.72-7.436c.115.014.232.025.357.031.558.023,1.12.007,1.679.012,1.189.01,2.379.018,3.568.018q3.568,0,7.136.043c2.449.029,4.9.072,7.345.077,1.186,0,2.369-.03,3.555-.063-.192,1.686-.392,3.371-.614,5.052a45.713,45.713,0,0,0-5.623-.141l-.234,0c-2.456-.042-4.915-.011-7.373-.008q-3.792,0-7.584.032l-2.077.017h0l0-.1h0C61.789,130.561,61.75,128.907,61.719,127.251Zm24.553-8.066c-.23,1.99-.446,3.984-.667,5.977-.146-.023-.295-.042-.446-.058-1.188-.124-2.374-.231-3.566-.3-2.377-.147-4.754-.225-7.135-.289q-3.672-.1-7.346-.15c-1.189-.017-2.378-.015-3.568-.007-.558,0-1.122-.014-1.679.024-.067,0-.13.011-.193.018l-.042-2.992q-.01-.749-.023-1.5c1.839.114,3.709.07,5.546.071h.424c2.309.011,4.619-.021,6.927-.069,2.382-.05,4.758-.128,7.136-.28.963-.062,1.919-.144,2.877-.25l.479-.054C85.414,119.276,85.844,119.237,86.273,119.185Zm-24.854-8.444c4.428.351,8.834.5,13.274.542l.666.006c3.925.03,7.881.192,11.814.088q-.353,3.059-.706,6.118c-.563-.026-1.129-.026-1.68-.046-1.12-.04-2.236-.05-3.357-.053-2.309-.005-4.617.015-6.926.01-2.379,0-4.758-.045-7.137-.09-1.929-.036-3.878-.181-5.812-.176l-.137-6.4Zm-.188-8.7a6.906,6.906,0,0,0,1.784.212l1.714.085c.8.039,1.589.076,2.384.105q3.975.146,7.949.272c2.716.086,5.444.136,8.16.05,1.33-.042,2.649-.111,3.976-.222.328-.028.662-.046,1-.069q-.463,4.053-.93,8.106c-3.915-.48-7.859-.78-11.769-1.277l-3.535-.451c-3.533-.451-7.064-.894-10.61-1.267l-.12-5.544Zm-.189-8.8a13.426,13.426,0,0,0,2.335.222l.134.009c1.37.1,2.743.156,4.117.19,2.691.066,5.384.1,8.077.116l1.619.01c2.158.013,4.315.018,6.474-.032,1.385-.032,2.767-.1,4.15-.169.414-.021.838-.035,1.263-.056q-.434,3.838-.873,7.675c-.455-.072-.911-.127-1.347-.2-1.115-.188-2.229-.339-3.352-.473-2.433-.292-4.879-.5-7.322-.679-2.51-.182-5.021-.336-7.531-.512l-1.778-.125q-.888-.062-1.778-.117a21.555,21.555,0,0,1-3.193-.212,1.466,1.466,0,0,0-.876-.075l-.12-5.57Zm-.227-10.3a1.615,1.615,0,0,0,1.113.564c2.417.314,4.9.364,7.333.512l.43.027c2.516.166,5.034.3,7.552.43q3.881.206,7.763.34c1.1.038,2.2.043,3.3.029l.471-.007c.452-.008.926-.007,1.4-.022q-.394,3.589-.8,7.176c-.484-.053-.967-.093-1.437-.143-1.383-.146-2.764-.291-4.15-.4-2.626-.207-5.255-.332-7.886-.462-2.692-.133-5.386-.222-8.078-.348-1.306-.061-2.611-.137-3.912-.257a14.587,14.587,0,0,0-2.948-.281Q60.9,86.521,60.815,82.942ZM60.6,73.716a1.078,1.078,0,0,0,.148.183c1.064,1.052,2.375.971,3.785,1.081l.087.007q2.073.174,4.148.327c2.765.2,5.536.339,8.305.464,2.834.127,5.686.215,8.523.157,1.817-.037,3.719-.031,5.572-.208q-.427,3.952-.859,7.9c-.521-.1-1.045-.174-1.542-.252-1.252-.2-2.5-.4-3.764-.54q-3.774-.435-7.553-.805c-2.156-.209-4.311-.421-6.468-.612l-1.294-.112c-2.574-.217-5.181-.574-7.763-.627a1.415,1.415,0,0,0-1.15.589Q60.693,77.494,60.6,73.716Zm-.179-7.468c.658.08,1.366.034,1.972.054q2.3.075,4.6.142l9.2.272h0c3.133.092,6.277.162,9.412.117,1.379-.019,2.764-.022,4.142-.1l.459-.028c.567-.038,1.263-.043,1.943-.112l-.8,7.437h0c-1.844-.267-3.744-.366-5.573-.522l-.391-.034c-2.7-.246-5.406-.408-8.107-.591-2.771-.188-5.539-.416-8.306-.649-1.383-.116-2.766-.232-4.148-.359l-.171-.017c-1.305-.136-2.533-.427-3.689.343a1.2,1.2,0,0,0-.393.431Q60.5,69.442,60.423,66.248Zm-.214-8.679c5.6.226,11.21.4,16.819.472,3.158.042,6.311.013,9.467-.053,1.369-.029,2.749-.094,4.117-.2l.512-.041c.65-.055,1.334-.094,2.014-.16q-.422,3.835-.837,7.672c-.669-.124-1.368-.182-1.955-.257l-.133-.018c-1.457-.2-2.928-.317-4.392-.446-2.851-.251-5.717-.413-8.576-.551-2.927-.141-5.856-.26-8.784-.391l-2.928-.131L64.069,63.4l-2.092-.087c-.344-.014-.7-.061-1.046-.043l-.1-.013-.122-.014a1.356,1.356,0,0,0-.3-.175l-.065-.025Zm33.848-8.225q-.39,3.453-.772,6.907c-.8-.091-1.608-.142-2.372-.21-1.539-.138-3.085-.259-4.629-.33L83.2,55.567c-2.057-.1-4.113-.187-6.172-.262q-8.45-.308-16.9-.729-.058-2.343-.122-4.685a1.545,1.545,0,0,0,1.173.479c5.91-.016,11.825.018,17.735-.079,2.958-.049,5.912-.12,8.867-.272,1.446-.074,2.9-.226,4.334-.424C92.732,49.509,93.4,49.449,94.057,49.344Zm.946-8.2q-.417,3.537-.818,7.076c-.734-.131-1.492-.2-2.177-.294-1.471-.2-2.952-.36-4.433-.443-2.883-.163-5.768-.245-8.656-.307C73.01,47.048,67.1,47.049,61.184,47a1.528,1.528,0,0,0-1.238.543q-.062-2.209-.128-4.418c.57-.06,1.136-.146,1.66-.182q2.415-.169,4.831-.308,5.043-.289,10.091-.5t10.1-.414l1.472-.054A68.747,68.747,0,0,0,95,41.142Zm1.059-8.88q-.434,3.582-.858,7.165l-.086.739h0a58.63,58.63,0,0,0-8.621-.828q-5.05-.215-10.1-.207t-10.091.229q-2.521.1-5.041.241c-.461.025-1,.012-1.56.02-.012-.375-.023-.751-.036-1.126q-.076-2.281-.153-4.561A15.747,15.747,0,0,0,63.274,35l.13.029a43.386,43.386,0,0,0,5.734.866,66.541,66.541,0,0,0,11.372-.113l.661-.057a62.48,62.48,0,0,0,9.966-1.473,17.9,17.9,0,0,0,4.485-1.731C95.765,32.441,95.912,32.354,96.062,32.261ZM64.142,3.882a.16.16,0,0,0-.29-.038A19.27,19.27,0,0,0,62.93,6.62c-.334.977-.645,1.962-1.013,2.927a40.111,40.111,0,0,1-2.757,5.824c-1.071,1.85,1.927,3.171,2.715,1.145a35.46,35.46,0,0,0,1.887-6.46,25.479,25.479,0,0,0,.431-3.265A10.08,10.08,0,0,0,64.142,3.882Z" transform="translate(-7.817 8.877)"/>
            </g>
            <g id="head_Long-Curly" data-name="head/Long-Curly" transform="translate(6.417 0)">
              <path id="_-Background-6" data-name="ðŸŽ¨-Background" class="cls-1" d="M27.417,31.009c13.9-11.3,36.162-14.966,51.036-3.568,11.557,10.7,16.34,41.095,14.295,56.369-.569,9.8-8.051,20.9-19.034,17.8-1.865-.183-3.676-.9-5.558-1.048a26.518,26.518,0,0,0-6.767.054c-4.9.692-9.237,3.293-13.989,4.509a33.11,33.11,0,0,1-26.248-4.343C-3.931,84.287,7.43,46.976,27.417,31.009Z" transform="translate(16.488 8.877)"/>
              <path id="_-Ink-9" data-name="ðŸ–-Ink" class="cls-2" d="M22.515,105.4q-.387-.134-.771-.276a.765.765,0,0,1-.076.171c-.036.089-.072.175-.112.262a3.069,3.069,0,0,0,.959-.157M23.031-4.084a6.045,6.045,0,0,1,.393-.738,4.6,4.6,0,0,0-1.044.484c.22.074.436.159.651.253M77.916,29.343l.044-.007a3.562,3.562,0,0,0-.895-1.318c-.067-.061-.139-.118-.208-.177a10.618,10.618,0,0,1,1.059,1.5M-22.51,81.832c.186-1.763.423-3.519.729-5.265a15.084,15.084,0,0,1,1.392-4.943,36.338,36.338,0,0,1,2.7-4.212,18.135,18.135,0,0,0-.5-1.79c-.951-2.9-1.887-6.573.088-9.264a6.487,6.487,0,0,1,1.659-1.532,4.487,4.487,0,0,0,.934-.6c.148-.18.1-.083.1-.171.036-.478-1.084-1.486-1.346-1.864a9.292,9.292,0,0,1-1.134-2.293c-1.1-3.187-.353-6.7.31-9.891a39.633,39.633,0,0,0,.865-5.119,31.244,31.244,0,0,0-.235-4.823,9.343,9.343,0,0,1,.59-4.713A5.179,5.179,0,0,1-14.9,23.5c.6-.484,1.348-.765,1.933-1.247s.416-1.129.264-1.792a13.758,13.758,0,0,1-.5-2.724,6.679,6.679,0,0,1,1.647-4.426A6.582,6.582,0,0,1-7.326,11c.752-.089,1.492.061,2.24.009s.9-.421,1.039-1.1c.321-1.549.19-3.079.953-4.525A5.932,5.932,0,0,1,.113,2.713,13.931,13.931,0,0,1,7.951,2.52C9.467-1.943,14.2-4.87,18.86-4.906a6.6,6.6,0,0,1,3.363-2.7c2.324-.9,4.785-.374,7.206-.374h.011Q29.805-8,30.169-8q.342-.019.685-.057c2.755-.326,5.48-1.454,8.21-.349a5.812,5.812,0,0,1,2.8,2.219c.923.251,1.834.539,2.728.873A11.648,11.648,0,0,1,54.256.236C57.013-.077,60,.453,61.828,2.706a6.423,6.423,0,0,1,1.087,2.006A9.019,9.019,0,0,1,67.62,8a5.132,5.132,0,0,1,.53,4.959,9.656,9.656,0,0,1,3.581,4.958,7.581,7.581,0,0,1,.192,3.728,12.749,12.749,0,0,1,4.765,2.125c1.509,1.1,3.394,2.848,3.493,4.861a3.407,3.407,0,0,1-.01.443c3.322-.233,6.71.33,8.955,2.994a8.422,8.422,0,0,1,1.969,6.917,18.424,18.424,0,0,1,10.3,5.926c1.895,2.221,3.579,5.045,3.477,8.069a7.376,7.376,0,0,1-.615,2.676v0c.158.3.321.63.478.983A14.642,14.642,0,0,1,109.961,64c.809,2.4,1.318,5.514.454,7.955a5.814,5.814,0,0,1-.493,1.048c.163.174.317.347.467.522,1.65,1.929,3.321,4.36,3.207,7.017a5.6,5.6,0,0,1-1.092,3.029c2.282,2.315,4.12,5.235,3.938,8.5a8.785,8.785,0,0,1-4.154,7.084,6.865,6.865,0,0,1-1.84,6.2,6.619,6.619,0,0,1-2.911,1.716,6.426,6.426,0,0,1-4.95,5.246,7.876,7.876,0,0,1-1.354.211,8.376,8.376,0,0,1-7.018-.034,7.2,7.2,0,0,1-2.51,2,8.159,8.159,0,0,1-1.276.5c-3.148.932-6.376-.332-9.129-1.807-.089-.047-.251-.106-.4-.171a6.449,6.449,0,0,1-1.434,1.052,7.479,7.479,0,0,1-4.131.939,10.186,10.186,0,0,1-4.453-1.431,4.94,4.94,0,0,1-.594.063,5.782,5.782,0,0,1-3.414-.968,6.747,6.747,0,0,1-2.057-.042,4.832,4.832,0,0,1-4.234-1.218,19.2,19.2,0,0,1-1.464-1.441,5.551,5.551,0,0,0-1.466-.97c-1.384-.81-1.551-2.862-.951-4.346a2.138,2.138,0,0,1-.18-.87,13.5,13.5,0,0,1,2.88-7.615,25.83,25.83,0,0,1,2.32-2.866,7.35,7.35,0,0,1,2.634-2.158c.061-.044.125-.089.188-.131a6.047,6.047,0,0,1-.26-2.082,4.276,4.276,0,0,1,.661-2,14.273,14.273,0,0,1-1.54-7.926A13.62,13.62,0,0,1,61.2,74.179a14.237,14.237,0,0,1-.37-3.356c.008-.537.2-1.215.209-1.771-.03.175-.258-.48-.347-.643-1.018-1.891-2.326-3.367-2.544-5.6A5.677,5.677,0,0,1,59.118,59a9.484,9.484,0,0,1,.294-5.977,11.665,11.665,0,0,1,.733-1.463c-.129-.393-.247-.79-.4-1.148-.059-.142-.118-.285-.177-.429a14.488,14.488,0,0,1-1.553-1.6,7.239,7.239,0,0,1-1.846-4.155,6.539,6.539,0,0,1,.37-2.3c.1-.34.163-.719.283-1.05.067-.184.23-.372.287-.545l.032-.1a.661.661,0,0,1-.015-.178c0-.759-.1-1.5-.106-2.232a6.119,6.119,0,0,1-2.482,1.532,7.024,7.024,0,0,1-5.611-.613A17.379,17.379,0,0,1,42.9,41.582c-1.278.27-2.558.159-3.841.326a18.231,18.231,0,0,0-3.706,1.156c-2.671.966-5.334,1.957-8.013,2.9a13.32,13.32,0,0,1-6.769.934,7.355,7.355,0,0,1-2.521,2.418,7.461,7.461,0,0,1-2.45.873,4.483,4.483,0,0,0-2.269.6,21.592,21.592,0,0,0-1.519,1.834A7.9,7.9,0,0,1,9.685,54.21a8.332,8.332,0,0,1-1.912.7c.057,1.444.112,2.885.129,4.331.031,3.141.019,6.281.061,9.422s.142,6.26.306,9.386a47.307,47.307,0,0,0,1.076,8.739A22.226,22.226,0,0,0,30.081,103.43a25.764,25.764,0,0,0,8.508-1.152c2.86-.882,5.415-2.7,8.347-3.253a.944.944,0,0,1,1.05,1.369,7.871,7.871,0,0,1-2.932,2.82,23.242,23.242,0,0,1-4.23,1.915,29.4,29.4,0,0,1-8.3,1.663,26.419,26.419,0,0,1-6.429-.435,11.82,11.82,0,0,1-.608,1.317c-.03.061-.129.019-.11-.045a1.571,1.571,0,0,0,.061-.275,5.581,5.581,0,0,1-2.932,1.877,6.521,6.521,0,0,1-2.455.195,7.418,7.418,0,0,1-.765-.129,6.835,6.835,0,0,1-2.966,1.458,2.261,2.261,0,0,1-1.646,2.65,4.558,4.558,0,0,1-1.568.087,6.351,6.351,0,0,1-1.34.45,2.087,2.087,0,0,1-1.825-.486,3.128,3.128,0,0,0-.731.59c-.974,1.175-3.074.239-3.167-1.12-.308,0-.619,0-.93.014l-.224.1a5.689,5.689,0,0,1-4.268.687,3.872,3.872,0,0,1-.76-.343,7.76,7.76,0,0,1-3.176-.249,5.028,5.028,0,0,1-1.726-.957,8.022,8.022,0,0,1-5.052.1,6.242,6.242,0,0,1-2.926-2.1,6.317,6.317,0,0,1-3.133-.729,9.055,9.055,0,0,1-3.663-4.163A33.928,33.928,0,0,1-23.1,93.707c-.412-3.973.175-7.926.589-11.876" transform="translate(23.239 8.877)"/>
            </g>
            <g id="face_Smiling-2" data-name="face/Smiling" transform="translate(39.188 59.178)">
              <path id="_-Ink-10" data-name="ðŸ–-Ink" class="cls-2" d="M30.32,50.92a8.6,8.6,0,0,0,3.614-2.781,1.669,1.669,0,0,0,.338-1.3,1.872,1.872,0,0,0-.728-1.172,1.742,1.742,0,0,0-1.305-.353,1.635,1.635,0,0,0-1.1.73l-.065.09a5.694,5.694,0,0,1-2.086,1.751,4.7,4.7,0,0,1-2.582.454,6.93,6.93,0,0,1-4.208-2.413c-.158-.161-.316-.327-.474-.5a.746.746,0,0,0-.394-.3.846.846,0,0,0-.543.008.862.862,0,0,0-.427.324.791.791,0,0,0-.135.524,5.429,5.429,0,0,0,1.79,3.431,7.677,7.677,0,0,0,8.309,1.5ZM25.2,30.512c-1.6.97-4.026,3.232-2.31,5.637,2.02,2.12,4.929-.311,6.362-1.41,1.329-.852,2.822,1.34,1.589,2.335-10.357,7.671-14.56-6.308-6.448-7.7C25.288,29.218,25.62,30.212,25.2,30.512Zm18.56-8.923c-.176-2.189-3.508-2.686-3.84-.52a8.869,8.869,0,0,0,.926,5.469,1.629,1.629,0,0,0,3.091-.629A17.643,17.643,0,0,0,43.762,21.589ZM18.4,20.62a1.777,1.777,0,0,0-1.939-.789c-2.511.734-1.771,4.3-.889,6.036a1.747,1.747,0,0,0,2.728.352c1.141-1.353,1.687-4.056.237-5.39A1.835,1.835,0,0,0,18.4,20.62Zm22.487-8.609-.4-.069c-1.227-.212-2.753-.416-3.621.571a1.434,1.434,0,0,0,0,2c1.088.881,2.292.54,3.6.614a14.3,14.3,0,0,1,3.143.536A21.359,21.359,0,0,1,49.668,18.8c.255.171.515-.155.393-.393a12.526,12.526,0,0,0-5.464-5.1A13.514,13.514,0,0,0,40.883,12.011Zm-20.2-.983-.3.062c-3.3.691-7.6,2.071-9.16,5.317-.06.459,0,.557.055.622l.017.021a.427.427,0,0,0,.275.193l.167-.042a9.485,9.485,0,0,0,1.834-.716l.6-.293a16.4,16.4,0,0,1,2.127-.907,25.034,25.034,0,0,1,4.845-1.07,1.987,1.987,0,0,0,.972-.369,1.461,1.461,0,0,0,.544-.828,1.485,1.485,0,0,0-.168-1.241,1.573,1.573,0,0,0-.767-.661A1.8,1.8,0,0,0,20.685,11.028Z" transform="translate(-11.197 -10.99)"/>
            </g>
          </g>
        </g>
      </g>
    </g>
  </g>
</svg>
