<svg xmlns="http://www.w3.org/2000/svg" width="122" height="47.242" viewBox="0 0 122 47.242">
  <defs>
    <style>
      .cls-1 {
        fill: #282829;
      }

      .cls-2 {
        fill: #fff;
      }
    </style>
  </defs>
  <g id="Layer_2" data-name="Layer 2" transform="translate(0 0.003)">
    <g id="Layer_8" data-name="Layer 8" transform="translate(0 -0.003)">
      <path id="Path_1" data-name="Path 1" class="cls-1" d="M.438,98.75h5.7a3.508,3.508,0,0,1,3.508,3.508v30.257a.438.438,0,0,1-.438.438h-5.7A3.508,3.508,0,0,1,0,129.445V99.188a.438.438,0,0,1,.438-.438Z" transform="translate(0 -85.711)"/>
      <path id="Path_2" data-name="Path 2" class="cls-1" d="M171.818,98.75h5.7a3.508,3.508,0,0,1,3.508,3.508v30.257a.438.438,0,0,1-.438.438h-5.7a3.508,3.508,0,0,1-3.508-3.508V99.188A.438.438,0,0,1,171.818,98.75Z" transform="translate(-148.752 -85.711)"/>
      <path id="Path_3" data-name="Path 3" class="cls-1" d="M77.488,1.69h7.893A3.508,3.508,0,0,1,88.89,5.2V12.91a.438.438,0,0,1-.437.44H80.558A3.508,3.508,0,0,1,77.05,9.84V2.127A.438.438,0,0,1,77.488,1.69Z" transform="translate(-66.877 -1.467)"/>
      <path id="Path_4" data-name="Path 4" class="cls-1" d="M330.751,13.484v.561a6.349,6.349,0,0,0,.107,1.215,2.113,2.113,0,0,0,.4.924,1.967,1.967,0,0,0,.792.588,3.135,3.135,0,0,0,1.241.214,2.455,2.455,0,0,0,1.584-.574,2.15,2.15,0,0,0,.709-1.776,3.182,3.182,0,0,0-.174-1.109,2.195,2.195,0,0,0-.562-.844,4.078,4.078,0,0,0-1.056-.68,15.157,15.157,0,0,0-1.615-.628,13.624,13.624,0,0,1-2.214-.935A5.966,5.966,0,0,1,328.4,9.251a4.244,4.244,0,0,1-.924-1.575,6.646,6.646,0,0,1-.294-2.069,5.346,5.346,0,0,1,1.577-4.225A6.269,6.269,0,0,1,333.079,0a9.44,9.44,0,0,1,2.363.28,4.963,4.963,0,0,1,1.87.908,4.225,4.225,0,0,1,1.229,1.6,5.629,5.629,0,0,1,.441,2.336v.535H335.3a3.826,3.826,0,0,0-.481-2.1,1.771,1.771,0,0,0-1.6-.734,2.661,2.661,0,0,0-1.068.187,1.782,1.782,0,0,0-.68.494,1.68,1.68,0,0,0-.347.713,3.566,3.566,0,0,0-.094.828,2.748,2.748,0,0,0,.374,1.481,3.385,3.385,0,0,0,1.6,1.1l2.964,1.281a9.147,9.147,0,0,1,1.789,1,4.885,4.885,0,0,1,1.108,1.122,3.735,3.735,0,0,1,.574,1.32,7.389,7.389,0,0,1,.166,1.6,5.251,5.251,0,0,1-1.748,4.394,7.7,7.7,0,0,1-4.875,1.374q-3.259,0-4.66-1.415a5.541,5.541,0,0,1-1.4-4.06v-.775Z" transform="translate(-283.747 0.003)"/>
      <path id="Path_5" data-name="Path 5" class="cls-1" d="M453.265,2.83V5.982h-6.81v4.489h6.41V13.62h-6.41v5.127h7.077V21.9H442.61V2.83Z" transform="translate(-384.17 -2.456)"/>
      <path id="Path_6" data-name="Path 6" class="cls-1" d="M545,2.828h6.43a9.334,9.334,0,0,1,2.176.24,4.456,4.456,0,0,1,1.723.8,3.688,3.688,0,0,1,1.121,1.5,5.89,5.89,0,0,1,.4,2.3,4.769,4.769,0,0,1-.721,2.658,3.617,3.617,0,0,1-2.159,1.509v.054a3.783,3.783,0,0,1,2.538,1.36,4.68,4.68,0,0,1,.935,3.075,7.6,7.6,0,0,1-.292,2.132,4.334,4.334,0,0,1-1,1.776,5,5,0,0,1-1.849,1.216,7.623,7.623,0,0,1-2.818.454H545Zm3.846,7.824h1.095a3.81,3.81,0,0,0,2.337-.573,2.313,2.313,0,0,0,.734-1.937,2.4,2.4,0,0,0-.668-1.922,3.245,3.245,0,0,0-2.113-.561H548.84Zm0,8.413h1.5a3.763,3.763,0,0,0,2.245-.615,2.593,2.593,0,0,0,.846-2.264,3.62,3.62,0,0,0-.227-1.374,2.318,2.318,0,0,0-.614-.882,2.227,2.227,0,0,0-.924-.467,4.872,4.872,0,0,0-1.175-.132H548.84Z" transform="translate(-473.041 -2.454)"/>
      <path id="Path_7" data-name="Path 7" class="cls-1" d="M660.655,13.484v.561a6.354,6.354,0,0,0,.107,1.215,2.113,2.113,0,0,0,.4.924,1.972,1.972,0,0,0,.792.588,3.142,3.142,0,0,0,1.242.214,2.455,2.455,0,0,0,1.584-.574,2.147,2.147,0,0,0,.708-1.776,3.183,3.183,0,0,0-.173-1.109,2.209,2.209,0,0,0-.574-.841,4.1,4.1,0,0,0-1.056-.68,15.08,15.08,0,0,0-1.616-.628,13.655,13.655,0,0,1-2.216-.935,5.975,5.975,0,0,1-1.563-1.188,4.26,4.26,0,0,1-.924-1.575,6.6,6.6,0,0,1-.294-2.069,5.349,5.349,0,0,1,1.575-4.225A6.294,6.294,0,0,1,662.979,0a9.44,9.44,0,0,1,2.363.28,4.963,4.963,0,0,1,1.87.908,4.225,4.225,0,0,1,1.228,1.6,5.628,5.628,0,0,1,.441,2.336v.535H665.2a3.826,3.826,0,0,0-.481-2.1,1.771,1.771,0,0,0-1.6-.734,2.66,2.66,0,0,0-1.068.187,1.788,1.788,0,0,0-.681.494,1.717,1.717,0,0,0-.347.713,3.64,3.64,0,0,0-.092.828,2.748,2.748,0,0,0,.374,1.481,3.353,3.353,0,0,0,1.6,1.109l2.964,1.281a9.121,9.121,0,0,1,1.79,1,4.883,4.883,0,0,1,1.108,1.122,3.734,3.734,0,0,1,.574,1.32,7.389,7.389,0,0,1,.16,1.6,5.249,5.249,0,0,1-1.749,4.394,7.7,7.7,0,0,1-4.873,1.374q-3.259,0-4.659-1.415a5.539,5.539,0,0,1-1.4-4.064v-.775Z" transform="translate(-570.088 0.003)"/>
      <path id="Path_8" data-name="Path 8" class="cls-1" d="M773.92,21.9V2.83h3.846V21.9Z" transform="translate(-671.736 -2.456)"/>
      <path id="Path_9" data-name="Path 9" class="cls-1" d="M829.75,2.828h6.435a9.345,9.345,0,0,1,2.18.24,4.459,4.459,0,0,1,1.716.8,3.7,3.7,0,0,1,1.122,1.5,5.89,5.89,0,0,1,.4,2.3,4.77,4.77,0,0,1-.721,2.658,3.617,3.617,0,0,1-2.156,1.509v.054a3.763,3.763,0,0,1,2.536,1.36,4.73,4.73,0,0,1,.935,3.075,7.66,7.66,0,0,1-.293,2.136,4.356,4.356,0,0,1-1,1.776,4.988,4.988,0,0,1-1.848,1.216,7.63,7.63,0,0,1-2.818.454H829.75Zm3.845,7.824h1.1a3.8,3.8,0,0,0,2.336-.573,2.321,2.321,0,0,0,.735-1.937,2.4,2.4,0,0,0-.668-1.922,3.245,3.245,0,0,0-2.113-.561h-1.386Zm0,8.413h1.5a3.763,3.763,0,0,0,2.245-.615,2.606,2.606,0,0,0,.853-2.264,3.593,3.593,0,0,0-.227-1.374,2.3,2.3,0,0,0-.614-.882,2.219,2.219,0,0,0-.924-.467,4.863,4.863,0,0,0-1.175-.132h-1.653Z" transform="translate(-720.194 -2.454)"/>
      <rect id="Rectangle_76" data-name="Rectangle 76" class="cls-1" width="78.825" height="23.898" rx="3" transform="translate(43.175 23.344)"/>
      <path id="Path_10" data-name="Path 10" class="cls-2" d="M409.18,216.62a9.376,9.376,0,0,1,.438-2.866,7.21,7.21,0,0,1,1.314-2.435,6.427,6.427,0,0,1,2.185-1.687,7.622,7.622,0,0,1,6.074,0,6.415,6.415,0,0,1,2.18,1.691,7.211,7.211,0,0,1,1.32,2.435,9.565,9.565,0,0,1,0,5.725,7.222,7.222,0,0,1-1.32,2.435,6.307,6.307,0,0,1-2.18,1.681,7.726,7.726,0,0,1-6.074,0,6.32,6.32,0,0,1-2.18-1.681,7.222,7.222,0,0,1-1.314-2.435A9.372,9.372,0,0,1,409.18,216.62Zm1.936,0a8.388,8.388,0,0,0,.285,2.17,5.888,5.888,0,0,0,.9,1.926,4.586,4.586,0,0,0,1.569,1.374,5.267,5.267,0,0,0,4.564,0A4.586,4.586,0,0,0,420,220.715a5.888,5.888,0,0,0,.9-1.926,8.4,8.4,0,0,0,0-4.339,5.876,5.876,0,0,0-.9-1.926,4.586,4.586,0,0,0-1.569-1.374,5.267,5.267,0,0,0-4.564,0,4.586,4.586,0,0,0-1.569,1.374,5.875,5.875,0,0,0-.9,1.926A8.374,8.374,0,0,0,411.115,216.62Z" transform="translate(-355.154 -181.404)"/>
      <path id="Path_11" data-name="Path 11" class="cls-2" d="M528.073,216.1H526.3v-1.53h1.773v-1.566a2.472,2.472,0,0,1,.743-1.946,3.155,3.155,0,0,1,2.171-.66,4.548,4.548,0,0,1,.56.04,3.038,3.038,0,0,1,.56.123v1.5a2.113,2.113,0,0,0-.489-.112,4.422,4.422,0,0,0-.489-.03,1.683,1.683,0,0,0-.978.244,1.074,1.074,0,0,0-.346.937v1.47h2.037V216.1h-2.037v9.009h-1.732Z" transform="translate(-456.81 -182.62)"/>
      <path id="Path_12" data-name="Path 12" class="cls-2" d="M577.612,216.1H575.84v-1.53h1.772v-1.566a2.47,2.47,0,0,1,.745-1.946,3.156,3.156,0,0,1,2.169-.66,4.532,4.532,0,0,1,.56.04,3.059,3.059,0,0,1,.561.123v1.5a2.131,2.131,0,0,0-.49-.112,4.408,4.408,0,0,0-.489-.03,1.683,1.683,0,0,0-.978.244,1.074,1.074,0,0,0-.346.937v1.47h2.037V216.1h-2.037v9.009h-1.732Zm5.413-3.422v-2.113h1.732v2.113Zm0,12.428V214.572h1.732v10.536Z" transform="translate(-499.809 -182.62)"/>
      <path id="Path_13" data-name="Path 13" class="cls-2" d="M671.076,243.787a2.426,2.426,0,0,0-2.608-2.1,3.244,3.244,0,0,0-1.57.346,2.8,2.8,0,0,0-1.007.918,3.829,3.829,0,0,0-.54,1.314,7.114,7.114,0,0,0-.164,1.538,5.873,5.873,0,0,0,.173,1.426,3.851,3.851,0,0,0,.54,1.233,2.742,2.742,0,0,0,.959.866,2.873,2.873,0,0,0,1.4.326,2.836,2.836,0,0,0,2.007-.672,3.039,3.039,0,0,0,.887-1.9h1.772a4.861,4.861,0,0,1-1.452,3.016,4.559,4.559,0,0,1-3.189,1.056,5.476,5.476,0,0,1-2.13-.388,4.111,4.111,0,0,1-1.547-1.1,4.742,4.742,0,0,1-.937-1.7,7.079,7.079,0,0,1-.317-2.171,7.745,7.745,0,0,1,.306-2.21,5.1,5.1,0,0,1,.924-1.793,4.34,4.34,0,0,1,1.559-1.2,5.079,5.079,0,0,1,2.18-.434,6.371,6.371,0,0,1,1.681.214,4.093,4.093,0,0,1,1.385.66,3.6,3.6,0,0,1,.988,1.132,4.155,4.155,0,0,1,.49,1.62Z" transform="translate(-575.771 -208.449)"/>
      <path id="Path_14" data-name="Path 14" class="cls-2" d="M759.612,247.6a4.213,4.213,0,0,1-1.528,2.67,4.77,4.77,0,0,1-2.975.9,5.4,5.4,0,0,1-2.19-.408,4.332,4.332,0,0,1-1.559-1.141,4.856,4.856,0,0,1-.947-1.752,8.391,8.391,0,0,1-.356-2.221,6.315,6.315,0,0,1,.367-2.2,5.253,5.253,0,0,1,1.029-1.731,4.656,4.656,0,0,1,1.569-1.142,4.806,4.806,0,0,1,1.98-.407,4.321,4.321,0,0,1,2.332.581,4.606,4.606,0,0,1,1.488,1.476,5.843,5.843,0,0,1,.774,1.957,8.42,8.42,0,0,1,.174,2.016H751.9a4.144,4.144,0,0,0,.162,1.32,2.989,2.989,0,0,0,.592,1.1,2.9,2.9,0,0,0,1.039.764,3.582,3.582,0,0,0,1.487.285,3,3,0,0,0,1.8-.51,2.456,2.456,0,0,0,.924-1.549Zm-1.67-2.934a3.537,3.537,0,0,0-.276-1.162,2.952,2.952,0,0,0-2.761-1.813,3,3,0,0,0-1.212.235,2.8,2.8,0,0,0-.924.642,3.069,3.069,0,0,0-.611.947,3.592,3.592,0,0,0-.264,1.151Z" transform="translate(-651.023 -208.449)"/>
    </g>
  </g>
</svg>
