<svg xmlns="http://www.w3.org/2000/svg" width="246.269" height="95.363" viewBox="0 0 246.269 95.363">
  <defs>
    <style>
      .cls-1 {
        fill: #f1f3ff;
      }

      .cls-2 {
        fill: #282829;
      }
    </style>
  </defs>
  <g id="Layer_2" data-name="Layer 2" transform="translate(0 0.003)">
    <g id="Layer_8" data-name="Layer 8" transform="translate(0 -0.003)">
      <path id="Path_1" data-name="Path 1" class="cls-1" d="M.885,98.75H12.393a7.082,7.082,0,0,1,7.082,7.082v61.077a.885.885,0,0,1-.885.885H7.082A7.082,7.082,0,0,1,0,160.712V99.635a.885.885,0,0,1,.885-.885Z" transform="translate(0 -72.43)"/>
      <path id="Path_2" data-name="Path 2" class="cls-1" d="M172.265,98.75h11.509a7.082,7.082,0,0,1,7.082,7.082v61.077a.885.885,0,0,1-.885.885H178.462a7.082,7.082,0,0,1-7.082-7.082V99.635A.885.885,0,0,1,172.265,98.75Z" transform="translate(-125.703 -72.43)"/>
      <path id="Path_3" data-name="Path 3" class="cls-1" d="M77.935,1.69H93.868a7.082,7.082,0,0,1,7.082,7.082V24.339a.885.885,0,0,1-.882.888H84.132a7.082,7.082,0,0,1-7.082-7.084V2.572A.885.885,0,0,1,77.935,1.69Z" transform="translate(-56.514 -1.239)"/>
      <path id="Path_4" data-name="Path 4" class="cls-1" d="M334.663,27.221v1.133a12.816,12.816,0,0,0,.216,2.452,4.265,4.265,0,0,0,.8,1.866,3.971,3.971,0,0,0,1.6,1.186,6.327,6.327,0,0,0,2.505.432,4.955,4.955,0,0,0,3.2-1.159,4.341,4.341,0,0,0,1.431-3.585,6.424,6.424,0,0,0-.352-2.239,4.43,4.43,0,0,0-1.135-1.7,8.231,8.231,0,0,0-2.132-1.373,30.594,30.594,0,0,0-3.26-1.269,27.5,27.5,0,0,1-4.47-1.887,12.044,12.044,0,0,1-3.153-2.4,8.567,8.567,0,0,1-1.866-3.18,13.417,13.417,0,0,1-.594-4.176q0-5.717,3.182-8.529T339.362,0a19.057,19.057,0,0,1,4.771.565A10.019,10.019,0,0,1,347.907,2.4a8.528,8.528,0,0,1,2.481,3.236,11.363,11.363,0,0,1,.89,4.715v1.079h-7.441a7.722,7.722,0,0,0-.97-4.232,3.574,3.574,0,0,0-3.236-1.482,5.37,5.37,0,0,0-2.156.378,3.6,3.6,0,0,0-1.373,1,3.391,3.391,0,0,0-.7,1.439,7.2,7.2,0,0,0-.189,1.671,5.547,5.547,0,0,0,.754,2.99,6.833,6.833,0,0,0,3.228,2.228L345.178,18a18.465,18.465,0,0,1,3.611,2.023,9.86,9.86,0,0,1,2.236,2.265,7.54,7.54,0,0,1,1.159,2.665,14.913,14.913,0,0,1,.336,3.236q0,6.093-3.529,8.87t-9.84,2.775q-6.578,0-9.406-2.857t-2.836-8.2V27.218Z" transform="translate(-239.78 0.003)"/>
      <path id="Path_5" data-name="Path 5" class="cls-1" d="M464.118,2.83V9.192H450.371v9.062h12.94V24.61h-12.94V34.96h14.286v6.362H442.61V2.83Z" transform="translate(-324.644 -2.075)"/>
      <path id="Path_6" data-name="Path 6" class="cls-1" d="M545,2.829h12.98a18.839,18.839,0,0,1,4.392.485,9,9,0,0,1,3.478,1.618,7.445,7.445,0,0,1,2.263,3.02,11.891,11.891,0,0,1,.8,4.635,9.628,9.628,0,0,1-1.455,5.365A7.3,7.3,0,0,1,563.1,21v.109a7.636,7.636,0,0,1,5.122,2.745,9.446,9.446,0,0,1,1.887,6.207,15.345,15.345,0,0,1-.589,4.3,8.748,8.748,0,0,1-2.02,3.585,10.1,10.1,0,0,1-3.731,2.455,15.388,15.388,0,0,1-5.688.917H545Zm7.764,15.794h2.209a7.69,7.69,0,0,0,4.718-1.157,4.67,4.67,0,0,0,1.482-3.91q0-2.745-1.349-3.881a6.55,6.55,0,0,0-4.264-1.133H552.75Zm0,16.983h3.02a7.6,7.6,0,0,0,4.531-1.242q1.73-1.242,1.708-4.571a7.311,7.311,0,0,0-.458-2.775,4.681,4.681,0,0,0-1.239-1.78,4.5,4.5,0,0,0-1.866-.943,9.832,9.832,0,0,0-2.372-.267H552.75Z" transform="translate(-399.744 -2.074)"/>
      <path id="Path_7" data-name="Path 7" class="cls-1" d="M664.571,27.221v1.133a12.831,12.831,0,0,0,.216,2.452,4.265,4.265,0,0,0,.8,1.866,3.98,3.98,0,0,0,1.6,1.186,6.342,6.342,0,0,0,2.508.432,4.955,4.955,0,0,0,3.2-1.159,4.335,4.335,0,0,0,1.429-3.585,6.425,6.425,0,0,0-.349-2.239,4.457,4.457,0,0,0-1.159-1.7,8.275,8.275,0,0,0-2.132-1.373,30.445,30.445,0,0,0-3.262-1.269,27.57,27.57,0,0,1-4.472-1.887,12.061,12.061,0,0,1-3.156-2.4,8.6,8.6,0,0,1-1.866-3.18,13.333,13.333,0,0,1-.594-4.176q0-5.717,3.18-8.529T669.262,0a19.056,19.056,0,0,1,4.771.565A10.018,10.018,0,0,1,677.807,2.4a8.528,8.528,0,0,1,2.479,3.236,11.362,11.362,0,0,1,.89,4.715v1.079h-7.439a7.723,7.723,0,0,0-.97-4.232,3.575,3.575,0,0,0-3.236-1.482,5.371,5.371,0,0,0-2.156.378,3.61,3.61,0,0,0-1.375,1,3.465,3.465,0,0,0-.7,1.439,7.335,7.335,0,0,0-.186,1.671,5.546,5.546,0,0,0,.754,2.99,6.767,6.767,0,0,0,3.233,2.239l5.983,2.585a18.41,18.41,0,0,1,3.614,2.023,9.858,9.858,0,0,1,2.236,2.265,7.537,7.537,0,0,1,1.159,2.665,14.917,14.917,0,0,1,.322,3.233q0,6.093-3.531,8.87t-9.838,2.775q-6.578,0-9.405-2.857t-2.831-8.2V27.218Z" transform="translate(-481.754 0.003)"/>
      <path id="Path_8" data-name="Path 8" class="cls-1" d="M773.92,41.321V2.83h7.764V41.321Z" transform="translate(-567.651 -2.075)"/>
      <path id="Path_9" data-name="Path 9" class="cls-1" d="M829.75,2.828H842.74a18.864,18.864,0,0,1,4.4.485,9,9,0,0,1,3.465,1.618,7.462,7.462,0,0,1,2.265,3.02,11.891,11.891,0,0,1,.8,4.635,9.627,9.627,0,0,1-1.455,5.365A7.3,7.3,0,0,1,847.863,21v.109a7.6,7.6,0,0,1,5.12,2.745,9.548,9.548,0,0,1,1.887,6.207,15.451,15.451,0,0,1-.592,4.312,8.793,8.793,0,0,1-2.023,3.585,10.069,10.069,0,0,1-3.731,2.455,15.4,15.4,0,0,1-5.687.917H829.75Zm7.761,15.794h2.212a7.678,7.678,0,0,0,4.715-1.157,4.686,4.686,0,0,0,1.484-3.91q0-2.745-1.349-3.881a6.55,6.55,0,0,0-4.264-1.133h-2.8Zm0,16.983h3.02a7.6,7.6,0,0,0,4.531-1.242q1.73-1.242,1.722-4.571a7.253,7.253,0,0,0-.458-2.775,4.649,4.649,0,0,0-1.239-1.78,4.479,4.479,0,0,0-1.866-.944,9.816,9.816,0,0,0-2.372-.267h-3.337Z" transform="translate(-608.601 -2.073)"/>
      <rect id="Rectangle_76" data-name="Rectangle 76" class="cls-1" width="159.115" height="48.241" rx="5" transform="translate(87.154 47.122)"/>
      <path id="Path_10" data-name="Path 10" class="cls-2" d="M409.18,224.381a18.926,18.926,0,0,1,.885-5.786,14.553,14.553,0,0,1,2.652-4.915,12.973,12.973,0,0,1,4.411-3.406,15.385,15.385,0,0,1,12.26,0,12.95,12.95,0,0,1,4.4,3.414,14.555,14.555,0,0,1,2.665,4.915,19.308,19.308,0,0,1,0,11.557,14.578,14.578,0,0,1-2.665,4.915,12.73,12.73,0,0,1-4.4,3.393,15.6,15.6,0,0,1-12.26,0,12.758,12.758,0,0,1-4.4-3.393,14.578,14.578,0,0,1-2.652-4.915A18.919,18.919,0,0,1,409.18,224.381Zm3.907,0a16.933,16.933,0,0,0,.576,4.381,11.886,11.886,0,0,0,1.809,3.887,9.258,9.258,0,0,0,3.166,2.775,10.632,10.632,0,0,0,9.214,0,9.257,9.257,0,0,0,3.166-2.775,11.885,11.885,0,0,0,1.81-3.889,16.945,16.945,0,0,0,0-8.758,11.86,11.86,0,0,0-1.81-3.889,9.257,9.257,0,0,0-3.166-2.775,10.632,10.632,0,0,0-9.214,0,9.259,9.259,0,0,0-3.166,2.775,11.858,11.858,0,0,0-1.81,3.889A16.9,16.9,0,0,0,413.087,224.381Z" transform="translate(-300.123 -153.296)"/>
      <path id="Path_11" data-name="Path 11" class="cls-2" d="M529.879,221.911H526.3v-3.089h3.579v-3.161a4.989,4.989,0,0,1,1.5-3.929,6.368,6.368,0,0,1,4.382-1.333,9.186,9.186,0,0,1,1.13.08,6.136,6.136,0,0,1,1.13.248v3.03a4.263,4.263,0,0,0-.986-.227,8.926,8.926,0,0,0-.986-.061,3.4,3.4,0,0,0-1.975.493,2.169,2.169,0,0,0-.7,1.892v2.966h4.112v3.084h-4.112v18.185h-3.5Z" transform="translate(-386.028 -154.322)"/>
      <path id="Path_12" data-name="Path 12" class="cls-2" d="M579.417,221.911H575.84v-3.089h3.577v-3.161a4.985,4.985,0,0,1,1.5-3.929A6.37,6.37,0,0,1,585.3,210.4a9.159,9.159,0,0,1,1.13.08,6.177,6.177,0,0,1,1.133.248v3.03a4.3,4.3,0,0,0-.989-.227,8.891,8.891,0,0,0-.986-.061,3.4,3.4,0,0,0-1.975.493,2.169,2.169,0,0,0-.7,1.892v2.966h4.112v3.084h-4.112v18.185h-3.5ZM590.344,215v-4.264h3.5V215Zm0,25.088V218.822h3.5v21.269Z" transform="translate(-422.364 -154.322)"/>
      <path id="Path_13" data-name="Path 13" class="cls-2" d="M678.939,247.483a4.9,4.9,0,0,0-5.264-4.238,6.548,6.548,0,0,0-3.169.7,5.659,5.659,0,0,0-2.034,1.852,7.731,7.731,0,0,0-1.09,2.652,14.357,14.357,0,0,0-.331,3.105,11.853,11.853,0,0,0,.349,2.878,7.773,7.773,0,0,0,1.09,2.489,5.533,5.533,0,0,0,1.935,1.748,5.8,5.8,0,0,0,2.836.658,5.724,5.724,0,0,0,4.051-1.357,6.135,6.135,0,0,0,1.791-3.827h3.577a9.811,9.811,0,0,1-2.932,6.087,9.2,9.2,0,0,1-6.437,2.132,11.053,11.053,0,0,1-4.3-.784,8.3,8.3,0,0,1-3.123-2.22A9.575,9.575,0,0,1,664,255.927a14.29,14.29,0,0,1-.64-4.382,15.634,15.634,0,0,1,.618-4.462,10.288,10.288,0,0,1,1.866-3.619,8.762,8.762,0,0,1,3.148-2.425,10.253,10.253,0,0,1,4.4-.877,12.861,12.861,0,0,1,3.393.432,8.262,8.262,0,0,1,2.8,1.333,7.274,7.274,0,0,1,1.993,2.284,8.386,8.386,0,0,1,.989,3.27Z" transform="translate(-486.556 -176.15)"/>
      <path id="Path_14" data-name="Path 14" class="cls-2" d="M769.345,255.172a8.5,8.5,0,0,1-3.083,5.389,9.63,9.63,0,0,1-6,1.81,10.908,10.908,0,0,1-4.422-.824,8.745,8.745,0,0,1-3.148-2.3,9.8,9.8,0,0,1-1.911-3.537,16.942,16.942,0,0,1-.719-4.483,12.746,12.746,0,0,1,.741-4.446,10.6,10.6,0,0,1,2.076-3.494,9.4,9.4,0,0,1,3.166-2.305,9.7,9.7,0,0,1,4-.821,8.722,8.722,0,0,1,4.707,1.173,9.3,9.3,0,0,1,3,2.98,11.8,11.8,0,0,1,1.562,3.95,17,17,0,0,1,.352,4.07h-15.89A8.362,8.362,0,0,0,754.1,255a6.032,6.032,0,0,0,1.194,2.22,5.864,5.864,0,0,0,2.1,1.543,7.23,7.23,0,0,0,3,.576,6.048,6.048,0,0,0,3.641-1.029,4.957,4.957,0,0,0,1.866-3.126Zm-3.371-5.922a7.142,7.142,0,0,0-.557-2.345,5.959,5.959,0,0,0-5.573-3.659,6.06,6.06,0,0,0-2.447.474,5.656,5.656,0,0,0-1.866,1.3,6.193,6.193,0,0,0-1.234,1.911,7.247,7.247,0,0,0-.533,2.324Z" transform="translate(-550.148 -176.15)"/>
    </g>
  </g>
</svg>
