<?xml version="1.0" encoding="utf-8"?>
<!-- Generator: Adobe Illustrator 23.0.1, SVG Export Plug-In . SVG Version: 6.00 Build 0)  -->
<svg version="1.1" id="Layer_1" xmlns="http://www.w3.org/2000/svg" xmlns:xlink="http://www.w3.org/1999/xlink" x="0px" y="0px"
	 viewBox="0 0 241.7 199.1" style="enable-background:new 0 0 241.7 199.1;" xml:space="preserve">
<style type="text/css">
	.st0{opacity:0.35;}
	.st1{opacity:0.17;}
	.st2{opacity:0.57;fill:#545454;enable-background:new    ;}
	.st3{opacity:0.45;fill:#545454;enable-background:new    ;}
	.st4{opacity:0.37;fill:#2A2A2A;stroke:#FFFFFF;stroke-miterlimit:10;enable-background:new    ;}
	.st5{fill:#545454;stroke:#FFFFFF;stroke-miterlimit:10;}
	.st6{fill:#FFFFFF;}
	.st7{fill:#545454;}
	.st8{opacity:8.000000e-02;}
	.st9{fill:#B2B2B2;}
	.st10{opacity:0.28;}
	.st11{fill:#282828;}
	.st12{fill:#555555;}
	.st13{fill:#8C8C8C;}
	.st14{fill:#AAAAAA;}
	.st15{opacity:0.45;}
</style>
<title>SHEILD</title>
<g>
	<g id="Layer_4">
		<g class="st0">
			<path d="M29.6,169.4c7.4-18.7,13.1-40.8,12.5-61.1c0-0.8-1.3-1.1-1.5-0.2c-4.4,20.4-7.2,40.7-12.4,60.9c-0.1,0.4,0.2,0.8,0.6,0.8
				C29.2,169.9,29.5,169.7,29.6,169.4L29.6,169.4z"/>
		</g>
		<g class="st0">
			<path d="M43.8,107.3c9.9-11.3,25.5-17.6,38.4-25c14-8.2,29-15.7,42-25.6c0.3-0.2,0.3-0.6,0.1-0.9c-0.2-0.2-0.5-0.3-0.8-0.2
				c-17.3,7.5-33.5,18.5-49.7,28.1c-9.3,5.5-26.9,11.8-30.7,23.2c-0.1,0.2,0.1,0.4,0.2,0.4C43.6,107.4,43.7,107.4,43.8,107.3z"/>
		</g>
		<g class="st0">
			<path d="M59.2,165.2c14.8-11.5,28.3-24.5,40.3-39c10.4-12.5,21.8-26.2,28-41.3c0.4-1-1.1-1.8-1.8-1
				c-11.2,13.4-19.7,28.9-30.8,42.5C83.7,139.9,71.8,152.9,59.2,165.2L59.2,165.2L59.2,165.2z"/>
		</g>
		<g class="st0">
			<path d="M147.4,45.5c0.1,0,0.2-0.1,0.2-0.2c0-0.1-0.1-0.2-0.2-0.2c-0.1,0-0.2,0.1-0.2,0.2C147.2,45.4,147.3,45.5,147.4,45.5z"/>
		</g>
		<g class="st0">
			<path d="M141.2,55.2c0.5-1.3,0.5-2.7,0-4c-0.2-0.7-0.8-1.3-1-2c-1.5-3.4-2-7.2-1.3-10.9c1.4-7.2,3.8-14,3.2-21.3
				c0-0.9-1.5-1.2-1.7-0.2c-1,4.1-1.3,8.3-2.1,12.5s-2.5,8.3-3,12.5c-0.6,5.6,4.1,8.2,4.9,13.5C140.2,55.7,141.1,55.7,141.2,55.2z"
				/>
		</g>
		<g class="st0">
			<path d="M144.2,11c0.2,4.6,1.3,9.1,3.3,13.3c2.5,5.7,3.3,9.7,0.9,15.8c-1,2-1.8,4.2-2.3,6.4c-0.1,0.5,0.2,1,0.7,1.2
				c0.4,0.1,0.8-0.1,1-0.4c2.7-4.5,5.5-10.2,5-15.6c-0.6-7.1-6.4-13.8-8.3-20.7c0-0.1-0.1-0.1-0.2-0.1
				C144.3,10.8,144.3,10.9,144.2,11L144.2,11z"/>
		</g>
		<g class="st0">
			<path d="M137.6,65.6l0.9,13.4c0,0.3,0.2,0.5,0.5,0.5c0.3,0,0.5-0.2,0.5-0.5c0-5.2,0-10.5,0-15.7c0-0.1-0.1-0.1-0.2-0.1
				c-0.1,0-0.1,0.1-0.1,0.1c-0.3,5.2-0.5,10.5-0.6,15.7h1l-1.4-13.4C138.2,65.2,137.5,65.2,137.6,65.6L137.6,65.6z"/>
		</g>
		<g class="st0">
			<path d="M139.3,52.1v-0.6c0-0.7-1.1-0.9-1.2-0.2c-2.5,17-2,34.8-2.5,52c-0.5,18.3-2.4,37.6-0.2,55.9c0,0.7,1.2,1,1.3,0.2
				c2.9-16.9,2-34.9,2.4-52c0.2-9.3,0.4-18.7,0.5-28c0-4,0-8,0-12s1.5-12-1.2-15.1c0.2,0.2,0.4,0.2,0.6,0c0.1-0.1,0.1-0.2,0.1-0.3
				L139.3,52.1z"/>
		</g>
		<g class="st0">
			<path d="M148,55.2c-2.2,19.5-2.9,39.4-4,59c-1.1,20.3-2.7,40.8-2.7,61.2c0,0.7,1.1,0.7,1.1,0c2.2-20.3,2.8-40.8,3.8-61.1
				c1.1-19.6,2.5-39.4,2.4-59c0-0.2-0.1-0.3-0.3-0.3C148.1,54.9,148,55.1,148,55.2C148,55.3,148,55.3,148,55.2L148,55.2z"/>
		</g>
		<g class="st0">
			<path d="M45.7,116.4c-1.2,4.9-1.5,18.3,7.1,16.3s1.2-13.2-2.7-15.8c-1.4-0.8-3.1-0.3-3.9,1.1c-0.2,0.4-0.4,0.9-0.4,1.4
				c0,6.5,6.6,9.5,12,6.5c6.9-3.7,10.2-13,12.7-20l-3.8-1c-1.4,10-7.3,17.7-15.3,23.6l1.9,2.4c5.1-4,9.1-9.3,11.5-15.3
				c0.8-1.8-1.7-3.4-2.7-1.6c-2.5,4.7-7.2,5.8-12,4v3.5c7-1,15.5-5.2,18.6-12c0.6-1.3-1-2.8-2.1-1.6c-5.1,5.2-9.3,9.2-17,10
				c-1,0-1.8,0.9-1.8,1.9c0,0.8,0.5,1.5,1.3,1.7c6,2.6,12.9-0.1,15.6-6l-2.8-1.2C59.8,120,56,125,51.2,128.7
				c-1.4,1.1,0.4,3.3,1.9,2.4c9.3-5.4,14.9-15,17.5-25.2c0.1-1.1-0.8-2-1.9-2.1c-0.8,0-1.5,0.4-1.9,1.1c-1.3,3.4-2.8,6.7-4.4,9.9
				c-0.8,1.6-1.8,3.1-3,4.5c-1.4,1.5-8.3,5.8-8,0.1l-4.3,2.4c1.3,0.8,2.3,1.9,3.1,3.2c1.4,2.5,0.4,2-0.3-0.3
				c-0.7-2.5-0.9-5.2-0.5-7.7C49.7,114.8,46.2,114.4,45.7,116.4L45.7,116.4z"/>
		</g>
		<g class="st1">
			<path d="M74.7,96.5c11.6-6.4,22.6-13.5,34.6-19.2c1.5-0.7,8.2-4.7,9-4.1c2,1.4-0.5,7.3-1,8.7c-2.6,7-6.8,13.3-12.3,18.4l1.8,1.4
				c6.4-8.6,10.6-18.6,12.3-29.2h-2.1l-0.3,4.2l2,1.1l0.9-1.8l-2-0.9l-1.3,4.2l2.2,0.3l-0.4-4.3c0-0.6-0.4-1.2-1.1-1.2
				c-0.2,0-0.5,0.1-0.7,0.2C102.7,81,89.1,87.7,75.6,94.5l1.1,2C90.1,89.6,103.6,82.8,117,76c0.5-0.3,0.7-1,0.4-1.5
				c-0.1-0.2-0.4-0.4-0.6-0.5c-2.8-0.4-1.2,0.3,1.6-1.1l-1.1-1.9c-12.6,7.5-25.6,14.6-38.8,21.1c-1.3,0.7-0.2,2.7,1.2,2
				c13.2-6.6,26.1-13.6,38.7-21.2c0.5-0.3,0.7-1,0.4-1.5s-1-0.7-1.5-0.4l-4.9,2.6c-0.5,0.3-0.7,1-0.4,1.5c0.1,0.2,0.4,0.4,0.6,0.5
				c2.4,0.3,2.5,0.3,0.4,0.1l-6.2,3.1l-9.3,4.7c-7.2,3.7-14.5,7.3-21.7,11c-1.3,0.6-0.2,2.6,1.1,2c7.3-3.6,14.6-7.3,22-10.9l9.4-4.7
				c2.7-1.3,7.7-5.9,8.1-1.3c0,0.6,0.6,1.1,1.2,1.1c0.5,0,0.9-0.3,1-0.8l1.3-4.2c0.4-1.2-1.5-2-2-0.9l-0.9,1.8
				c-0.3,0.6-0.1,1.3,0.4,1.6c0.6,0.3,1.3,0.1,1.6-0.4c1.4-1.7,1.6-4.1,0.5-6c-0.4-0.9-2-1.2-2.1,0c-1.5,10.4-5.6,20.2-12,28.5
				c-0.8,1.1,0.9,2.3,1.8,1.4c8.3-8.2,13.6-19.1,14.8-30.7c0-0.8-0.9-1.1-1.5-0.9c-16,6.9-32.4,14.8-46.2,25.6
				C73.7,96.1,74.2,96.7,74.7,96.5z"/>
		</g>
		<g class="st1">
			<path d="M46.2,140.7c-3.8,12.7-9.1,26.6-11,39.7c0,0.4,0.4,0.7,0.6,0.3c6.1-11.6,9.1-26.9,11.4-39.7c0.1-0.3-0.1-0.6-0.3-0.6
				C46.6,140.3,46.3,140.5,46.2,140.7z"/>
		</g>
		<g class="st1">
			<path d="M64.5,129.9c1.1,4.4,2.5,8.7,4.2,12.8l1.7-0.7c-1.9-4-3.5-8.3-5.2-12.4l-1.4,0.6c1.5,3,2.3,6.1,3.5,9.2
				c0.2,0.5,1.1,0.5,1-0.1c-0.4-3.5-1.5-6.8-3.3-9.8c-0.4-0.7-1.7-0.2-1.3,0.6c1.7,4.2,3.4,8.4,4.9,12.7c0.4,1.1,2.1,0.6,1.8-0.5
				c-1.3-4.4-3-8.6-5.1-12.7C65.2,129,64.4,129.4,64.5,129.9z"/>
		</g>
		<g class="st1">
			<path d="M83.7,118.3c-3-0.5-6-1.2-9-2l-0.3,1.3c5.5,1.2,11.2,1.9,16.8,2.7l0.3-2c-3.2,0.2-6.4,0.4-9.6,0.9
				c-0.5,0-0.4,0.8,0.1,0.9c3.1,0.2,6.3,0.3,9.5,0.2c1.1,0,1.4-1.8,0.3-2c-5.7-0.8-11.4-1.7-17.2-2.2c-0.9,0-0.9,1.3,0,1.3
				c3,0.2,6,0.9,9,1.4C83.9,118.8,84.1,118.4,83.7,118.3L83.7,118.3z"/>
		</g>
		<g class="st1">
			<path d="M69.4,155.6c-5.8,6.3-10.3,12.5-18,16.9c-8.2,4.8-16.7,6.1-26,7.3c-0.7,0.1-1.1,1.3-0.2,1.4c16.6,2.3,39.1-9.1,45.1-25.2
				c0.1-0.3-0.1-0.5-0.4-0.6C69.7,155.5,69.5,155.5,69.4,155.6L69.4,155.6z"/>
		</g>
		<rect x="135.6" y="42.9" class="st2" width="11.4" height="144.7"/>
		<polygon class="st3" points="141,64.7 152.9,35 142.5,0.3 131,31.1 		"/>
		<path class="st4" d="M240.2,169.6c-7.7,9.5-68.9,21.8-129.3,26.7c-53.6,4.4-87.8,1.4-81.7-6.2s51.3-18.4,106.3-24.5
			C197.5,158.6,247.8,160,240.2,169.6z"/>
		<path class="st5" d="M27.9,188.4c5.5-55.8,9-74.4,10.4-80.4c0.4-1.6,1.4-3.1,2.9-4l77.6-51.8c3.2-2.1,7.5-1.2,9.6,2
			c0.5,0.8,0.9,1.7,1.1,2.6l2.6,15.2"/>
		<path class="st6" d="M1.7,91.5l2.3,1c1.4,0.8,3.2,0.3,4.1-1.1C8.9,90,8.4,88.2,7,87.3l-2.3-1c-1.4-0.8-3.2-0.3-4.1,1.1
			C-0.2,88.9,0.3,90.7,1.7,91.5z"/>
		<path class="st7" d="M29,185.1l0.3,2.2c0,1.7,1.4,3,3.1,3c0.2,0,0.5,0,0.7-0.1c24.3-7.6,40.7-28.4,56.8-46.9
			c17.7-20.5,33.9-42.4,40.8-68.9c0.8-3.2-3.8-5.4-5.5-2.3c-9.6,18.3-21.4,35.5-35.1,51c-13.7,15.6-29.5,27.9-45.7,40.8
			c-3.3,2.7-18.9,19.1-8.4,22c5,1.4,11.5-7,14.5-9.7c8.7-7.7,17-15.9,24.7-24.5c2.6-2.9-1.6-7.1-4.2-4.3c-9.1,9.9-19.7,18.3-31.3,25
			l3.6,4.7c6.8-5.4,13-11.4,18.7-18c2-2.4-0.8-6.9-3.6-4.7c-7.8,5.9-14.9,12.5-21.5,19.8c-1.1,1.2-1.1,3.1,0.1,4.2
			c1.2,1.1,2.9,1.1,4.1,0c24.4-19.5,45.8-42.4,63.7-68c2-2.8-2.6-6.3-4.7-3.6L77,135.7c-2.3,2.9,1.6,7.2,4.2,4.2l33.6-37.7
			c1.1-1.2,1.1-3.1-0.1-4.2c-1.2-1.1-2.9-1.1-4.1,0c-16.6,15.4-32.1,32-46.5,49.5c-2.4,3,1.7,7.2,4.2,4.3l27.4-32.4
			c2.5-2.9-1.5-7-4.2-4.3L58,148.4l4.7,3.6c12.3-16.6,27-31.3,43.5-43.7l-3.6-4.7l-13.4,12.7l4.2,4.2l19.9-21.6l-4.7-3.6l-5.6,8.4
			l5.2,3.1l8.7-13.8l-5.2-3l-8.9,15.8c-1.6,2.9,2.5,6.3,4.7,3.6l9.6-11.5l-4.8-3.7c-19.8,32.1-44.7,60.8-73.5,85
			c-3,2.5,1.3,6.7,4.2,4.2c29.2-24.6,54.4-53.7,74.5-86.2c1.8-2.8-2.5-6.3-4.7-3.6l-9.6,11.5l4.7,3.6l8.9-15.8
			c0.8-1.5,0.2-3.3-1.2-4.1c-1.4-0.7-3.1-0.3-4,1l-8.7,13.8c-2,3.3,3.1,6.2,5.2,3l5.6-8.4c0.8-1.4,0.3-3.3-1.2-4.1
			c-1.2-0.6-2.6-0.5-3.5,0.5l-19.9,21.5c-1.1,1.2-1.1,3.1,0.1,4.2c1.2,1.1,2.9,1.1,4.1,0l13.4-12.7c2.4-2.3-0.9-6.8-3.6-4.7
			c-17.4,13-32.8,28.4-45.7,45.9c-2,2.8,2.4,6,4.7,3.6l33.5-33.2l-4.2-4.3l-27.4,32.4l4.2,4.3c14.3-17.6,29.9-34.1,46.5-49.5
			l-4.2-4.2L77,135.7l4.2,4.2l23.1-29l-4.7-3.6c-17.7,25.1-38.8,47.6-62.8,66.8l4.2,4.2c6.2-6.9,13-13.2,20.3-18.8l-3.6-4.7
			c-5.7,6.6-12,12.6-18.7,18c-2.7,2.2,0.8,6.4,3.6,4.7c12.1-7,23.1-15.7,32.5-26l-4.2-4.2c-5.7,6.4-11.7,12.6-18,18.4
			c-3.5,3.3-7.8,6.2-11,9.8c-1.7,2-5.7,7.2-0.9-0.2c4-6,11.2-10,16.8-14.3c6.1-4.7,12-9.7,17.7-14.9c22.1-20.4,40.6-44.5,54.7-71.2
			l-5.5-2.3c-6.5,25.7-22.2,46.7-39.2,66.3c-15.3,17.6-31,38.1-54.1,45.3l3.8,2.9L35,185C34.5,181.2,28.5,181.2,29,185.1L29,185.1z"
			/>
		<g class="st8">
			<path class="st6" d="M42,108c-3.7,2.2-1.7,10.2-0.4,13.4c0.3,0.9,1.2,1.3,2.1,1.1c0.5-0.2,0.9-0.6,1.1-1.1
				c0.6-1.8,1.2-3.7,1.8-5.5h-3l0.6,4c0.2,1.5,2,1.3,2.8,0.4c1.2-1.7,3.1-2.1,3-4.5l-1.1,1.4c1.3-0.1,2.6-0.6,3.6-1.3
				c1-1.1,2-2.3,2.7-3.6c1.9-2.6,3.1-5.7,3.6-8.9c0.1-0.4-0.2-0.8-0.6-0.9c-0.3-0.1-0.6,0.1-0.8,0.3c-1.4,2.1-2.8,4.2-4,6.3
				s-2.4,4.6-5.3,5.1c-0.6,0.2-1.1,0.7-1.1,1.4c0,0.1-2.4,2.6-2.4,2.6l2.6,1.1l-0.5-4c0-0.9-0.7-1.6-1.6-1.6c-0.7,0-1.3,0.5-1.5,1.1
				c-0.6,1.8-1.3,3.7-2,5.5l3-0.2c-1.1-2.5-1.7-5.2-1.7-8c0-1.6,0.4-2.8-0.6-4.2C42.1,108,42,108,42,108L42,108z"/>
		</g>
		<g class="st8">
			<path class="st6" d="M43.7,123.1c3.7-0.5,7.4-4.6,9.7-7.3c2.9-3.5,4.9-7.6,6-12l-1.1-0.3c-0.9,4.1-3,7.9-6,10.8
				c-2.8,3-6,6.4-10,7.3c-1.3,0.3-0.7,2.4,0.5,2c8.5-3.4,14.7-10.8,16.8-19.7c0.1-0.3-0.1-0.7-0.5-0.8c-0.3-0.1-0.7,0.1-0.8,0.5
				c-1.1,4.4-3.1,8.5-6,12C49.8,118.5,46.2,120.2,43.7,123.1c0.1-0.1,0.1,0.2,0.1,0.2L43.7,123.1z"/>
		</g>
		<g class="st8">
			<path class="st6" d="M58.4,103.5c-0.7,1.2-1.2,2.5-1.6,3.9c-2.4,6.7-7.8,11.9-14.6,14.2c-1.2,0.4-0.7,2.4,0.5,2
				c4.3-1.5,8.2-4.2,11.1-7.7c2.3-2.9,5.8-8.3,4.6-12.2C58.5,103.5,58.4,103.5,58.4,103.5C58.3,103.6,58.3,103.6,58.4,103.5
				L58.4,103.5z"/>
		</g>
		<g class="st8">
			<path class="st6" d="M58,103.7c-1.5,4-2,7.4-5,10.8c-1.2,1.3-2.6,2.5-4.1,3.6c-0.1,0-6.1,3.7-5.7,2.2l-2.3-0.3v0.8l2-0.6
				c-0.4-0.5-0.7-1-1-1.5c-0.6-1-2.4-0.4-2,0.8l0.3,1.6l2-0.3c-0.6-3.7-0.6-7.5,0.1-11.2c0.1-0.6-0.2-1.1-0.7-1.3
				c-0.6-0.1-1.1,0.2-1.3,0.7c-1.2,4-1.8,9.1,2.7,11.2l0.8-2c-0.6-0.2-1.2-0.1-1.8,0.1c-0.6,0.2-0.8,0.9-0.6,1.4
				c0.1,0.3,0.3,0.5,0.6,0.6c0.9,0.4,2,0.4,3,0l-0.8-2c-0.6,0.3-1.2,0.6-1.7,1.1c-0.4,0.4-0.4,1.1,0,1.5c0.3,0.3,0.7,0.4,1,0.3
				c0.9-0.3,1.8-0.6,2.6-1.1l-1.3-1.7l-1,0.9c-0.8,0.8,0.3,2.3,1.3,1.6c2.4-1.7,4.8-3.3,7.2-5c1-0.7,0-2.3-1-1.6
				c-2.5,1.5-4.9,3.2-7.3,4.8l1.3,1.6l1-0.9c0.9-0.8-0.3-2.2-1.3-1.7l-2,0.9l1,1.8l1.2-0.8c1-0.5,0.3-2.4-0.8-2h-1.8v2l0.6-0.1
				c1.1,0.2,2-1.4,0.8-2c-3.6-1.7-2.8-5.7-1.9-8.8l-2-0.5c-0.7,4-0.8,8.2-0.1,12.2c0.2,1.1,2,0.8,2-0.3c0.1-0.7,0-1.5-0.3-2.2
				l-2,0.8c0.3,0.5,0.6,1,0.9,1.6c0.4,0.5,1.1,0.6,1.6,0.3c0.2-0.1,0.3-0.3,0.4-0.5L43,120c0.2-0.6-0.2-1.3-0.8-1.4
				c-0.6-0.2-1.3,0.2-1.5,0.8c-0.6,1.3,0,2.9,1.3,3.5c0.2,0.1,0.5,0.2,0.8,0.2c2.6,0.4,5.4-2,7.3-3.5c4.3-3.3,10.7-10.1,8.3-16.1
				c-0.1-0.2-0.3-0.3-0.4-0.2c-0.1,0-0.2,0.1-0.2,0.2L58,103.7z"/>
		</g>
		<g class="st8">
			<path class="st6" d="M39.5,113.1c0.3-0.9,0.6-1.9,0.7-2.8c0-0.2,0-0.3-0.2-0.4s-0.3,0-0.4,0.2l0,0c-1,3.5-1.7,14.1,4.4,13.2
				c0.5,0,0.5-0.9,0-1c-4.8-1.1-4.4-8.4-3.9-12.1l-0.6,0.1C39.8,111.3,39.8,112.2,39.5,113.1L39.5,113.1L39.5,113.1z"/>
		</g>
		<g class="st8">
			<path class="st6" d="M39.1,111c-0.7,3.6-1,7.6,1.2,10.8c1.2,1.7,3.5,2.1,5.2,0.9c0.4-0.2,0.7-0.6,0.9-0.9c0.1-0.2,0-0.5-0.3-0.4
				c-1.4,0.4-2.8,1.8-4.4,0.5c-0.9-1-1.5-2.2-1.7-3.5c-0.8-2.4-1-4.9-0.8-7.5C39.2,111,39.2,111,39.1,111z"/>
		</g>
		<g class="st8">
			<path class="st6" d="M39.8,110.5c-0.7,3.3-1.3,6.5,0.8,9.5c1.2,2.2,3.8,3.2,6.2,2.5c0.2-0.1,0.3-0.6,0-0.6
				c-2.4,0-4.7-1.4-5.8-3.5C39.9,116,39.5,113.2,39.8,110.5L39.8,110.5L39.8,110.5z"/>
		</g>
		<g class="st8">
			<path class="st6" d="M39.2,112.6c-0.3,3.2-0.7,6.5,1.7,9.1c1.3,1.5,4.5,3,6.1,1.2c0.2-0.2,0.2-0.4,0-0.6
				c-0.1-0.1-0.2-0.1-0.3-0.1c-0.9,0.1-1.9,0.1-2.8,0c-1.3-0.4-2.3-1.3-3-2.5c-1-2.2-1.6-4.6-1.6-7.1
				C39.3,112.6,39.2,112.6,39.2,112.6L39.2,112.6z"/>
		</g>
		<g class="st8">
			<path class="st6" d="M39.6,111.5c-1.5,4.4-1.1,13.1,5.9,11.7c6.4-1.3,12-9.6,14.6-14.9c0.1-0.2,0-0.5-0.2-0.6
				c-0.2-0.1-0.4,0-0.5,0.1c-2.2,3.7-4.9,7.1-8,10.2c-0.9,0.9-1.9,1.6-2.9,2.3c-2.1,1-4.5,1.2-6.8,0.6c-2.6-1.5-2-6.8-1.9-9.4
				L39.6,111.5z"/>
		</g>
		<g class="st8">
			<path class="st6" d="M55.3,115.2c1.2-2.2,2.5-4.3,3.6-6.5c0.9-1.4,1.2-3,1.1-4.7c0-0.4-0.6-0.2-0.6,0c-0.3,3.8-2.5,7.6-4.2,11
				l0,0L55.3,115.2z"/>
		</g>
		<g class="st8">
			<path class="st6" d="M59.2,104.8c-1.7,3.9-3.9,7.5-6.6,10.7c-2.7,2.8-5.6,5.4-8.7,7.8c-0.4,0.4,0.1,0.9,0.6,0.7
				c7.5-3.2,13.1-11.5,15.2-19.1C59.7,104.7,59.3,104.5,59.2,104.8z"/>
		</g>
		<g class="st8">
			<path class="st6" d="M58.2,104.7c-1.2,4.4-3.7,8.3-7.2,11.3c-1.9,1.7-5,4.7-7.6,3.5c-1.9-0.9-1.4-1.5-1.9-3.3
				c-0.3-1.4-0.8-2.7-1.2-4c-0.1-0.2-0.3-0.4-0.6-0.3c-0.2,0.1-0.3,0.2-0.3,0.4c-0.2,2.6-1,7.6,1.3,9.6s5.7,0,7.6-1.1
				c5.2-3.1,11.6-9.4,10.5-16C58.9,104.4,58.3,104.4,58.2,104.7L58.2,104.7z"/>
		</g>
		<g class="st8">
			<path class="st6" d="M41.7,127.1c-3.2,9.7-3.6,20.5-5.8,30.5c-1,4.6-5.7,14.2-2.3,18.6c6.7,9,21-10.9,24.3-14.7
				c1.2-1.4,1-3.4-0.4-4.5c-1.2-1-3-1-4.2,0c-4.6,4.2-9,8.7-13.1,13.4c-1.4,1.4-1.4,3.8,0,5.2c1.4,1.4,3.8,1.4,5.2,0
				c2.5-2.4,5.2-4.7,8-6.7l-3.8-5c-2.9,2.6-5.8,5.3-8.8,7.8c-3.8,3.2,1.7,8.7,5.5,5.5c3.1-2.6,6.3-5.1,9.1-8l-4.7-4.7
				c-5.5,4.2-11.3,8-17.4,11.4l5.5,5.5c1.3-2.9,3.9-5,5-7.9c1-3.5,1.4-7.2,1.1-10.8c-0.2-10.4-1.1-22.4,1.4-32.5
				c0.3-0.9-0.3-1.9-1.2-2.2c-0.9-0.3-1.9,0.3-2.2,1.2c-1.9,7.7-1.1,15.6-2.3,23.4c-0.6,5.3-1.7,10.6-3.2,15.7
				c-1.3,3.4-4,5.9-5.5,9.1s1.8,7.6,5.5,5.5c6.5-3.9,12.5-8.4,18-13.6c2.9-2.6-0.8-6.8-4-5.2c-3.9,2.1-7.4,4.6-10.6,7.7l5.5,5.5
				c2.5-3,5.2-6,7.8-8.9c2.2-2.5-0.8-7.2-3.8-5c-3,2.3-6.1,4.4-9.4,6.3l5.1,5c3.5-4.8,7.5-9.3,11.9-13.3l-4.5-4.5
				c-3.3,3.7-6.2,8-9.8,11.4c-0.8,1.2-1.9,2.1-3.2,2.6c-2.2,1.6-2.4,0.7-0.5-2.8c0.6-3,1.3-6,2.3-8.9c2.2-10.2,4.6-22,2.8-32.2
				C44.6,125.4,42.1,125.7,41.7,127.1L41.7,127.1z"/>
		</g>
		<g class="st8">
			<path class="st6" d="M70.4,93.4c12.9-8.4,27.4-15.8,38.7-26.3c0.4-0.4,0-1.4-0.6-1.1c-14.4,5.9-26.8,16.9-38.6,26.8
				C69.6,93,69.9,93.6,70.4,93.4z"/>
		</g>
		<g class="st8">
			<path class="st6" d="M41.1,127.8c-8.9,15.2-11.4,40-8.9,57.2c0.2,1.1,1.8,0.8,2-0.3c0.5-9.6,0.2-19.1,1.6-28.6s4.8-18.6,6.1-28
				c0-0.4-0.5-0.7-0.7-0.3L41.1,127.8z"/>
		</g>
		<g class="st8">
			<path class="st6" d="M40.4,129.8c-8.7,13.8-12.5,39.4-8.3,55.1c0.1,0.6,1.2,0.7,1.3,0c1.4-9.7,0.6-19.6,2.2-29.4
				c1.4-8.6,4.3-16.9,5.3-25.6C40.9,129.7,40.5,129.6,40.4,129.8z"/>
		</g>
		<g class="st8">
			<path class="st6" d="M33.4,187.4c20.5-10.6,37.5-26.2,52.1-43.8l-1.7-1.3c-13.8,18.3-35.4,26.3-51.8,41.5l3.1,1.3
				c0.4-2.5,0-5.1-1-7.4c-0.5-1.8-3.6-1.6-3.4,0.5l0.6,5.8c0.2,2,3.4,2.2,3.3,0l-0.2-4.4c-0.1-2-3.2-2-3.1,0c0,1.4,0,2.8,0.2,4.2
				c0.1,0.8,0.8,1.4,1.7,1.3c0.7-0.1,1.2-0.6,1.3-1.3c0-3.7,0.7-7.4,2.3-10.8l-3-0.8c-0.7,2.9-1,5.8-1,8.8c0,0.9,0.7,1.6,1.6,1.6
				c0.7,0,1.3-0.5,1.5-1.1c0.4-1.6,0.8-3.2,1.2-4.7l-3.1-0.4l-0.4,4.6c-0.1,1.8,2.9,2.2,3.2,0.4l0.7-5h-3.2l0.7,4.8
				c0.3,1.7,2.9,1.5,3.3,0c0.6-1.7,0.7-3.4,0.6-5.2l-3.2,0.9l1.3,2.8c0.5,0.9,1.6,1.2,2.4,0.7c0.4-0.2,0.7-0.6,0.9-1.1l0.6-3.3h-3.5
				l0.4,1.7c0.3,1,1.4,1.5,2.3,1.2c0.6-0.2,1-0.6,1.2-1.2l-0.9-0.4c0.8,0.2,1.6-0.2,2-0.8c3.7-5.2,15.1-9.8,20.4-13.5l-2-2.7
				c-8.3,8.3-25.4,9.8-29.1,21.5l3.2,0.4c-0.9-8.7,1.1-19.7,3.5-28.2c0.1-0.4-0.3-0.9-0.7-0.9c-0.4,0-0.7,0.1-0.8,0.5
				c-2.2,8.6-3,16.5,2.9,23.7c0.8,0.9,2.2-0.3,1.6-1.2l-4.2-7.3c-0.5-0.9-2-0.3-1.7,0.7c0,2.2,0.7,2.7,2.3,1.6
				c-0.2-0.6-0.8-0.8-1.4-0.6c-0.6,0.2-0.8,0.8-0.6,1.4l0,0l1,3.1l2-0.8l-2.3-4.1c-0.6-1-2.4-0.3-2,0.8l1.5,3.9l2-0.8l-1.5-2.7
				c-0.6-1.1-2.3-0.3-2,0.9l0.6,2.7l2.1-0.6l-1-2.5c-0.4-1-2.4-1.1-2.2,0.3c0.6,5.1-7.5,8.1-3.6,14.3c2.6,4,6.5,2,9.4-0.5
				c1-0.9-0.5-2.4-1.5-1.5c-5-3.3-6.2-5.4-3.7-6.4c0.2-0.1,0.3-0.2,0.4-0.4c-0.4-5.5,2,0.8,1.2-5.5l-2.2,0.3l1,2.5
				c0.2,0.6,0.8,0.9,1.4,0.8s0.9-0.8,0.8-1.4l-0.6-2.8l-2,0.9l1.5,2.7c0.6,1.1,2.5,0.3,2-0.9l-1.5-3.8l-2,0.8l2.3,4
				c0.6,1,2.3,0.3,2-0.8l-1.1-3.1l-2,0.8l1,1.8c0.5,1,2.2,0.3,1.8-0.8c-0.2-2.4-0.8-2.8-1.8-1l2.7,5l1.6-1.3
				c-3.2-3.5-4.7-8.3-4.3-13l0.8-5.7c-2.4-1.4-3.4,5.7-3.9,7.4c-2,5.7-2.7,11.8-2.2,17.8c0,0.9,0.8,1.6,1.7,1.5
				c0.7,0,1.3-0.5,1.5-1.1c2.2-6.5,12.1-8.4,17.4-11.3c4.1-2.3,7.8-5.2,11-8.6c1.3-1.3-0.4-3.9-2.1-2.7c-4.6,3.3-9.3,6.5-14.2,9.4
				c-0.7,0.4-6.6,4.1-6.4,4.2c-1-0.2-1.9,0.3-2.2,1.3l-0.5,1.9h3.5l-0.5-1.7c-0.5-1.6-3.1-1.8-3.5,0l-0.6,3.3l3.2-0.4l-1.3-2.8
				c-0.5-0.8-1.6-1.1-2.4-0.6c-0.5,0.3-0.8,0.8-0.8,1.4l-0.4,4.3h3.3l-0.8-4.7c-0.3-2-3-1.2-3.2,0.4l-0.7,5h3.2l0.3-4.6
				c0-0.9-0.8-1.5-1.6-1.5c-0.7,0-1.2,0.5-1.4,1.1c-0.4,1.6-0.8,3.1-1.2,4.7l3.1,0.4c-0.1-2.7,0.2-5.4,0.8-8
				c0.2-0.8-0.4-1.6-1.2-1.8c-0.7-0.1-1.5,0.3-1.7,1c-1.4,3.7-2.2,7.6-2.3,11.6h3v-4.2h-3.1v4.4h3.3l-0.4-5.8l-3.4,0.5l0.7,6.5
				c0,1,0.9,1.8,1.9,1.8c0.3,0,0.6-0.1,0.9-0.2c17.6-13.5,38.8-24.4,51.5-43.3c0.8-1.2-1-2.2-1.9-1.1c-14,18.3-31.7,32-51.4,43.6
				c-0.4,0.3-0.6,0.8-0.3,1.2C32.5,187.5,33,187.7,33.4,187.4z"/>
		</g>
		<g class="st8">
			<path class="st6" d="M39.7,134.3c-5,12.8-6,32.5-1.1,45.5l2.7-1.2c-2.8-5.5-4.7-11.3-5.6-17.4c-0.2-1.4-2.6-1.1-2.5,0.3
				c0.4,5.3,0.8,10.7,1.2,16c0,0.8,0.7,1.5,1.5,1.5s1.5-0.7,1.5-1.5c0-4,0.1-8.1,0.2-12.2c-0.1-0.8-0.8-1.4-1.7-1.3
				c-0.7,0.1-1.2,0.6-1.3,1.3c-0.2,5.3-0.4,10.5-0.6,15.8c0.1,0.8,0.9,1.5,1.7,1.4c0.7-0.1,1.3-0.6,1.4-1.4c0.1-4.1,0-8.3-0.4-12.4
				c-0.2-1.7-2.7-1.8-2.7,0c0,3.7-2.7,13.4,3,14c0.7,0,1.3-0.3,1.6-0.9c0.4-0.9,9.4-6,10.7-6.9c6.6-4.8,13.3-9.5,19.9-14.3
				c1.7-1.2,0.1-4-1.6-2.8c-5.3,3.6-10.5,7.3-15.7,11c-3.3,2.3-10.4,9.4-14.4,9.4c-0.8,0-1.6,0.6-1.8,1.4c1.1-3.5,1.5-7.2,1.2-10.8
				h-2.7c0.5,4.1,0.5,8.3,0,12.4h3.1c0.2-5.3,0.3-10.5,0.5-15.8h-2.9c0,4-0.1,8.1-0.3,12.2h3c-0.5-5.3-1.2-10.7-1.7-16h-2.5
				c0.8,6.5,2.6,12.7,5.4,18.6c0.7,1.5,3.4,0.4,2.7-1.2c-5.8-14.4-2-29.8-1.5-44.6c0-0.2-0.3-0.2-0.3,0V134.3z"/>
		</g>
		<g class="st8">
			<path class="st6" d="M39.4,135.8c-4.9,12.8-7.8,32.6-0.9,45.1c0.4,0.8,2,0.5,1.8-0.5c-1-7.6-2.8-14.5-2.4-22.2s2-14.8,2-22.3
				c0-0.1-0.2-0.2-0.3-0.1C39.6,135.7,39.5,135.8,39.4,135.8L39.4,135.8z"/>
		</g>
		<g class="st8">
			<path class="st6" d="M38.2,143.8c-4,10-8,26.8-2.5,36.8c0.1,0.2,0.3,0.3,0.5,0.2c0.1,0,0.1-0.1,0.2-0.2c1-5.1-0.2-10.7-0.1-16
				c0.2-7,0.9-13.9,2.3-20.8c0-0.1-0.1-0.1-0.1-0.1C38.3,143.7,38.2,143.8,38.2,143.8L38.2,143.8z"/>
		</g>
		<g class="st8">
			<path class="st6" d="M36.8,143.7c-2.2,12.8-6.8,25.1-3.2,38c0.3,0.9,1.2,1.4,2.1,1.2c0.4-0.1,0.8-0.4,1-0.8
				c1.2-2.4,2.5-4.7,4-6.9c1.1-1.7-1.6-3.2-2.7-1.6c-1.4,2-2.4,4.3-3,6.7c-0.2,0.9,0.3,1.7,1.2,1.9c0.5,0.1,1.1,0,1.5-0.4
				c1.3-0.9,2.4-2,3.4-3.2l-2.6-2l-1,1.9c-0.4,0.8-0.1,1.8,0.7,2.3c0.6,0.3,1.4,0.2,1.9-0.3c0.9-0.7,1.7-1.3,2.5-2l-2.6-1.5
				l-0.4,1.6c-0.3,1.1,1.1,2.6,2.2,1.7c5.8-4.5,12.3-8.3,17.7-13.3c0.9-0.9-0.3-2.3-1.3-1.7c-6.4,3.5-12,8.4-18,12.4l2.2,1.7
				l0.5-1.6c0.2-0.8-0.3-1.7-1.1-1.9c-0.4-0.1-0.8-0.1-1.2,0.1c-0.9,0.6-1.8,1.2-2.7,1.9l2.3,2.3l0.9-2c0.7-1.5-1.3-3.5-2.6-2
				c-0.9,1.3-2,2.4-3.3,3.3l2.7,1.5c0.4-2.2,1.3-4.3,2.7-6l-2.7-1.6c-1.3,2.3-2.7,4.6-4.3,6.8l3.1,0.4c-3.4-12.3,1.4-24.5,1.1-36.9
				c0-0.7-1.2-0.9-1.3-0.2L36.8,143.7z"/>
		</g>
		<g class="st8">
			<path class="st6" d="M34.2,161.2c-1.1,4.4-1.8,8.8-2,13.3c-0.1,2.4-1.1,6.9,0.8,9.1c2.5,2.9,4.9,0,5.4-2.6l-3-0.4
				c0,1.1,0,2.3,0,3.4c0,0.9,0.7,1.5,1.6,1.5c0.4,0,0.8-0.2,1-0.4c1.2-0.9,2.2-2,3-3.2l-2.9-1.5l-0.5,2c-0.3,1.2,1.1,2.5,2.2,1.7
				c9-6.3,20.3-10.7,26.4-20.7c0.2-0.3,0.1-0.7-0.2-0.8c-0.2-0.1-0.4-0.1-0.6,0c-3.3,2.4-6.5,4.9-9.5,7.7c-2,1.7-11.1,10-14.2,9.2
				c-0.5-0.1-1.1,0-1.4,0.4l-2,1.7l2.2,1.7l0.5-2c0.3-1.4-1.5-2.7-2.5-1.5c-0.8,1.2-1.8,2.3-3,3.2l2.6,1.1c0-1.1,0-2.3,0-3.4
				c0-1.7-2.7-2.1-3-0.4c-0.6-1.4-0.9-2.9-0.7-4.4c0-1.6,0-3.2-0.1-4.8c0-3.2,0-6.4,0-9.6C34.4,161.2,34.3,161.1,34.2,161.2
				c-0.1-0.1-0.2,0-0.2,0L34.2,161.2z"/>
		</g>
		<g class="st8">
			<path class="st6" d="M46.7,103.6c-1.8-1.2-4.6,0.7-6,1.8c-1.8,1.4-4,3.5-3.7,6c0.3,1.8,2,3.1,3.8,2.8c0.3,0,0.6-0.1,0.9-0.3
				c2.9-1.2,2.3-4.3,3.2-6.7c0.7-2.1-2.7-3.6-3.6-1.5c-1.2,2.5-1.8,5.2-1.5,8c0,1.1,0.9,2,2,2c0.5,0,1-0.2,1.4-0.6
				c1.7-1.4,2.8-3.5,3-5.7c0.2-2-2.9-2.7-3.7-1s-2.8,5.1-1.4,7.1c0.4,0.6,1,1,1.7,1c2.7-0.3,4.4-3.6,5.4-5.8
				c0.8-1.7-0.9-3.8-2.7-2.7c-2.3,1.4-4.8,5.2-2.3,7.7s6.6-0.6,7.8-3c0.5-0.8,0.2-1.8-0.6-2.2c-0.6-0.4-1.4-0.3-2,0.2
				c-0.4,0.4-0.8,0.7-1.2,1c-0.5,0.2-0.9,0.5-1.3,0.8l0.3,0.7l0-0.5c0.5-0.5,0.5-0.8,1.2-1.2l-2.7-2.7c-0.3,0.7-0.7,1.4-1.2,2.1
				c-0.2,0.3-1.6,1.8-0.8,1.7l1.7,1c0.3,0.3,0.5-0.9,0.6-1.1c0.2-0.7,0.5-1.4,0.9-2l-3.6-1c-0.1,1.2-0.8,2.2-1.7,2.9l3.4,1.4
				c-0.3-2,0-4.1,0.9-6l-3.7-1.5c-0.4,1.1-0.7,2.3-0.6,3.6c0.2,2,1.5-0.2,2.3-0.9c1.3-1.2,4-2.4,4.3-4.2
				C47.2,104.3,47,103.9,46.7,103.6L46.7,103.6z"/>
		</g>
		<g class="st8">
			<path class="st6" d="M44.4,101.7c-1.6,0.4-3,1.5-3.8,2.9c-1.2,1.3-1.9,3-2,4.7c0.2,1.5,1.5,2.5,3,2.4c0.1,0,0.3,0,0.4-0.1
				c1.8-0.5,3.3-1.7,4.2-3.2c1.1-1.7-1-3.3-2.5-2.5c-2,1-3.3,3-3.5,5.3c0,1,0.9,1.8,1.9,1.8c0.3,0,0.6-0.1,0.9-0.2
				c1.7-1,4.2-3.2,4-5.4c0-1.1-0.9-2-2-2c-0.1,0-0.2,0-0.3,0c-1.1,0.3-2,1-2.6,2c-1.3,1.6-2.6,4.4,0,5.6c1.7,0.7,3.6-0.1,4.3-1.8
				c0.1-0.4,0.2-0.7,0.2-1.1c0-0.7-0.6-1.3-1.3-1.2c-0.2,0-0.4,0.1-0.6,0.2c-0.1,0-1.9,1.3-0.6,1.2c0.2,0,0.8-1.3,1-1.3l-1.5-0.9
				c-0.5-0.7-0.6,0.1-1.1,0.6c-0.4,0.4-0.9,0.8-1.4,1l2.8,1.6c0.1-0.9,0.7-1.7,1.6-2l-2.5-2.5c-0.2,0.3-0.4,0.6-0.6,0.8
				c-0.6,0.6-1.1,0.3-0.4,1.1s0.4,0.5,0.7-0.1s0.4-0.8,0.6-1.2c0.7-1.2,2-2.4,2.3-3.8c0-0.7-0.3-1.7-1.2-1.6L44.4,101.7z"/>
		</g>
		<g class="st8">
			<path class="st6" d="M42.8,108.3c1.6,0.9,3.6,0.4,4.8-1c0.7-0.8,0.6-2.1-0.2-2.8c-0.1-0.1-0.1-0.1-0.2-0.1
				c-1-0.5-2.3-0.3-3.1,0.4c-1.6,1.1-3.2,3.2-2.5,5.3c0.4,1,1.4,1.7,2.5,1.8c1.1,0,2.1-0.5,2.8-1.4c0.8-0.8,1.3-1.9,1.1-3
				c-0.3-1.2-1.5-1.9-2.7-1.7c-2,0.2-4.2,2.7-3.2,4.7s4,1.3,5.2-0.2c1-1.1,1-2.8-0.1-3.8c-0.5-0.5-1.2-0.8-1.9-0.8
				c-1.6,0.1-2.8,1.4-2.7,3c0,0.9,0.5,1.7,1.2,2.2c1.5,1.1,3.6,0.7,4.6-0.8c0.4-0.5,0.6-1.1,0.6-1.8c0-0.8-0.7-1.4-1.5-1.4
				c-0.5,0-0.9,0.3-1.2,0.7c-0.2,0.2-0.4,0.5-0.6,0.8c0.1-0.3-0.3,0.6,0,0.3c-1.2,1.2-0.2-0.5-1.1-0.5c-0.1,0.1-0.2,0.2-0.4,0.3
				c-0.2,0.1-0.1,0.2,0.5,0.2l0.4,0.7c-0.1,0-0.2,0.1-0.1,0.3l0.3-0.3l0.2-0.2c0.2-0.2,0.1-0.2-0.4,0l-0.6-0.6l0,0v-0.9
				c0,0.3-0.4,0.4-0.4,0.6s-0.1,0,0,0.1l0.6,0.6c0.2,0.2-0.2,0.2,0,0s0.3-0.6,0.5-0.8c0.3-0.4,0.7-0.7,1.2-0.8h-0.9l-0.4-0.4
				l-0.2-0.7c0,0.7-1.5,1.2-2,1.2s-0.7,0.7-0.3,0.9L42.8,108.3z"/>
		</g>
		<g class="st8">
			<path class="st6" d="M44.7,107.7c-1,0.2-1.9,0.7-2.4,1.6c-0.6,1-0.3,2.3,0.7,2.9c1.9,1.2,4.7-0.7,5.6-2.3
				c0.9-1.5,0.5-3.5-1.1-4.5c-0.5-0.3-1.1-0.5-1.6-0.5c-2.1,0-5.2,2.1-5.1,4.4c0.1,2.9,3.5,3.7,5.5,2.3s4-4.1,1.8-6.2
				c-1.8-1.3-4.3-0.8-5.6,1c-0.2,0.3-0.4,0.7-0.5,1c-0.9,2.5,1.8,5.4,4.3,3.8c1.3-0.9,1.6-2.6,0.8-3.9c-0.6-1-1.8-1.4-2.9-1.2
				c-1.3,0.4-2.2,1.6-2.2,2.9c0,1.3,0.9,2.5,2.1,2.9c0.9,0.4,1.8-0.9,1.3-1.7c-0.1-0.1-0.2-0.3-0.2-0.4v-0.3c0-0.2,0-0.2-0.1,0
				s-0.5,0-0.4,0c-0.3,0-0.8-0.6-0.6-1l0.7-0.7c-0.5,0.3-0.2,0.4,0.8,0.4v0.1c0,0,0,0.1,0.1,0s0,0,0-0.2c0.1-2.1-0.2-0.7-0.4-0.6
				s-1.2,1-1.2,1s0.5,0.5,0.5,0.5c0,0.4,0,0.5,0,0.3c0.1-0.1,0.2-0.2,0.3-0.3c0.3-0.3,0.7-0.5,1.1-0.7c0-0.1-0.3-0.1-0.3-0.1
				c0,0.1-0.1,0.2-0.1,0.3c-0.3,0.5-1,0.6-1.3,1H44c0.1,0.1,0.3,0.2,0.4,0.2c0.3,0,0.7-0.3,0.9-0.4
				C46.5,109.1,45.7,107.4,44.7,107.7L44.7,107.7z"/>
		</g>
		<g class="st8">
			<path class="st6" d="M43,109.5c1.3,0.9,3,0.7,4.1-0.4c1-1.2,0.9-2.9-0.3-4c-0.1-0.1-0.2-0.1-0.3-0.2c-3-1.7-6.4,2.7-5.6,5.4
				c1.1,3.9,7.1,1.8,7.1-1.7c0-4-6.6-3.3-6.9,0.1c-0.1,1.6,1.1,2.9,2.7,2.9c0.3,0,0.6,0,0.9-0.1c1.8-0.6,2.8-2.4,2.4-4.3
				c-0.2-0.8-1.1-1.3-1.9-1c-0.2,0.1-0.4,0.2-0.6,0.4c-0.4,0.3-0.7,0.8-0.8,1.2c-0.1,0.3-0.2,0.1,0,0.2s0.7-0.3,0.9,0.2l0.3,0.9
				c0.1,1-0.6,0.5-0.1,0.5l0.4-0.1c0.1,0,0.1,0-0.2,0l-0.8-0.6c-0.7-1.1,0.3-0.6-0.1-0.6c-0.2,0.1-0.4,0.2-0.5,0.3
				c0.3-1,0.8,0.6,0.8,0.5s0.1-0.2,0.2-0.3l0.7-0.9c-0.4,0.2-0.8,0-1.1-0.7l0.1-0.4h-0.5c-0.6-0.2-1.3,0.1-1.5,0.7
				C42.1,108.4,42.3,109.1,43,109.5L43,109.5z"/>
		</g>
		<g class="st8">
			<path class="st6" d="M45.5,106c-1.6-0.8-3.5-0.2-4.3,1.4c-0.1,0.1-0.1,0.2-0.1,0.3c-0.5,1.8,0.5,3.8,2.4,4.3c0,0,0,0,0,0
				c2,0.4,4-0.8,4.5-2.8c0.5-1.8-0.6-3.6-2.3-4.1c-0.2,0-0.3-0.1-0.5-0.1c-2.2,0.1-4,1.7-4.4,3.8c-0.2,1.8,1,3.4,2.8,3.7
				c0.3,0,0.7,0,1,0c2-0.3,3.4-2,3.3-4c-0.2-2-1.9-3.5-3.9-3.3c-0.1,0-0.3,0-0.4,0.1c-1.9,0.5-3,2.5-2.5,4.4
				c0.1,0.2,0.2,0.5,0.3,0.7c1,1.6,3,2.1,4.6,1.2c0.3-0.2,0.5-0.3,0.7-0.6c0.5-0.5,0.6-1.3,0.3-2c-0.3-0.6-1-0.9-1.6-0.8
				c-0.2,0-0.4,0.1-0.6,0.1c0,0,0.1,0.1,0.1,0.1s0.1,0.2,0.1,0.3s-0.5,0.5-0.7,0.4c-0.2-0.1-0.3-0.3-0.2-0.5c0,0,0,0,0-0.1
				c0,0,0.1,0,0.3,0c0.9,0.6,0,0.9,0.5,0.4l0.4-0.4c-0.3,0.1-0.7,0-0.8-0.3l0,0c0,0-0.1,0.2,0,0.2c1.6,0.4,2.7-2,1.1-2.7L45.5,106z"
				/>
		</g>
		<g class="st8">
			<path class="st6" d="M43.6,110.5c1.4,0.8,3.2,0.3,4-1.1c0.6-1.1,0.5-2.4-0.3-3.3c-2.6-2.9-6.4,0.4-6.4,3.5c-0.1,1.6,1.2,3,2.8,3
				c0.2,0,0.3,0,0.5,0c1.7-0.3,3.1-1.5,3.8-3.1c0.7-1.6,0-3.4-1.6-4.1c-0.1-0.1-0.2-0.1-0.4-0.1c-1.8-0.3-3.6,0.7-4.2,2.5
				c-0.7,1.7,0.1,3.7,1.8,4.4c0.1,0.1,0.3,0.1,0.5,0.2c1.5,0.4,3-0.4,3.4-1.9c0.2-0.7,0.1-1.5-0.2-2.1c-0.5-0.8-1.6-1.1-2.4-0.6
				c-0.4,0.2-0.6,0.6-0.8,1c0-0.3,1.7-0.2,1.3,0.6c0.2-0.4-0.8-0.8-1.1-1s0.2-0.3,0-0.2s-0.3,0.3-0.4,0.4s-0.4,0.2-0.4,0.3
				s1.2,0.6,1.2,0.7s0.3-0.6,0.3-0.7s0.2,0,0-0.3s0,0.1,0,0c0.2,0.3,0-0.2,0-0.1s-0.2,0-0.4-0.1C43.2,107.8,42.5,109.8,43.6,110.5
				L43.6,110.5z"/>
		</g>
		<g class="st8">
			<path class="st6" d="M44.9,107c-1.9-0.4-3.9-0.5-4.9,1.5c-0.7,1.5-0.1,3.3,1.4,4c0.4,0.2,0.9,0.3,1.4,0.3
				c2.1-0.1,3.9-1.5,4.6-3.5c0.4-1.8-0.8-3.6-2.6-4c-0.3-0.1-0.7-0.1-1,0c-2.1,0.1-3.9,1.6-4.3,3.7c-0.2,1.7,1.1,3.3,2.8,3.5
				c0.5,0.1,1,0,1.5-0.2c2-0.6,3.2-2.6,2.7-4.7c0,0,0,0,0,0c-0.7-1.6-2.5-2.3-4-1.7c-0.3,0.1-0.6,0.3-0.8,0.5
				c-1.3,1.2-1.3,3.2-0.1,4.5c0.4,0.4,0.9,0.7,1.4,0.8c1.7,0.4,3.5-0.6,4-2.4c0.1-0.5,0.1-1,0-1.5c-0.3-1-1.3-1.5-2.3-1.3
				c-0.6,0.2-1.1,0.7-1.3,1.3v0.2c0-0.3,1.2,0.3,1.1,0c0,0.4-0.1,0.8-0.2,1.2l-0.3,0.2c-0.6,0.1-0.9,0-0.9-0.7s-0.2-0.8-0.2-0.6
				s0,0,0,0s-0.3,0-0.3,0.1s1.3,1.2,0.9,1.2c0,0,0.6-0.4,0.5-0.3s0.1,0,0.2,0s0,0-0.1-0.1s-0.3-0.3-0.2-0.5c0-0.7-0.1-0.2-0.4,0
				s-0.3,0.2-0.4,0.3s-0.2,0,0,0s0.3,0,0.4,0.4s0.4,0.4,0.3,0.4s0,0,0,0s0.2-0.2,0.2-0.2c0.3-0.1,0.6-0.2,0.9-0.2
				C45.8,109.1,46.3,107.2,44.9,107L44.9,107z"/>
		</g>
		<g class="st8">
			<path class="st6" d="M44.2,106.8c-1.3-0.4-2.6,0.3-3,1.6c-0.1,0.4-0.1,0.8-0.1,1.2c0.4,1.6,2,2.5,3.5,2.2c0.2,0,0.3-0.1,0.5-0.2
				c1.7-0.7,2.6-2.6,2-4.4c-0.7-1.7-2.5-2.5-4.2-1.9c-1.8,0.6-2.8,2.5-2.3,4.4c0.5,1.8,2.3,2.8,4.1,2.3c0.2,0,0.3-0.1,0.5-0.2
				c1.5-0.7,2.2-2.5,1.5-4c-0.7-1.5-2.5-2.2-4-1.5c-1.5,0.7-2.2,2.5-1.5,4c0.4,0.8,1.1,1.4,2,1.7c1.6,0.4,3.2-0.6,3.6-2.2
				c0.1-0.5,0.1-1,0-1.5c-0.2-0.8-1.1-1.3-1.9-1c-0.3,0.1-0.6,0.3-0.8,0.6c-0.2,0.5-0.2,0-0.5,0.6c0.7-1.2,2.3,1.9,0.3,1.4
				c-0.4-0.1-0.9-0.8-0.5-1.2s0.8,0.1,0.8,0s-0.3-0.2-0.4-0.3s0,0,0,0s0,0.2,0.2,0c0.5,0.3,0.5,0.9,0,1c0.7-0.1,1.2-0.8,1-1.5
				C44.9,107.3,44.6,106.9,44.2,106.8z"/>
		</g>
		<g class="st8">
			<path class="st6" d="M42.2,110v-0.8c0.2-1.1-1.4-2-2-0.8c-1.8,3.7-4.4,14.8,2.7,15c0.5,0,0.9-0.5,0.9-1c0-0.2-0.1-0.4-0.2-0.6
				c-1.9-1.3-3-3.5-2.8-5.8c0.2-2.3,0.7-4.5,1.5-6.7l-1.8,0.5c0.3,0.2,0.6,0.5,0.8,0.8C41.5,110.8,42.1,110.4,42.2,110L42.2,110z"/>
		</g>
		<g class="st8">
			<path class="st6" d="M36.9,110.8c-0.3,3.7,0.5,7.4,2.1,10.7c0.1,0.2,0.3,0.2,0.5,0.1c0.1-0.1,0.1-0.1,0.1-0.3
				c-0.4-3.5-1.3-7-1.7-10.6c-0.1-0.3-0.3-0.5-0.6-0.4C37.1,110.4,36.9,110.6,36.9,110.8z"/>
		</g>
		<g class="st8">
			<path class="st6" d="M37,116.6c-0.9,8.9,12.7,10,16,2.9c0.2-0.4,0-0.8-0.3-1c-0.2-0.1-0.4-0.1-0.7,0c-2.3,1.1-3.7,3-6.4,3.5
				c-3.7,0.7-7.5-1.3-7.4-5.4C38.2,115.7,37,115.8,37,116.6L37,116.6z"/>
		</g>
		<g class="st8">
			<path class="st6" d="M41.9,124.8c6.2-2,14.3-5.3,18-11c0.6-0.9-0.5-1.7-1.3-1.3c-2.9,1.7-5.7,3.7-8.4,5.8
				c-2.9,1.9-5.8,3.6-8.9,5.1c-0.3,0.2-0.4,0.7-0.2,1C41.3,124.6,41.6,124.7,41.9,124.8L41.9,124.8z"/>
		</g>
		<g class="st8">
			<path class="st6" d="M47.6,122.9c4.8-2.7,11-7.5,12.2-13.2c0.1-0.4-0.1-0.9-0.6-1c-0.3-0.1-0.6,0-0.8,0.2
				c-1.9,2.2-3.7,4.5-5.3,6.8c-1.9,2.2-4,4.2-6.3,6C46,122.2,46.9,123.3,47.6,122.9z"/>
		</g>
		<g class="st8">
			<path class="st6" d="M55.2,116.8c2.8-3.1,6.7-7.4,6.6-11.8c0-0.5-0.7-0.8-1-0.4c-1.2,1.7-2.2,3.6-2.9,5.6
				c-0.9,2.1-2.1,4.2-3.4,6.1C54.2,116.7,54.8,117.2,55.2,116.8L55.2,116.8z"/>
		</g>
		<g class="st8">
			<path class="st9" d="M66.2,126.9c4.8-4.2,7-10.2,9-16.2l-4-0.5c-0.6,5.8-1.5,11.5-2.8,17.2c-0.3,1.2,0.4,2.4,1.6,2.7
				c1.2,0.3,2.4-0.4,2.7-1.5c1.7-4.7,3.9-9.2,6.4-13.5l-4.1-1.7c-1,5.1-2.4,10.2-4.2,15.2c-0.9,2.5,2.9,4,4.2,1.8
				c2.5-4,4.9-7.9,7.3-11.8l-4-2.3c-2.1,4.2-4.4,8.4-6.5,12.6c-0.5,1.2,0.1,2.6,1.3,3.1c0.9,0.4,2,0.1,2.7-0.7
				c2.8-4.1,6.1-7.8,9.7-11.2l-3.3-2.6L73,130c-1.6,2.2,2,4.9,3.7,2.9c3.6-4.4,7.6-8.5,11.7-12.4l-3.6-2.8l-11.5,16.2
				c-1.6,2.2,1.9,4.8,3.7,2.9c5.2-5.6,10.5-11.1,16-16.4l-3.1-3.1c-4.8,5.3-9,11-12.5,17.2c-0.7,1.2-0.2,2.7,1,3.3
				c0.9,0.5,2.1,0.4,2.9-0.4c5-5.3,9.8-10.6,14.4-16.2l-3.3-2.6c-4.6,6.1-9.1,12.3-13.6,18.4c-1.6,2.2,1.9,4.8,3.7,2.8
				c4.7-5,9.2-10.2,14-15.1c2-2-1.1-5-3-3c-5.7,5.5-10.7,11.7-14.8,18.5c-0.6,1.2-0.2,2.6,0.9,3.2c0.5,0.3,1.1,0.4,1.7,0.2
				c12.6-4.4,20.2-20.6,27-31.1c8.4-12.9,19.4-28.5,19.8-44.5c0-1.1-0.9-2-2-2s-2,0.9-2,2c-0.5,14.5-10.5,27.3-18,39.1
				c-6.2,9.6-14.7,28.1-26,32l2.7,3.5c3.8-6.6,8.4-12.6,13.8-18l-3-3c-4.7,5-9.5,9.8-14.2,14.8l3.7,2.9c4.4-6.2,8.9-12.4,13.2-18.6
				c1.4-2-1.9-4.5-3.3-2.6c-4.4,5.8-9.4,11-14.9,15.8l3.9,3c3.2-5.9,7-11.4,11.3-16.6c1.8-2.1-1.1-5.2-3.1-3.1
				c-5.3,5.5-10.7,10.9-16.2,16.1l3.6,3L88.9,120c1.5-2.2-1.8-4.5-3.6-2.8c-4.1,4-8,8-11.9,12.3l3.7,2.9c2.9-4.3,5.8-8.6,8.7-12.9
				c1.4-2-1.6-4.2-3.3-2.5c-3.7,3.6-7.2,7.3-10.4,11.3l3.7,2.9c2.1-4.3,4.3-8.5,6.3-12.7c0.6-1.1,0.3-2.5-0.8-3.2s-2.5-0.3-3.2,0.8
				l0,0c-2.5,3.9-4.9,7.8-7.4,11.8l4.2,1.8c1.7-5,3-10,4-15.2c0.3-1.2-0.4-2.4-1.6-2.8c-1-0.3-2,0.2-2.5,1c-2.7,4.6-5,9.5-6.8,14.6
				l4.3,1.2c1.2-6.1,2.1-12.2,2.6-18.4c0.2-2.4-3.5-2.8-4-0.6c-1.6,5.7-4.4,11-6,16.7c-0.1,0.3,0.1,0.7,0.5,0.8c0.2,0,0.4,0,0.5-0.1
				L66.2,126.9z"/>
		</g>
		<g class="st8">
			<path class="st6" d="M123.6,60.4c0.2,0.1,0.5,0.1,0.8,0c0.3-0.1,0.4-0.3,0.3-0.6c-0.1-0.3-0.3-0.4-0.6-0.3l0,0
				c-1.2,0.4-2.3,1.1-3.2,2c-0.3,0.3-0.3,0.7,0,1c0,0,0.1,0.1,0.1,0.1c0.9,0.8,2.1,1,3.2,0.6c1-0.3,1.6-1.3,1.4-2.3
				c-0.1-0.8-0.8-1.4-1.6-1.3c-0.8,0.1-1.4,0.8-1.3,1.6c0,0.1,0,0.2,0.1,0.3c0.1,0.3,0.3,0.6,0.7,0.7c1.6,0.5,3.1-1.1,2-2.5
				c-0.7-0.9-1.9-1-2.8-0.3c-0.4,0.4-0.7,0.9-0.7,1.4c-0.2,1.2,0.6,2.3,1.8,2.4c0.6,0.1,1.1-0.1,1.6-0.4c1.3-0.9,0.8-3.2-1-2.8
				l0.7,1.7c1.7-1.2,2.5,3.6,2.8,4.4c0.4,1.5,0.9,3,1.6,4.4c0.3,0.4,0.8,0.5,1.1,0.2c0.2-0.1,0.4-0.4,0.4-0.6
				c-0.3-2.7-1.1-5.4-2.3-7.9c-0.6-1.8-2.5-2.7-4.3-2.1c0,0,0,0,0,0c-0.9,0.3-0.8,1.8,0.2,1.8l0,0l-0.5-0.8v-0.6l0.4,1.1
				c-0.9,0.1-1.9,0.1-2.8,0l0.1,1c0.8-0.8,1.7-1.5,2.6-2l-0.7-0.5l-0.2,0.3C123.5,60.2,123.5,60.4,123.6,60.4L123.6,60.4z"/>
		</g>
		<g class="st8">
			<path class="st6" d="M130.2,55.5c-6.3-1.2-12.6,2.4-14.9,8.4c-0.1,0.2,0.3,0.3,0.4,0.2c3-5.1,8.5-8.2,14.4-8
				C130.5,56,130.6,55.5,130.2,55.5L130.2,55.5z"/>
		</g>
		<g class="st8">
			<path class="st6" d="M127.5,53.9c-4.7,1.6-10.3,2.7-14.6,5.3c-0.6,0.3-0.2,1.1,0.4,1c4.9-0.7,10-3.3,14.5-5.1
				C128.6,54.9,128.3,53.6,127.5,53.9z"/>
		</g>
		<g class="st8">
			<path class="st6" d="M122.2,60.4c1.5,0.3,2.9,1.2,4,2.3c0.9,1.2,1.6,2.5,2,3.9c0.2,0.4,0.7,0.5,1.1,0.3c0.2-0.1,0.3-0.3,0.4-0.5
				c0.4-2-0.3-4.1-2-5.4c-1.5-1.3-3.5-1.8-5.5-1.2c-0.2,0.1-0.3,0.3-0.2,0.4C122.1,60.3,122.1,60.4,122.2,60.4z"/>
		</g>
		<g class="st10">
			<path class="st6" d="M124.5,60.8c1.2-1.9,2.8,2.3,3.3,2.8c0.3,0.3,0.8,0.3,1.1,0c0.1-0.1,0.2-0.2,0.2-0.4
				c0.4-1.8-0.5-3.7-2.1-4.5c-1.4-0.6-2.9,0-3.5,1.4c0,0.1,0,0.1-0.1,0.2C123.1,61,124.1,61.4,124.5,60.8z"/>
		</g>
		<g class="st10">
			<path class="st6" d="M132,57.2c-2.8-3.4-7.7-2.2-10.8,0.2c-0.7,0.5,0,1.5,0.8,1.3c3.1-0.6,6.2-2.5,9.3-0.6
				C131.9,58.5,132.4,57.7,132,57.2z"/>
		</g>
		<g class="st10">
			<path class="st6" d="M119,57.2l-0.9,0.5c0,0,0,0.1,0,0L119,57.2C119,57.2,119,57,119,57.2L119,57.2z"/>
		</g>
		<g class="st10">
			<path class="st6" d="M103.5,65.1c6.7-3.1,13.2-6.7,19.4-10.9c0.4-0.3,0.2-1.2-0.4-0.9c-6.8,3.1-13.3,6.8-19.5,10.9
				c-0.2,0.1-0.3,0.5-0.2,0.7C103,65.2,103.3,65.3,103.5,65.1z"/>
		</g>
		<g class="st10">
			<path class="st6" d="M123.6,60.1c5.6-0.4,4.7,7,6.8,10.2c0.2,0.3,0.5,0.4,0.8,0.2c0.2-0.1,0.3-0.3,0.3-0.5
				c0.1-4.3-1.8-13.5-8-10.8C123,59.4,123.2,60.1,123.6,60.1L123.6,60.1z"/>
		</g>
		<g class="st10">
			<path class="st6" d="M127.4,62.3c0.9,7.5,0.8,15-0.1,22.5c0,0.3,0.4,0.3,0.5,0c2.3-7.4,2.6-15.2,0.7-22.7
				C128.3,61.5,127.3,61.6,127.4,62.3L127.4,62.3z"/>
		</g>
		<g class="st10">
			<path class="st6" d="M127.6,63.4c-1.4,8.7-2.5,17.1-6,25.2c-3.9,9.1-10,16-16.4,23.5c-0.3,0.4,0,1,0.5,0.7
				c15.3-9.7,25.4-31.6,22.2-49.5C128,63.3,127.6,63.3,127.6,63.4z"/>
		</g>
		<g class="st10">
			<path class="st6" d="M104.8,113.5L104.8,113.5L104.8,113.5z"/>
		</g>
		<g class="st10">
			<path class="st6" d="M113.1,101.6c0.1,0,0.1-0.1,0.1-0.2c0,0,0-0.1-0.1-0.1C113.1,101.4,113,101.5,113.1,101.6
				C113.1,101.6,113.1,101.6,113.1,101.6z"/>
		</g>
		<g class="st10">
			<path class="st6" d="M111.5,102.3c-0.9,14.7-19,29.5-29.1,39s-21.2,17.2-31.8,25.8c-1.2,1,0.3,2.8,1.6,2.1
				c15-7.9,28.4-20.3,40-32.4c8.8-9.1,21.6-20.7,19.5-34.5C111.8,102.1,111.6,102.1,111.5,102.3z"/>
		</g>
		<g class="st10">
			<path class="st6" d="M38.3,120.8c-0.6,3.5,4.2,5.4,7.1,5.2c0.4,0,0.8-0.4,0.7-0.8c0-0.3-0.2-0.6-0.5-0.7c-6-1.7-6-8-4.2-12.8
				c0.2-0.6-0.6-1-1.1-0.6c-2.1,2.4-2.7,5.7-1.5,8.7c1.1,2.8,3.4,5,6.2,6.1l0.4-1.4c-3.4,0.3-4.5-1.8-6.7-3.7
				C38.6,120.7,38.4,120.7,38.3,120.8L38.3,120.8z"/>
		</g>
		<g class="st10">
			<path class="st6" d="M38.8,113c-1.2,2.4-2.4,7.5-0.6,10s5.3,1.1,7.1-0.8c0.4-0.5,0.2-1.6-0.6-1.5c-1.3,0.1-2.6,0.6-3.5,1.6
				c-0.3,0.3-0.3,0.9,0,1.2c0.2,0.2,0.4,0.3,0.6,0.3c1.7,0.2,3.4-0.2,4.8-1.1l-1-1.7c-0.9,0.5-1.6,1.1-2.3,1.8c-0.4,0.4-0.4,1,0,1.4
				c0.2,0.2,0.6,0.3,0.9,0.2c0.6,0,1.1-0.3,1.4-0.8l-1.1-1.1l-1.4,1.1c-0.3,0.2-0.4,0.7-0.2,1c0.2,0.3,0.6,0.4,0.9,0.2
				c3.3-1.1,6.2-3,8.6-5.6c0.4-0.6-0.1-1.6-0.8-1.1c-2.6,2-5.3,3.8-8.3,5.3l0.6,1.3c0.6-0.4,1.1-0.8,1.7-1.1s0.3-1.7-0.6-1.4
				l-0.9,0.2l0.7,1.7c0.6-0.6,1.2-1.1,2-1.5c1-0.7,0-2.3-1-1.7c-1.1,0.7-2.5,1.1-3.8,1l0.6,1.5l2.3-1.1l-0.6-1.5l-0.6,0.6
				c-1.2,1.5-2.3,1.4-3.1-0.3c-1.5-1.5-1.4-1.4-1.3-3.3s0.3-3.2,0.3-4.8c0-0.2-0.3-0.3-0.4,0L38.8,113z"/>
		</g>
		<g class="st10">
			<path class="st6" d="M39.1,130.3c-0.9,3.2-1.5,6.5-1.7,9.8c0,0,0.1,0,0.2,0c0.3-3.3,0.9-6.6,1.7-9.8
				C39.3,130.1,39.1,130,39.1,130.3z"/>
		</g>
		<g class="st10">
			<path class="st6" d="M37.2,131.9c-4.3,17.4-5.5,35.8-6.7,53.6c0,0.8,0.7,1.4,1.5,1.4c0.1,0,0.2,0,0.3,0c1.6-0.5,3.2-0.8,4.9-1.1
				c0.7-0.2,1.2-1,0.9-1.7c-0.1-0.3-0.3-0.6-0.6-0.8l-2.6-1.8l-1.7,2.2l1.7,0.9c1.2,0.7,2.7-0.7,2-2l-1.6-2.3l-2,2l1.5,0.7
				c1,0.4,2.5-0.3,2-1.5h-0.4c0.7,0,1.2-0.6,1.2-1.3c0-0.3-0.1-0.6-0.3-0.8l-1.3,0.3c0.7-0.2,1.1-0.9,1-1.6c0-0.1-0.1-0.3-0.2-0.4
				l-1.5,0.2c0.8,0,1.3-0.7,1.3-1.4c0-0.1,0-0.2,0-0.3c-1.1-3.7-0.9-8.8-1.2-12.7c0-1.6-2.6-1.6-2.5,0c0.3,5.3-1.2,16,2.7,20.4
				c0.4,0.4,0.9,0.5,1.4,0.4c2.8-0.9,5.5-2.3,8-4c0.4-0.6,0.3-1.5-0.3-1.9c-0.3-0.3-0.8-0.3-1.2-0.2c-6,3.4-6.7,4.3-7.5-4
				c-0.3-3.5-0.5-7-0.6-10.5h-2.5c0.1,2.6-0.8,12.1,1.7,11.8c-0.7,0-1.3,0.6-1.3,1.4c0,0.2,0.1,0.4,0.2,0.6h1.1
				c-0.7,0.2-1.1,0.9-0.9,1.6c0.1,0.2,0.2,0.4,0.3,0.5l1.6,1.6l0.9-2.1h-1.4c-0.7,0-1.3,0.6-1.3,1.3c0,0.1,0,0.2,0,0.3l0.4,1.5
				l2-1.5l-1.5-0.8c-1.2-0.6-2.8,0.7-2,2l1.6,2.3l2-2l-1.7-1c-1.3-0.8-2.9,1.1-1.7,2.2c0.9,1,2,1.8,3.2,2.2l0.3-2.5
				c-5,0.9-2.5-5.5-2.2-9.1c0.4-4.5,0.8-8.9,1.2-13.4c0.9-9.5,2.3-19,2.8-28.6c0-0.3-0.3-0.5-0.6-0.5
				C37.6,131.6,37.4,131.7,37.2,131.9L37.2,131.9z"/>
		</g>
		<g class="st10">
			<path class="st6" d="M61.4,94.1c14.3-6.5,27.9-14.3,40.8-23.3c0.2-0.1,0-0.5-0.2-0.4C87.7,76.8,74,84.5,61,93.4
				c-0.2,0.2-0.2,0.4,0,0.6C61.1,94.1,61.3,94.2,61.4,94.1z"/>
		</g>
		<g class="st10">
			<path class="st6" d="M67.5,115.2L67.5,115.2L67.5,115.2z"/>
		</g>
		<g class="st10">
			<path class="st6" d="M41,109.7c-1.8,4-2.5,8.4-2,12.7c0.2,1.5,2.5,2.1,2.8,0.4l1.6-6.8l-2.9-0.4v7.1c0,1.2,1.7,2,2.5,1
				c0.9-1.2,1.6-2.5,2-4c0.4-1.6-2-2.7-2.7-1.1c-0.7,1.2-1,2.6-0.9,4c0,0.8,0.7,1.5,1.5,1.5c0.4,0,0.7-0.2,1-0.4
				c1.2-0.9,2.2-2.1,2.9-3.3c1-1.7-1.6-3.2-2.6-1.5c-0.8,1.2-1,2.6-0.7,4c0.2,0.8,1.1,1.3,1.9,1.1c0.2-0.1,0.5-0.2,0.6-0.4
				c1.6-1.6,3.1-3.2,4.6-4.9l-2.5-1.5l-0.4,1.3c-0.2,0.8,0.3,1.7,1.1,1.9c0.4,0.1,0.8,0,1.1-0.1c2.4-1.6,4.4-3.7,6-6.1
				c1.2-1.7-1.6-3.3-2.8-1.6c-1.4,2.1-3.1,4-5,5.7c-0.8,0.8-1.8,1.5-2.7,2.2c-2,1.2-3.6,0.1-5.4-1s-4.4,1.7-2.5,3.3l0.5,0.4
				c0.9,0.8,2.2,0.7,3-0.1c0.3-0.4,0.5-0.9,0.6-1.4c0.2-3.1,0.8-6.1,2-8.9c0.8-2-2-3.1-3.4-2c-2.9,2.5-4,9.3-0.4,11.7
				c1.4,1,3.3,0.8,4.5-0.4c2.2-2.4-0.7-4.3-0.4-6.8s-3.7-2.9-4-0.6c-0.6,2.5,0.9,5.1,3.5,5.7c0.4,0.1,0.7,0.1,1.1,0.1
				c3.7,0,8-3.4,10.3-6c1.3-1.4-0.4-3.9-2.1-2.8c-1.3,0.8-2.6,1.7-4,2.5c-0.3,0.2-5,3.1-4.7,1h-4.2c-0.1,1,0.2,4.2,1.5,3.5
				c0.8-0.4,0.3-1.5,0.4-2.3c0.1-1.1,0.6-2.1,1.4-2.9l-3.4-2c-1.3,3.2-2.1,6.6-2.3,10L41,120l-0.5-0.4l-2.5,3.3
				c3.2,2.4,6.5,2.8,9.8,0.4c3.3-2.6,6-5.7,8.2-9.2l-2.8-1.6c-1.2,2-2.9,3.7-4.8,5.1l2.3,1.7l0.4-1.3c0.2-0.8-0.3-1.7-1.2-1.9
				c-0.5-0.1-1,0-1.4,0.4c-1.5,1.7-3,3.4-4.6,5l2.5,0.7l0.4-1.7l-2.6-1.5c-0.6,1.1-1.4,2-2.4,2.8l2.5,1c-0.1-0.9,0.1-1.7,0.6-2.4
				l-2.7-1.2c-0.2,1-0.6,1.9-1.3,2.7l2.5,1.1v-7.1c0-0.8-0.7-1.5-1.5-1.4c-0.6,0-1.2,0.4-1.4,1.1l-1.5,6.8l2.8,0.4
				c-0.4-4-0.1-8.1,0.9-12C43.1,109.4,41.5,108.6,41,109.7L41,109.7z"/>
		</g>
		<g class="st10">
			<path class="st6" d="M47.6,182c0.2-0.1,0.5-0.2,0.7-0.3c0.1,0,0.1,0,0.1-0.1c0-0.1,0-0.1-0.1-0.1c-0.3,0-0.5,0-0.8,0
				c-0.3,0-0.2,0.5,0.1,0.4L47.6,182z"/>
		</g>
		<g class="st10">
			<path class="st6" d="M48.1,182.1c15.5-7.4,27.9-23,38.2-36.2c0.2-0.3,0.2-0.7-0.1-1c-0.3-0.2-0.7-0.2-1,0.1l0,0
				c-5.5,7.3-11.6,14.2-18.3,20.4c-6,5.8-13.2,10.3-19.2,16c-0.2,0.1-0.2,0.4,0,0.5C47.7,182.1,47.9,182.1,48.1,182.1L48.1,182.1z"
				/>
		</g>
		<g class="st10">
			<path class="st6" d="M131.5,73.3c-0.3,2.6-0.8,5.1-1.6,7.5c-0.7,2.2-2,4.2-2.6,6.5c-0.1,0.6,0.2,1.2,0.9,1.4c0.4,0.1,0.8,0,1-0.3
				c4-3.5,4.4-10.4,3.5-15.3C132.5,72.4,131.6,72.7,131.5,73.3z"/>
		</g>
		<g class="st10">
			<path class="st6" d="M131.1,72.5c-0.1,2.8-0.6,5.6-1,8.4c-0.3,2.3-1.4,5.1-0.6,7.3c0.1,0.4,0.6,0.6,1,0.5c0.1,0,0.2-0.1,0.3-0.2
				c2-1.6,2.1-4.7,2.3-7.1c0.2-3.1-0.1-6.1-1-9.1c-0.1-0.3-0.4-0.4-0.7-0.3C131.4,72.2,131.2,72.3,131.1,72.5L131.1,72.5z"/>
		</g>
		<g class="st10">
			<path class="st6" d="M131.9,71.8c0.7,4.9-1.4,10-0.4,14.9c0.2,0.8,1,1.3,1.8,1c0.5-0.1,0.9-0.5,1-1c0.5-3.1,0.5-6.2,0-9.3
				c0.1-2.2-0.5-4.3-1.8-6C132.2,71,131.8,71.3,131.9,71.8L131.9,71.8z"/>
		</g>
		<g class="st10">
			<path class="st6" d="M132.2,72.3c-0.5,2.3-0.7,4.8-1.1,7.2c-0.6,1.9-0.8,4-0.5,6c0.2,0.6,0.8,0.9,1.4,0.8
				c0.2-0.1,0.3-0.1,0.5-0.3c1.1-1.8,1.7-3.9,1.7-6c0.3-2.5,0.2-5.1-0.3-7.6c-0.2-0.4-0.7-0.7-1.1-0.5
				C132.5,71.9,132.3,72,132.2,72.3z"/>
		</g>
		<g class="st10">
			<path class="st6" d="M132.4,74.1c-0.4,2.1-0.8,4.3-1,6.5c-0.2,1.8-0.8,3.9,0.6,5.2c0.3,0.3,0.7,0.3,1.1,0.1
				c1.5-1.1,1.2-2.7,1.3-4.5c0.1-2.4,0-4.8-0.1-7.2C134.2,73.3,132.7,72.9,132.4,74.1L132.4,74.1z"/>
		</g>
		<g class="st10">
			<path class="st6" d="M131.6,74.3c-0.2,2.2-0.4,4.5-0.7,6.7c-0.5,1.5-0.5,3.1,0,4.6c0.3,0.5,0.9,0.6,1.4,0.3
				c0.1,0,0.1-0.1,0.2-0.1c1-1.4,1.4-3.1,1.2-4.9c0.1-2.2,0-4.5-0.3-6.7c-0.1-0.5-0.5-0.8-1-0.7C132,73.6,131.7,73.9,131.6,74.3z"/>
		</g>
		<g class="st10">
			<path class="st6" d="M131.9,74.5c-0.5,2.3-0.9,4.6-1.2,6.9c-0.2,2-0.9,4,0.4,5.6c0.4,0.4,1,0.4,1.4,0c1.4-1.4,0.9-3.3,1-5.1
				c0-2.4,0.2-4.7,0.4-7c0.1-0.6-0.3-1.1-0.9-1.1S132,74,131.9,74.5L131.9,74.5L131.9,74.5z"/>
		</g>
		<g class="st10">
			<path class="st6" d="M131.3,74.9c-0.4,2.5-0.9,5.1-1.1,7.7c-0.2,2-0.7,4.5,0.8,6c0.4,0.4,0.9,0.4,1.3,0c1.4-1.5,1-3.6,1-5.6
				c0-2.6,0-5.2,0.3-7.8C133.6,73.8,131.6,73.5,131.3,74.9L131.3,74.9z"/>
		</g>
		<g class="st10">
			<path class="st6" d="M131.4,73.3c-0.3,2.8-0.7,5.6-1,8.3c-0.2,2.2-1,4.6,0.3,6.6c0.3,0.4,0.8,0.5,1.2,0.2c0.1,0,0.1-0.1,0.2-0.1
				c1.5-1.7,1.2-4,1.3-6.2c0.1-3,0.1-6,0.2-8.9C133.7,71.7,131.7,71.8,131.4,73.3L131.4,73.3z"/>
		</g>
		<g class="st10">
			<path class="st6" d="M132.8,74.3c-0.6,2.4-1.1,4.7-1.6,7.1c-0.6,1.9-0.7,4-0.4,6c0.2,0.6,0.9,0.9,1.5,0.7
				c0.2-0.1,0.4-0.2,0.5-0.4c0.8-1.7,1.2-3.5,1.2-5.4c0.3-2.5,0.5-4.9,0.9-7.4c0.2-1.4-1.8-2-2-0.6L132.8,74.3z"/>
		</g>
		<g class="st10">
			<path class="st6" d="M132.6,72.6c-0.5,2.9-1.1,5.7-1.7,8.6c-0.7,2.3-0.9,4.7-0.5,7.1c0.2,0.5,0.8,0.9,1.3,0.7
				c0.2-0.1,0.4-0.2,0.6-0.4c1-2.1,1.6-4.5,1.6-6.9c0.3-2.9,0.6-5.8,0.9-8.7C134.9,71.7,132.8,71.4,132.6,72.6L132.6,72.6z"/>
		</g>
		<g class="st10">
			<path class="st6" d="M132.2,72.6l-2,9.4c-0.9,2.4-1.2,5-0.9,7.5c0.1,0.5,0.6,0.8,1.1,0.6c0.2-0.1,0.4-0.2,0.5-0.4
				c1.5-2.1,1.6-5.1,2-7.6c0.5-2.9,1.1-5.9,1.6-8.8C134.8,71.7,132.6,71.1,132.2,72.6z"/>
		</g>
		<g class="st10">
			<path class="st6" d="M132.8,75.5c-1.1,3.1-2.3,6.1-3.4,9.2c-1.3,2.7-2,5.6-2.2,8.5c0,0.5,0.5,1,1,1c0.3,0,0.6-0.2,0.8-0.5
				c1.5-2.5,2.5-5.3,3-8.3c0.9-3.2,1.6-6.4,2.4-9.5c0.1-0.4-0.1-0.9-0.6-1S132.9,75,132.8,75.5z"/>
		</g>
		<g class="st10">
			<path class="st11" d="M55.7,186.7c31.1-7.6,62.6-13.2,94.4-16.8l-0.7-5.1c-30.5,7.4-61,14.8-91.5,22.5c-1.4,0.4-2.2,1.8-1.8,3.1
				s1.8,2.2,3.1,1.8c14.2-3.3,28.4-6.4,42.6-9.6l-1.3-4.6c-22.4,5.5-45,9.8-67.9,12.6l1.2,4.5c13.7-6,28.3-9.6,43.2-10.7l-0.6-4.4
				c-10.3,2.6-20.6,5.2-30.8,7.8l2.4,3.1c1.4-2.5,1.4-2.8,0.1-5.4l-1.3,3.1c50.4-10.8,101.7-17.7,153.2-20.6c1.2-0.1,2.1-1.2,2-2.4
				c-0.1-1-0.9-1.9-2-2C143.9,158.6,89,175.3,36,192.6c-1.2,0.4-1.8,1.8-1.4,2.9c0.4,1.1,1.5,1.7,2.6,1.5c44-6.6,87.7-14.3,131-24.8
				c2.8-0.7,1.5-4.6-1.2-4.2c-19.2,2.6-38.3,5.4-57.4,8.2c-2.7,0.4-2.1,5.2,0.7,4.9c32.6-4.2,65.1-8.6,97.7-12.9
				c2.2-0.3,3.3-4,0.6-4.3c-13.7-2.3-27.7-2.5-41.5-0.8c-2.5,0.3-2.6,4.2,0,4c13.4-1.3,27-1,40.4,1.1l0.6-4.3
				c-32.6,4.2-65.1,8.1-97.8,12.3l0.7,4.9c19.2-2.8,38.3-5.8,57.3-8.9l-1.2-4.2c-43,10.6-86.5,18.8-130.4,24.5l0.6,4.5
				c53-16.7,106.7-33.7,163-28.9v-4.4c-51.9,3.5-103.4,10.4-154.3,20.9c-1.1,0.3-1.8,1.5-1.4,2.7c0,0.1,0.1,0.3,0.2,0.4l-0.1,1.2
				c-0.6,1-0.2,2.3,0.8,2.9c0.5,0.3,1,0.3,1.6,0.2c10.3-2.5,20.6-5,30.9-7.6c2.4-0.6,2-4.6-0.6-4.4c-15.5,1.1-30.7,4.8-45.1,10.8
				c-2.2,0.9-2.3,5,0.6,4.7c23.5-2.3,46.3-7.6,69.2-12.8c3-0.7,1.8-5.3-1.3-4.6c-14.2,3.1-28.4,6.2-42.7,9.3l1.4,4.9
				c30.5-7.2,60.9-15,91.5-22.5c2.7-0.7,2.2-5.4-0.7-5c-32.3,3.4-64.3,9.2-95.6,17.5c-1.2,0.3-1.9,1.6-1.6,2.8S54.5,187,55.7,186.7z
				"/>
		</g>
		<g class="st10">
			<path class="st11" d="M66.2,94c19.1-8,37.5-21,55.1-32c0.6-0.4,0.8-1.2,0.4-1.8c-0.4-0.6-1.1-0.7-1.7-0.4
				c-18.2,10.2-38.4,20-54.8,32.9C64.4,93.3,65.4,94.3,66.2,94L66.2,94z"/>
		</g>
		<g class="st10">
			<path class="st11" d="M65.6,95.7c12.4-0.7,24.3,5.3,31,15.9c0.6,1,1.9,1.3,2.9,0.7c0.1-0.1,0.3-0.2,0.4-0.3
				c11.1-13.9,18.6-30.3,21.7-47.8c0.3-2-2.2-4.1-3.7-2.2C108.6,73.1,101,85.4,95,98.5c-0.9,2,1.7,4.6,3.3,2.6
				c5.6-7.1,10.7-14.6,15.1-22.6l-3.7-2.2l-7.1,15.8c-1.1,2.5,2.5,4.6,3.7,2.2l7.9-16.5c1.1-2.4-2.4-4.5-3.6-2.1
				c-4.5,9.1-9.2,18.1-13.9,27.1h4C94.9,92.6,83.4,87.1,72,89.2l2,4.6c13.9-6,27.4-12.8,40.6-20.2l-3.4-3.4
				c-6.4,8.8-10.8,19-12.9,29.7l4-1.1c-2.3-3-5.9-4.9-9.8-5c-1.4,0-2.5,1.1-2.5,2.5c0,0.4,0.1,0.8,0.3,1.2l3.4,5l3.4-3.4
				c-13.6-8.2,8.4-15,11.1-15.7l-2.4-4l-9.2,11.6l4,2.3l5-11.9c1.1-2.5-3-4-4.3-1.8l-6.6,10.7c-0.6,1.2-0.2,2.6,1,3.2
				c0.9,0.5,2,0.3,2.7-0.3c1.9-2,3.7-4,5.6-6c1.5-1.6,0-4.8-2.3-4l-10.3,4l2.3,4l5-2.3c2.7-0.5,2-4.6-0.6-4.7
				c-4.4-0.2-8.8,0.4-12.9,1.7c-1.2,0.4-1.9,1.8-1.5,3c0.4,1.1,1.6,1.8,2.7,1.5l12.6-2.2l-1.2-4.5l-14.5,4.5
				c-1.2,0.4-1.9,1.7-1.5,2.9c0.3,0.9,1.1,1.6,2.1,1.6l13.5,1.5c2.5,0.3,3.2-4.1,0.6-4.5l-6.6-1c-1.3-0.3-2.5,0.6-2.7,1.8
				c-0.2,1.1,0.4,2.3,1.5,2.7l9.4,2.8l1.2-4.5l-5.6-1l0.6,4.3c10.3-6.7,18-16.7,22-28.3c0.3-1.3-0.5-2.6-1.8-2.9
				c-0.6-0.1-1.2-0.1-1.8,0.2c-16.2,11.8-33.6,21.8-52,29.9c-3,1.3-0.4,5.7,2.6,4.4c18.3-8.2,35.7-18.3,51.9-30.1l-3.5-2.7
				C109.7,76,102.8,84.9,93.6,91c-1.5,1-1.6,3.9,0.6,4.3l5.6,1c1.3,0.3,2.5-0.6,2.8-1.8c0.2-1.1-0.4-2.3-1.5-2.7l-9.4-2.9l-1.2,4.5
				l6.6,0.9l0.6-4.5L84,88.3l0.6,4.5l14.5-4.5c1.2-0.4,1.8-1.8,1.4-3c-0.4-1.1-1.5-1.7-2.6-1.5L85.2,86l1.3,4.5
				c3.8-1.2,7.8-1.7,11.7-1.5l-0.7-4.8c-2.7,0.5-5.1,1.7-7.1,3.5c-1.8,1.5,0.1,4.9,2.3,4l10.3-4l-2.3-4c-1.9,2-3.7,4-5.6,6l3.7,2.8
				l6.7-10.7l-4-2.4l-5,11.9c-0.9,2.2,2,5.2,3.8,2.9l9.3-11.6c0.9-1,0.9-2.5-0.1-3.4c-0.6-0.6-1.4-0.8-2.2-0.6
				c-6.5,1.7-14.2,4-17.1,10.8c-2.3,5.2-0.3,11.2,4.8,13.9c2,1.2,4.8-1.3,3.4-3.4c-1.1-1.7-2.2-3.3-3.4-5l-2.1,3.7l6.2,3.6
				c1,1,2.6,1,3.6,0c0.3-0.3,0.5-0.7,0.6-1.1c2-10.2,6.3-19.9,12.4-28.4c1.5-2.1-1.4-4.5-3.4-3.4c-12.9,7.4-26.3,14-40,19.8
				c-2.3,1-2.4,5.4,0.7,5c9.5-1.6,19,2.7,24,10.9c0.7,1.1,2.1,1.4,3.3,0.7c0.3-0.2,0.6-0.4,0.7-0.7c4.4-9.2,8.9-18.3,13.5-27.3
				l-3.6-2.1l-8,16.5l3.7,2.2l7.2-15.7c1.1-2.5-2.4-4.6-3.7-2.2c-4.2,7.6-9,14.9-14.4,21.7l3.3,2.6c5.9-12.7,13.3-24.7,22.3-35.5
				l-3.7-2.2c-2.9,16.8-9.9,32.5-20.3,46l3.3,0.4c-7.3-11.9-20.7-18.6-34.5-17.3C63.3,92.3,63.2,95.7,65.6,95.7L65.6,95.7z"/>
		</g>
		<g class="st10">
			<path class="st11" d="M35.9,126.9c-0.4,1.4,0.5,2.9,1.9,3.2c1.1,0.3,2.3-0.2,2.9-1.1c0.8-1.3,0.4-3.1-1-3.9
				c-0.8-0.5-1.9-0.5-2.7-0.1c-2.3,1.1-1.9,4.9,0.9,4.9s2.9-4.1,0.4-4.9c-0.6-0.2-1.3,0.1-1.7,0.7c-1.1,2.4-1.4,6,2.3,6.2
				c1.9-0.3,3.8-0.9,5.4-2c2.3-0.9,4.6-2.1,6.6-3.6c1.1-0.9,0-2.4-1.3-2.2c-1.9,0.5-3.8,1.3-5.5,2.3c-0.9,0.4-6.3,3.5-4.9,0.7
				l-1.7,0.7c1,0,1.2-0.3,0.6-1C37.7,125.9,36,125.7,35.9,126.9z"/>
		</g>
		<g class="st10">
			<path class="st11" d="M52.2,120.8c-2.5,0.6-4.7,3-7,4.2c-0.9,0.5-3.1,2-4.2,1.8l-2.4-2.2c0.1-0.4,0.2-0.8,0.4-1.2
				c0.1-0.5,0.2-1,0.3-1.6c0.2-1.1-1.4-1.6-2.1-0.9c-3,3.1-2.2,9.4,2.9,9.1c4-0.2,11.7-4.6,12.4-8.8C52.5,121,52.4,120.9,52.2,120.8
				C52.3,120.8,52.2,120.8,52.2,120.8L52.2,120.8z"/>
		</g>
		<g class="st10">
			<path class="st11" d="M37,128.1c-5.5,17.3-6.8,39.8-4.8,57.8c0.1,0.7,0.7,1.2,1.4,1.1c0.6-0.1,1-0.5,1.1-1.1
				c0.8-9.6,0.4-19.3,0.9-28.9s2-19.2,1.7-28.8c0-0.1-0.1-0.1-0.2-0.1c0,0,0,0-0.1,0.1L37,128.1z"/>
		</g>
		<g class="st10">
			<path class="st11" d="M36.6,132.8c-3.5,7.9-4.2,17.5-4.9,26c-0.8,9.8-2,20.5-0.4,30.2c0.1,0.9,1.4,0.5,1.4-0.2
				c1.2-9.3,0.5-18.8,1.4-28.2s3.2-18.7,2.7-27.9C36.8,132.6,36.7,132.6,36.6,132.8L36.6,132.8z"/>
		</g>
		<g class="st10">
			<path class="st11" d="M35.6,133c-5.1,17.7-4.8,38-3.5,56.1c0.1,1.7,2.7,1.7,2.6,0c-1.3-19,0.7-37.1,1.3-56c0-0.1-0.2-0.2-0.3-0.2
				c-0.1,0-0.1,0.1-0.2,0.2V133z"/>
		</g>
		<g class="st10">
			<path class="st11" d="M37.4,188.3c10.2-2.9,19.5-11.8,27.1-18.9c8.3-7.8,18.2-17.5,22.9-28c0.4-0.9-0.7-2-1.5-1.1
				c-8,8.1-14.3,17.8-22.6,25.8s-18.6,13.7-26.2,22c-0.1,0.1,0,0.4,0.2,0.3V188.3z"/>
		</g>
		<g class="st10">
			<path class="st11" d="M39.6,181.9c8.3-6,15.9-13,23.5-19.8c8.6-7.6,17.7-14.9,25.1-23.6c0.4-0.4-0.1-1.2-0.6-0.8
				c-8.5,5.8-15.9,13.1-23.4,20c-8.4,7.7-17.2,15.3-24.9,23.8C39.1,181.7,39.2,182.1,39.6,181.9L39.6,181.9z"/>
		</g>
		<g class="st10">
			<path class="st11" d="M38.7,183.8c14.6-12.8,29.9-25.1,43.8-38.6c0.5-0.5-0.2-1.5-0.8-1c-16,10.8-30.5,24.9-43.4,39.2
				c-0.1,0.2,0,0.3,0.1,0.4C38.4,183.8,38.6,183.8,38.7,183.8z"/>
		</g>
		<g class="st10">
			<path class="st11" d="M38.2,183.5c18.4-15.3,37-31.7,52.4-50c0.4-0.5,0.3-1.1-0.1-1.5c-0.4-0.3-1-0.3-1.4,0
				c-17.8,16.2-34.3,34-51.3,51.2C37.6,183.4,38,183.8,38.2,183.5L38.2,183.5z"/>
		</g>
		<g class="st10">
			<path class="st11" d="M66.6,160.5c11.8-10,24.6-19.7,34.7-31.5c0.6-0.7-0.2-2-1.1-1.4c-12.7,9.1-23.5,21-34.6,32
				C65,160.2,65.9,161,66.6,160.5z"/>
		</g>
		<g class="st10">
			<path class="st11" d="M79.2,145.7c12.2-10.1,21.5-23.3,27.1-38.2c0.2-0.7-0.8-1-1.1-0.5c-8.1,13.2-17,25.8-26.8,37.8
				c-0.2,0.2-0.2,0.6,0,0.8C78.6,145.9,78.9,145.9,79.2,145.7z"/>
		</g>
		<g class="st10">
			<path class="st11" d="M85.4,139.9c13.2-11.7,27.2-27.3,33.3-44.2c0.5-1.3-1.4-1.9-2.1-0.9c-5.1,7-9.1,14.8-14,21.9
				c-5.5,7.8-11.5,15.4-17.7,22.7c-0.1,0.2-0.1,0.4,0.1,0.5C85.2,140,85.3,140,85.4,139.9L85.4,139.9z"/>
		</g>
		<g class="st10">
			<path class="st11" d="M111.1,98.3c-3.5,7.2-7.4,14.1-11.7,20.8c-4.3,6.7-10.2,12.4-14,19.4c-0.4,0.7,0.4,1.7,1.2,1.2
				c12.7-8.8,20.5-27,25.3-41C112.1,98.1,111.2,97.7,111.1,98.3L111.1,98.3z"/>
		</g>
		<g class="st10">
			<path class="st11" d="M112.7,91.3c-5,9.5-9.3,19.3-15,28.5s-13,17-19.1,25.9c-0.6,0.8,0.6,2,1.4,1.4
				c16.3-12.5,29.4-35.4,33.8-55.3C114,91.1,113,90.7,112.7,91.3z"/>
		</g>
		<g class="st10">
			<path class="st11" d="M110,98.4c-8.4,16.3-19.5,29.4-32,42.8c-0.6,0.7,0.2,1.9,1,1.3c14.9-10.4,25.8-26.8,32.3-43.5
				C111.6,98.2,110.4,97.7,110,98.4L110,98.4z"/>
		</g>
		<g class="st10">
			<path class="st11" d="M66.1,108c0.1,0,0.1-0.1,0.1-0.2c0,0,0-0.1-0.1-0.1C66,107.8,66,107.9,66.1,108C66,108,66,108,66.1,108z"/>
		</g>
		<g class="st10">
			<path class="st11" d="M66.1,108l1.1-2.6l-2.2-0.6c-0.1,2.7-0.6,5.3-1.3,7.9l2.8,0.8c0.5-2.5,1.5-4.9,3-7l-2.7-0.7v4.7
				c-0.2,1.5,1.8,2.7,2.7,1.1l3.5-6l-2.8-1.2l-1.3,5.7c-0.2,0.8,0.2,1.6,1,1.8c0.7,0.2,1.4-0.1,1.7-0.7l2.8-4l-2.8-0.8v4
				c0,0.8,0.7,1.5,1.5,1.5c0.3,0,0.5-0.1,0.7-0.2c1-0.7,1.9-1.5,2.6-2.6l-2.9-0.7l-0.1,4c0,0.9,0.8,1.5,1.6,1.5c0.4,0,0.7-0.2,1-0.4
				l3-3.5l-2.6-0.7l0.7,3.4c0.2,0.8,1.1,1.3,1.9,1.1c0.3-0.1,0.5-0.2,0.7-0.4l2.6-3.1l-2.6-1.5c-0.3,1.2-0.4,2.5-0.1,3.7
				c0,0.9,0.8,1.6,1.7,1.6c0.4,0,0.8-0.2,1-0.4l2.7-2.5l-2.7-1.5l-0.8,2.9c-0.2,0.9,0.3,1.7,1.2,1.9c0.4,0.1,0.8,0,1.1-0.1l2.8-1.8
				l-2.3-1.8l-0.4,2.1c-0.2,0.9,0.4,1.7,1.3,1.8c0.3,0.1,0.7,0,1-0.1l2.4-1.2l-2.3-0.9l0.6,2.3c0.2,0.9,1.1,1.3,2,1.1c0,0,0,0,0,0
				c1.4-0.3,4,1.8,5.5,2.3c1.9,0.6,3.8,1,5.8,1.1c2,0.2,2-2.9,0-3c-4.7-0.4-7.7-4.5-12.1-3.4l2,1.1l-0.7-2.2c-0.2-0.9-1-1.4-1.9-1.2
				c-0.1,0-0.3,0.1-0.4,0.2l-2.4,1.2l2.3,1.8l0.4-2c0.2-0.8-0.3-1.7-1.1-1.9c-0.4-0.1-0.8-0.1-1.2,0.1l-2.8,1.8l2.3,1.8l0.8-2.7
				c0.2-0.9-0.3-1.7-1.2-1.9c-0.5-0.1-1.1,0-1.4,0.4l-2.6,2.5l2.7,1.1v-2.9c0.2-1.4-1.5-2.9-2.6-1.5l-2.7,3.1l2.6,0.7l-0.7-3.4
				c-0.2-0.8-1.1-1.3-1.9-1.1c-0.3,0.1-0.5,0.2-0.7,0.4l-3,3.5l2.6,1v-4c0-0.9-0.7-1.5-1.6-1.5c-0.5,0-1,0.3-1.3,0.7l-1.5,1.5
				l2.4,1.3v-4c0-0.8-0.7-1.5-1.6-1.5c-0.5,0-1,0.3-1.2,0.7l-2.8,4l2.7,1.1c0.4-1.9,0.8-3.8,1.2-5.7c0.1-0.8-0.4-1.6-1.2-1.7
				c-0.6-0.1-1.2,0.2-1.5,0.7l-3.5,6l2.7,1.1c0.4-1.8,0.5-3.7,0.2-5.5c0-0.8-0.7-1.4-1.6-1.4c-0.5,0-0.9,0.3-1.2,0.7
				c-1.6,2.3-2.7,4.9-3.2,7.7c-0.1,0.8,0.4,1.5,1.2,1.7c0.7,0.1,1.4-0.3,1.6-0.9c0.9-2.8,1.2-5.7,0.9-8.6c-0.2-1.5-2.5-1.6-2.4,0
				c-0.1,1.2,0.2,2.3,0.9,3.3C65.9,108,66,108,66.1,108C66,108,66,108,66.1,108L66.1,108z"/>
		</g>
		<g class="st10">
			<path class="st11" d="M45.1,129.6c-1.2,11.6-0.3,23.5,0.6,35.1c0,1.2,1.1,2.2,2.3,2.2c0.2,0,0.3,0,0.5-0.1
				c5.2-1.5,10-4.1,14.2-7.5c2.2-1.8-0.6-4.7-2.8-3.7l-3.7,1.7l2.8,3.7l3.3-4c0.9-0.9,0.8-2.4-0.2-3.2c-0.7-0.7-1.8-0.8-2.6-0.3
				l-5.8,2.9l3.1,3.1l3.3-4.7c1.6-2.3-1.7-4.2-3.6-2.7l-5.4,4.3l3.5,2.7l3.7-5.2c1.5-2-2-4.7-3.5-2.7l-2.6,2.2l3.3,2.5
				c0.3-2,0.5-4,0.8-6.1h-3.8l-1.7,4.8l3.5,1c0.2-1.2,0.3-2.4,0.4-3.7c0.2-2.2-3.2-2.5-3.8-0.5l-2,6.3l3.9,0.5
				c-0.2-2.7-0.4-5.4-0.7-8.2c0-1.1-0.9-2-2-2s-2,0.9-2,2l-0.8,8.3h4c-0.4-7-0.1-14,0.9-21c0.4-2.6-3.6-3.7-4-1.1l-0.6,3.6l4,0.6
				c-0.3-3.1-0.5-6.3-0.8-9.4c0-1.1-0.9-2.1-2-2.1s-2,0.9-2,2.1c-0.4,10.4,1.6,20.7,5.9,30.2l4-2.3l-3.5-6.6c-1.2-2.2-4.1-1-4.3,1.2
				c-0.4,4.3,0.1,8.6,1.4,12.7l3.4-2.6l-1.9-0.9c-1.4-0.7-3.7,0-3.5,2c0,1.5,0.5,3,1.4,4.3c0.7,1.1,2.1,1.5,3.2,0.8
				c13.4-7.4,24.8-17.9,33.4-30.6c1.4-2-1.8-4.6-3.5-2.7c-4.6,5.2-11.5,14.3-18.7,14c-9.6-0.6-10.9-15.6-9.7-23.2
				c0.4-2.8-3.8-4.1-4.4-1.2c-2,9.7,0.3,23.1,9.2,29.1c9.2,6.2,21.3-9.7,26.8-15.5l-3.5-2.7c-8.4,11.9-19.3,21.7-32,28.8l3.2,0.8
				l-0.8-1.9l-3.5,2l2,0.9c1.1,0.6,2.5,0.2,3.1-0.9c0.3-0.5,0.4-1.1,0.2-1.7c-1.1-3.7-1.5-7.6-1.2-11.4l-4.3,1.2l3.5,6.5
				c1.4,2.6,5.1,0.3,4-2.3c-4.1-8.7-6-18.3-5.7-27.9h-4.2c0.2,3.1,0.5,6.3,0.7,9.4c0.2,2.1,3.7,3,4,0.5l0.7-3.6l-4-0.5
				c-1,7.1-1.3,14.3-0.9,21.5c0,1.1,0.9,2,2,2s2-0.9,2-2l0.9-8.3h-4c0.3,2.7,0.5,5.4,0.7,8.2c0.1,1.1,1.1,1.9,2.2,1.8
				c0.8-0.1,1.4-0.6,1.7-1.3l1.9-6.4l-3.8-0.5c-0.1,1.2-0.3,2.5-0.3,3.7c-0.2,2,2.6,2.4,3.5,0.9c1.3-2,2.1-4.3,2.3-6.7
				c0.3-2.2-3.2-2.6-3.8-0.5s-0.9,3.6-1.3,5.4c-0.3,1.2,0.4,2.4,1.6,2.8c0.6,0.1,1.2,0.1,1.7-0.2c1.5-0.5,2.7-1.5,3.5-2.8l-3.5-2.7
				l-3.8,5.2c-1.6,2.3,1.7,4.2,3.5,2.7l5.5-4.3l-3.5-2.7l-3.3,4.7c-1.4,2,1.3,4,3.1,3.1l5.8-2.8l-2.8-3.6l-3.4,4
				c-0.9,1-0.8,2.5,0.2,3.3c0.7,0.7,1.8,0.8,2.7,0.3l3.7-1.9l-2.9-3.7c-3.6,2.9-7.6,5.1-12,6.5l2.8,2.1c-1.3-11.7-1.4-23.4-2.5-35.1
				c0-0.7-0.6-1.3-1.3-1.3C45.7,128.3,45.1,128.9,45.1,129.6L45.1,129.6z"/>
		</g>
		<g class="st10">
			<path class="st11" d="M135.7,45.3c-0.8,2.8-1.1,5.7-1,8.6c-0.3,2.9-0.2,5.8,0.2,8.7c0.2,0.6,0.9,1,1.5,0.7
				c0.4-0.1,0.6-0.4,0.7-0.7c0.6-2.9,0.8-5.8,0.7-8.7c0.3-2.9,0.2-5.8-0.4-8.6c-0.1-0.5-0.6-0.7-1.1-0.6
				C136,44.8,135.8,45,135.7,45.3z"/>
		</g>
		<g class="st10">
			<path class="st11" d="M137.2,48.4c-3.5,21.1-2.9,42.9-2.9,64.2c0,22.6,0.2,45.3,1.4,68c0,2.4,4,3.2,4.4,0.6
				c0.6-4.1,1.3-8.2,2.1-12.3l-4.8-0.7c-0.3,3.8-0.5,7.6-0.7,11.4c-0.1,3.5,5.1,3.4,5.4,0c0.2-2.7,0.5-5.3,0.8-8s-4.7-3.6-5.1-0.7
				c-0.6,4.6-1.3,9.1-1.7,13.7h5.3l-0.2-4.8c-0.1-1.3-1.2-2.3-2.5-2.3c-1,0-1.9,0.7-2.2,1.6c-0.7,1.6-1,3.4-0.8,5.2
				c0.1,1.1,0.9,1.9,2,2l6,0.4l0.5-3.6c-2.4,0.1-4.9,0-7.3-0.5l2.3,2.3c0-5.4-0.4-10.7-0.7-16.1c-0.2-2.9-4.6-3-4.6,0
				c0.1,5.4,0.3,10.7,0.8,16.1c0,1.1,1,2.4,2.3,2.3c2.5-0.4,5-0.5,7.5-0.3c1,0,1.8-0.9,1.8-1.9c0-0.8-0.5-1.5-1.3-1.7
				c-2.2-1.1-4.7-1.5-7.1-1.1l2.1,2l1-3.4l-4.4-1.2l-0.4,4.8c-0.2,2.9,4.8,3.7,5.2,0.7c0.7-4.5,1.1-9.1,1.6-13.7h-5.2
				c-0.3,2.7-0.6,5.3-1,8h5.4c0.2-3.8,0.3-7.6,0.3-11.4c0-3.2-4.6-3.1-4.9,0c-0.4,4-1,7.8-1.6,11.7l4.4,0.6c-0.9-22-1.7-44-1.8-66
				s1.8-44.1,0-66c0-0.6-1.1-0.9-1.2-0.2L137.2,48.4z"/>
		</g>
		<g class="st10">
			<path class="st12" d="M143.8,51c-2,44.8,1.3,90-1.8,134.7l3.7-1c-4.1-9.3-5.3-19.7-3.4-29.7h-4.3c1.3,8.6,2.6,17.2,4,25.7
				l4.2-1.1c-4.3-22.5-1.5-45.2-0.7-67.9c0.8-22.2-3.5-44.8,1-66.8l-3.7,0.5l1.4,2c1.4,2.1,4.8,0.2,3.4-2l-1.3-2
				c-0.5-1-1.7-1.3-2.7-0.8c-0.5,0.3-0.9,0.7-1,1.3c-4.7,22.3-0.4,45.2-1.3,67.8c-0.8,23.2-3.1,46,0.6,69c0.4,2.8,4.6,1.6,4.2-1.1
				c-1.3-8.6-2.6-17.2-3.9-25.8c-0.3-1.2-1.6-1.9-2.8-1.5c-0.7,0.2-1.3,0.8-1.5,1.5c-1.9,11.1-0.4,22.6,4.3,32.9
				c0.9,2,3.6,0.8,3.7-1c1.5-22.3,0.8-44.7,0.8-67s0.6-45.2-0.4-67.7c-0.1-0.7-0.8-1.3-1.5-1.2C144.4,49.9,143.9,50.3,143.8,51z"/>
		</g>
		<g class="st10">
			<path class="st12" d="M141.6,177.4c1-4.6,0.9-9.3-0.3-13.9c0-0.3-0.5-0.2-0.4,0.1c0.8,4.5,1,9.2,0.5,13.7
				C141.4,177.5,141.6,177.5,141.6,177.4L141.6,177.4z"/>
		</g>
		<g class="st10">
			<path class="st12" d="M139.6,156.8c0,4.8,1.2,9.6,1.7,14.3s0.3,9.8,0.9,14.6c0,0.9,0.8,1.6,1.7,1.5c0.9,0,1.6-0.8,1.5-1.7
				c0-0.2-0.1-0.5-0.2-0.7l-0.7-1.5c-0.2-0.4-0.7-0.5-1-0.3c-0.1,0.1-0.2,0.2-0.3,0.3l-0.9,1.5l3,1.3c1.5-9,0-21.7-4.4-29.7
				c-0.2-0.4-0.7-0.5-1.1-0.2C139.7,156.3,139.6,156.5,139.6,156.8L139.6,156.8z"/>
		</g>
		<g class="st10">
			<path class="st12" d="M145.1,166.3l0.4-1.5l-1.7-0.7c-0.8,3.1-1,6.3-0.8,9.5c-0.3,3.2-0.4,6.4-0.2,9.6c0.2,1.6,2.5,1.3,2.9,0
				c0.8-3.4,1.1-6.9,0.9-10.3c0.3-3-0.1-6.1-1.1-9c-0.5-1.1-2.3,0-1.6,0.9l0.5,1.5c0,0.2,0.2,0.4,0.4,0.4S145.1,166.5,145.1,166.3z"
				/>
		</g>
		<g class="st10">
			<path class="st12" d="M144.5,162.3c-1.2,2.5-1.9,5.3-2,8.1c-0.5,2.9-0.8,5.8-1.2,8.7h3.8c-0.1-5.3-0.1-10.5-0.1-15.8
				c0-2-3.1-2.5-3.5-0.5l-2.8,14.1l3.5,0.5c-0.1-3.2,0.2-6.5,0.8-9.7c0.4-2.2-2.9-3.2-3.5-1l-2.7,11.2l3.5,0.3
				c-0.1-3.2,0.3-6.5,1.2-9.6l-3.5-1c-0.7,3-1,6-1.1,9c0,1.1,1.7,1.7,2.2,0.6c1.1-2.8,1.9-5.7,2.4-8.6c0.2-1-0.4-2-1.4-2.2
				c-0.9-0.2-1.8,0.3-2.1,1.2c-0.9,3.5-1.4,7-1.3,10.6c0,1,0.8,1.8,1.8,1.8c0.8,0,1.5-0.5,1.8-1.3l2.7-11.2l-3.5-1
				c-0.6,3.5-0.9,7.1-0.9,10.6c0,2,3.1,2.5,3.5,0.5l2.8-14.1l-3.5-0.5c0,5.3,0,10.6,0,15.8c0,2.5,3.5,2.3,3.8,0
				c0.4-2.9,0.8-5.9,1.1-8.8c0.5-2.6,0.5-5.2,0-7.8c-0.1-0.5-0.6-0.8-1.1-0.6c-0.2,0.1-0.4,0.2-0.5,0.4L144.5,162.3z"/>
		</g>
		<g class="st10">
			<path class="st12" d="M137.2,161.7c-0.5,3.5-0.7,7.1-0.7,10.6c-0.5,4-0.7,8-0.7,12c0,0.8,0.7,1.4,1.6,1.4c0.6,0,1.1-0.4,1.3-1
				c1.2-3.7,1.7-7.6,1.5-11.5c0.3-3.9-0.1-7.8-1.2-11.5C138.8,160.9,137.5,160.7,137.2,161.7L137.2,161.7z"/>
		</g>
		<g class="st10">
			<path class="st12" d="M137.1,161.2c-0.9,8-1.5,16-1.8,24c0,2.3,3.1,2.5,3.8,0.5l4.2-11.8l-3.6-0.5c0,3.6,0,7.2,0,10.8
				c0.1,1,0.9,1.8,2,1.7c0.8,0,1.4-0.5,1.7-1.3l1.5-6.4h-3.5c0.6,1.9,0.9,4,0.7,6c-0.2,2,2.9,2.3,3.5,0.5l1.6-5.9l-3.5-0.5
				c0,2.2,0,4.3,0.1,6.5c0,1,0.8,1.7,1.7,1.7c1,0,1.7-0.8,1.7-1.7c0.5-10-0.2-20.1-2-30c-0.2-0.8-1.4-0.6-1.4,0.2
				c-0.4,10,0.2,19.9,0,29.8h3.5c0-2.2,0-4.3,0-6.5c0-1-0.8-1.8-1.8-1.8c-0.8,0-1.5,0.5-1.7,1.3l-1.6,5.8l3.5,0.5
				c0.2-2.4-0.1-4.8-0.8-7.1c-0.3-1-1.3-1.5-2.2-1.2c-0.6,0.2-1.1,0.6-1.2,1.2c-0.6,2.1-1.1,4.3-1.7,6.4l3.6,0.5c0-3.6,0-7.2,0-10.8
				c-0.1-1-0.9-1.8-2-1.7c-0.8,0-1.4,0.5-1.7,1.3l-4.3,11.7l3.8,0.5c0.3-8,0.3-16-0.1-24c0-0.6-0.4-1-1-1S137.1,160.7,137.1,161.2
				L137.1,161.2z"/>
		</g>
		<g class="st10">
			<path class="st12" d="M145.5,171c0.5-14.2,1.4-29.4-0.9-43.6c-0.1-0.8-1.3-0.5-1.3,0.2c-1.8,14.1-0.4,29.2,0.6,43.4
				c0.1,0.4,0.5,0.7,0.9,0.7C145.2,171.6,145.4,171.3,145.5,171z"/>
		</g>
		<g class="st10">
			<path class="st12" d="M141.9,168.3c0.5-14.1,1.4-30-1.2-43.9c-0.1-0.3-0.5-0.5-0.8-0.4c-0.2,0.1-0.4,0.2-0.4,0.4
				c-3,13.8-1.4,30.2,0.5,44.1c0.2,1.1,1.9,0.8,2-0.2L141.9,168.3z"/>
		</g>
		<g class="st10">
			<path class="st12" d="M136.7,174c2.1-17.8,3-35.8,2.6-53.8c0-0.8-1.3-1.1-1.5-0.2c-3.5,17.8-4.5,35.9-3,54c0,0.6,0.4,1,1,1
				S136.7,174.6,136.7,174L136.7,174z"/>
		</g>
		<g class="st10">
			<path class="st12" d="M138.9,135.7c-0.6,12.6-3.1,26.6-0.6,39c0.3,0.6,0.9,0.8,1.5,0.5c0.2-0.1,0.4-0.3,0.5-0.5
				c2.9-12.2,0.8-26.5,0.6-39c-0.2-0.6-0.7-0.9-1.3-0.7C139.2,135.1,138.9,135.3,138.9,135.7L138.9,135.7z"/>
		</g>
		<g class="st10">
			<path class="st12" d="M139.2,145.8c-0.4,5.2-0.8,10.4-0.9,15.6c0,4.5-0.7,9.3,0.5,13.6c0.2,0.6,0.8,0.9,1.4,0.7
				c0.4-0.1,0.6-0.4,0.7-0.7c1.3-4.3,0.8-9.1,0.7-13.6c0-5.2-0.4-10.4-0.7-15.6c-0.1-0.5-0.5-0.8-1-0.7
				C139.6,145.1,139.3,145.4,139.2,145.8z"/>
		</g>
		<g class="st10">
			<path class="st12" d="M140.5,143.8c-0.5,5.7-0.8,11.3-1,17c-0.1,4.9-0.8,10.1,0.6,14.9c0.2,0.6,0.9,1,1.5,0.8
				c0.4-0.1,0.7-0.4,0.8-0.8c1.5-4.7,0.8-10,0.7-14.9c0-5.7-0.4-11.4-0.8-17c-0.1-0.5-0.6-0.9-1.1-0.8
				C140.9,143,140.6,143.4,140.5,143.8z"/>
		</g>
		<g class="st10">
			<path class="st12" d="M143,142.4c0.5,10.2-0.4,21.1,1.3,31.2c0.2,0.6,0.8,1,1.5,0.9c0.4-0.1,0.7-0.4,0.9-0.9
				c2-10-0.2-21.5-2-31.4C144.5,141.3,143,141.5,143,142.4L143,142.4z"/>
		</g>
		<g class="st10">
			<path class="st12" d="M145,139.7c-0.8,11.6-3.2,23.6-2.8,35.3c0,0.7,0.5,1.2,1.2,1.2c0.5,0,1-0.4,1.2-0.9c3-11.3,2.4-24,2-35.6
				c-0.1-0.5-0.5-0.8-1-0.7C145.3,139.1,145,139.4,145,139.7L145,139.7z"/>
		</g>
		<g class="st10">
			<path class="st12" d="M134.1,32.1v-1.6c0-2.2-3.7-1.8-3.1,0.4c2.6,9.5,5,20.7,10,29.2c0.5,0.8,2,0.5,1.8-0.5
				c-1.3-9.9-5.8-20-8.9-29.6l-2.3,1.8l1.2,0.8c0.5,0.4,1.1-0.1,1.1-0.6H134.1z"/>
		</g>
		<g class="st10">
			<path class="st13" d="M139.9,11.5c-1.1,5.5-3.6,10.4-4.9,15.7c-0.1,0.2,0,0.4,0.2,0.4c0.2,0.1,0.4,0,0.4-0.2
				c3.1-4.5,4-10.6,4.8-15.9C140.3,11.4,139.9,11.2,139.9,11.5z"/>
		</g>
		<g class="st10">
			<path class="st13" d="M140.7,1.9c-0.1,9.2,0.4,18.3,1.5,27.4c0.7,8.9,3.3,19.5-2.5,27.1c-1.1,1.5,1.4,3.4,2.5,2
				c5.1-6.2,4-13.7,3.3-21.2c-1.1-11.7-1.5-24-4-35.4c0-0.4-0.7-0.3-0.7,0.1L140.7,1.9z"/>
		</g>
		<g class="st10">
			<path class="st14" d="M141.3,6.9c-1.7,13.9,6.5,33.2-2.9,45.1c-0.4,0.5-0.4,1.2,0,1.6c0.4,0.4,0.9,0.4,1.4,0.2
				c6.4-3,6-9.4,5.6-15.7c-0.8-10.2-0.4-21.4-3.2-31.3C142.1,6.2,141.4,6.4,141.3,6.9L141.3,6.9z"/>
		</g>
		<g class="st10">
			<path class="st14" d="M140,6.8c2.3,8.5,8.6,20.4,6.6,28.9c-1.1,4.7-5.7,7.2-5.5,12.2c0,0.5,0.4,0.8,0.9,0.8
				c0.3,0,0.5-0.2,0.7-0.4c2.9-4.6,8.7-7.3,8.5-13.3c-0.1-3.9-2.1-8-3.3-11.7c-1.8-5.7-3.6-11.5-5.7-17.1c-0.2-0.6-0.9-0.9-1.6-0.7
				C140.2,5.8,139.8,6.3,140,6.8L140,6.8z"/>
		</g>
		<g class="st10">
			<path class="st14" d="M142.2,5.6c-0.3,6.2,1.7,12.4,3,18.5c1,3.4,1.6,6.9,2,10.4c0.2,5.6-2.8,9.6-6.2,13.7c-0.8,1,0.2,2.7,1.5,2
				c6-4,9.2-8.5,8.3-15.8c-1.2-9.1-3.3-20.8-7.5-29c-0.2-0.3-0.6-0.4-0.9-0.2C142.3,5.3,142.2,5.5,142.2,5.6L142.2,5.6z"/>
		</g>
		<g class="st10">
			<path class="st14" d="M132.8,31.2l0.5-1l-2-0.3c0.7,3.9,2.8,7.6,4.1,11.3c1.2,3.4,1.7,7.3,3.8,10.2c0.4,0.6,1.6,0.7,1.7-0.2
				c0.5-4-1.2-7.9-2.6-11.5c-1.1-3.9-2.9-7.5-5.3-10.8c-0.9-1.1-2.6,0.6-1.6,1.6l0.9,0.8C132.6,31.3,132.7,31.4,132.8,31.2
				C132.8,31.3,132.8,31.3,132.8,31.2L132.8,31.2z"/>
		</g>
		<g class="st10">
			<path class="st14" d="M132,28.4c1.2,3.5,2.7,6.8,4.6,10c1.6,3.7,3.3,7.4,5.3,11c0.5,0.7,1.4,0.9,2.1,0.5c0.5-0.3,0.8-1,0.7-1.6
				c-1.1-3.8-2.7-7.5-4.7-10.9c-1.6-3.6-3.7-6.9-6.4-9.8c-0.4-0.3-0.9-0.3-1.2,0C132,27.8,132,28.1,132,28.4L132,28.4z"/>
		</g>
		<g class="st10">
			<path class="st14" d="M133.8,26.3c1.3,4.4,2.7,8.8,4.3,13.1c1.3,3.3,2.3,7.2,4.9,9.8c0.3,0.3,0.8,0.3,1.1,0
				c0.1-0.1,0.2-0.3,0.2-0.5c0-3.7-2-7.1-3.4-10.4c-1.8-4.2-4-8.3-6-12.4c-0.2-0.3-0.6-0.3-0.8-0.1C133.9,25.8,133.8,26,133.8,26.3
				L133.8,26.3z"/>
		</g>
		<g class="st10">
			<path class="st14" d="M134.9,25.6c1.5,5.2,3.6,10.2,6.2,14.9l2.9-1.7c-2.1-4-3.9-8.2-5.3-12.5l-3.1,1.3c1.8,3.5,3.6,7.1,5.3,10.6
				c1,2,3.8,0.2,3-1.7c-1.6-3.6-3.2-7.1-4.8-10.6l-3.1,1.8c1.4,2.4,2.8,4.8,4.2,7.3c1,1.8,3.6,0.5,3.2-1.4c-0.5-2.8-1.5-5.5-2.9-8
				c-1.2-2-4.1-0.3-3.2,1.9c0.9,2,2.1,3.8,3.6,5.4c1.3,1.4,3.5-0.1,3.1-1.8c-0.6-2.6-1.5-5.2-2.6-7.7l-3.2,1.9l2,2.7
				c1,1.3,3.5,1.1,3.4-0.9c0-2.4-0.9-4.6-2.5-6.4l-2.6,2.7l1.3,1.2c1.1,1,3.3,0.4,3.2-1.3c-0.2-2.5,0.2-5,0-7.5s-3.8-2.4-3.7,0
				s-0.2,5,0,7.5l3.1-1.3l-1.3-1.2c-1.8-1.7-4.1,0.8-2.6,2.7l1.4,3.7l3.4-0.9l-2-2.7c-0.6-0.8-1.7-1.1-2.6-0.5
				c-0.8,0.5-1,1.5-0.6,2.4c0.9,2.2,1.7,4.4,2.3,6.7l3.2-1.7c-1.3-1.4-2.3-2.9-3-4.6l-3.2,1.9c1.3,2.2,2.2,4.6,2.7,7.1l3.2-1.4
				c-1.4-2.4-2.8-4.9-4.2-7.3c-1.1-2-4-0.3-3.1,1.8c1.6,3.5,3.3,7.1,4.9,10.6l3-1.7c-1.8-3.5-3.6-7.1-5.3-10.6
				c-0.5-0.8-1.5-1.1-2.3-0.6c-0.6,0.4-0.9,1.1-0.8,1.9c1.5,4.6,3.4,9,5.7,13.3c1,1.9,3.8,0.2,2.9-1.7c-2.2-4.9-4.8-9.6-8-14
				C135.5,24.3,134.6,24.9,134.9,25.6L134.9,25.6z"/>
		</g>
		<g class="st10">
			<path class="st14" d="M135.3,27.6c-0.4,2.5,0.5,3.6,1.6,6c1.8,3.8,3.2,7.8,4.5,11.8l3.5-1c-1.3-4-2.6-8-4-11.9l-3.1,1.3
				c1.1,2,2.2,4,3.3,6c0.5,0.8,1.5,1,2.3,0.5c0.6-0.4,0.9-1.1,0.7-1.8c-1-3.6-2-7.2-3.1-10.8l-3.1,1.3L141,34c0.3,0.9,1.3,1.3,2.1,1
				c0.8-0.3,1.2-1.1,1.1-1.9c0.2-4.6,0.4-9.8-1.3-14.1c-0.1-0.7-0.8-1.3-1.5-1.2c-0.7,0.1-1.3,0.8-1.2,1.5c0,4.6,0.2,9.2,0.6,13.8
				l3.1-0.9l-3.1-4.8c-0.5-0.8-1.6-1-2.4-0.5c-0.6,0.4-0.9,1.1-0.7,1.8c1,3.6,2,7.2,3.1,10.8l3-1.2c-1.1-2-2.1-4-3.2-6.2
				c-0.5-0.8-1.5-1.1-2.4-0.6c-0.7,0.4-1,1.2-0.8,1.9c1.2,4,2.4,8,3.7,12c0.7,2.2,4.3,1.3,3.5-1c-1.6-5-3.8-14.9-9.1-17
				C135.6,27.4,135.3,27.5,135.3,27.6C135.3,27.7,135.3,27.7,135.3,27.6L135.3,27.6z"/>
		</g>
		<g class="st10">
			<path class="st11" d="M140.6,45.3c1.8,0.4,3.7,0.4,5.5,0c1.4-0.3,0.9-2.2-0.3-2.4c-3.1-0.3-6.3-0.2-9.4,0.2
				c-0.8,0-1.4,0.6-1.4,1.4s0.6,1.4,1.4,1.4c3.3,0.2,6.5,0,9.7-0.6l-0.9-2.2c-1.4,0.7-2.9,1.1-4.4,1.2
				C140.2,44.3,140.1,45.1,140.6,45.3L140.6,45.3z"/>
		</g>
		<g class="st10">
			<path class="st11" d="M135.8,45.9c1.7,0.4,3.5,0.6,5.2,0.4c1.8,0.2,3.5,0.1,5.3-0.2c0.5-0.1,0.7-0.6,0.6-1.1
				c-0.1-0.3-0.3-0.5-0.6-0.6c-1.7-0.3-3.5-0.3-5.3-0.1c-1.8-0.1-3.5,0-5.2,0.4c-0.3,0.1-0.5,0.5-0.4,0.8
				C135.5,45.7,135.6,45.9,135.8,45.9L135.8,45.9z"/>
		</g>
		<g class="st10">
			<path class="st11" d="M137.6,45.3c3.1,1.2,7.6,2.3,10.8,1c0.4-0.1,0.7-0.6,0.5-1.1c-0.1-0.3-0.3-0.5-0.5-0.5
				c-1.7-0.3-3.4-0.4-5-0.3c-1.9,0-3.7,0-5.6-0.2C137.1,44.3,137,45.1,137.6,45.3z"/>
		</g>
		<g class="st10">
			<path class="st11" d="M143.7,46.5c-1.2,3.3-0.3,7.3-0.3,10.8c-0.2,3.6-0.2,7.3,0.1,10.9c0.1,0.8,1.1,0.5,1.3,0
				c1.3-3.8,1.7-7.8,1.4-11.8c-0.1-3.3,0-7.3-2-10.1c-0.1-0.2-0.3-0.2-0.5-0.1C143.7,46.3,143.6,46.4,143.7,46.5L143.7,46.5z"/>
		</g>
		<g class="st10">
			<path class="st11" d="M143.8,46.3c-1.4,12.1-1.6,24.2-0.5,36.3c0,0.8,1.3,1.1,1.5,0.2c2.1-12.1,2.2-24.5,0.3-36.7
				C145,45.3,143.9,45.6,143.8,46.3z"/>
		</g>
		<g class="st10">
			<path class="st11" d="M140.5,46.4c-2,0.5-3.8,1.4-5.4,2.6c-0.6,0.6-0.5,1.6,0.1,2.1c0.3,0.3,0.7,0.4,1.1,0.4l5.3-0.4l-1.1-2.7
				l-4.2,3.3c-0.6,0.6-0.6,1.7,0,2.3c0.2,0.2,0.4,0.3,0.7,0.4c2.1,0.4,4.2,0.4,6.3,0l-0.9-3.2c-2,0.6-3.7,1.9-4.9,3.7
				c-0.5,0.8-0.2,1.8,0.6,2.3c0.1,0.1,0.2,0.1,0.3,0.1l2.2,0.6l-0.4-3c-1.6,0.9-3.5,2.4-2.8,4.5c0.5,1.5,2.1,2.3,3.5,1.8
				c0,0,0.1,0,0.1,0l-1.6-2.7l-2.9,3.5c-0.6,0.7-0.6,1.7,0.1,2.3c0.3,0.3,0.7,0.4,1.1,0.4h2.6l-0.4-3.1c-1.8,0.3-3.1,2.1-2.7,3.9
				c0.3,1.8,2.1,3.1,3.9,2.7c0.8-0.1,1.4-0.5,1.9-1.1c0.6-0.7,0.5-1.7-0.1-2.2c-0.6-0.5-1.5-0.5-2.1,0v-0.2c0.9-0.2,1.3-1.1,1.1-2
				c-0.2-0.7-0.8-1.2-1.5-1.2h-2.6l1.1,2.8l2.9-3.5c0.9-1.1,0-3.3-1.6-2.7l1.7-0.3c0.8-0.5,1-1.5,0.5-2.3c-0.2-0.4-0.6-0.6-0.9-0.7
				l-2.2-0.6l1,2.4c0.6-1.1,1.7-1.9,2.9-2.2c0.9-0.3,1.4-1.2,1.1-2.1c-0.3-0.8-1.1-1.3-2-1.1c-1.5,0.4-3,0.4-4.5,0l0.7,2.7l4-3.4
				c0.6-0.6,0.6-1.6,0-2.2c-0.3-0.3-0.7-0.4-1.1-0.4l-5.2,0.6l1.1,2.6c1.1-1.3,2.4-2.4,4-3.1c1-0.4,0.3-2-0.7-1.6L140.5,46.4z"/>
		</g>
		<g class="st10">
			<path class="st11" d="M140,48.3c-2-0.9-3.4,0.4-4.7,2c-0.6,0.6-0.6,1.6,0.1,2.2c0.3,0.3,0.6,0.4,1,0.4h3.5l-1.2-2.8l-2.5,2.1
				c-0.6,0.7-0.6,1.7,0,2.3c0.2,0.2,0.4,0.3,0.7,0.4l2.1,0.5v-3.2c-1.5,0.5-3,1.6-2.7,3.4c0.2,1.4,1.5,2.4,2.9,2.2
				c0.2,0,0.4-0.1,0.6-0.2l-1.9-2.4l-1.1,2.2c-0.5,0.8-0.1,1.9,0.7,2.3c0.1,0.1,0.2,0.1,0.3,0.1l1,0.3l-1-2.4l-1.3,2.3
				c-0.5,0.8-0.2,1.8,0.6,2.3c0.3,0.1,0.5,0.2,0.8,0.2l1.1,0.1l-1.7-1.7c0.1,2.4,0,5.6,2.5,6.9c1.3,0.9,3.1,0.5,4-0.9
				c0.2-0.3,0.3-0.6,0.4-0.9c0.2-0.6-0.2-1.3-0.8-1.4c-0.3-0.1-0.6,0-0.9,0.1c-1.8,1.1-1.8-3-1.8-3.9c0-0.9-0.8-1.6-1.7-1.7H138
				l1.5,2.5l1.3-2.4c0.5-0.8,0.2-1.9-0.7-2.3c-0.1-0.1-0.2-0.1-0.3-0.1l-1-0.3l1,2.4l1.1-2.2c0.5-1.2-0.4-3-1.9-2.4l1,1
				c1.4-0.5,1.7-2.8,0-3.2l-2.1-0.5l0.7,2.8l2.5-2.3c0.6-0.7,0.6-1.7-0.1-2.3c-0.3-0.3-0.7-0.4-1.1-0.5c-1.2,0-2.4,0.1-3.5,0.2
				l1.3,2.3c0.9-1.2,2-1.8,2.5-3.3c0.1-0.2,0-0.4-0.2-0.5V48.3z"/>
		</g>
		<g class="st10">
			<path class="st11" d="M140.2,49.6c-0.7-1.4-2.4-1.9-3.7-1.2c-0.5,0.3-0.9,0.7-1.2,1.2c-1.5,2.7,1.2,5.1,3.8,5l-0.4-3.3
				c-2,0.7-4.7,2.1-4.1,4.8c0.3,1.6,1.9,2.7,3.6,2.3c0.1,0,0.3-0.1,0.4-0.1l-2-2.5c-0.9,1.2-1.5,2.6-1.8,4c-0.2,0.9,0.3,1.7,1.2,2
				l2,0.5l-0.7-2.8c-1.3,1-1.5,2.8-0.5,4.1c0.5,0.6,1.2,1,2,1.1l-1.2-2c-0.6,2.8,0.8,4.9,3.8,4.7l-1.1-2.8l-1.5,1.6
				c-0.6,0.7-0.6,1.7,0.1,2.4c0.3,0.3,0.7,0.5,1.1,0.5h1.2l-0.8-3c-4.2,3.2,1.7,7.4,5,3.7c0.4-0.5,0.4-1.2,0-1.6
				c-0.3-0.3-0.7-0.4-1.1-0.3c-0.8,0.1-1.7,0.5-2.3,1c1-0.7,1.1-2.7-0.4-2.9l-1.2-0.2l0.7,2.8l1.5-1.6c0.6-0.7,0.6-1.7-0.1-2.4
				c-0.3-0.3-0.7-0.5-1.1-0.5l-0.6-0.5c0.2-0.9-0.3-1.7-1.2-2V62c0.6-0.7,0.6-1.8-0.1-2.4c-0.2-0.2-0.4-0.3-0.7-0.4l-2-0.6l1.2,2
				c0.2-1.2,0.7-2.3,1.5-3.1c0.9-1.3-0.6-2.7-2-2.5l2-0.5c0.9-0.3,1.4-1.3,1.1-2.2c-0.2-0.7-0.8-1.1-1.5-1.1l0.6-0.7
				c0.4,0,0.7-0.3,0.6-0.7C140.3,49.7,140.2,49.6,140.2,49.6L140.2,49.6z"/>
		</g>
		<g class="st10">
			<path class="st11" d="M139.9,49.8l0.4,0.5l0.4-1.5c-2.7,0.6-4.8,2.8-5.3,5.5c-0.2,2.4,1.6,4.6,4,4.9l-0.7-2.8l-4.6,4.9
				c-0.7,0.6-0.8,1.7-0.2,2.4c0.2,0.2,0.5,0.4,0.8,0.5l3.7,0.6v-3.4c-3.7,0.8-5.4,5.7-0.8,6.2l-1.7-2.2c-0.6,3.2,1.8,5.9,5.1,4.5
				l-1.4-3.2l-2.4,1.8c-0.8,0.5-1.1,1.7-0.5,2.5c0.2,0.3,0.6,0.6,0.9,0.7c1.7,0.7,3.6,0.5,5-0.6c0.7-0.6,0.9-2-0.3-2.3
				s-2.8-0.3-3.7-0.5l0.4,3.2l2.4-1.8c0.8-0.6,1-1.7,0.4-2.5c-0.5-0.7-1.4-0.9-2.2-0.6l-0.4-0.4c0.2-1-0.4-1.9-1.3-2.2
				c-0.1,0-0.2,0-0.4,0h-0.8l1.5,0.9l0.9-0.2c1.6-0.3,1.7-3,0-3.3l-3.7-0.6l0.7,2.8l4.6-5c0.6-0.7,0.6-1.7-0.1-2.4
				c-0.3-0.3-0.7-0.4-1.1-0.4c-4.2-0.5,1.3-5.2,1.9-5.7s-0.5-2.2-1.3-1.3l-0.4,0.5C139.8,49.6,139.8,49.7,139.9,49.8L139.9,49.8z"/>
		</g>
		<g class="st10">
			<path class="st11" d="M145,49l-0.5,2.3c-1,0.5-1.3,1.8-0.8,2.7c0.2,0.3,0.5,0.6,0.8,0.8l1.4,0.9l-0.4-3.2
				c-2.2,1.6-3.6,4.1-3.8,6.9c0.1,1.3,0.5,2.5,1.1,3.7c1,1.5,1.1,3.5,0.1,5c-0.4,0.6-0.1,1.4,0.5,1.8c0.1,0.1,0.2,0.1,0.3,0.1
				l0.7,0.2c0.7,0.2,1.4,0,1.9-0.5c1.4-1.2,2.1-3.1,1.7-4.9c-0.3-1.2-0.7-2.3-1.2-3.3c-1.3-2.8-0.4-4.1,1.7-6.1
				c0.8-0.8,0.8-2,0.1-2.8c-0.1-0.1-0.3-0.3-0.5-0.4l-1.4-0.9l0.4,3.2c3.1-2.9,3.6-9-2-8.8c-0.9,0.1-1.6,0.9-1.5,1.9
				C143.6,48.3,144.2,48.9,145,49L145,49z"/>
		</g>
		<g class="st15">
			<path class="st7" d="M141,3.5c-0.3,5.2,1.3,10.3,2.1,15.4c0.9,5.8,1.3,11.7,2.6,17.3c0.2,0.9,1.2,1.4,2,1.2
				c0.7-0.2,1.2-0.9,1.2-1.6c-0.1-5.6-0.7-11.3-2-16.8c-1-5.4-1.8-11.2-4.6-16c-0.2-0.4-0.7-0.5-1-0.2C141.1,3,141,3.2,141,3.5
				L141,3.5z"/>
		</g>
		<g class="st15">
			<path class="st7" d="M145.6,35.4c-1.8,1.6-3,3.8-3.3,6.2c-0.4,1.6-1,4.6,1,5.4s3.2-1.9,3.9-3.3c1.2-2.2,1.6-4.7,1.2-7.2
				c-0.3-1-1.3-1.5-2.2-1.2C145.9,35.3,145.8,35.3,145.6,35.4L145.6,35.4z"/>
		</g>
		<g class="st15">
			<path class="st7" d="M146.5,35c-2,0.7-2.7,3-3.4,4.8s-2.3,4.7-1.1,6.9c0.4,0.6,1.2,0.9,1.9,0.5c2-0.9,2.5-4,3-6s1.4-4.3,0.2-6
				C147,35,146.7,34.9,146.5,35L146.5,35z"/>
		</g>
		<g class="st15">
			<path class="st7" d="M149.8,36.3c-2,3.8-4.7,7.2-6.5,11c-0.5,1,0.6,2.5,1.7,1.7c3.9-2.7,5.8-7.4,7-11.8
				C152.3,35.9,150.4,35,149.8,36.3z"/>
		</g>
		<g class="st15">
			<path class="st7" d="M132.1,31.1l-0.3,0.4c-0.5,0.5-0.6,1.3-0.3,2c1.6,3.6,3.3,7.3,4.8,10.9c1,3.1,2.2,6,3.7,8.9
				c0.6,0.9,2.3,0.6,2.2-0.6c-0.6-3.6-1.7-7.2-3.3-10.5c-1.3-3.5-2.8-7-4.5-10.3c-0.3-0.5-0.8-0.8-1.4-0.8c-0.3,0-0.6,0-0.8,0.1
				L132.1,31.1z"/>
		</g>
		<g class="st15">
			<path class="st7" d="M135.5,77.6c-3.8,16-0.5,35.1-0.4,51.4c0.1,18.3-0.4,36.8,0.6,55.1c0.1,1.6,1.5,2.7,3,2.6
				c1.4-0.1,2.5-1.2,2.6-2.6c0.4-18.3-0.8-36.8-1.4-55.1c-0.5-16.3,2-35.7-2.4-51.4c-0.2-0.6-0.8-0.8-1.4-0.6
				C135.9,77,135.7,77.3,135.5,77.6L135.5,77.6z"/>
		</g>
		<g class="st10">
			<path class="st11" d="M124,63.2h-1.3c-0.6,0-1,0.4-1.2,0.9c-0.8,3.3,2,4.6,4.5,2.5c0.6-0.6,0.6-1.5,0-2c-0.2-0.2-0.4-0.3-0.6-0.4
				c-1.5-0.6-3.2,0.2-3.8,1.7c-0.2,0.5-0.2,1-0.2,1.4c0,0.5,0.3,1,0.7,1.3c1.3,0.9,3,0.9,4.3-0.1l-2-1.2c0.2,9.1-1.2,18.2-4.2,26.9
				c-0.1,0.6,0.2,1.1,0.8,1.2c0.4,0.1,0.8-0.1,1-0.4c4.8-8.5,6.6-18.4,4.9-28c-0.2-0.7-0.9-1.2-1.7-1c-0.4,0.1-0.7,0.3-0.9,0.7
				l0.6,0.4l-1.2-2.2l0.3,0.7C125.4,65.5,125.5,63.2,124,63.2L124,63.2z"/>
		</g>
		<g class="st10">
			<path class="st11" d="M126.9,57.4c-1.6,11.2-2,22.3-5.2,33.2c-3.6,12-10,22.1-15.3,33.3c-0.3,0.6,0.4,1.3,0.9,0.7
				c14.7-15.8,24-45.7,21.6-67C128.8,56.6,127.1,56.1,126.9,57.4L126.9,57.4z"/>
		</g>
		<g class="st10">
			<path class="st11" d="M129,61.4c-2.6,9.3-3.7,18.9-6.4,28.2c-3.2,10.2-7.4,20.1-12.6,29.6c-0.1,0.2-0.1,0.4,0.1,0.6
				s0.4,0.1,0.6-0.1c10.7-15.9,20.5-38.6,18.6-58.1C129.3,61.3,129,61.2,129,61.4L129,61.4z"/>
		</g>
		<g class="st10">
			<path class="st11" d="M129,58.8c-4.3,13.7-6.2,27.5-11.8,40.9s-14.1,24.6-20.8,37.2c-0.1,0.2,0,0.5,0.2,0.6
				c0.2,0.1,0.4,0,0.5-0.1c10.2-9.6,17.1-24,22.5-36.7s11.1-27.9,11-41.7c0-0.5-0.3-0.8-0.8-0.9C129.4,58.1,129,58.4,129,58.8z"/>
		</g>
		<g class="st10">
			<path class="st11" d="M134.6,71.3c-5,8.7-10.2,17.2-13.7,26.7c-0.1,0.4,0.5,0.6,0.7,0.3c4.6-8.8,8.5-18,13.3-26.8
				c0-0.1,0-0.2-0.1-0.2S134.6,71.3,134.6,71.3z"/>
		</g>
		<g class="st10">
			<path class="st11" d="M114.2,111c-5.6,8.9-11.4,17.7-16.7,26.7c0,0.2,0,0.3,0.2,0.4c0.1,0,0.2,0,0.3-0.1
				c5.7-8.8,11.1-18,16.5-26.8c0-0.1,0-0.2-0.1-0.2C114.4,110.9,114.3,110.9,114.2,111z"/>
		</g>
		<g class="st10">
			<path class="st11" d="M119.7,99.5c-15,21.3-31.4,42-45.9,63.5c-0.4,0.6,0.4,1.1,0.9,0.7c18.9-17.2,34.4-41.1,45.4-64
				c0.1-0.1,0-0.2-0.1-0.3S119.8,99.4,119.7,99.5z"/>
		</g>
		<g class="st10">
			<path class="st11" d="M48.6,185.4c25.7-15.8,50.2-44.9,61.4-72.8c0.5-1.2-1.3-1.8-2-0.8c-9,13.6-17.1,27.5-27.8,40
				c-10,11.7-21.7,21.3-33.1,31.7c-0.5,0.5-0.6,1.3-0.1,1.8C47.3,185.7,48,185.8,48.6,185.4L48.6,185.4z"/>
		</g>
		<g class="st10">
			<path class="st11" d="M51.4,182.6c22.4-11.6,41-35.3,53-56.9c0-0.1,0-0.3-0.2-0.3c-0.1,0-0.2,0-0.3,0.1
				c-7.9,11-16.5,21.4-25.7,31.3c-8.6,9.1-18.7,16.4-27.4,25.2c-0.2,0.2-0.2,0.4,0,0.6C50.9,182.7,51.1,182.7,51.4,182.6L51.4,182.6
				z"/>
		</g>
		<g class="st10">
			<path class="st11" d="M53.2,180c22-15,43.8-37.9,56.4-61.5c0.4-0.7-0.6-1.6-1.2-0.9c-8.9,10.6-16.8,22.1-26.2,32.4
				s-19.6,19.7-29.4,29.6C52.6,179.8,52.8,180.2,53.2,180L53.2,180z"/>
		</g>
		<g class="st10">
			<path class="st11" d="M56.5,177.9c22.4-16.5,45.6-38.1,60.1-62c0.2-0.4,0.1-0.9-0.3-1.1c-0.3-0.2-0.7-0.1-1,0.1
				c-9.8,10.5-18.4,22-28.2,32.6s-20.4,20.2-30.9,30C56,177.7,56.2,178,56.5,177.9L56.5,177.9z"/>
		</g>
		<g class="st10">
			<path class="st11" d="M42.6,107c-2.4,2.4-2.5,6.6-1.9,9.7l2.9-1.2c-1.7-2.6-0.9-6.1,1.7-7.8c0.1-0.1,0.3-0.2,0.4-0.2l-2.6-2
				c-1.2,3.3-1.1,7,0.2,10.3l1.9-2.4l-1.7,0.2c-1.1,0.1-1.9,1.2-1.7,2.3c0.1,0.7,0.5,1.3,1.2,1.6c3.2,0.9,6.7,0.3,9.5-1.7
				c1.6-1.1,0.7-4.1-1.4-3.4c-1.3,0.6-2.8,0.1-3.4-1.2c0,0,0,0,0,0c-0.5-1.4,0.5-2.3,0.9-3.6c0.2-0.9-0.3-1.9-1.3-2.1
				c-0.3-0.1-0.6-0.1-0.9,0c-3,1-3.5,5.3-2.2,7.7c1.6,2.8,4.9,3.9,7.8,2.8l-1.4-3.4c-1.9,1.3-4.3,1.7-6.6,1.1l-0.5,3.8l1.7-0.2
				c1.1-0.1,1.9-1,1.9-2.1c0-0.3-0.1-0.5-0.2-0.7c-1.1-2.5-1.2-5.3-0.3-7.8c0.2-1-0.4-2-1.4-2.2c-0.4-0.1-0.9,0-1.2,0.2
				c-4.3,2.5-5.8,8-3.3,12.4c0.1,0.1,0.1,0.2,0.2,0.4c1,1.4,3.5,0.6,2.9-1.2c-0.4-1.3-0.6-2.6-0.5-4c0.3-1.3,0.6-2.6,1.1-3.9
				c0.1-0.6-0.2-1.2-0.8-1.3C43.3,106.7,42.9,106.8,42.6,107L42.6,107z"/>
		</g>
		<g class="st10">
			<path class="st11" d="M137.2,86.4c-3.1,15.3-1.8,32-1.8,47.5c0,17,0,34.4,2,51.3c0,1.3,1.1,2.4,2.4,2.4c1.3,0,2.4-1.1,2.4-2.4
				c0.3-2.7-2-4-4.4-3.4c-1.3,0.4-2,1.8-1.6,3.1c0.3,1,1.2,1.6,2.2,1.7h5.8c1.4,0,2.5-1.2,2.5-2.5c0-0.2,0-0.4-0.1-0.6
				c-2.3-12.6-1.4-25.3-3.4-37.8c-0.3-1.9-3.3-1.7-3.7,0c-2.9,12.5,0,26.8,2.3,39.1l2.5-3c-1.9,0-3.8,0-5.8,0l0.6,4.8l-1.7-1.2h4.8
				c0.2-17.1-1.3-34.3-2-51.3c-0.7-15.6,0.6-32-2.2-47.5c0-0.4-0.7-0.4-0.8,0L137.2,86.4z"/>
		</g>
		<g class="st10">
			<path class="st11" d="M135.5,63.5c-2.1,9-1.2,18.6-1.2,27.7c0,10.5,0.3,21,0.3,31.5c-0.2,21,0.9,42,3.3,62.9
				c0.3,2.3,3.7,2.4,3.7,0c0-8.9,0.5-17.8,0.9-26.7c0.1-3.1-4.6-3.1-4.8,0c-0.6,8.2-1.2,16.4-1.7,24.6c-0.2,3.3,4.9,3.3,5.1,0
				c1.7-23.2,2.8-47.6-4.7-70c-0.1-0.5-0.5-0.7-1-0.6c-0.4,0.1-0.7,0.5-0.7,0.9c-0.2,23.3,3,46.5,1.2,69.8h5.1
				c0.5-8.2,1-16.4,1.4-24.6h-4.8c0.1,8.9,0.5,17.8,0.2,26.7h3.7c-0.2-21-1.6-42-2.8-62.9c-0.5-10.5-0.7-21-0.9-31.5
				c0-9.2,0.8-18.7-1.2-27.7c-0.1-0.3-0.5-0.5-0.8-0.4C135.7,63.2,135.5,63.3,135.5,63.5z"/>
		</g>
		<g class="st10">
			<path class="st11" d="M142.7,184c-3,0.6-1.9-20-1.9-22.3c0-7.7,0-15.3,0-23c-0.1-15.3,0.4-30.8-1.1-46c0-0.7-0.6-1.3-1.3-1.3
				c-0.7,0-1.3,0.6-1.3,1.3c-2,21.5-0.8,43.6-0.6,65.2c0,5.6-4,32.2,7.2,29.3C145.6,186.6,144.8,183.5,142.7,184L142.7,184z"/>
		</g>
		<g class="st10">
			<path class="st11" d="M143.5,61.8c-2.4,11.1-1.5,22,0.7,33.2c0.2,0.5,0.8,0.8,1.3,0.6c0.4-0.1,0.6-0.5,0.7-0.8
				c0-11-2.3-21.8-2-32.9c0-0.2-0.2-0.3-0.3-0.3C143.7,61.6,143.5,61.7,143.5,61.8L143.5,61.8z"/>
		</g>
		<g class="st10">
			<path class="st11" d="M145.8,101.3c0,8.8,0.7,17.5,2.2,26.2c0.1,0.6,1.1,0.5,1-0.1c-0.7-8.7-1.6-17.3-2-26
				C147.1,100.6,145.9,100.6,145.8,101.3L145.8,101.3z"/>
		</g>
		<g class="st10">
			<path class="st11" d="M146,117.6c0.4,14-0.9,28.1,0.2,42c0,0.5,0.9,0.8,1,0.1c1.9-13.7,0.4-28.3-0.4-42c0-0.5-0.8-0.5-0.8,0
				L146,117.6z"/>
		</g>
		<g class="st10">
			<path class="st11" d="M145.3,112.9c-0.6,13.8-0.9,27.6-1.1,41.4c-0.2,12.3-1.5,25.7,1.5,37.8c0.3,1.1,2.1,1.2,2.4,0
				c2-12.2-0.1-25.4-0.6-37.8c-0.6-13.8-0.7-27.6-0.7-41.4c-0.1-0.4-0.4-0.7-0.8-0.6C145.6,112.4,145.3,112.6,145.3,112.9z"/>
		</g>
		<g class="st10">
			<path class="st11" d="M137.2,50.8l-1.2-0.1l-0.5,3.8c-0.2,1.4-0.3,2.8-0.4,4.2c-0.5,5.7-0.8,11.5-0.9,17.2
				c-0.5,9.7-0.1,19.4,1,29c0.2,1.1,1.7,0.7,1.8-0.2c1.4-18.7,1.8-38.6,1.4-57.4c-0.1-0.5-0.5-0.8-1-0.7c-0.4,0.1-0.6,0.3-0.7,0.7
				v3.5c0,0.1,0.1,0.2,0.2,0.2S137.2,50.8,137.2,50.8L137.2,50.8z"/>
		</g>
	</g>
</g>
</svg>
