<svg xmlns="http://www.w3.org/2000/svg" width="298.989" height="266.039" viewBox="0 0 298.989 266.039">
  <defs>
    <style>
      .cls-1 {
        fill: #fff;
      }

      .cls-1, .cls-2 {
        fill-rule: evenodd;
      }

      .cls-3 {
        fill: none;
      }
    </style>
  </defs>
  <g id="starter" transform="translate(-747.31 -599)">
    <g id="Introduction" transform="translate(747.31 599)">
      <g id="variations">
        <g id="images" transform="translate(0 0)">
          <g id="a-person_bust" data-name="a-person/bust" transform="translate(0 0)">
            <g id="body_Tee-Arms-Crossed" data-name="body/Tee-Arms-Crossed" transform="translate(0 102.505)">
              <path id="_-Background" data-name="ðŸŽ¨-Background" class="cls-1" d="M53.562,46.07a22.081,22.081,0,0,0,5.215-2.522c4.644-3.458,7.672-8.663,10.534-13.594A91.206,91.206,0,0,0,78.2,7.168c.853-3.425,1.143-7.4,3.081-10.433C85.67-9.624,98.551-8.8,105.391-7.684c4.58.811,5.527,5.939,6.567,9.733a79.867,79.867,0,0,1,1.909,9.572A23.905,23.905,0,0,0,117.5,13.5c13.28,4.074,15.614,11.626,20.686,23.292,8.567,16.956,31.814,23.6,35.325,43.663,2.262,13.249-4.171,25.713-10.8,36.727-6.177,12.03-14.8,17.8-28.536,14.962-12.882-2.891-25.262-7.727-37.918-11.464-6.13-1.507-12.25-5.429-18.7-4.061a163.949,163.949,0,0,1-40.552,4c-19.116.774-19.113-17.581-17.151-31.795C21.225,66.7,32.378,52.5,53.562,46.07Z" transform="translate(-15.288 8.454)"/>
              <path id="_-Ink" data-name="ðŸ–-Ink" class="cls-2" d="M45.869,78.077a14.607,14.607,0,0,0-4.019,4.345q6.755-.7,13.482-1.624c-.587-.375-1.18-.743-1.786-1.089C51.335,78.463,48.339,76.444,45.869,78.077Zm74.807,13.315c.825-.323,1.144-1.581,1.466-2.3,1.008-2.262,1.928-4.563,2.885-6.847A84.607,84.607,0,0,0,114.093,79.5a68.954,68.954,0,0,0-12.243-.6,172.7,172.7,0,0,0-24.612,3.074c-8.127,1.449-16.254,2.842-24.438,3.934-8.018,1.07-16.062,1.854-24.121,2.542-1.565.134-4.176.7-5.435-.536a2.317,2.317,0,0,1,.218-3.57,6.956,6.956,0,0,1,2.791-.616c1.118-.144,2.24-.24,3.365-.314q.687-.045,1.375-.086a28.207,28.207,0,0,0-11.512-1.934,15.514,15.514,0,0,1-1.8,3.912,28.057,28.057,0,0,0-2.226,6.118,47.4,47.4,0,0,0-.791,13.719c.27,3.816.849,8.036,3.84,10.738,2.265,2.046,5.461,2.8,8.426,3.042a48.691,48.691,0,0,0,10.361-.481A138.492,138.492,0,0,0,51.6,115.787a94.086,94.086,0,0,0,25.868-10.565c3.925-2.341,7.669-4.975,11.647-7.226a50.5,50.5,0,0,1,12.9-5.18,52.974,52.974,0,0,1,15.577-1.46A8.091,8.091,0,0,0,120.676,91.392Zm5.874-2.3c-.533,1.729-.94,3.7-2.077,5.156a6.07,6.07,0,0,1-4.585,2.076c-2.122.154-4.269.055-6.4.134a49.147,49.147,0,0,0-12.833,2.171,50.531,50.531,0,0,0-10.967,5.2c-3.212,1.939-6.331,4.021-9.545,5.954.855.392,1.7.817,2.551,1.186q2.676,1.163,5.381,2.251c3.555,1.438,7.124,2.84,10.73,4.143q10.907,3.94,22.142,6.877c3.567.932,7.186,2.021,10.892,2.176a13.856,13.856,0,0,0,8.981-2.746c5.5-4.055,9.871-9.907,13.407-15.68a74.091,74.091,0,0,0,5.45-10.759q1.15-2.826,2.088-5.733.441-1.363.836-2.741c.116-.4.227-.809.337-1.214a117.88,117.88,0,0,0-17.132-4.125,59.994,59.994,0,0,0-9.4-.658c-1.56.017-3.119.1-4.67.262q-1.253.13-2.495.336c-.342.057-.694.141-1.047.2C127.66,85.41,127.116,87.256,126.55,89.1ZM10.344,81.75a6.393,6.393,0,0,1-.54-1.884,4.258,4.258,0,0,1-.11-1.887,8.149,8.149,0,0,1,1.224-2.034q.7-1.047,1.395-2.095,1.394-2.1,2.781-4.2,5.668-8.573,11.292-17.175C29.721,47.4,33,42.268,36.439,37.253A56.516,56.516,0,0,1,46.605,25.412c5.087-4.217,11.145-6.2,17.472-7.753a3.228,3.228,0,0,1,2.6-1.03c1.394-1.582,2.5-2.686,3-4.7.24-.963.165-3.67,1.1-4.24,1.114-.677,1.7.219,2,1.229,1.028,3.38-.152,7.923-2.867,11.308,1.144,3.955,2.66,9.575,5.366,12.743,2.9,3.392,6.9,4.448,11.225,4.518a34.863,34.863,0,0,0,22.766-8.244,43.817,43.817,0,0,0,5.292-5.335,39.215,39.215,0,0,0,3.571-5.337c0-.654.772-1.338-7.086-1.866S102.6,5.416,102.427,3.951c-.142-1.189-.746-3.036.092-4.006a1.276,1.276,0,0,1,1.536-.2c.85.528,1.129,1.879,1.4,2.8.374,1.285,1.6,9.258,3.917,10.182a11.6,11.6,0,0,0,3.479.52c1.418.1,2.839.172,4.252.337a16.1,16.1,0,0,0,1.6.234,3.121,3.121,0,0,0,1-.273,6.892,6.892,0,0,1,3.305.055c9.937,1.336,20.169,4.385,28.645,9.872,7.471,4.836,12.734,11.79,16.207,19.921,3.544,8.3,5.575,17.271,7.277,26.1q.855,4.44,1.5,8.917c.413,2.883.931,5.83,1.054,8.743a7.786,7.786,0,0,1-.65,3.275c-.477,1.185-1.6,1.652-2.686,2.2a36.351,36.351,0,0,1-7.459,2.824,57.349,57.349,0,0,0-3.969,8.942,8.218,8.218,0,0,1,.48,2.717c.189,1.9.269,3.8.286,5.71.034,3.82-.2,7.637-.376,11.451-.183,3.869-.789,19.132-.888,21-.077,1.448.027,3.473-.736,4.759a3.4,3.4,0,0,1-5.4.307c-33.28,7.157-95.836,5-121.031,1.4-3.278-.468-2.248.052-3.082-.777a5.48,5.48,0,0,1-1.331-2.544,3.922,3.922,0,0,1,.8-3.1c.688-.972.813-2.547,1.068-3.7.6-2.733.9-14.735,1.187-16.065.088-.415.173-.853.276-1.291-4.622.438-9.437.438-13.834-1.109a16.042,16.042,0,0,1-6.608-4.22,17.465,17.465,0,0,1-3.993-8.509,53.108,53.108,0,0,1-.813-12.316,39.019,39.019,0,0,1,3.017-14.214A7.434,7.434,0,0,1,10.344,81.75Z" transform="translate(-8.873 8.454)"/>
            </g>
            <g id="head_Bun" data-name="head/Bun" transform="translate(42.347 0)">
              <path id="_-Background-2" data-name="ðŸŽ¨-Background" class="cls-1" d="M67.274,5.6C53.961,4.878,42.166,1.136,32.8,9.511Q17.635-1.815,15.106,2.5c-1.695,2.89.656,6.77.025,10.337-4.11,7.009-3.877,18.871-4.11,21.651-.586,7.007-4.274,33.374-4.274,39.636,0,3.2,2.634,11.566,4.274,16.225C14.673,100.715,21.642,106,33.072,106s30.085-9.557,36.069-18.042c.524-.744,3.915,1.426,7.462-2.337,3.842-4.077,5.974-11.853,5.974-16.488,0-5.882,3.8-9.961,3.358-17.49C84.947,34.827,81.52,6.383,67.274,5.6Z" transform="translate(-4.903 13.949)"/>
              <path id="_-Ink-2" data-name="ðŸ–-Ink" class="cls-2" d="M57.521-13.944a3.333,3.333,0,0,0-.524.015,3.8,3.8,0,0,0-.577.066,4.657,4.657,0,0,0-2.527,1.435c-.019.019-.034.04-.051.059a6.554,6.554,0,0,0-.875.8c-.046-.044-.091-.089-.139-.133q-.209-.184-.437-.349A5.744,5.744,0,0,0,50.2-13.224l-.11-.03c-.021-.006-.042-.01-.063-.015a5.562,5.562,0,0,0-1.775-.285,5.129,5.129,0,0,0-2.123.374,6,6,0,0,0-2.083,1.486,10.96,10.96,0,0,0-1.075,1.036A7.93,7.93,0,0,0,41.3-7.946c-.051.142-.1.287-.135.433-.894-.1-1.792-.177-2.689-.213-1.008-.061-2.016-.082-3.025-.048A27.932,27.932,0,0,0,27.31-6.3a9.545,9.545,0,0,0-1.536.6,11.126,11.126,0,0,0-2.2,1.177l-.589.349c-.3.176-.591.354-.878.536a17.182,17.182,0,0,0-1.942,1.456A21.083,21.083,0,0,0,18.329-.49c-.158.161-.31.325-.46.489A15.766,15.766,0,0,0,14.23,2.752,27.129,27.129,0,0,0,11.5,1.378,27.148,27.148,0,0,0,8.281.239a20.818,20.818,0,0,0-2.729-.56C5.135-.393,4.717-.45,4.3-.5l.017.007h0c-.3-.032-.589-.059-.887-.085l.008,0h0c-.127-.01-.256-.021-.382-.03L2.743-.633h0c-.093-.008-.228.209-.237.285L2.5-.27h0c-.07.078-.133.165-.177.218-.055,0-.11-.008-.165-.011C1.989-.078,1.8.216,1.7.328l-.088.1A.827.827,0,0,0,1.4.842q-.162,1.316-.3,2.636a8.973,8.973,0,0,0,.11,1.978q.124.951.251,1.9.2.666.4,1.332c.053.169.112.336.169.5a27.218,27.218,0,0,0,1.206,3.252,14.883,14.883,0,0,0-.964,1.183c-.071.073-.143.146-.21.222a.21.21,0,0,0-.076-.072c-.1-.044-.175.009-.239.1A5.654,5.654,0,0,0,.295,16.1l-.187.442q-.047.111-.092.222a15.571,15.571,0,0,0-.575,1.97,11.851,11.851,0,0,0-.3,1.6c-.456,1.533-.817,3.1-1.158,4.648a1.053,1.053,0,0,0,.05.646l-.2.194h0l-.34.339A10.843,10.843,0,0,0-4.081,28,22.436,22.436,0,0,0-5.2,30.2l-.077.158h0l-.158.318a7.825,7.825,0,0,0-.4.958,8.35,8.35,0,0,0-.45,2.146A6.4,6.4,0,0,0-5.9,37.044a.064.064,0,0,0,.011.021A4.061,4.061,0,0,0-4.332,39.51a3.119,3.119,0,0,0,.558.425,1.768,1.768,0,0,0,1.435.175l.065-.017c.065-.017.125-.032.182-.044-.085.07-.127.152,0,.211a1.072,1.072,0,0,0,.336.106c-.044.057-.049.118.044.169a.8.8,0,0,0,.537.112l-.036.294c-.277,2.223-.525,2.663-.742,5.051q-.215,3.668-.687,7.313l-.108.882c-.348,2.8-.738,5.614-1.337,8.366q-.453,1.8-.782,3.633a14.636,14.636,0,0,0-.649,2.845,28.106,28.106,0,0,0-.366,2.98,5.321,5.321,0,0,0-.355,1.955,18.729,18.729,0,0,0,.093,2.667,17.158,17.158,0,0,0,.38,2.739,15.535,15.535,0,0,0,.976,3.6,34.859,34.859,0,0,0,1.361,3.815A37.3,37.3,0,0,0-.512,92.272,39.079,39.079,0,0,0,2.944,97a32.385,32.385,0,0,0,5.628,5.148,27.441,27.441,0,0,0,3.737,2.334,27.522,27.522,0,0,0,4.95,2.067,25.079,25.079,0,0,0,3.29.693,21.068,21.068,0,0,0,6.638-.1,20.284,20.284,0,0,0,4.124-.991,31.213,31.213,0,0,0,3.144-1.338,12.149,12.149,0,0,0,1.532-.883,16.952,16.952,0,0,0,2.313-1.807c.235-.2.463-.406.687-.622a.154.154,0,0,0-.076-.27l-.038,0h0c.049-.045.1-.089.148-.136a.183.183,0,0,0,.027-.029c.023-.021.049-.042.07-.064.082-.072,0-.232-.072-.27a.18.18,0,0,0-.1-.013.221.221,0,0,1,.023-.021c.008-.006.011-.023.008-.04l.032-.025h0a.154.154,0,0,0-.074-.271.614.614,0,0,0-.27.014l-.04.009.072-.067c.127-.11.087-.233-.07-.271a1.927,1.927,0,0,0-.346.051l-.085.023c-.042.011-.082.023-.125.036.072-.066.144-.129.213-.195s0-.237-.068-.272c-.087-.049-.256.019-.334.076a1.232,1.232,0,0,0-.539.186c-.256.245-.52.48-.788.708a1.221,1.221,0,0,0-.435.22c-.3.291-.621.566-.944.832l-.246.17-.124.082c-.465.273-.93.543-1.392.816q-2.545.862-5.087,1.722l-.224.068h0l-1.646.2h0a14.752,14.752,0,0,1-3.247-.017,11.061,11.061,0,0,1-2.409-.235,22.4,22.4,0,0,1-3.951-1.033,29.862,29.862,0,0,1-4.263-2.014q-.742-.416-1.458-.882c-.154-.109-.308-.222-.463-.336Q9.139,99.106,7.74,97.813q-.659-.605-1.27-1.259c-.059-.064-.116-.125-.173-.188-.391-.427-.769-.868-1.13-1.325l-.344-.389h0a44.12,44.12,0,0,1-3.737-5.51,34.6,34.6,0,0,1-2.734-5.968q-.349-1.106-.6-2.242a12.334,12.334,0,0,1-.613-2.792c-.032-.186-.057-.372-.082-.558l-.015-.293c0-.049,0-.1,0-.146-.042-.3-.078-.592-.106-.888s-.027-.6-.03-.894l.023-1.828h0c.006-.057.013-.116.017-.175l.047-.4c.1-.833.179-1.668.281-2.5a.054.054,0,0,1,0-.017c.038-.311.078-.623.125-.936.023-.186.053-.372.08-.558l.053-.325h0c.1-.566.217-1.127.361-1.683l.063-.238.368-1.849.414-1.82q.4-1.829.67-3.686.482-2.961.834-5.935c.013-.1.025-.192.036-.287Q.636,50.356.8,47.575q.231-2.739.266-5.489A.219.219,0,0,0,.952,41.9l.006-.352c.008-.312.013.062.016-.293l0-.977c0-.081,0-.138,0-.142a21.756,21.756,0,0,0,2.978-.043l.185-.01a25.07,25.07,0,0,0,2.979-.321.106.106,0,0,0,.1.1c.1,0,.2,0,.294.007L7.469,40h0a.121.121,0,0,0,.1.133l.282.013a6.372,6.372,0,0,0,1.127-.028,6.831,6.831,0,0,0,.989-.215,5.756,5.756,0,0,0,.615-.139c.537-.154,1.069-.361,1.608-.526a3.767,3.767,0,0,1,1.69-.015,3.579,3.579,0,0,0,1.785.249,2.709,2.709,0,0,0,.378-.131l.115-.008.06-.007a10.578,10.578,0,0,0,1.916-.752,1.042,1.042,0,0,1,.664.05l.054.024.213.159q.129.152.255.306l.125.154a3.185,3.185,0,0,0,.773.727,1.927,1.927,0,0,0,1.295.539,2.594,2.594,0,0,0,.856-.141,5.531,5.531,0,0,0,3.228.074,4.674,4.674,0,0,0,1.215-.351,4.987,4.987,0,0,0,.545-.287c.742.313,1.443.729,2.159,1.089l.161.081a4.8,4.8,0,0,0,2.37.667,29.529,29.529,0,0,0,3.091-.383.124.124,0,0,0,.027,0l.141-.023h0l.512-.09h0l.412-.077h0l.211.081a8.847,8.847,0,0,0,5.25.693,4.643,4.643,0,0,0,2.064-.765c.021-.015.042-.03.063-.047a1.94,1.94,0,0,0,.275-.169l.018-.014h0l.016-.014.008,0A2.315,2.315,0,0,0,45.5,38.494a2.677,2.677,0,0,0-.009-.979q.453.535.923,1.061c1.144,1.378,2.264,2.783,3.3,4.246l.238.339q.856,1.208,1.591,2.5.745,1.271,1.532,2.515Q54.1,49.306,55.06,50.5l.272.341.917,1.207a11.293,11.293,0,0,1,1.612,2.523q.523.974.959,1.989c.093.2.182.412.268.619a20.577,20.577,0,0,1,.746,2.486,13.147,13.147,0,0,1,.338,1.875l.021.212c.025.249.044.5.055.748a.839.839,0,0,0-.15.108l-.154.055h0l-.125.037c-.194.06-.53.185-.45.339l.408.778h0a.115.115,0,0,0-.034.142q.409.783.822,1.566a.114.114,0,0,0,.038.044,7.331,7.331,0,0,0-.68.355,3.986,3.986,0,0,0-1.027.89,6.5,6.5,0,0,0-.862.609,6.439,6.439,0,0,0-.873,1.152A6.658,6.658,0,0,0,56.6,69.8a2.5,2.5,0,0,0-.091.7c.256,1.805,2.32.569,2.36.41a5.489,5.489,0,0,1,1.339-2.591l.019-.013h0c.423-.186.841-.37,1.278-.514.065.013.133.021.2.032-.076.108-.038.214.116.232a7.218,7.218,0,0,0,2.013.11l1.027-.146h0a6.487,6.487,0,0,1,1.217.623l.127.085.023.017a8.193,8.193,0,0,1,2.28,3.01q.07.154.134.311l.063.158,0,.008a11.774,11.774,0,0,1-1.177,8.086q-1.024,1.639-2.138,3.215l-.723.945h0q-.64.6-1.253,1.236c-.063.064-.131.127-.2.188a5.376,5.376,0,0,1-.659.372c-.087.029-.175.057-.264.08a3.306,3.306,0,0,1-1.359.33,4.912,4.912,0,0,1-1.826-.219L59,86.428l-.087-.032a4.789,4.789,0,0,1-.9-.761.328.328,0,0,0-.317-.03c-.074-.076-.148-.156-.218-.243a.139.139,0,0,0-.184-.015c-.2-.023-.744.285-.6.448.023.038.053.072.078.108a2.646,2.646,0,0,0-.275.161c-.444.123-1.1.566-1.046.7l.006.011a1.506,1.506,0,0,0,.4.487l.056.042.125.087c-.175.11-.323.237-.249.325a1.351,1.351,0,0,0,.112.186q-.539.666-1.071,1.34a10.749,10.749,0,0,1-1.318,2.154,9.228,9.228,0,0,1-1.578,1.951c-.051.051-.1.1-.154.148-.453.335-.927.648-1.42.95l-.213.128c-.112.067-.3.152-.211.315a.156.156,0,0,0,.038.051c-.311.2-.632.4-.963.573l-.031.019c-.125.08-.3.225-.117.344.152.1.556-.173.746-.3a.445.445,0,0,0,.12-.023c-.063.034-.126.07-.189.106l-.1.053c-.074.044-.437.285-.184.387A.52.52,0,0,0,49.6,96c.125-.061.247-.127.368-.194-.042.065-.042.131.063.174a.636.636,0,0,0,.108,0c-.249.159-.5.306-.769.446l-.043.027c-.112.072-.29.21-.16.328.146.131.547-.148.651-.211l.308-.184h0a.226.226,0,0,0,.076.017c-.093.057-.18.118-.275.173l-.129.071c-.162.09-.391.237-.308.384s.329.026.488-.069l.171-.106.023-.013.007.025a.055.055,0,0,0,.006.013c.079.138.278.048.416-.032l.11-.067c.187-.113.373-.225.557-.337l.275-.17h0a17.449,17.449,0,0,0,2.664-1.879,16.226,16.226,0,0,0,1.4-1.4,17.381,17.381,0,0,0,2.174-3.3c.011-.019,0-.068-.03-.121.07-.144.137-.29.2-.44a6.245,6.245,0,0,0,2.047.19,5.462,5.462,0,0,0,1.067-.182,7.875,7.875,0,0,0,3.15-1.285c.059-.038.112-.08.167-.118a7.426,7.426,0,0,0,1.1-.761,18.367,18.367,0,0,0,1.918-1.841q.64-.761,1.208-1.579t1.162-1.617a13.974,13.974,0,0,0,2.039-5.626,11.319,11.319,0,0,0,.184-2.215,9.57,9.57,0,0,0-.173-1.615c.061-.059.123-.118.184-.18.034.059.068.1.089.08l.484-.485a7.805,7.805,0,0,0,.969-1.161,11.265,11.265,0,0,0,1.447-2.912,10.143,10.143,0,0,0,.484-2.395c.021-.136.042-.273.059-.412a11.668,11.668,0,0,0-.156-3.242.172.172,0,0,0-.1-.139c-.012-.086-.027-.174-.041-.263a7.439,7.439,0,0,0,2.324-5.425,5.576,5.576,0,0,0-.431-1.975l-.032-.071h0a4.315,4.315,0,0,0,2.791-2.018q.093-.073.179-.147a9.966,9.966,0,0,0,2.7-4.16,9.735,9.735,0,0,0,.822-2.934c.008-.073.014-.146.02-.218a18.825,18.825,0,0,0,.229-4.864,24.27,24.27,0,0,0,.688-3.05c.076-.494.129-.989.169-1.484l0-.027.006-.089.018-.222c0-.037.005-.073.008-.11a29.389,29.389,0,0,0-2.328-13.176q-.219-.566-.452-1.126l-.165-.39h0c-1.68-2.71-4.2-4.9-6.338-7.215-.737-.8.455-2,1.195-1.2,1.419,1.538,2.942,3.011,4.317,4.591a5.945,5.945,0,0,0,.728.012,5.79,5.79,0,0,0,1.23-.2,6.172,6.172,0,0,0,2.713-1.133,3.43,3.43,0,0,0,2.125-2.733,2.482,2.482,0,0,0,0-.376,3.316,3.316,0,0,0-.247-1.854,3.208,3.208,0,0,0-.173-.482,3.114,3.114,0,0,0-.974-1.23.27.27,0,0,1-.027-.017c-.044-.046-.087-.093-.135-.135a2.376,2.376,0,0,0-.228-.184,11.584,11.584,0,0,0,.763-1.465,6.007,6.007,0,0,0,.429-1.723c.027-.237.038-.471.042-.706.013-.108.021-.218.03-.328A5.766,5.766,0,0,0,86.9,1.034c-.023-.059-.053-.118-.08-.18a5.066,5.066,0,0,0-.2-.528,4.973,4.973,0,0,0-1.3-1.693,5.41,5.41,0,0,0-.989-.786,4.128,4.128,0,0,0-.712-.349,3.878,3.878,0,0,0-1.517-.477c-.057,0-.108,0-.163,0a10.232,10.232,0,0,0-.68-3.633,4.386,4.386,0,0,0-1.327-2.014,3.539,3.539,0,0,0-1.377-.893l-.1-.035L78.4-9.561a3.607,3.607,0,0,0-1.61-.34,3.659,3.659,0,0,0-1.887.389,3.652,3.652,0,0,0-.365.226,6.254,6.254,0,0,0-.308-.549,8.209,8.209,0,0,0-1.47-1.74c-.068-.061-.142-.116-.213-.175a8.594,8.594,0,0,0-.875-.7,7.311,7.311,0,0,0-2.134-1.017,7.128,7.128,0,0,0-2.716-.441l-.191.008h0c-.042,0-.085.006-.125.008a8.95,8.95,0,0,0-2.679.621,8.141,8.141,0,0,0-2.354,1.5,3.868,3.868,0,0,0-.583-.647c-.065-.057-.135-.108-.2-.161s-.1-.1-.158-.148a5.156,5.156,0,0,0-.809-.585,3.641,3.641,0,0,0-1.046-.408A4.475,4.475,0,0,0,57.521-13.944Zm4.341,87.129c-.037,0-1.994.732-2.969,1.207l-.048.024a17.075,17.075,0,0,0-2.675,1.676.287.287,0,0,0-.137.194c0,1.044.253,2.319,1.13,1.754q.19-.123.383-.24l.194-.117.006,0s0,0-.006,0A26.539,26.539,0,0,1,63.8,74.95c.146-.053-.934-1.685-1.232-1.594C62.737,73.288,61.891,73.186,61.862,73.185ZM41.8,27.092q1.9.2,3.81.4,1.214.139,2.432.245a17.283,17.283,0,0,0,3.653-.061,12.119,12.119,0,0,0,1.272-.247c.285.209.581.406.883.594L57.2,30.591h0A61.381,61.381,0,0,1,63.633,36.3a37.363,37.363,0,0,1,8.052,12.529.7.7,0,0,1,.326.514c.313,1.92,1.229,3.671,1.56,5.584a5.949,5.949,0,0,1-1.29,4.978.838.838,0,0,1-1.087.087c-.074.145-.393.139-.505-.5a6.365,6.365,0,0,1-1.28-1.906.7.7,0,0,1,.61-1q-.285-1.027-.646-2.035a28.093,28.093,0,0,0-2.766-5.69,32.086,32.086,0,0,0-3.42-4.316.1.1,0,0,0-.068-.029l-.26-.288h0c-.036-.04-.11-.036-.192-.015-.078-.082-.154-.167-.234-.249a.128.128,0,0,0-.213.008c-.133-.03-.376.114-.45.161-.127.084-.167.18-.059.3.019.021.038.042.057.061a2.126,2.126,0,0,0-.4.224c-.391.086-.94.45-.845.558.2.209.4.423.587.64-.169.119-.279.235-.235.285a25.972,25.972,0,0,1,2.282,2.762,20.357,20.357,0,0,1,1.439,2.272,28.617,28.617,0,0,1,1.659,3.443q.1.27.2.539A26.5,26.5,0,0,1,67.9,61.3l.009.14c.041.748.058,2.749.134,3.227a10.481,10.481,0,0,1-1.458.588c-.1.028-.192.053-.289.076a1.611,1.611,0,0,0-.169-.059,5.935,5.935,0,0,0-1.447-.389,6.256,6.256,0,0,0-1-.05l-.143.006c-.148,0-.294.015-.442.03.008-.085.013-.167.019-.252a.147.147,0,0,0,.076-.116,14,14,0,0,0,.006-2.853c-.063-.5-.137-.991-.218-1.486-.082-.406-.177-.805-.281-1.2a22.6,22.6,0,0,0-1.084-3.282,50.493,50.493,0,0,0-4.9-8.535c-1.329-2-2.586-4.039-3.961-6-1.17-1.672-2.4-3.318-3.712-4.882A49.641,49.641,0,0,0,44.855,31.8c-.241-.222-.484-.438-.731-.651a34.563,34.563,0,0,0-4.555-3.333c-.061-.04-.171,0-.262.08l-.258-.159-.13-.078c-.04-.025-.084.017-.108.053-.11-.057-.22-.112-.329-.167-.08-.065-.163-.126-.243-.19Q40.019,27.266,41.8,27.092ZM26.9,13a8.357,8.357,0,0,1,2.89-.076c.405.059.809.131,1.209.217a7.875,7.875,0,0,0-2.114,2.974c-.513,1.262,1.532,1.806,2.037.562a5.168,5.168,0,0,1,2.524-2.672,7.053,7.053,0,0,1,.7.442,7.692,7.692,0,0,1,.824.774,7.977,7.977,0,0,1,1.415,2.234,8.748,8.748,0,0,1,.289,1.357c.013.106.025.213.036.321a10.517,10.517,0,0,1-1.492,6.2h-.042a19.965,19.965,0,0,0-3-1.317A28,28,0,0,0,29.6,22.478,27.021,27.021,0,0,0,23.686,20.2l-.236-.059q-.724-.185-1.458-.327l-.293-.055h0l.032-.315h0A9.215,9.215,0,0,1,23,15.993a9.04,9.04,0,0,1,1.963-2.276l0,0a7.143,7.143,0,0,1,1.118-.509l.145-.051Zm25.753-1.879a34.062,34.062,0,0,1,5.983-.007q1.955.194,3.887.537a20,20,0,0,1,2.569.624l-.481.973a51.918,51.918,0,0,1-2.6,4.761,22.888,22.888,0,0,1-1.635,2.259,11.284,11.284,0,0,1-1.32,1.433c-.127.154-.262.3-.4.442a7.747,7.747,0,0,1-1.43.979,9.78,9.78,0,0,1-1.3.8l-.17.085-1.584.608-.256.071-.129.033-.241.051-.181-.1-.092-.048c-.051-.027-.087.026-.1.063a.089.089,0,0,0,.013.057l-.231-.125h0a6.6,6.6,0,0,1-1.27.375c-.2.038-.41.068-.615.093l-.028.018-.014.011h-.224a17.514,17.514,0,0,1-4.758-.333c-2.231-.224-4.462-.472-6.692-.7-.042,0-.059.015-.059.045l-.137-.013h0c-.2-.021-.431.311-.281.431a2.046,2.046,0,0,0-.323.256l-.051,0a9.189,9.189,0,0,0,.712-1.881l.215-1.095h0a10.008,10.008,0,0,0,.1-1.272c.015-.2.025-.38.025-.541s0-.3-.008-.456a13.222,13.222,0,0,1,1.282-.455q1.854-.228,3.706-.454c.742.028,1.483.08,2.223.163q1.258.111,2.51.283c.078.008.218-.1.3-.22l.357.049h0c.186.023.38-.349.135-.425-.089-.035-.177-.069-.266-.1l-.133-.047.076.008a.236.236,0,0,0,.093-.017c.2.025.393.05.587.074.246.031.19-.294.018-.371l-.083-.031c.146-.091.275-.34.094-.422l-.024-.009c-.084-.034-.167-.061-.251-.093a.131.131,0,0,0,0-.076l.349.044h0c.032,0-.12-.218-.192-.262l-.013-.006-.167-.051a.653.653,0,0,0-.207-.245c-.613-.193-1.183-.366-1.779-.5a.193.193,0,0,0-.1-.072c-.372-.089-.748-.159-1.124-.218-.025-.038-.051-.065-.08-.068a14.441,14.441,0,0,0-2.8-.082c-.18.017-.359.036-.539.059-.344.038-.689.087-1.031.152a14.086,14.086,0,0,0-2.51.673l-.188.071c-.2.076-.408.156-.608.243a8.524,8.524,0,0,0-.378-1.065c-.023-.068-.049-.133-.076-.2l.2-.123h0c.044.085.135.15.194.114A24.989,24.989,0,0,1,43.786,13.4,23.8,23.8,0,0,1,46.6,12.36c.48-.154.963-.294,1.449-.427.243-.051.486-.1.733-.144A21.1,21.1,0,0,1,52.655,11.124ZM4.272,14.479c.178.308.364.613.561.914a21.439,21.439,0,0,0,3.4,4.031c-.339,0-.676.012-1.01.043a11.824,11.824,0,0,0-1.688.284c-.045-.036-.094-.054-.134-.025l-.143.1h0a11.107,11.107,0,0,0-3.286,1.488l.018-.132c0-.022.006-.044.01-.066-.017-.26-.021-.52-.013-.778A17.345,17.345,0,0,1,3.3,15.989a.13.13,0,0,0-.014-.1A13.9,13.9,0,0,1,4.272,14.479ZM4,2.5a12.487,12.487,0,0,1,1.314.313,10.608,10.608,0,0,1,2.375.645c1.054.374,2.077.809,3.1,1.27A25.489,25.489,0,0,1,16.3,8.121c.108.082.211.167.315.252.378.327.746.67,1.094,1.031.366.4.733.795,1.1,1.194.448.469.963.894,1.369,1.4a2.639,2.639,0,0,1,.22.332l-.239.082h0c-.2.068-.167.444.032.389a1.978,1.978,0,0,0,.194-.067.234.234,0,0,0-.051.1c-.013.1.065.241.19.205a1.414,1.414,0,0,0,.171-.059.789.789,0,0,1,.03.194.17.17,0,0,1-.034.011.883.883,0,0,0-.439.414.162.162,0,0,0,.192.2,1.644,1.644,0,0,0,.273-.106.319.319,0,0,0-.11.172c-.008.1.076.234.192.2a1.467,1.467,0,0,0,.532-.264c.038.05.093.091.137.078l.082-.025h0c-.022.021-.043.043-.063.065l-.03.032a10.328,10.328,0,0,0-1.5,2.078.538.538,0,0,0-.072-.064c-.19-.161-.387-.317-.583-.469l-.059-.052h0l-.061-.052.442.146-.01-.011c-.031-.04-.128-.173-.174-.218l-.011-.01a9.829,9.829,0,0,0-1.982-1.38,8.851,8.851,0,0,0-1.458-.763,29.9,29.9,0,0,0-3.725-1.39c-.19-.061-.38-.127-.57-.186-.055-.019-.065,0-.057.042l-.1-.03h0c-.177-.057-.48.256-.359.4-.073.059-.144.125-.206.187l-.045.046-.051-.015c-.151-.047-.406.189-.567.355l-.119.126c-.091.1-.268.3-.051.376l.273.093h0c-.008.055.015.1.1.133s.188.066.281.1c-.056.049-.112.1-.166.152l-.081.078c-.1.1-.323.313-.122.408l.025.01.26.093c-.034.076-.025.148.089.19a41.547,41.547,0,0,1,4.445,1.807,13.8,13.8,0,0,0,3.435,1.342c.1.032.315-.118.4-.268l.18.053.09.025.03.007h0a9.307,9.307,0,0,0-.486,1.887c-.011.057-.019.117-.025.174-.237-.019-.471-.036-.708-.049a28.985,28.985,0,0,0-4.935.16,19.651,19.651,0,0,1-1.912-1.3c-.186-.144-.37-.292-.551-.442a21.18,21.18,0,0,1-2.951-3.158,20.949,20.949,0,0,1-2.1-3.4A21.751,21.751,0,0,1,4.427,7.683a16.483,16.483,0,0,1-.48-3.312c-.025-.186-.042-.372-.057-.558l0-.08h0l0-.039C3.916,3.3,3.956,2.9,4,2.5ZM19.48,16.653c.049.017.1.034.15.049-.029.066-.057.129-.084.194h0l-.2-.157h0A.7.7,0,0,0,19.48,16.653ZM4.3-.5a1.182,1.182,0,0,0-.862-.08C3.722-.557,4.009-.53,4.3-.5Z" transform="translate(6.338 13.949)"/>
            </g>
            <g id="face_Smiling" data-name="face/Smiling" transform="translate(46.478 64.251)">
              <path id="_-Ink-3" data-name="ðŸ–-Ink" class="cls-2" d="M30.32,50.92a8.6,8.6,0,0,0,3.614-2.781,1.669,1.669,0,0,0,.338-1.3,1.872,1.872,0,0,0-.728-1.172,1.742,1.742,0,0,0-1.305-.353,1.635,1.635,0,0,0-1.1.73l-.065.09a5.694,5.694,0,0,1-2.086,1.751,4.7,4.7,0,0,1-2.582.454,6.93,6.93,0,0,1-4.208-2.413c-.158-.161-.316-.327-.474-.5a.746.746,0,0,0-.394-.3.846.846,0,0,0-.543.008.862.862,0,0,0-.427.324.791.791,0,0,0-.135.524,5.429,5.429,0,0,0,1.79,3.431,7.677,7.677,0,0,0,8.309,1.5ZM25.2,30.512c-1.6.97-4.026,3.232-2.31,5.637,2.02,2.12,4.929-.311,6.362-1.41,1.329-.852,2.822,1.34,1.589,2.335-10.357,7.671-14.56-6.308-6.448-7.7C25.288,29.218,25.62,30.212,25.2,30.512Zm18.56-8.923c-.176-2.189-3.508-2.686-3.84-.52a8.869,8.869,0,0,0,.926,5.469,1.629,1.629,0,0,0,3.091-.629A17.643,17.643,0,0,0,43.762,21.589ZM18.4,20.62a1.777,1.777,0,0,0-1.939-.789c-2.511.734-1.771,4.3-.889,6.036a1.747,1.747,0,0,0,2.728.352c1.141-1.353,1.687-4.056.237-5.39A1.835,1.835,0,0,0,18.4,20.62Zm22.487-8.609-.4-.069c-1.227-.212-2.753-.416-3.621.571a1.434,1.434,0,0,0,0,2c1.088.881,2.292.54,3.6.614a14.3,14.3,0,0,1,3.143.536A21.359,21.359,0,0,1,49.668,18.8c.255.171.515-.155.393-.393a12.526,12.526,0,0,0-5.464-5.1A13.514,13.514,0,0,0,40.883,12.011Zm-20.2-.983-.3.062c-3.3.691-7.6,2.071-9.16,5.317-.06.459,0,.557.055.622l.017.021a.427.427,0,0,0,.275.193l.167-.042a9.485,9.485,0,0,0,1.834-.716l.6-.293a16.4,16.4,0,0,1,2.127-.907,25.034,25.034,0,0,1,4.845-1.07,1.987,1.987,0,0,0,.972-.369,1.461,1.461,0,0,0,.544-.828,1.485,1.485,0,0,0-.168-1.241,1.573,1.573,0,0,0-.767-.661A1.8,1.8,0,0,0,20.685,11.028Z" transform="translate(-11.197 -10.99)"/>
            </g>
            <circle id="Ellipse_1" data-name="Ellipse 1" class="cls-3" cx="2.5" cy="2.5" r="2.5" transform="translate(293.989 170)"/>
          </g>
        </g>
      </g>
    </g>
  </g>
</svg>
